M48
; DRILL file {KiCad (6.0.10)} date Mon May 22 09:53:45 2023
; FORMAT={-:-/ absolute / inch / decimal}
; #@! TF.CreationDate,2023-05-22T09:53:45-05:00
; #@! TF.GenerationSoftware,Kicad,Pcbnew,(6.0.10)
; #@! TF.FileFunction,Plated,1,2,PTH
FMAT,2
INCH
; #@! TA.AperFunction,Plated,PTH,ViaDrill
T1C0.0157
; #@! TA.AperFunction,Plated,PTH,ComponentDrill
T2C0.0236
; #@! TA.AperFunction,Plated,PTH,ComponentDrill
T3C0.0354
; #@! TA.AperFunction,Plated,PTH,ComponentDrill
T4C0.0394
; #@! TA.AperFunction,Plated,PTH,ComponentDrill
T5C0.0591
; #@! TA.AperFunction,Plated,PTH,ComponentDrill
T6C0.0866
%
G90
G05
T1
X1.2008Y-3.2087
X1.25Y-2.8438
X1.2812Y-4.9375
X1.3438Y-3.5938
X1.3438Y-4.625
X1.375Y-2.6562
X1.4173Y-2.9626
X1.4219Y-3.4062
X1.4355Y-1.8794
X1.4355Y-2.155
X1.4355Y-2.3755
X1.5025Y-2.2062
X1.5312Y-4.3438
X1.6166Y-4.1078
X1.6634Y-1.8307
X1.6658Y-2.4247
X1.6913Y-2.749
X1.7908Y-2.7805
X1.8002Y-2.5637
X1.8883Y-2.5684
X1.939Y-2.9134
X1.9513Y-3.2968
X1.9867Y-3.3243
X2.0Y-2.8438
X2.0Y-3.0148
X2.0091Y-2.5659
X2.0781Y-2.6562
X2.1088Y-2.3066
X2.1127Y-4.7574
X2.125Y-4.9375
X2.1406Y-3.3906
X2.1719Y-2.0156
X2.1875Y-3.2031
X2.1875Y-3.5938
X2.1875Y-4.7968
X2.2269Y-4.5369
X2.2544Y-2.1511
X2.2715Y-4.5157
X2.2762Y-2.4062
X2.3175Y-2.4062
X2.375Y-2.1719
X2.4062Y-2.0156
X2.5312Y-2.1094
X2.5625Y-4.3438
X2.5867Y-1.9409
X2.6009Y-3.2121
X2.6599Y-2.9464
X2.6993Y-2.9168
X2.75Y-2.8438
X2.75Y-3.0374
X2.7544Y-1.9188
X2.8076Y-2.3952
X2.8076Y-4.1964
X2.8084Y-2.4756
X2.8568Y-2.3558
X2.8666Y-3.8617
X2.875Y-2.6562
X2.9121Y-2.4762
X2.9257Y-3.842
X2.9274Y-2.5704
X2.9375Y-3.5938
X2.9688Y-4.9375
X3.0087Y-2.2257
X3.0156Y-3.4062
X3.0185Y-2.1514
X3.0572Y-2.2252
X3.3125Y-4.3438
X3.408Y-2.2416
X3.4158Y-2.3716
X3.5Y-2.8438
X3.5Y-3.0581
X3.5221Y-4.1905
X3.625Y-2.6562
X3.6442Y-2.2416
X3.6875Y-3.2031
X3.6875Y-3.5938
X3.6875Y-4.7969
X3.7307Y-2.4767
X3.7623Y-4.6314
X3.7656Y-3.4062
X3.8284Y-2.4772
X3.8438Y-3.2188
X3.8503Y-2.57
X4.0625Y-4.3438
X4.156Y-2.2416
X4.197Y-2.4581
X4.25Y-2.8438
X4.25Y-3.0768
X4.2969Y-2.4162
X4.3095Y-4.1905
X4.375Y-2.6562
X4.3962Y-2.2416
X4.4375Y-3.4062
X4.4375Y-3.5938
X4.4688Y-4.9375
X4.6464Y-2.3691
X4.6732Y-2.2779
X4.7519Y-2.3622
X4.8125Y-4.3438
X4.8196Y-2.4242
X4.908Y-2.2416
X5.0Y-2.8438
X5.0004Y-3.1665
X5.0182Y-4.1747
X5.0781Y-2.6562
X5.125Y-4.7812
X5.1406Y-3.3906
X5.1442Y-2.2416
X5.1875Y-3.2031
X5.1875Y-3.5938
X5.1959Y-4.6156
X5.2656Y-3.4062
X5.2763Y-2.2982
X5.4653Y-2.9754
X5.5625Y-4.3438
X5.625Y-2.5312
X5.6318Y-2.5991
X5.6543Y-2.9596
X5.7004Y-2.5562
X5.75Y-2.6562
X5.75Y-2.8438
X5.7977Y-4.1826
X5.8253Y-2.6156
X5.9375Y-3.5938
X6.0156Y-3.4062
X6.3125Y-4.3438
X6.4813Y-4.925
X6.5Y-2.6562
X6.5Y-2.8438
X6.5773Y-4.2259
X6.6875Y-3.2031
X6.6875Y-3.5938
X6.6875Y-4.7969
X6.7584Y-4.6314
X6.7656Y-3.4062
X6.7719Y-3.1942
X6.9021Y-4.2948
X7.0625Y-4.3438
X7.25Y-2.6562
X7.25Y-2.8438
X7.3017Y-4.1747
X7.4375Y-3.5938
X7.5156Y-3.4062
X7.8125Y-4.3438
X8.0Y-2.6562
X8.0Y-2.8438
X8.0261Y-4.1747
X8.1875Y-3.2031
X8.1875Y-3.5938
X8.25Y-4.7969
X8.2656Y-3.4062
X8.3125Y-4.9375
X8.3248Y-4.6314
X8.3438Y-3.2188
X8.5625Y-4.3438
X8.6363Y-2.6235
X8.719Y-3.1156
X8.75Y-2.6562
X8.75Y-2.8438
X8.8056Y-3.2692
X8.8214Y-4.2298
X8.9375Y-3.5938
X9.0156Y-3.3794
X9.0261Y-3.7023
X9.0625Y-3.125
X9.0759Y-2.9844
X9.1562Y-4.9375
X9.1599Y-3.1865
X9.1875Y-3.0625
X9.1875Y-3.125
X9.1914Y-3.4503
X9.2598Y-3.8425
X9.2656Y-3.1094
X9.2938Y-3.5172
X9.3125Y-4.3438
X9.3281Y-2.7969
X9.3647Y-3.5527
X9.375Y-2.9375
X9.3922Y-4.0487
X9.3987Y-3.8674
X9.4195Y-2.8236
X9.4375Y-2.9844
X9.4749Y-4.4267
X9.4803Y-4.0472
X9.4961Y-4.1102
X9.5182Y-3.6393
X9.5221Y-3.4975
X9.5458Y-3.3716
X9.5472Y-2.8447
X9.5474Y-2.9831
X9.5528Y-3.2399
X9.5654Y-3.0225
X9.5733Y-3.6196
X9.6142Y-4.0787
X9.6403Y-3.7653
X9.6403Y-3.8125
X9.6403Y-3.8597
X9.6481Y-3.3164
X9.6662Y-3.4952
X9.6722Y-2.8239
X9.6768Y-3.4354
X9.6875Y-3.2031
X9.6875Y-3.7653
X9.6875Y-3.8597
X9.6875Y-4.7969
X9.717Y-4.4031
X9.7188Y-2.9375
X9.719Y-3.3243
X9.719Y-3.7219
X9.7347Y-3.7653
X9.7347Y-3.8125
X9.7347Y-3.8597
X9.7505Y-3.1826
X9.7559Y-4.0645
X9.7584Y-4.6314
X9.7812Y-2.8438
X9.7859Y-2.9464
X9.8346Y-3.9449
X9.8371Y-3.6314
X9.8449Y-3.0711
X9.8594Y-2.6562
X9.8745Y-4.3735
X9.8844Y-3.6078
X9.9395Y-2.8991
X9.9441Y-3.298
X9.9473Y-3.3558
X9.9631Y-4.1275
X9.971Y-3.6786
X9.9731Y-3.8495
X10.0Y-4.9375
X10.0103Y-3.7101
X10.0486Y-3.3515
X10.0625Y-4.3438
X10.0635Y-3.0231
X10.0733Y-3.1275
X10.0733Y-3.7101
X10.0733Y-4.1117
X10.1009Y-3.9897
X10.1442Y-3.1668
X10.1442Y-3.4739
X10.1757Y-4.0802
X10.1853Y-3.8511
X10.1993Y-3.7259
X10.2387Y-4.8282
X10.3017Y-3.8676
X10.3017Y-3.9306
X10.3095Y-4.1983
X10.3332Y-3.8991
X10.3568Y-3.1038
X10.3719Y-3.7762
X10.3725Y-3.8204
X10.3725Y-3.8676
X10.3962Y-3.2013
X10.4198Y-3.529
X10.4882Y-3.8307
X10.5143Y-3.1196
X10.6009Y-4.3243
X10.6009Y-5.2298
X10.6521Y-4.2889
T3
X1.2637Y-1.8737
X1.2637Y-2.0912
X1.2637Y-2.3087
X1.3638Y-1.8737
X1.3638Y-2.0912
X1.3638Y-2.3087
T4
X1.4328Y-2.5994
X1.4328Y-3.1703
X1.5312Y-3.1703
X1.6038Y-1.9523
X1.6297Y-2.5994
X1.6297Y-3.1703
X1.7038Y-1.9523
X1.8038Y-1.9523
X1.8078Y-1.8297
X1.8078Y-2.4006
X1.9038Y-1.9523
X1.9062Y-1.8297
X2.0038Y-1.9523
X2.0047Y-1.8297
X2.0047Y-2.4006
X2.0541Y-3.0709
X2.1541Y-3.0709
X2.2541Y-3.0709
X2.3541Y-3.0709
X2.4541Y-3.0709
X3.5969Y-2.3438
X3.6969Y-2.3438
X3.7969Y-2.3438
X3.8969Y-2.3438
X3.9969Y-2.3438
X4.0969Y-2.3438
X4.1969Y-2.3438
X4.2969Y-2.3438
X4.3969Y-2.3438
X4.8501Y-3.0487
X4.9501Y-3.0487
X5.0501Y-3.0487
X5.1501Y-3.0487
X5.2501Y-3.0487
X5.3501Y-3.0487
X5.4501Y-3.0487
X5.5501Y-3.0487
X5.5578Y-1.8494
X5.5578Y-2.4203
X5.6501Y-3.0487
X5.6562Y-2.4203
X5.7547Y-1.8494
X5.7547Y-2.4203
X9.1875Y-4.1807
X9.1875Y-4.2807
X9.1875Y-4.3807
X10.5497Y-3.2771
X10.5497Y-3.3771
X10.5497Y-3.4771
X10.5497Y-3.5771
X10.5497Y-4.595
X10.5497Y-4.695
X10.5497Y-4.795
T6
X2.3269Y-4.6191
X2.3899Y-3.25
X3.7812Y-2.1875
X4.1753Y-5.0699
X5.3899Y-3.25
X6.5966Y-4.0
X9.447Y-3.1663
T2
G00X2.1087Y-1.7437
M15
G01X2.1087Y-1.7673
M16
G05
G00X2.1087Y-1.8984
M15
G01X2.1087Y-1.9418
M16
G05
G00X2.4488Y-1.7437
M15
G01X2.4488Y-1.7673
M16
G05
G00X2.4488Y-1.8984
M15
G01X2.4488Y-1.9418
M16
G05
G00X9.3768Y-2.4937
M15
G01X9.3768Y-2.5173
M16
G05
G00X9.3768Y-2.6484
M15
G01X9.3768Y-2.6918
M16
G05
G00X9.717Y-2.4937
M15
G01X9.717Y-2.5173
M16
G05
G00X9.717Y-2.6484
M15
G01X9.717Y-2.6918
M16
G05
T5
G00X1.3108Y-2.9006
M15
G01X1.3108Y-2.8494
M16
G05
G00X1.6858Y-2.0994
M15
G01X1.6858Y-2.1506
M16
G05
G00X1.7517Y-2.9006
M15
G01X1.7517Y-2.8494
M16
G05
G00X2.1267Y-2.0994
M15
G01X2.1267Y-2.1506
M16
G05
G00X5.4358Y-2.1506
M15
G01X5.4358Y-2.0994
M16
G05
G00X5.8767Y-2.1506
M15
G01X5.8767Y-2.0994
M16
G05
T0
M30
