%TF.GenerationSoftware,KiCad,Pcbnew,(6.0.10)*%
%TF.CreationDate,2023-05-22T09:53:43-05:00*%
%TF.ProjectId,Monorail_Steam_Reduced,4d6f6e6f-7261-4696-9c5f-537465616d5f,rev?*%
%TF.SameCoordinates,Original*%
%TF.FileFunction,Soldermask,Bot*%
%TF.FilePolarity,Negative*%
%FSLAX46Y46*%
G04 Gerber Fmt 4.6, Leading zero omitted, Abs format (unit mm)*
G04 Created by KiCad (PCBNEW (6.0.10)) date 2023-05-22 09:53:43*
%MOMM*%
%LPD*%
G01*
G04 APERTURE LIST*
G04 Aperture macros list*
%AMRoundRect*
0 Rectangle with rounded corners*
0 $1 Rounding radius*
0 $2 $3 $4 $5 $6 $7 $8 $9 X,Y pos of 4 corners*
0 Add a 4 corners polygon primitive as box body*
4,1,4,$2,$3,$4,$5,$6,$7,$8,$9,$2,$3,0*
0 Add four circle primitives for the rounded corners*
1,1,$1+$1,$2,$3*
1,1,$1+$1,$4,$5*
1,1,$1+$1,$6,$7*
1,1,$1+$1,$8,$9*
0 Add four rect primitives between the rounded corners*
20,1,$1+$1,$2,$3,$4,$5,0*
20,1,$1+$1,$4,$5,$6,$7,0*
20,1,$1+$1,$6,$7,$8,$9,0*
20,1,$1+$1,$8,$9,$2,$3,0*%
G04 Aperture macros list end*
%ADD10C,0.500000*%
%ADD11C,1.750000*%
%ADD12C,3.987800*%
%ADD13C,3.000000*%
%ADD14R,2.550000X2.500000*%
%ADD15C,0.787400*%
%ADD16C,3.048000*%
%ADD17R,1.700000X1.700000*%
%ADD18O,1.700000X1.700000*%
%ADD19R,1.800000X1.800000*%
%ADD20C,1.800000*%
%ADD21C,4.400000*%
%ADD22C,2.000000*%
%ADD23RoundRect,1.000000X0.000000X-0.650000X0.000000X0.650000X0.000000X0.650000X0.000000X-0.650000X0*%
%ADD24RoundRect,0.250000X0.625000X-0.375000X0.625000X0.375000X-0.625000X0.375000X-0.625000X-0.375000X0*%
%ADD25C,0.650000*%
%ADD26R,0.600000X1.450000*%
%ADD27R,0.300000X1.450000*%
%ADD28O,1.000000X2.100000*%
%ADD29O,1.000000X1.600000*%
%ADD30RoundRect,0.200000X0.275000X-0.200000X0.275000X0.200000X-0.275000X0.200000X-0.275000X-0.200000X0*%
%ADD31RoundRect,0.135000X0.185000X-0.135000X0.185000X0.135000X-0.185000X0.135000X-0.185000X-0.135000X0*%
%ADD32RoundRect,0.150000X0.512500X0.150000X-0.512500X0.150000X-0.512500X-0.150000X0.512500X-0.150000X0*%
%ADD33R,1.200000X0.900000*%
%ADD34RoundRect,0.225000X-0.250000X0.225000X-0.250000X-0.225000X0.250000X-0.225000X0.250000X0.225000X0*%
%ADD35RoundRect,0.135000X-0.135000X-0.185000X0.135000X-0.185000X0.135000X0.185000X-0.135000X0.185000X0*%
%ADD36R,0.700000X0.700000*%
%ADD37RoundRect,0.140000X0.170000X-0.140000X0.170000X0.140000X-0.170000X0.140000X-0.170000X-0.140000X0*%
%ADD38RoundRect,0.225000X0.225000X0.250000X-0.225000X0.250000X-0.225000X-0.250000X0.225000X-0.250000X0*%
%ADD39RoundRect,0.200000X-0.275000X0.200000X-0.275000X-0.200000X0.275000X-0.200000X0.275000X0.200000X0*%
%ADD40RoundRect,0.140000X0.140000X0.170000X-0.140000X0.170000X-0.140000X-0.170000X0.140000X-0.170000X0*%
%ADD41RoundRect,0.140000X-0.140000X-0.170000X0.140000X-0.170000X0.140000X0.170000X-0.140000X0.170000X0*%
%ADD42R,1.000000X1.700000*%
%ADD43RoundRect,0.006000X0.414000X0.094000X-0.414000X0.094000X-0.414000X-0.094000X0.414000X-0.094000X0*%
%ADD44RoundRect,0.020000X0.080000X0.400000X-0.080000X0.400000X-0.080000X-0.400000X0.080000X-0.400000X0*%
%ADD45R,3.100000X3.100000*%
%ADD46RoundRect,0.225000X-0.225000X-0.250000X0.225000X-0.250000X0.225000X0.250000X-0.225000X0.250000X0*%
%ADD47RoundRect,0.225000X0.250000X-0.225000X0.250000X0.225000X-0.250000X0.225000X-0.250000X-0.225000X0*%
%ADD48RoundRect,0.140000X-0.170000X0.140000X-0.170000X-0.140000X0.170000X-0.140000X0.170000X0.140000X0*%
%ADD49RoundRect,0.150000X0.650000X0.150000X-0.650000X0.150000X-0.650000X-0.150000X0.650000X-0.150000X0*%
%ADD50RoundRect,0.150000X0.625000X-0.150000X0.625000X0.150000X-0.625000X0.150000X-0.625000X-0.150000X0*%
%ADD51RoundRect,0.250000X0.650000X-0.350000X0.650000X0.350000X-0.650000X0.350000X-0.650000X-0.350000X0*%
%ADD52RoundRect,1.000000X0.000000X0.650000X0.000000X-0.650000X0.000000X-0.650000X0.000000X0.650000X0*%
%ADD53R,1.000000X1.500000*%
%ADD54RoundRect,0.150000X-0.587500X-0.150000X0.587500X-0.150000X0.587500X0.150000X-0.587500X0.150000X0*%
%ADD55R,1.200000X1.400000*%
%ADD56RoundRect,0.135000X0.135000X0.185000X-0.135000X0.185000X-0.135000X-0.185000X0.135000X-0.185000X0*%
G04 APERTURE END LIST*
D10*
X180784375Y-79775000D02*
G75*
G03*
X180784375Y-79775000I-3175000J0D01*
G01*
X165100000Y-76624184D02*
X167481250Y-76624184D01*
X148431250Y-81386684D02*
X148431250Y-76624184D01*
X145256250Y-81386684D02*
X148431250Y-81386684D01*
X196262500Y-82950000D02*
X197850000Y-76600000D01*
X201025000Y-82950000D02*
X198643750Y-79775000D01*
X187134375Y-76600000D02*
X183959375Y-79775000D01*
X204200000Y-82950000D02*
X201818750Y-79775000D01*
X200231250Y-79775000D02*
X201025000Y-76600000D01*
X151606250Y-82974184D02*
X153193750Y-76624184D01*
X187134375Y-82950000D02*
X187134375Y-76600000D01*
X164306250Y-82974184D02*
X165893750Y-81386684D01*
X150018750Y-82974184D02*
X145256250Y-82974184D01*
X179196875Y-79775000D02*
G75*
G03*
X179196875Y-79775000I-1587500J0D01*
G01*
X165893750Y-82974184D02*
X165893750Y-81386684D01*
X201025000Y-82950000D02*
X201818750Y-79775000D01*
X165893750Y-78211684D02*
X165100000Y-78211684D01*
X182371875Y-82950000D02*
X185546875Y-79775000D01*
X182371875Y-82950000D02*
X182371875Y-76600000D01*
X205787500Y-82950000D02*
X201025000Y-76600000D01*
X197850000Y-82950000D02*
X198643750Y-79775000D01*
X165893750Y-79799184D02*
X165893750Y-78211684D01*
X156368750Y-82974184D02*
X157956250Y-79799184D01*
X185546875Y-79775000D02*
X185546875Y-82950000D01*
X195071875Y-79775000D02*
G75*
G03*
X195071875Y-79775000I-3175000J0D01*
G01*
X157956250Y-79799184D02*
X159543750Y-82974184D01*
X200231250Y-79775000D02*
X197850000Y-76600000D01*
X165100000Y-76624118D02*
G75*
G03*
X164346983Y-81264486I0J-2381282D01*
G01*
X183959375Y-79775000D02*
X183959375Y-76600000D01*
X162718750Y-82974184D02*
X164306250Y-81386684D01*
X153193750Y-82974184D02*
X154781250Y-76624184D01*
X165100000Y-78211616D02*
G75*
G03*
X165100000Y-79799184I0J-793784D01*
G01*
X150018750Y-82974184D02*
X150018750Y-76624184D01*
X193484375Y-79775000D02*
G75*
G03*
X193484375Y-79775000I-1587500J0D01*
G01*
X157956250Y-76624184D02*
X154781250Y-82974184D01*
X165893750Y-79799184D02*
X165100000Y-79799184D01*
X161131250Y-82974184D02*
X157956250Y-76624184D01*
X167481250Y-82974184D02*
X167481250Y-76624184D01*
D11*
%TO.C,MX18*%
X33813750Y-73025000D03*
D12*
X38893750Y-73025000D03*
D13*
X41433750Y-67945000D03*
D11*
X43973750Y-73025000D03*
D13*
X35083750Y-70485000D03*
D14*
X31808750Y-70485000D03*
X44735750Y-67945000D03*
%TD*%
D13*
%TO.C,MX17*%
X60483750Y-67945000D03*
D12*
X57943750Y-73025000D03*
D11*
X63023750Y-73025000D03*
D13*
X54133750Y-70485000D03*
D11*
X52863750Y-73025000D03*
D14*
X50858750Y-70485000D03*
X63785750Y-67945000D03*
%TD*%
D13*
%TO.C,MX16*%
X73183750Y-70485000D03*
D11*
X71913750Y-73025000D03*
D12*
X76993750Y-73025000D03*
D13*
X79533750Y-67945000D03*
D11*
X82073750Y-73025000D03*
D14*
X69908750Y-70485000D03*
X82835750Y-67945000D03*
%TD*%
D11*
%TO.C,MX15*%
X90963750Y-73025000D03*
D12*
X96043750Y-73025000D03*
D13*
X92233750Y-70485000D03*
D11*
X101123750Y-73025000D03*
D13*
X98583750Y-67945000D03*
D14*
X88958750Y-70485000D03*
X101885750Y-67945000D03*
%TD*%
D13*
%TO.C,MX14*%
X117633750Y-67945000D03*
D11*
X110013750Y-73025000D03*
D12*
X115093750Y-73025000D03*
D11*
X120173750Y-73025000D03*
D13*
X111283750Y-70485000D03*
D14*
X108008750Y-70485000D03*
X120935750Y-67945000D03*
%TD*%
D12*
%TO.C,MX13*%
X134143750Y-73025000D03*
D13*
X130333750Y-70485000D03*
D11*
X129063750Y-73025000D03*
D13*
X136683750Y-67945000D03*
D11*
X139223750Y-73025000D03*
D14*
X127058750Y-70485000D03*
X139985750Y-67945000D03*
%TD*%
D11*
%TO.C,MX12*%
X148113750Y-73025000D03*
D12*
X153193750Y-73025000D03*
D13*
X149383750Y-70485000D03*
D11*
X158273750Y-73025000D03*
D13*
X155733750Y-67945000D03*
D14*
X146108750Y-70485000D03*
X159035750Y-67945000D03*
%TD*%
D12*
%TO.C,MX11*%
X172243750Y-73025000D03*
D13*
X168433750Y-70485000D03*
X174783750Y-67945000D03*
D11*
X177323750Y-73025000D03*
X167163750Y-73025000D03*
D14*
X165158750Y-70485000D03*
X178085750Y-67945000D03*
%TD*%
D13*
%TO.C,MX10*%
X187483750Y-70485000D03*
X193833750Y-67945000D03*
D11*
X196373750Y-73025000D03*
X186213750Y-73025000D03*
D12*
X191293750Y-73025000D03*
D14*
X184208750Y-70485000D03*
X197135750Y-67945000D03*
%TD*%
D12*
%TO.C,MX9*%
X210343750Y-73025000D03*
D11*
X205263750Y-73025000D03*
D13*
X206533750Y-70485000D03*
D11*
X215423750Y-73025000D03*
D13*
X212883750Y-67945000D03*
D14*
X203258750Y-70485000D03*
X216185750Y-67945000D03*
%TD*%
D13*
%TO.C,MX8*%
X225583750Y-70485000D03*
X231933750Y-67945000D03*
D12*
X229393750Y-73025000D03*
D11*
X234473750Y-73025000D03*
X224313750Y-73025000D03*
D14*
X222308750Y-70485000D03*
X235235750Y-67945000D03*
%TD*%
D13*
%TO.C,MX7*%
X251777500Y-70485000D03*
X258127500Y-67945000D03*
D11*
X250507500Y-73025000D03*
X260667500Y-73025000D03*
D12*
X255587500Y-73025000D03*
D14*
X248502500Y-70485000D03*
X261429500Y-67945000D03*
%TD*%
D13*
%TO.C,MX30*%
X43815000Y-86995000D03*
D11*
X36195000Y-92075000D03*
D12*
X41275000Y-92075000D03*
D11*
X46355000Y-92075000D03*
D13*
X37465000Y-89535000D03*
D14*
X34190000Y-89535000D03*
X47117000Y-86995000D03*
%TD*%
D12*
%TO.C,MX29*%
X62706250Y-92075000D03*
D13*
X58896250Y-89535000D03*
D11*
X57626250Y-92075000D03*
X67786250Y-92075000D03*
D13*
X65246250Y-86995000D03*
D14*
X55621250Y-89535000D03*
X68548250Y-86995000D03*
%TD*%
D11*
%TO.C,MX28*%
X76676250Y-92075000D03*
D12*
X81756250Y-92075000D03*
D13*
X84296250Y-86995000D03*
X77946250Y-89535000D03*
D11*
X86836250Y-92075000D03*
D14*
X74671250Y-89535000D03*
X87598250Y-86995000D03*
%TD*%
D11*
%TO.C,MX27*%
X95726250Y-92075000D03*
D13*
X103346250Y-86995000D03*
D12*
X100806250Y-92075000D03*
D11*
X105886250Y-92075000D03*
D13*
X96996250Y-89535000D03*
D14*
X93721250Y-89535000D03*
X106648250Y-86995000D03*
%TD*%
D12*
%TO.C,MX26*%
X119856250Y-92075000D03*
D11*
X114776250Y-92075000D03*
X124936250Y-92075000D03*
D13*
X116046250Y-89535000D03*
X122396250Y-86995000D03*
D14*
X112771250Y-89535000D03*
X125698250Y-86995000D03*
%TD*%
D13*
%TO.C,MX25*%
X135096250Y-89535000D03*
X141446250Y-86995000D03*
D11*
X143986250Y-92075000D03*
D12*
X138906250Y-92075000D03*
D11*
X133826250Y-92075000D03*
D14*
X131821250Y-89535000D03*
X144748250Y-86995000D03*
%TD*%
D11*
%TO.C,MX24*%
X163036250Y-92075000D03*
X152876250Y-92075000D03*
D13*
X160496250Y-86995000D03*
D12*
X157956250Y-92075000D03*
D13*
X154146250Y-89535000D03*
D14*
X150871250Y-89535000D03*
X163798250Y-86995000D03*
%TD*%
D13*
%TO.C,MX19*%
X179546250Y-86995000D03*
D11*
X182086250Y-92075000D03*
D12*
X177006250Y-92075000D03*
D11*
X171926250Y-92075000D03*
D13*
X173196250Y-89535000D03*
D14*
X169921250Y-89535000D03*
X182848250Y-86995000D03*
%TD*%
D12*
%TO.C,MX23*%
X196056250Y-92075000D03*
D13*
X198596250Y-86995000D03*
D11*
X201136250Y-92075000D03*
D13*
X192246250Y-89535000D03*
D11*
X190976250Y-92075000D03*
D14*
X188971250Y-89535000D03*
X201898250Y-86995000D03*
%TD*%
D12*
%TO.C,MX22*%
X215106250Y-92075000D03*
D11*
X220186250Y-92075000D03*
D13*
X217646250Y-86995000D03*
D11*
X210026250Y-92075000D03*
D13*
X211296250Y-89535000D03*
D14*
X208021250Y-89535000D03*
X220948250Y-86995000D03*
%TD*%
D13*
%TO.C,MX21*%
X236696250Y-86995000D03*
D11*
X239236250Y-92075000D03*
X229076250Y-92075000D03*
D12*
X234156250Y-92075000D03*
D13*
X230346250Y-89535000D03*
D14*
X227071250Y-89535000D03*
X239998250Y-86995000D03*
%TD*%
D11*
%TO.C,MX20*%
X252888750Y-92075000D03*
D12*
X257968750Y-92075000D03*
D13*
X254158750Y-89535000D03*
D11*
X263048750Y-92075000D03*
D13*
X260508750Y-86995000D03*
D14*
X250883750Y-89535000D03*
X263810750Y-86995000D03*
%TD*%
D11*
%TO.C,MX42*%
X40957500Y-111125000D03*
D13*
X42227500Y-108585000D03*
D12*
X46037500Y-111125000D03*
D13*
X48577500Y-106045000D03*
D11*
X51117500Y-111125000D03*
D14*
X38952500Y-108585000D03*
X51879500Y-106045000D03*
%TD*%
D12*
%TO.C,MX41*%
X72231250Y-111125000D03*
D11*
X77311250Y-111125000D03*
D13*
X74771250Y-106045000D03*
X68421250Y-108585000D03*
D11*
X67151250Y-111125000D03*
D14*
X65146250Y-108585000D03*
X78073250Y-106045000D03*
%TD*%
D11*
%TO.C,MX40*%
X86201250Y-111125000D03*
D13*
X87471250Y-108585000D03*
D11*
X96361250Y-111125000D03*
D13*
X93821250Y-106045000D03*
D12*
X91281250Y-111125000D03*
D14*
X84196250Y-108585000D03*
X97123250Y-106045000D03*
%TD*%
D11*
%TO.C,MX39*%
X115411250Y-111125000D03*
D13*
X106521250Y-108585000D03*
D11*
X105251250Y-111125000D03*
D13*
X112871250Y-106045000D03*
D12*
X110331250Y-111125000D03*
D14*
X103246250Y-108585000D03*
X116173250Y-106045000D03*
%TD*%
D11*
%TO.C,MX38*%
X134461250Y-111125000D03*
X124301250Y-111125000D03*
D12*
X129381250Y-111125000D03*
D13*
X131921250Y-106045000D03*
X125571250Y-108585000D03*
D14*
X122296250Y-108585000D03*
X135223250Y-106045000D03*
%TD*%
D11*
%TO.C,MX37*%
X143351250Y-111125000D03*
D13*
X150971250Y-106045000D03*
X144621250Y-108585000D03*
D12*
X148431250Y-111125000D03*
D11*
X153511250Y-111125000D03*
D14*
X141346250Y-108585000D03*
X154273250Y-106045000D03*
%TD*%
D13*
%TO.C,MX36*%
X163671250Y-108585000D03*
D11*
X162401250Y-111125000D03*
D12*
X167481250Y-111125000D03*
D11*
X172561250Y-111125000D03*
D13*
X170021250Y-106045000D03*
D14*
X160396250Y-108585000D03*
X173323250Y-106045000D03*
%TD*%
D11*
%TO.C,MX35*%
X181451250Y-111125000D03*
X191611250Y-111125000D03*
D13*
X189071250Y-106045000D03*
X182721250Y-108585000D03*
D12*
X186531250Y-111125000D03*
D14*
X179446250Y-108585000D03*
X192373250Y-106045000D03*
%TD*%
D11*
%TO.C,MX34*%
X210661250Y-111125000D03*
D13*
X201771250Y-108585000D03*
X208121250Y-106045000D03*
D12*
X205581250Y-111125000D03*
D11*
X200501250Y-111125000D03*
D14*
X198496250Y-108585000D03*
X211423250Y-106045000D03*
%TD*%
D13*
%TO.C,MX33*%
X227171250Y-106045000D03*
D12*
X224631250Y-111125000D03*
D11*
X229711250Y-111125000D03*
X219551250Y-111125000D03*
D13*
X220821250Y-108585000D03*
D14*
X217546250Y-108585000D03*
X230473250Y-106045000D03*
%TD*%
D11*
%TO.C,MX32*%
X238601250Y-111125000D03*
D12*
X243681250Y-111125000D03*
D11*
X248761250Y-111125000D03*
D13*
X246221250Y-106045000D03*
X239871250Y-108585000D03*
D14*
X236596250Y-108585000D03*
X249523250Y-106045000D03*
%TD*%
D11*
%TO.C,MX31*%
X267811250Y-111125000D03*
D13*
X265271250Y-106045000D03*
X258921250Y-108585000D03*
D12*
X262731250Y-111125000D03*
D11*
X257651250Y-111125000D03*
D14*
X255646250Y-108585000D03*
X268573250Y-106045000D03*
%TD*%
D11*
%TO.C,MX5*%
X72548750Y-53975000D03*
D13*
X71278750Y-56515000D03*
D12*
X67468750Y-53975000D03*
D13*
X64928750Y-59055000D03*
D11*
X62388750Y-53975000D03*
D14*
X74553750Y-56515000D03*
X61626750Y-59055000D03*
%TD*%
D12*
%TO.C,MX4*%
X86518750Y-53975000D03*
D11*
X91598750Y-53975000D03*
X81438750Y-53975000D03*
D13*
X82708750Y-51435000D03*
X89058750Y-48895000D03*
D14*
X79433750Y-51435000D03*
X92360750Y-48895000D03*
%TD*%
D13*
%TO.C,MX3*%
X108108750Y-48895000D03*
D11*
X110648750Y-53975000D03*
X100488750Y-53975000D03*
D13*
X101758750Y-51435000D03*
D12*
X105568750Y-53975000D03*
D14*
X98483750Y-51435000D03*
X111410750Y-48895000D03*
%TD*%
D11*
%TO.C,MX2*%
X129698750Y-53975000D03*
X119538750Y-53975000D03*
D13*
X120808750Y-51435000D03*
D12*
X124618750Y-53975000D03*
D13*
X127158750Y-48895000D03*
D14*
X117533750Y-51435000D03*
X130460750Y-48895000D03*
%TD*%
D11*
%TO.C,MX1*%
X138588750Y-53975000D03*
D12*
X143668750Y-53975000D03*
D13*
X139858750Y-51435000D03*
X146208750Y-48895000D03*
D11*
X148748750Y-53975000D03*
D14*
X136583750Y-51435000D03*
X149510750Y-48895000D03*
%TD*%
D13*
%TO.C,MX44*%
X241458750Y-125095000D03*
D12*
X238918750Y-130175000D03*
D11*
X243998750Y-130175000D03*
D13*
X235108750Y-127635000D03*
D11*
X233838750Y-130175000D03*
D14*
X231833750Y-127635000D03*
X244760750Y-125095000D03*
%TD*%
D15*
%TO.C,REF\u002A\u002A*%
X50482500Y-64039750D03*
X51752500Y-64039750D03*
X47942500Y-64039750D03*
X46672500Y-64039750D03*
%TD*%
D11*
%TO.C,MX55*%
X36195000Y-130175000D03*
X46355000Y-130175000D03*
D13*
X38735000Y-135255000D03*
X45085000Y-132715000D03*
D12*
X41275000Y-130175000D03*
D14*
X48360000Y-132715000D03*
X35433000Y-135255000D03*
%TD*%
D15*
%TO.C,REF\u002A\u002A*%
X98583750Y-64039750D03*
X97313750Y-64039750D03*
X93503750Y-64039750D03*
X94773750Y-64039750D03*
%TD*%
D11*
%TO.C,MX48*%
X145732500Y-130175000D03*
D12*
X100812600Y-121920000D03*
X200812400Y-121920000D03*
D13*
X147002500Y-127635000D03*
X153352500Y-125095000D03*
D11*
X155892500Y-130175000D03*
D16*
X100812600Y-137160000D03*
D12*
X150812500Y-130175000D03*
D16*
X200812400Y-137160000D03*
D14*
X143727500Y-127635000D03*
X156654500Y-125095000D03*
%TD*%
D17*
%TO.C,J3*%
X143512500Y-77437500D03*
D18*
X140972500Y-77437500D03*
X138432500Y-77437500D03*
X135892500Y-77437500D03*
X133352500Y-77437500D03*
X130812500Y-77437500D03*
X128272500Y-77437500D03*
X125732500Y-77437500D03*
X123192500Y-77437500D03*
%TD*%
D15*
%TO.C,REF\u002A\u002A*%
X245030625Y-70786625D03*
X242490625Y-70786625D03*
X239950625Y-70786625D03*
%TD*%
D11*
%TO.C,MX53*%
X67786250Y-130175000D03*
X57626250Y-130175000D03*
D12*
X62706250Y-130175000D03*
D13*
X60166250Y-135255000D03*
X66516250Y-132715000D03*
D14*
X56864250Y-135255000D03*
X69791250Y-132715000D03*
%TD*%
D17*
%TO.C,J2*%
X111680625Y-59531250D03*
D18*
X109140625Y-59531250D03*
X106600625Y-59531250D03*
X104060625Y-59531250D03*
X101520625Y-59531250D03*
X98980625Y-59531250D03*
X96440625Y-59531250D03*
X93900625Y-59531250D03*
X91360625Y-59531250D03*
%TD*%
D17*
%TO.C,J4*%
X52175000Y-78000000D03*
D18*
X54715000Y-78000000D03*
X57255000Y-78000000D03*
X59795000Y-78000000D03*
X62335000Y-78000000D03*
%TD*%
D19*
%TO.C,D3*%
X32099250Y-58642000D03*
D20*
X34639250Y-58642000D03*
%TD*%
D15*
%TO.C,REF\u002A\u002A*%
X141605000Y-64039750D03*
X145415000Y-64039750D03*
X144145000Y-64039750D03*
X140335000Y-64039750D03*
%TD*%
D11*
%TO.C,MX45*%
X224948750Y-130175000D03*
D12*
X219868750Y-130175000D03*
D13*
X223678750Y-132715000D03*
X217328750Y-135255000D03*
D11*
X214788750Y-130175000D03*
D14*
X214026750Y-135255000D03*
X226953750Y-132715000D03*
%TD*%
D21*
%TO.C,*%
X96043750Y-55562500D03*
%TD*%
D13*
%TO.C,MX56*%
X41433750Y-125095000D03*
D11*
X33813750Y-130175000D03*
D12*
X38893750Y-130175000D03*
D11*
X43973750Y-130175000D03*
D13*
X35083750Y-127635000D03*
D14*
X31808750Y-127635000D03*
X44735750Y-125095000D03*
%TD*%
D16*
%TO.C,MX47*%
X196056250Y-137160000D03*
D12*
X157956250Y-121920000D03*
D11*
X182086250Y-130175000D03*
D13*
X179546250Y-125095000D03*
D12*
X177006250Y-130175000D03*
D16*
X157956250Y-137160000D03*
D11*
X171926250Y-130175000D03*
D12*
X196056250Y-121920000D03*
D13*
X173196250Y-127635000D03*
D14*
X169921250Y-127635000D03*
X182848250Y-125095000D03*
%TD*%
D22*
%TO.C,SW1*%
X141168750Y-61475000D03*
X146168750Y-61475000D03*
X143668750Y-61475000D03*
D23*
X138068750Y-53975000D03*
X149268750Y-53975000D03*
D22*
X146168750Y-46975000D03*
X141168750Y-46975000D03*
%TD*%
D15*
%TO.C,REF\u002A\u002A*%
X122793125Y-64039750D03*
X118983125Y-64039750D03*
X117713125Y-64039750D03*
X121523125Y-64039750D03*
%TD*%
D19*
%TO.C,D1*%
X32099250Y-47592000D03*
D20*
X34639250Y-47592000D03*
%TD*%
D13*
%TO.C,MX6*%
X52228750Y-56515000D03*
D11*
X43338750Y-53975000D03*
D12*
X48418750Y-53975000D03*
D11*
X53498750Y-53975000D03*
D13*
X45878750Y-59055000D03*
D14*
X55503750Y-56515000D03*
X42576750Y-59055000D03*
%TD*%
D21*
%TO.C,H1*%
X239953400Y-80424450D03*
X136903400Y-82550450D03*
X167553400Y-101600450D03*
X60703400Y-82550450D03*
X59103400Y-117324450D03*
X106053400Y-128774450D03*
%TD*%
D13*
%TO.C,MX54*%
X62865000Y-125095000D03*
D12*
X60325000Y-130175000D03*
D11*
X65405000Y-130175000D03*
X55245000Y-130175000D03*
D13*
X56515000Y-127635000D03*
D14*
X66167000Y-125095000D03*
X53240000Y-127635000D03*
%TD*%
D15*
%TO.C,REF\u002A\u002A*%
X246135466Y-70140262D03*
X248335170Y-68870262D03*
%TD*%
D13*
%TO.C,MX46*%
X213677500Y-127635000D03*
D11*
X212407500Y-130175000D03*
D12*
X217487500Y-130175000D03*
D11*
X222567500Y-130175000D03*
D13*
X220027500Y-125095000D03*
D14*
X223329500Y-125095000D03*
X210402500Y-127635000D03*
%TD*%
D11*
%TO.C,MX51*%
X79057500Y-130175000D03*
D12*
X84137500Y-130175000D03*
D13*
X87947500Y-132715000D03*
X81597500Y-135255000D03*
D11*
X89217500Y-130175000D03*
D14*
X91222500Y-132715000D03*
X78295500Y-135255000D03*
%TD*%
D15*
%TO.C,REF\u002A\u002A*%
X70088125Y-64039750D03*
X75168125Y-64039750D03*
X71358125Y-64039750D03*
X73898125Y-64039750D03*
%TD*%
D12*
%TO.C,MX43*%
X260350000Y-130175000D03*
D13*
X256540000Y-127635000D03*
D11*
X265430000Y-130175000D03*
D13*
X262890000Y-125095000D03*
D11*
X255270000Y-130175000D03*
D14*
X253265000Y-127635000D03*
X266192000Y-125095000D03*
%TD*%
D16*
%TO.C,MX50*%
X138906250Y-137160000D03*
D12*
X100806250Y-121920000D03*
D11*
X124936250Y-130175000D03*
D13*
X122396250Y-125095000D03*
D11*
X114776250Y-130175000D03*
D13*
X116046250Y-127635000D03*
D16*
X100806250Y-137160000D03*
D12*
X138906250Y-121920000D03*
X119856250Y-130175000D03*
D14*
X112771250Y-127635000D03*
X125698250Y-125095000D03*
%TD*%
D19*
%TO.C,D2*%
X32099250Y-53117000D03*
D20*
X34639250Y-53117000D03*
%TD*%
D15*
%TO.C,REF\u002A\u002A*%
X236655560Y-68861242D03*
X238855264Y-70131242D03*
%TD*%
D17*
%TO.C,J1*%
X40737500Y-49587500D03*
D18*
X43277500Y-49587500D03*
X45817500Y-49587500D03*
X48357500Y-49587500D03*
X50897500Y-49587500D03*
%TD*%
D13*
%TO.C,MX49*%
X126047500Y-132715000D03*
X119697500Y-135255000D03*
D16*
X134175500Y-137160000D03*
D12*
X134175500Y-121920000D03*
D16*
X110299500Y-137160000D03*
D11*
X127317500Y-130175000D03*
D12*
X122237500Y-130175000D03*
D11*
X117157500Y-130175000D03*
D12*
X110299500Y-121920000D03*
D14*
X129322500Y-132715000D03*
X116395500Y-135255000D03*
%TD*%
D13*
%TO.C,MX52*%
X84296250Y-125095000D03*
X77946250Y-127635000D03*
D11*
X76676250Y-130175000D03*
D12*
X81756250Y-130175000D03*
D11*
X86836250Y-130175000D03*
D14*
X74671250Y-127635000D03*
X87598250Y-125095000D03*
%TD*%
D24*
%TO.C,F1*%
X235347928Y-83571835D03*
X235347928Y-80771835D03*
%TD*%
D25*
%TO.C,J6*%
X245380625Y-67290625D03*
X239600625Y-67290625D03*
D26*
X239240625Y-68735625D03*
X240040625Y-68735625D03*
D27*
X241240625Y-68735625D03*
X242240625Y-68735625D03*
X242740625Y-68735625D03*
X243740625Y-68735625D03*
D26*
X244940625Y-68735625D03*
X245740625Y-68735625D03*
X245740625Y-68735625D03*
X244940625Y-68735625D03*
D27*
X244240625Y-68735625D03*
X243240625Y-68735625D03*
X241740625Y-68735625D03*
X240740625Y-68735625D03*
D26*
X240040625Y-68735625D03*
X239240625Y-68735625D03*
D28*
X246810625Y-67820625D03*
D29*
X238170625Y-63640625D03*
D28*
X238170625Y-67820625D03*
D29*
X246810625Y-63640625D03*
%TD*%
D30*
%TO.C,R4*%
X60325000Y-54006250D03*
X60325000Y-52356250D03*
%TD*%
%TO.C,R7*%
X245665625Y-74643750D03*
X245665625Y-72993750D03*
%TD*%
%TO.C,R6*%
X239315625Y-74643750D03*
X239315625Y-72993750D03*
%TD*%
%TO.C,R3*%
X56356250Y-54006250D03*
X56356250Y-52356250D03*
%TD*%
D31*
%TO.C,R10*%
X243125625Y-88147500D03*
X243125625Y-87127500D03*
%TD*%
D32*
%TO.C,U1*%
X243628125Y-72868750D03*
X243628125Y-73818750D03*
X243628125Y-74768750D03*
X241353125Y-74768750D03*
X241353125Y-73818750D03*
X241353125Y-72868750D03*
%TD*%
D33*
%TO.C,D42*%
X94456250Y-113568750D03*
X94456250Y-110268750D03*
%TD*%
D34*
%TO.C,C28*%
X52784375Y-119875000D03*
X52784375Y-121425000D03*
%TD*%
D33*
%TO.C,D12*%
X80168750Y-75468750D03*
X80168750Y-72168750D03*
%TD*%
D17*
%TO.C,SWD1*%
X233362500Y-111268750D03*
D18*
X233362500Y-108728750D03*
X233362500Y-106188750D03*
%TD*%
D33*
%TO.C,D37*%
X199231250Y-94518750D03*
X199231250Y-91218750D03*
%TD*%
%TO.C,D11*%
X61118750Y-75468750D03*
X61118750Y-72168750D03*
%TD*%
%TO.C,D38*%
X218281250Y-94518750D03*
X218281250Y-91218750D03*
%TD*%
%TO.C,D17*%
X175418750Y-75468750D03*
X175418750Y-72168750D03*
%TD*%
D35*
%TO.C,R9*%
X266836250Y-78393751D03*
X267856250Y-78393751D03*
%TD*%
D33*
%TO.C,D21*%
X258762500Y-75468750D03*
X258762500Y-72168750D03*
%TD*%
D36*
%TO.C,D54*%
X92747500Y-120100000D03*
X94577500Y-120100000D03*
X94577500Y-121200000D03*
X92747500Y-121200000D03*
%TD*%
%TO.C,D25*%
X170777500Y-83100000D03*
X168947500Y-83100000D03*
X168947500Y-82000000D03*
X170777500Y-82000000D03*
%TD*%
D37*
%TO.C,C22*%
X251064013Y-103552401D03*
X251064013Y-102592401D03*
%TD*%
%TO.C,C15*%
X245808750Y-90830023D03*
X245808750Y-89870023D03*
%TD*%
D17*
%TO.C,J9*%
X267962500Y-116712500D03*
D18*
X267962500Y-119252500D03*
X267962500Y-121792500D03*
%TD*%
D38*
%TO.C,C10*%
X132140625Y-84931250D03*
X130590625Y-84931250D03*
%TD*%
D39*
%TO.C,R8*%
X261976292Y-76648118D03*
X261976292Y-78298118D03*
%TD*%
D40*
%TO.C,C3*%
X252409280Y-76490476D03*
X251449280Y-76490476D03*
%TD*%
D39*
%TO.C,R5*%
X37703125Y-57912500D03*
X37703125Y-59562500D03*
%TD*%
D41*
%TO.C,C16*%
X251122014Y-93542939D03*
X252082014Y-93542939D03*
%TD*%
D33*
%TO.C,D16*%
X156368750Y-75468750D03*
X156368750Y-72168750D03*
%TD*%
D41*
%TO.C,C1*%
X246919787Y-76333887D03*
X247879787Y-76333887D03*
%TD*%
D25*
%TO.C,J5*%
X60770250Y-48240625D03*
X54990250Y-48240625D03*
D26*
X54630250Y-49685625D03*
X55430250Y-49685625D03*
D27*
X56630250Y-49685625D03*
X57630250Y-49685625D03*
X58130250Y-49685625D03*
X59130250Y-49685625D03*
D26*
X60330250Y-49685625D03*
X61130250Y-49685625D03*
X61130250Y-49685625D03*
X60330250Y-49685625D03*
D27*
X59630250Y-49685625D03*
X58630250Y-49685625D03*
X57130250Y-49685625D03*
X56130250Y-49685625D03*
D26*
X55430250Y-49685625D03*
X54630250Y-49685625D03*
D29*
X53560250Y-44590625D03*
D28*
X62200250Y-48770625D03*
D29*
X62200250Y-44590625D03*
D28*
X53560250Y-48770625D03*
%TD*%
D33*
%TO.C,D19*%
X213518750Y-75468750D03*
X213518750Y-72168750D03*
%TD*%
%TO.C,D6*%
X89693750Y-56418750D03*
X89693750Y-53118750D03*
%TD*%
%TO.C,D64*%
X242093750Y-132618750D03*
X242093750Y-129318750D03*
%TD*%
D37*
%TO.C,C13*%
X242567100Y-90830023D03*
X242567100Y-89870023D03*
%TD*%
D42*
%TO.C,SWR2*%
X268600000Y-95275000D03*
X268600000Y-101575000D03*
X264800000Y-101575000D03*
X264800000Y-95275000D03*
%TD*%
D33*
%TO.C,D43*%
X113506250Y-113568750D03*
X113506250Y-110268750D03*
%TD*%
%TO.C,D59*%
X70643750Y-129443750D03*
X70643750Y-126143750D03*
%TD*%
D35*
%TO.C,R12*%
X241331994Y-102074696D03*
X242351994Y-102074696D03*
%TD*%
D36*
%TO.C,D23*%
X94577500Y-83100000D03*
X92747500Y-83100000D03*
X92747500Y-82000000D03*
X94577500Y-82000000D03*
%TD*%
%TO.C,D53*%
X54647500Y-120100000D03*
X56477500Y-120100000D03*
X56477500Y-121200000D03*
X54647500Y-121200000D03*
%TD*%
D38*
%TO.C,C9*%
X55940625Y-84931250D03*
X54390625Y-84931250D03*
%TD*%
D33*
%TO.C,D10*%
X42068750Y-75468750D03*
X42068750Y-72168750D03*
%TD*%
D43*
%TO.C,U4*%
X249497500Y-94237500D03*
X249497500Y-94637500D03*
X249497500Y-95037500D03*
X249497500Y-95437500D03*
X249497500Y-95837500D03*
X249497500Y-96237500D03*
X249497500Y-96637500D03*
X249497500Y-97037500D03*
X249497500Y-97437500D03*
X249497500Y-97837500D03*
X249497500Y-98237500D03*
X249497500Y-98637500D03*
X249497500Y-99037500D03*
X249497500Y-99437500D03*
D44*
X248662500Y-100272500D03*
X248262500Y-100272500D03*
X247862500Y-100272500D03*
X247462500Y-100272500D03*
X247062500Y-100272500D03*
X246662500Y-100272500D03*
X246262500Y-100272500D03*
X245862500Y-100272500D03*
X245462500Y-100272500D03*
X245062500Y-100272500D03*
X244662500Y-100272500D03*
X244262500Y-100272500D03*
X243862500Y-100272500D03*
X243462500Y-100272500D03*
D43*
X242627500Y-99437500D03*
X242627500Y-99037500D03*
X242627500Y-98637500D03*
X242627500Y-98237500D03*
X242627500Y-97837500D03*
X242627500Y-97437500D03*
X242627500Y-97037500D03*
X242627500Y-96637500D03*
X242627500Y-96237500D03*
X242627500Y-95837500D03*
X242627500Y-95437500D03*
X242627500Y-95037500D03*
X242627500Y-94637500D03*
X242627500Y-94237500D03*
D44*
X243462500Y-93402500D03*
X243862500Y-93402500D03*
X244262500Y-93402500D03*
X244662500Y-93402500D03*
X245062500Y-93402500D03*
X245462500Y-93402500D03*
X245862500Y-93402500D03*
X246262500Y-93402500D03*
X246662500Y-93402500D03*
X247062500Y-93402500D03*
X247462500Y-93402500D03*
X247862500Y-93402500D03*
X248262500Y-93402500D03*
X248662500Y-93402500D03*
D45*
X246062500Y-96837500D03*
%TD*%
D41*
%TO.C,C2*%
X249163134Y-76410261D03*
X250123134Y-76410261D03*
%TD*%
D33*
%TO.C,D32*%
X103981250Y-94518750D03*
X103981250Y-91218750D03*
%TD*%
D46*
%TO.C,C24*%
X92887500Y-118268750D03*
X94437500Y-118268750D03*
%TD*%
D33*
%TO.C,D9*%
X146843750Y-56418750D03*
X146843750Y-53118750D03*
%TD*%
D37*
%TO.C,C12*%
X241567100Y-90830023D03*
X241567100Y-89870023D03*
%TD*%
D33*
%TO.C,D14*%
X118268750Y-75468750D03*
X118268750Y-72168750D03*
%TD*%
%TO.C,D63*%
X180181250Y-132618750D03*
X180181250Y-129318750D03*
%TD*%
D47*
%TO.C,C4*%
X96440625Y-83325000D03*
X96440625Y-81775000D03*
%TD*%
D33*
%TO.C,D50*%
X246856250Y-113568750D03*
X246856250Y-110268750D03*
%TD*%
%TO.C,D60*%
X92075000Y-129443750D03*
X92075000Y-126143750D03*
%TD*%
%TO.C,D65*%
X263525000Y-132618750D03*
X263525000Y-129318750D03*
%TD*%
D17*
%TO.C,J8*%
X267962500Y-83237500D03*
D18*
X267962500Y-85777500D03*
X267962500Y-88317500D03*
X267962500Y-90857500D03*
%TD*%
D33*
%TO.C,D15*%
X137318750Y-75468750D03*
X137318750Y-72168750D03*
%TD*%
%TO.C,D20*%
X232568750Y-75468750D03*
X232568750Y-72168750D03*
%TD*%
D40*
%TO.C,C18*%
X240568286Y-98137203D03*
X239608286Y-98137203D03*
%TD*%
D36*
%TO.C,D27*%
X246977500Y-83100000D03*
X245147500Y-83100000D03*
X245147500Y-82000000D03*
X246977500Y-82000000D03*
%TD*%
D47*
%TO.C,C6*%
X210740625Y-83325000D03*
X210740625Y-81775000D03*
%TD*%
D33*
%TO.C,D34*%
X142081250Y-94518750D03*
X142081250Y-91218750D03*
%TD*%
D46*
%TO.C,C27*%
X245287500Y-118268750D03*
X246837500Y-118268750D03*
%TD*%
D33*
%TO.C,D61*%
X130175000Y-129443750D03*
X130175000Y-126143750D03*
%TD*%
D36*
%TO.C,D57*%
X245147500Y-120100000D03*
X246977500Y-120100000D03*
X246977500Y-121200000D03*
X245147500Y-121200000D03*
%TD*%
D33*
%TO.C,D45*%
X151606250Y-113568750D03*
X151606250Y-110268750D03*
%TD*%
%TO.C,D39*%
X261143750Y-94518750D03*
X261143750Y-91218750D03*
%TD*%
D46*
%TO.C,C26*%
X208775000Y-118268750D03*
X210325000Y-118268750D03*
%TD*%
D33*
%TO.C,D47*%
X189706250Y-113568750D03*
X189706250Y-110268750D03*
%TD*%
D48*
%TO.C,C21*%
X246400000Y-102357500D03*
X246400000Y-103317500D03*
%TD*%
D46*
%TO.C,C25*%
X169087500Y-118268750D03*
X170637500Y-118268750D03*
%TD*%
D37*
%TO.C,C14*%
X244808750Y-90830023D03*
X244808750Y-89870023D03*
%TD*%
D36*
%TO.C,D52*%
X129260000Y-119703125D03*
X131090000Y-119703125D03*
X131090000Y-120803125D03*
X129260000Y-120803125D03*
%TD*%
D33*
%TO.C,D40*%
X49212500Y-113568750D03*
X49212500Y-110268750D03*
%TD*%
%TO.C,D48*%
X208756250Y-113568750D03*
X208756250Y-110268750D03*
%TD*%
D39*
%TO.C,R1*%
X37703125Y-46800000D03*
X37703125Y-48450000D03*
%TD*%
D33*
%TO.C,D13*%
X99218750Y-75468750D03*
X99218750Y-72168750D03*
%TD*%
D42*
%TO.C,SWR1*%
X265162500Y-69687500D03*
X265162500Y-75987500D03*
X268962500Y-75987500D03*
X268962500Y-69687500D03*
%TD*%
D49*
%TO.C,U3*%
X259981250Y-78263750D03*
X259981250Y-79533750D03*
X259981250Y-80803750D03*
X259981250Y-82073750D03*
X252781250Y-82073750D03*
X252781250Y-80803750D03*
X252781250Y-79533750D03*
X252781250Y-78263750D03*
%TD*%
D36*
%TO.C,D24*%
X132677500Y-83100000D03*
X130847500Y-83100000D03*
X130847500Y-82000000D03*
X132677500Y-82000000D03*
%TD*%
D33*
%TO.C,D30*%
X65881250Y-94518750D03*
X65881250Y-91218750D03*
%TD*%
%TO.C,D4*%
X45243750Y-51928125D03*
X45243750Y-55228125D03*
%TD*%
%TO.C,D36*%
X180181250Y-94518750D03*
X180181250Y-91218750D03*
%TD*%
D31*
%TO.C,R11*%
X244462500Y-88147500D03*
X244462500Y-87127500D03*
%TD*%
D39*
%TO.C,R2*%
X37703125Y-52292000D03*
X37703125Y-53942000D03*
%TD*%
D33*
%TO.C,D7*%
X108743750Y-56418750D03*
X108743750Y-53118750D03*
%TD*%
%TO.C,D18*%
X194468750Y-75468750D03*
X194468750Y-72168750D03*
%TD*%
%TO.C,D5*%
X64293750Y-51928125D03*
X64293750Y-55228125D03*
%TD*%
D37*
%TO.C,C11*%
X240506250Y-90830023D03*
X240506250Y-89870023D03*
%TD*%
D33*
%TO.C,D33*%
X123031250Y-94518750D03*
X123031250Y-91218750D03*
%TD*%
%TO.C,D49*%
X227806250Y-113568750D03*
X227806250Y-110268750D03*
%TD*%
D36*
%TO.C,D22*%
X56477500Y-83100000D03*
X54647500Y-83100000D03*
X54647500Y-82000000D03*
X56477500Y-82000000D03*
%TD*%
%TO.C,D26*%
X208877500Y-83100000D03*
X207047500Y-83100000D03*
X207047500Y-82000000D03*
X208877500Y-82000000D03*
%TD*%
D50*
%TO.C,J7*%
X227821875Y-83653125D03*
X227821875Y-82653125D03*
X227821875Y-81653125D03*
X227821875Y-80653125D03*
D51*
X223946875Y-79353125D03*
X223946875Y-84953125D03*
%TD*%
D46*
%TO.C,C23*%
X129400000Y-117871875D03*
X130950000Y-117871875D03*
%TD*%
D33*
%TO.C,D31*%
X84931250Y-94518750D03*
X84931250Y-91218750D03*
%TD*%
%TO.C,D62*%
X227806250Y-129443750D03*
X227806250Y-126143750D03*
%TD*%
%TO.C,D58*%
X49212500Y-129443750D03*
X49212500Y-126143750D03*
%TD*%
D22*
%TO.C,SW2*%
X45918750Y-46475000D03*
X50918750Y-46475000D03*
X48418750Y-46475000D03*
D52*
X54018750Y-53975000D03*
X42818750Y-53975000D03*
D22*
X50918750Y-60975000D03*
X45918750Y-60975000D03*
%TD*%
D48*
%TO.C,C20*%
X245400000Y-102357500D03*
X245400000Y-103317500D03*
%TD*%
D33*
%TO.C,D35*%
X161131250Y-94518750D03*
X161131250Y-91218750D03*
%TD*%
D22*
%TO.C,SW3*%
X41393750Y-80525000D03*
X36393750Y-80525000D03*
X38893750Y-80525000D03*
D23*
X33293750Y-73025000D03*
X44493750Y-73025000D03*
D22*
X36393750Y-66025000D03*
X41393750Y-66025000D03*
%TD*%
D33*
%TO.C,D29*%
X44450000Y-94518750D03*
X44450000Y-91218750D03*
%TD*%
%TO.C,D28*%
X223837500Y-90550000D03*
X223837500Y-87250000D03*
%TD*%
D53*
%TO.C,JP1*%
X240732405Y-84217334D03*
X242032405Y-84217334D03*
%TD*%
D54*
%TO.C,U2*%
X247139171Y-79751119D03*
X247139171Y-77851119D03*
X249014171Y-78801119D03*
%TD*%
D33*
%TO.C,D41*%
X75406250Y-113568750D03*
X75406250Y-110268750D03*
%TD*%
%TO.C,D44*%
X132556250Y-113568750D03*
X132556250Y-110268750D03*
%TD*%
%TO.C,D8*%
X127793750Y-56418750D03*
X127793750Y-53118750D03*
%TD*%
D47*
%TO.C,C5*%
X172640625Y-83325000D03*
X172640625Y-81775000D03*
%TD*%
D55*
%TO.C,Y1*%
X252714013Y-103172401D03*
X252714013Y-100972401D03*
X254414013Y-100972401D03*
X254414013Y-103172401D03*
%TD*%
D33*
%TO.C,D46*%
X170656250Y-113568750D03*
X170656250Y-110268750D03*
%TD*%
D40*
%TO.C,C8*%
X254573695Y-84078765D03*
X253613695Y-84078765D03*
%TD*%
D33*
%TO.C,D51*%
X265906250Y-113568750D03*
X265906250Y-110268750D03*
%TD*%
D36*
%TO.C,D55*%
X168947500Y-120100000D03*
X170777500Y-120100000D03*
X170777500Y-121200000D03*
X168947500Y-121200000D03*
%TD*%
%TO.C,D56*%
X208635000Y-120100000D03*
X210465000Y-120100000D03*
X210465000Y-121200000D03*
X208635000Y-121200000D03*
%TD*%
D41*
%TO.C,C17*%
X251082500Y-97737500D03*
X252042500Y-97737500D03*
%TD*%
D47*
%TO.C,C7*%
X248840625Y-83325000D03*
X248840625Y-81775000D03*
%TD*%
D37*
%TO.C,C19*%
X251064013Y-101572401D03*
X251064013Y-100612401D03*
%TD*%
D56*
%TO.C,R13*%
X250074013Y-102237500D03*
X249054013Y-102237500D03*
%TD*%
M02*
