%TF.GenerationSoftware,KiCad,Pcbnew,(7.0.0)*%
%TF.CreationDate,2023-05-06T02:08:23-05:00*%
%TF.ProjectId,Hull_V4N_Tray_Plate,48756c6c-5f56-4344-9e5f-547261795f50,rev?*%
%TF.SameCoordinates,Original*%
%TF.FileFunction,Legend,Bot*%
%TF.FilePolarity,Positive*%
%FSLAX46Y46*%
G04 Gerber Fmt 4.6, Leading zero omitted, Abs format (unit mm)*
G04 Created by KiCad (PCBNEW (7.0.0)) date 2023-05-06 02:08:23*
%MOMM*%
%LPD*%
G01*
G04 APERTURE LIST*
%ADD10C,0.150000*%
%ADD11C,0.300000*%
G04 APERTURE END LIST*
D10*
X109394048Y-94617380D02*
X109394048Y-95331666D01*
X109394048Y-95331666D02*
X109441667Y-95474523D01*
X109441667Y-95474523D02*
X109536905Y-95569761D01*
X109536905Y-95569761D02*
X109679762Y-95617380D01*
X109679762Y-95617380D02*
X109775000Y-95617380D01*
X108441667Y-95617380D02*
X108917857Y-95617380D01*
X108917857Y-95617380D02*
X108917857Y-94617380D01*
X107536905Y-95522142D02*
X107584524Y-95569761D01*
X107584524Y-95569761D02*
X107727381Y-95617380D01*
X107727381Y-95617380D02*
X107822619Y-95617380D01*
X107822619Y-95617380D02*
X107965476Y-95569761D01*
X107965476Y-95569761D02*
X108060714Y-95474523D01*
X108060714Y-95474523D02*
X108108333Y-95379285D01*
X108108333Y-95379285D02*
X108155952Y-95188809D01*
X108155952Y-95188809D02*
X108155952Y-95045952D01*
X108155952Y-95045952D02*
X108108333Y-94855476D01*
X108108333Y-94855476D02*
X108060714Y-94760238D01*
X108060714Y-94760238D02*
X107965476Y-94665000D01*
X107965476Y-94665000D02*
X107822619Y-94617380D01*
X107822619Y-94617380D02*
X107727381Y-94617380D01*
X107727381Y-94617380D02*
X107584524Y-94665000D01*
X107584524Y-94665000D02*
X107536905Y-94712619D01*
X106822619Y-94617380D02*
X106822619Y-95331666D01*
X106822619Y-95331666D02*
X106870238Y-95474523D01*
X106870238Y-95474523D02*
X106965476Y-95569761D01*
X106965476Y-95569761D02*
X107108333Y-95617380D01*
X107108333Y-95617380D02*
X107203571Y-95617380D01*
X105870238Y-95617380D02*
X106346428Y-95617380D01*
X106346428Y-95617380D02*
X106346428Y-94617380D01*
X104965476Y-95522142D02*
X105013095Y-95569761D01*
X105013095Y-95569761D02*
X105155952Y-95617380D01*
X105155952Y-95617380D02*
X105251190Y-95617380D01*
X105251190Y-95617380D02*
X105394047Y-95569761D01*
X105394047Y-95569761D02*
X105489285Y-95474523D01*
X105489285Y-95474523D02*
X105536904Y-95379285D01*
X105536904Y-95379285D02*
X105584523Y-95188809D01*
X105584523Y-95188809D02*
X105584523Y-95045952D01*
X105584523Y-95045952D02*
X105536904Y-94855476D01*
X105536904Y-94855476D02*
X105489285Y-94760238D01*
X105489285Y-94760238D02*
X105394047Y-94665000D01*
X105394047Y-94665000D02*
X105251190Y-94617380D01*
X105251190Y-94617380D02*
X105155952Y-94617380D01*
X105155952Y-94617380D02*
X105013095Y-94665000D01*
X105013095Y-94665000D02*
X104965476Y-94712619D01*
X104251190Y-94617380D02*
X104251190Y-95331666D01*
X104251190Y-95331666D02*
X104298809Y-95474523D01*
X104298809Y-95474523D02*
X104394047Y-95569761D01*
X104394047Y-95569761D02*
X104536904Y-95617380D01*
X104536904Y-95617380D02*
X104632142Y-95617380D01*
X103298809Y-95617380D02*
X103774999Y-95617380D01*
X103774999Y-95617380D02*
X103774999Y-94617380D01*
X102394047Y-95522142D02*
X102441666Y-95569761D01*
X102441666Y-95569761D02*
X102584523Y-95617380D01*
X102584523Y-95617380D02*
X102679761Y-95617380D01*
X102679761Y-95617380D02*
X102822618Y-95569761D01*
X102822618Y-95569761D02*
X102917856Y-95474523D01*
X102917856Y-95474523D02*
X102965475Y-95379285D01*
X102965475Y-95379285D02*
X103013094Y-95188809D01*
X103013094Y-95188809D02*
X103013094Y-95045952D01*
X103013094Y-95045952D02*
X102965475Y-94855476D01*
X102965475Y-94855476D02*
X102917856Y-94760238D01*
X102917856Y-94760238D02*
X102822618Y-94665000D01*
X102822618Y-94665000D02*
X102679761Y-94617380D01*
X102679761Y-94617380D02*
X102584523Y-94617380D01*
X102584523Y-94617380D02*
X102441666Y-94665000D01*
X102441666Y-94665000D02*
X102394047Y-94712619D01*
X101679761Y-94617380D02*
X101679761Y-95331666D01*
X101679761Y-95331666D02*
X101727380Y-95474523D01*
X101727380Y-95474523D02*
X101822618Y-95569761D01*
X101822618Y-95569761D02*
X101965475Y-95617380D01*
X101965475Y-95617380D02*
X102060713Y-95617380D01*
X100727380Y-95617380D02*
X101203570Y-95617380D01*
X101203570Y-95617380D02*
X101203570Y-94617380D01*
X99822618Y-95522142D02*
X99870237Y-95569761D01*
X99870237Y-95569761D02*
X100013094Y-95617380D01*
X100013094Y-95617380D02*
X100108332Y-95617380D01*
X100108332Y-95617380D02*
X100251189Y-95569761D01*
X100251189Y-95569761D02*
X100346427Y-95474523D01*
X100346427Y-95474523D02*
X100394046Y-95379285D01*
X100394046Y-95379285D02*
X100441665Y-95188809D01*
X100441665Y-95188809D02*
X100441665Y-95045952D01*
X100441665Y-95045952D02*
X100394046Y-94855476D01*
X100394046Y-94855476D02*
X100346427Y-94760238D01*
X100346427Y-94760238D02*
X100251189Y-94665000D01*
X100251189Y-94665000D02*
X100108332Y-94617380D01*
X100108332Y-94617380D02*
X100013094Y-94617380D01*
X100013094Y-94617380D02*
X99870237Y-94665000D01*
X99870237Y-94665000D02*
X99822618Y-94712619D01*
D11*
X153998809Y-95984761D02*
X153998809Y-93984761D01*
X153998809Y-93984761D02*
X153332142Y-95413333D01*
X153332142Y-95413333D02*
X152665476Y-93984761D01*
X152665476Y-93984761D02*
X152665476Y-95984761D01*
X151427381Y-95984761D02*
X151617857Y-95889523D01*
X151617857Y-95889523D02*
X151713095Y-95794285D01*
X151713095Y-95794285D02*
X151808333Y-95603809D01*
X151808333Y-95603809D02*
X151808333Y-95032380D01*
X151808333Y-95032380D02*
X151713095Y-94841904D01*
X151713095Y-94841904D02*
X151617857Y-94746666D01*
X151617857Y-94746666D02*
X151427381Y-94651428D01*
X151427381Y-94651428D02*
X151141666Y-94651428D01*
X151141666Y-94651428D02*
X150951190Y-94746666D01*
X150951190Y-94746666D02*
X150855952Y-94841904D01*
X150855952Y-94841904D02*
X150760714Y-95032380D01*
X150760714Y-95032380D02*
X150760714Y-95603809D01*
X150760714Y-95603809D02*
X150855952Y-95794285D01*
X150855952Y-95794285D02*
X150951190Y-95889523D01*
X150951190Y-95889523D02*
X151141666Y-95984761D01*
X151141666Y-95984761D02*
X151427381Y-95984761D01*
X149903571Y-94651428D02*
X149903571Y-95984761D01*
X149903571Y-94841904D02*
X149808333Y-94746666D01*
X149808333Y-94746666D02*
X149617857Y-94651428D01*
X149617857Y-94651428D02*
X149332142Y-94651428D01*
X149332142Y-94651428D02*
X149141666Y-94746666D01*
X149141666Y-94746666D02*
X149046428Y-94937142D01*
X149046428Y-94937142D02*
X149046428Y-95984761D01*
X147808333Y-95984761D02*
X147998809Y-95889523D01*
X147998809Y-95889523D02*
X148094047Y-95794285D01*
X148094047Y-95794285D02*
X148189285Y-95603809D01*
X148189285Y-95603809D02*
X148189285Y-95032380D01*
X148189285Y-95032380D02*
X148094047Y-94841904D01*
X148094047Y-94841904D02*
X147998809Y-94746666D01*
X147998809Y-94746666D02*
X147808333Y-94651428D01*
X147808333Y-94651428D02*
X147522618Y-94651428D01*
X147522618Y-94651428D02*
X147332142Y-94746666D01*
X147332142Y-94746666D02*
X147236904Y-94841904D01*
X147236904Y-94841904D02*
X147141666Y-95032380D01*
X147141666Y-95032380D02*
X147141666Y-95603809D01*
X147141666Y-95603809D02*
X147236904Y-95794285D01*
X147236904Y-95794285D02*
X147332142Y-95889523D01*
X147332142Y-95889523D02*
X147522618Y-95984761D01*
X147522618Y-95984761D02*
X147808333Y-95984761D01*
X146284523Y-95984761D02*
X146284523Y-94651428D01*
X146284523Y-95032380D02*
X146189285Y-94841904D01*
X146189285Y-94841904D02*
X146094047Y-94746666D01*
X146094047Y-94746666D02*
X145903571Y-94651428D01*
X145903571Y-94651428D02*
X145713094Y-94651428D01*
X144189285Y-95984761D02*
X144189285Y-94937142D01*
X144189285Y-94937142D02*
X144284523Y-94746666D01*
X144284523Y-94746666D02*
X144474999Y-94651428D01*
X144474999Y-94651428D02*
X144855952Y-94651428D01*
X144855952Y-94651428D02*
X145046428Y-94746666D01*
X144189285Y-95889523D02*
X144379761Y-95984761D01*
X144379761Y-95984761D02*
X144855952Y-95984761D01*
X144855952Y-95984761D02*
X145046428Y-95889523D01*
X145046428Y-95889523D02*
X145141666Y-95699047D01*
X145141666Y-95699047D02*
X145141666Y-95508571D01*
X145141666Y-95508571D02*
X145046428Y-95318095D01*
X145046428Y-95318095D02*
X144855952Y-95222857D01*
X144855952Y-95222857D02*
X144379761Y-95222857D01*
X144379761Y-95222857D02*
X144189285Y-95127619D01*
X143236904Y-95984761D02*
X143236904Y-94651428D01*
X143236904Y-93984761D02*
X143332142Y-94080000D01*
X143332142Y-94080000D02*
X143236904Y-94175238D01*
X143236904Y-94175238D02*
X143141666Y-94080000D01*
X143141666Y-94080000D02*
X143236904Y-93984761D01*
X143236904Y-93984761D02*
X143236904Y-94175238D01*
X141998809Y-95984761D02*
X142189285Y-95889523D01*
X142189285Y-95889523D02*
X142284523Y-95699047D01*
X142284523Y-95699047D02*
X142284523Y-93984761D01*
X140132142Y-95889523D02*
X139846428Y-95984761D01*
X139846428Y-95984761D02*
X139370237Y-95984761D01*
X139370237Y-95984761D02*
X139179761Y-95889523D01*
X139179761Y-95889523D02*
X139084523Y-95794285D01*
X139084523Y-95794285D02*
X138989285Y-95603809D01*
X138989285Y-95603809D02*
X138989285Y-95413333D01*
X138989285Y-95413333D02*
X139084523Y-95222857D01*
X139084523Y-95222857D02*
X139179761Y-95127619D01*
X139179761Y-95127619D02*
X139370237Y-95032380D01*
X139370237Y-95032380D02*
X139751190Y-94937142D01*
X139751190Y-94937142D02*
X139941666Y-94841904D01*
X139941666Y-94841904D02*
X140036904Y-94746666D01*
X140036904Y-94746666D02*
X140132142Y-94556190D01*
X140132142Y-94556190D02*
X140132142Y-94365714D01*
X140132142Y-94365714D02*
X140036904Y-94175238D01*
X140036904Y-94175238D02*
X139941666Y-94080000D01*
X139941666Y-94080000D02*
X139751190Y-93984761D01*
X139751190Y-93984761D02*
X139274999Y-93984761D01*
X139274999Y-93984761D02*
X138989285Y-94080000D01*
X138417856Y-94651428D02*
X137655952Y-94651428D01*
X138132142Y-93984761D02*
X138132142Y-95699047D01*
X138132142Y-95699047D02*
X138036904Y-95889523D01*
X138036904Y-95889523D02*
X137846428Y-95984761D01*
X137846428Y-95984761D02*
X137655952Y-95984761D01*
X136227380Y-95889523D02*
X136417856Y-95984761D01*
X136417856Y-95984761D02*
X136798809Y-95984761D01*
X136798809Y-95984761D02*
X136989285Y-95889523D01*
X136989285Y-95889523D02*
X137084523Y-95699047D01*
X137084523Y-95699047D02*
X137084523Y-94937142D01*
X137084523Y-94937142D02*
X136989285Y-94746666D01*
X136989285Y-94746666D02*
X136798809Y-94651428D01*
X136798809Y-94651428D02*
X136417856Y-94651428D01*
X136417856Y-94651428D02*
X136227380Y-94746666D01*
X136227380Y-94746666D02*
X136132142Y-94937142D01*
X136132142Y-94937142D02*
X136132142Y-95127619D01*
X136132142Y-95127619D02*
X137084523Y-95318095D01*
X134417856Y-95984761D02*
X134417856Y-94937142D01*
X134417856Y-94937142D02*
X134513094Y-94746666D01*
X134513094Y-94746666D02*
X134703570Y-94651428D01*
X134703570Y-94651428D02*
X135084523Y-94651428D01*
X135084523Y-94651428D02*
X135274999Y-94746666D01*
X134417856Y-95889523D02*
X134608332Y-95984761D01*
X134608332Y-95984761D02*
X135084523Y-95984761D01*
X135084523Y-95984761D02*
X135274999Y-95889523D01*
X135274999Y-95889523D02*
X135370237Y-95699047D01*
X135370237Y-95699047D02*
X135370237Y-95508571D01*
X135370237Y-95508571D02*
X135274999Y-95318095D01*
X135274999Y-95318095D02*
X135084523Y-95222857D01*
X135084523Y-95222857D02*
X134608332Y-95222857D01*
X134608332Y-95222857D02*
X134417856Y-95127619D01*
X133465475Y-95984761D02*
X133465475Y-94651428D01*
X133465475Y-94841904D02*
X133370237Y-94746666D01*
X133370237Y-94746666D02*
X133179761Y-94651428D01*
X133179761Y-94651428D02*
X132894046Y-94651428D01*
X132894046Y-94651428D02*
X132703570Y-94746666D01*
X132703570Y-94746666D02*
X132608332Y-94937142D01*
X132608332Y-94937142D02*
X132608332Y-95984761D01*
X132608332Y-94937142D02*
X132513094Y-94746666D01*
X132513094Y-94746666D02*
X132322618Y-94651428D01*
X132322618Y-94651428D02*
X132036904Y-94651428D01*
X132036904Y-94651428D02*
X131846427Y-94746666D01*
X131846427Y-94746666D02*
X131751189Y-94937142D01*
X131751189Y-94937142D02*
X131751189Y-95984761D01*
M02*
