%TF.GenerationSoftware,KiCad,Pcbnew,(7.0.0)*%
%TF.CreationDate,2023-05-06T02:31:30-05:00*%
%TF.ProjectId,Hull_V4N_Tray_Base,48756c6c-5f56-4344-9e5f-547261795f42,rev?*%
%TF.SameCoordinates,Original*%
%TF.FileFunction,Legend,Top*%
%TF.FilePolarity,Positive*%
%FSLAX46Y46*%
G04 Gerber Fmt 4.6, Leading zero omitted, Abs format (unit mm)*
G04 Created by KiCad (PCBNEW (7.0.0)) date 2023-05-06 02:31:30*
%MOMM*%
%LPD*%
G01*
G04 APERTURE LIST*
%ADD10C,0.150000*%
%ADD11C,0.300000*%
G04 APERTURE END LIST*
D10*
X204280951Y-96204880D02*
X204280951Y-96919166D01*
X204280951Y-96919166D02*
X204233332Y-97062023D01*
X204233332Y-97062023D02*
X204138094Y-97157261D01*
X204138094Y-97157261D02*
X203995237Y-97204880D01*
X203995237Y-97204880D02*
X203899999Y-97204880D01*
X205233332Y-97204880D02*
X204757142Y-97204880D01*
X204757142Y-97204880D02*
X204757142Y-96204880D01*
X206138094Y-97109642D02*
X206090475Y-97157261D01*
X206090475Y-97157261D02*
X205947618Y-97204880D01*
X205947618Y-97204880D02*
X205852380Y-97204880D01*
X205852380Y-97204880D02*
X205709523Y-97157261D01*
X205709523Y-97157261D02*
X205614285Y-97062023D01*
X205614285Y-97062023D02*
X205566666Y-96966785D01*
X205566666Y-96966785D02*
X205519047Y-96776309D01*
X205519047Y-96776309D02*
X205519047Y-96633452D01*
X205519047Y-96633452D02*
X205566666Y-96442976D01*
X205566666Y-96442976D02*
X205614285Y-96347738D01*
X205614285Y-96347738D02*
X205709523Y-96252500D01*
X205709523Y-96252500D02*
X205852380Y-96204880D01*
X205852380Y-96204880D02*
X205947618Y-96204880D01*
X205947618Y-96204880D02*
X206090475Y-96252500D01*
X206090475Y-96252500D02*
X206138094Y-96300119D01*
X206852380Y-96204880D02*
X206852380Y-96919166D01*
X206852380Y-96919166D02*
X206804761Y-97062023D01*
X206804761Y-97062023D02*
X206709523Y-97157261D01*
X206709523Y-97157261D02*
X206566666Y-97204880D01*
X206566666Y-97204880D02*
X206471428Y-97204880D01*
X207804761Y-97204880D02*
X207328571Y-97204880D01*
X207328571Y-97204880D02*
X207328571Y-96204880D01*
X208709523Y-97109642D02*
X208661904Y-97157261D01*
X208661904Y-97157261D02*
X208519047Y-97204880D01*
X208519047Y-97204880D02*
X208423809Y-97204880D01*
X208423809Y-97204880D02*
X208280952Y-97157261D01*
X208280952Y-97157261D02*
X208185714Y-97062023D01*
X208185714Y-97062023D02*
X208138095Y-96966785D01*
X208138095Y-96966785D02*
X208090476Y-96776309D01*
X208090476Y-96776309D02*
X208090476Y-96633452D01*
X208090476Y-96633452D02*
X208138095Y-96442976D01*
X208138095Y-96442976D02*
X208185714Y-96347738D01*
X208185714Y-96347738D02*
X208280952Y-96252500D01*
X208280952Y-96252500D02*
X208423809Y-96204880D01*
X208423809Y-96204880D02*
X208519047Y-96204880D01*
X208519047Y-96204880D02*
X208661904Y-96252500D01*
X208661904Y-96252500D02*
X208709523Y-96300119D01*
X209423809Y-96204880D02*
X209423809Y-96919166D01*
X209423809Y-96919166D02*
X209376190Y-97062023D01*
X209376190Y-97062023D02*
X209280952Y-97157261D01*
X209280952Y-97157261D02*
X209138095Y-97204880D01*
X209138095Y-97204880D02*
X209042857Y-97204880D01*
X210376190Y-97204880D02*
X209900000Y-97204880D01*
X209900000Y-97204880D02*
X209900000Y-96204880D01*
X211280952Y-97109642D02*
X211233333Y-97157261D01*
X211233333Y-97157261D02*
X211090476Y-97204880D01*
X211090476Y-97204880D02*
X210995238Y-97204880D01*
X210995238Y-97204880D02*
X210852381Y-97157261D01*
X210852381Y-97157261D02*
X210757143Y-97062023D01*
X210757143Y-97062023D02*
X210709524Y-96966785D01*
X210709524Y-96966785D02*
X210661905Y-96776309D01*
X210661905Y-96776309D02*
X210661905Y-96633452D01*
X210661905Y-96633452D02*
X210709524Y-96442976D01*
X210709524Y-96442976D02*
X210757143Y-96347738D01*
X210757143Y-96347738D02*
X210852381Y-96252500D01*
X210852381Y-96252500D02*
X210995238Y-96204880D01*
X210995238Y-96204880D02*
X211090476Y-96204880D01*
X211090476Y-96204880D02*
X211233333Y-96252500D01*
X211233333Y-96252500D02*
X211280952Y-96300119D01*
X211995238Y-96204880D02*
X211995238Y-96919166D01*
X211995238Y-96919166D02*
X211947619Y-97062023D01*
X211947619Y-97062023D02*
X211852381Y-97157261D01*
X211852381Y-97157261D02*
X211709524Y-97204880D01*
X211709524Y-97204880D02*
X211614286Y-97204880D01*
X212947619Y-97204880D02*
X212471429Y-97204880D01*
X212471429Y-97204880D02*
X212471429Y-96204880D01*
X213852381Y-97109642D02*
X213804762Y-97157261D01*
X213804762Y-97157261D02*
X213661905Y-97204880D01*
X213661905Y-97204880D02*
X213566667Y-97204880D01*
X213566667Y-97204880D02*
X213423810Y-97157261D01*
X213423810Y-97157261D02*
X213328572Y-97062023D01*
X213328572Y-97062023D02*
X213280953Y-96966785D01*
X213280953Y-96966785D02*
X213233334Y-96776309D01*
X213233334Y-96776309D02*
X213233334Y-96633452D01*
X213233334Y-96633452D02*
X213280953Y-96442976D01*
X213280953Y-96442976D02*
X213328572Y-96347738D01*
X213328572Y-96347738D02*
X213423810Y-96252500D01*
X213423810Y-96252500D02*
X213566667Y-96204880D01*
X213566667Y-96204880D02*
X213661905Y-96204880D01*
X213661905Y-96204880D02*
X213804762Y-96252500D01*
X213804762Y-96252500D02*
X213852381Y-96300119D01*
D11*
X119467856Y-97572261D02*
X119467856Y-95572261D01*
X119467856Y-95572261D02*
X120134523Y-97000833D01*
X120134523Y-97000833D02*
X120801189Y-95572261D01*
X120801189Y-95572261D02*
X120801189Y-97572261D01*
X122039284Y-97572261D02*
X121848808Y-97477023D01*
X121848808Y-97477023D02*
X121753570Y-97381785D01*
X121753570Y-97381785D02*
X121658332Y-97191309D01*
X121658332Y-97191309D02*
X121658332Y-96619880D01*
X121658332Y-96619880D02*
X121753570Y-96429404D01*
X121753570Y-96429404D02*
X121848808Y-96334166D01*
X121848808Y-96334166D02*
X122039284Y-96238928D01*
X122039284Y-96238928D02*
X122324999Y-96238928D01*
X122324999Y-96238928D02*
X122515475Y-96334166D01*
X122515475Y-96334166D02*
X122610713Y-96429404D01*
X122610713Y-96429404D02*
X122705951Y-96619880D01*
X122705951Y-96619880D02*
X122705951Y-97191309D01*
X122705951Y-97191309D02*
X122610713Y-97381785D01*
X122610713Y-97381785D02*
X122515475Y-97477023D01*
X122515475Y-97477023D02*
X122324999Y-97572261D01*
X122324999Y-97572261D02*
X122039284Y-97572261D01*
X123563094Y-96238928D02*
X123563094Y-97572261D01*
X123563094Y-96429404D02*
X123658332Y-96334166D01*
X123658332Y-96334166D02*
X123848808Y-96238928D01*
X123848808Y-96238928D02*
X124134523Y-96238928D01*
X124134523Y-96238928D02*
X124324999Y-96334166D01*
X124324999Y-96334166D02*
X124420237Y-96524642D01*
X124420237Y-96524642D02*
X124420237Y-97572261D01*
X125658332Y-97572261D02*
X125467856Y-97477023D01*
X125467856Y-97477023D02*
X125372618Y-97381785D01*
X125372618Y-97381785D02*
X125277380Y-97191309D01*
X125277380Y-97191309D02*
X125277380Y-96619880D01*
X125277380Y-96619880D02*
X125372618Y-96429404D01*
X125372618Y-96429404D02*
X125467856Y-96334166D01*
X125467856Y-96334166D02*
X125658332Y-96238928D01*
X125658332Y-96238928D02*
X125944047Y-96238928D01*
X125944047Y-96238928D02*
X126134523Y-96334166D01*
X126134523Y-96334166D02*
X126229761Y-96429404D01*
X126229761Y-96429404D02*
X126324999Y-96619880D01*
X126324999Y-96619880D02*
X126324999Y-97191309D01*
X126324999Y-97191309D02*
X126229761Y-97381785D01*
X126229761Y-97381785D02*
X126134523Y-97477023D01*
X126134523Y-97477023D02*
X125944047Y-97572261D01*
X125944047Y-97572261D02*
X125658332Y-97572261D01*
X127182142Y-97572261D02*
X127182142Y-96238928D01*
X127182142Y-96619880D02*
X127277380Y-96429404D01*
X127277380Y-96429404D02*
X127372618Y-96334166D01*
X127372618Y-96334166D02*
X127563094Y-96238928D01*
X127563094Y-96238928D02*
X127753571Y-96238928D01*
X129277380Y-97572261D02*
X129277380Y-96524642D01*
X129277380Y-96524642D02*
X129182142Y-96334166D01*
X129182142Y-96334166D02*
X128991666Y-96238928D01*
X128991666Y-96238928D02*
X128610713Y-96238928D01*
X128610713Y-96238928D02*
X128420237Y-96334166D01*
X129277380Y-97477023D02*
X129086904Y-97572261D01*
X129086904Y-97572261D02*
X128610713Y-97572261D01*
X128610713Y-97572261D02*
X128420237Y-97477023D01*
X128420237Y-97477023D02*
X128324999Y-97286547D01*
X128324999Y-97286547D02*
X128324999Y-97096071D01*
X128324999Y-97096071D02*
X128420237Y-96905595D01*
X128420237Y-96905595D02*
X128610713Y-96810357D01*
X128610713Y-96810357D02*
X129086904Y-96810357D01*
X129086904Y-96810357D02*
X129277380Y-96715119D01*
X130229761Y-97572261D02*
X130229761Y-96238928D01*
X130229761Y-95572261D02*
X130134523Y-95667500D01*
X130134523Y-95667500D02*
X130229761Y-95762738D01*
X130229761Y-95762738D02*
X130324999Y-95667500D01*
X130324999Y-95667500D02*
X130229761Y-95572261D01*
X130229761Y-95572261D02*
X130229761Y-95762738D01*
X131467856Y-97572261D02*
X131277380Y-97477023D01*
X131277380Y-97477023D02*
X131182142Y-97286547D01*
X131182142Y-97286547D02*
X131182142Y-95572261D01*
X133334523Y-97477023D02*
X133620237Y-97572261D01*
X133620237Y-97572261D02*
X134096428Y-97572261D01*
X134096428Y-97572261D02*
X134286904Y-97477023D01*
X134286904Y-97477023D02*
X134382142Y-97381785D01*
X134382142Y-97381785D02*
X134477380Y-97191309D01*
X134477380Y-97191309D02*
X134477380Y-97000833D01*
X134477380Y-97000833D02*
X134382142Y-96810357D01*
X134382142Y-96810357D02*
X134286904Y-96715119D01*
X134286904Y-96715119D02*
X134096428Y-96619880D01*
X134096428Y-96619880D02*
X133715475Y-96524642D01*
X133715475Y-96524642D02*
X133524999Y-96429404D01*
X133524999Y-96429404D02*
X133429761Y-96334166D01*
X133429761Y-96334166D02*
X133334523Y-96143690D01*
X133334523Y-96143690D02*
X133334523Y-95953214D01*
X133334523Y-95953214D02*
X133429761Y-95762738D01*
X133429761Y-95762738D02*
X133524999Y-95667500D01*
X133524999Y-95667500D02*
X133715475Y-95572261D01*
X133715475Y-95572261D02*
X134191666Y-95572261D01*
X134191666Y-95572261D02*
X134477380Y-95667500D01*
X135334523Y-97572261D02*
X135334523Y-95572261D01*
X135524999Y-96810357D02*
X136096428Y-97572261D01*
X136096428Y-96238928D02*
X135334523Y-97000833D01*
X137715476Y-97477023D02*
X137525000Y-97572261D01*
X137525000Y-97572261D02*
X137144047Y-97572261D01*
X137144047Y-97572261D02*
X136953571Y-97477023D01*
X136953571Y-97477023D02*
X136858333Y-97286547D01*
X136858333Y-97286547D02*
X136858333Y-96524642D01*
X136858333Y-96524642D02*
X136953571Y-96334166D01*
X136953571Y-96334166D02*
X137144047Y-96238928D01*
X137144047Y-96238928D02*
X137525000Y-96238928D01*
X137525000Y-96238928D02*
X137715476Y-96334166D01*
X137715476Y-96334166D02*
X137810714Y-96524642D01*
X137810714Y-96524642D02*
X137810714Y-96715119D01*
X137810714Y-96715119D02*
X136858333Y-96905595D01*
X138953571Y-97572261D02*
X138763095Y-97477023D01*
X138763095Y-97477023D02*
X138667857Y-97286547D01*
X138667857Y-97286547D02*
X138667857Y-95572261D01*
X140477381Y-97477023D02*
X140286905Y-97572261D01*
X140286905Y-97572261D02*
X139905952Y-97572261D01*
X139905952Y-97572261D02*
X139715476Y-97477023D01*
X139715476Y-97477023D02*
X139620238Y-97286547D01*
X139620238Y-97286547D02*
X139620238Y-96524642D01*
X139620238Y-96524642D02*
X139715476Y-96334166D01*
X139715476Y-96334166D02*
X139905952Y-96238928D01*
X139905952Y-96238928D02*
X140286905Y-96238928D01*
X140286905Y-96238928D02*
X140477381Y-96334166D01*
X140477381Y-96334166D02*
X140572619Y-96524642D01*
X140572619Y-96524642D02*
X140572619Y-96715119D01*
X140572619Y-96715119D02*
X139620238Y-96905595D01*
X141144048Y-96238928D02*
X141905952Y-96238928D01*
X141429762Y-95572261D02*
X141429762Y-97286547D01*
X141429762Y-97286547D02*
X141525000Y-97477023D01*
X141525000Y-97477023D02*
X141715476Y-97572261D01*
X141715476Y-97572261D02*
X141905952Y-97572261D01*
X142858333Y-97572261D02*
X142667857Y-97477023D01*
X142667857Y-97477023D02*
X142572619Y-97381785D01*
X142572619Y-97381785D02*
X142477381Y-97191309D01*
X142477381Y-97191309D02*
X142477381Y-96619880D01*
X142477381Y-96619880D02*
X142572619Y-96429404D01*
X142572619Y-96429404D02*
X142667857Y-96334166D01*
X142667857Y-96334166D02*
X142858333Y-96238928D01*
X142858333Y-96238928D02*
X143144048Y-96238928D01*
X143144048Y-96238928D02*
X143334524Y-96334166D01*
X143334524Y-96334166D02*
X143429762Y-96429404D01*
X143429762Y-96429404D02*
X143525000Y-96619880D01*
X143525000Y-96619880D02*
X143525000Y-97191309D01*
X143525000Y-97191309D02*
X143429762Y-97381785D01*
X143429762Y-97381785D02*
X143334524Y-97477023D01*
X143334524Y-97477023D02*
X143144048Y-97572261D01*
X143144048Y-97572261D02*
X142858333Y-97572261D01*
X144382143Y-96238928D02*
X144382143Y-97572261D01*
X144382143Y-96429404D02*
X144477381Y-96334166D01*
X144477381Y-96334166D02*
X144667857Y-96238928D01*
X144667857Y-96238928D02*
X144953572Y-96238928D01*
X144953572Y-96238928D02*
X145144048Y-96334166D01*
X145144048Y-96334166D02*
X145239286Y-96524642D01*
X145239286Y-96524642D02*
X145239286Y-97572261D01*
X148058334Y-96524642D02*
X148344048Y-96619880D01*
X148344048Y-96619880D02*
X148439286Y-96715119D01*
X148439286Y-96715119D02*
X148534524Y-96905595D01*
X148534524Y-96905595D02*
X148534524Y-97191309D01*
X148534524Y-97191309D02*
X148439286Y-97381785D01*
X148439286Y-97381785D02*
X148344048Y-97477023D01*
X148344048Y-97477023D02*
X148153572Y-97572261D01*
X148153572Y-97572261D02*
X147391667Y-97572261D01*
X147391667Y-97572261D02*
X147391667Y-95572261D01*
X147391667Y-95572261D02*
X148058334Y-95572261D01*
X148058334Y-95572261D02*
X148248810Y-95667500D01*
X148248810Y-95667500D02*
X148344048Y-95762738D01*
X148344048Y-95762738D02*
X148439286Y-95953214D01*
X148439286Y-95953214D02*
X148439286Y-96143690D01*
X148439286Y-96143690D02*
X148344048Y-96334166D01*
X148344048Y-96334166D02*
X148248810Y-96429404D01*
X148248810Y-96429404D02*
X148058334Y-96524642D01*
X148058334Y-96524642D02*
X147391667Y-96524642D01*
X150248810Y-97572261D02*
X150248810Y-96524642D01*
X150248810Y-96524642D02*
X150153572Y-96334166D01*
X150153572Y-96334166D02*
X149963096Y-96238928D01*
X149963096Y-96238928D02*
X149582143Y-96238928D01*
X149582143Y-96238928D02*
X149391667Y-96334166D01*
X150248810Y-97477023D02*
X150058334Y-97572261D01*
X150058334Y-97572261D02*
X149582143Y-97572261D01*
X149582143Y-97572261D02*
X149391667Y-97477023D01*
X149391667Y-97477023D02*
X149296429Y-97286547D01*
X149296429Y-97286547D02*
X149296429Y-97096071D01*
X149296429Y-97096071D02*
X149391667Y-96905595D01*
X149391667Y-96905595D02*
X149582143Y-96810357D01*
X149582143Y-96810357D02*
X150058334Y-96810357D01*
X150058334Y-96810357D02*
X150248810Y-96715119D01*
X151105953Y-97477023D02*
X151296429Y-97572261D01*
X151296429Y-97572261D02*
X151677381Y-97572261D01*
X151677381Y-97572261D02*
X151867858Y-97477023D01*
X151867858Y-97477023D02*
X151963096Y-97286547D01*
X151963096Y-97286547D02*
X151963096Y-97191309D01*
X151963096Y-97191309D02*
X151867858Y-97000833D01*
X151867858Y-97000833D02*
X151677381Y-96905595D01*
X151677381Y-96905595D02*
X151391667Y-96905595D01*
X151391667Y-96905595D02*
X151201191Y-96810357D01*
X151201191Y-96810357D02*
X151105953Y-96619880D01*
X151105953Y-96619880D02*
X151105953Y-96524642D01*
X151105953Y-96524642D02*
X151201191Y-96334166D01*
X151201191Y-96334166D02*
X151391667Y-96238928D01*
X151391667Y-96238928D02*
X151677381Y-96238928D01*
X151677381Y-96238928D02*
X151867858Y-96334166D01*
X153582144Y-97477023D02*
X153391668Y-97572261D01*
X153391668Y-97572261D02*
X153010715Y-97572261D01*
X153010715Y-97572261D02*
X152820239Y-97477023D01*
X152820239Y-97477023D02*
X152725001Y-97286547D01*
X152725001Y-97286547D02*
X152725001Y-96524642D01*
X152725001Y-96524642D02*
X152820239Y-96334166D01*
X152820239Y-96334166D02*
X153010715Y-96238928D01*
X153010715Y-96238928D02*
X153391668Y-96238928D01*
X153391668Y-96238928D02*
X153582144Y-96334166D01*
X153582144Y-96334166D02*
X153677382Y-96524642D01*
X153677382Y-96524642D02*
X153677382Y-96715119D01*
X153677382Y-96715119D02*
X152725001Y-96905595D01*
D10*
%TO.C,*%
%TD*%
M02*
