%TF.GenerationSoftware,KiCad,Pcbnew,(7.0.0)*%
%TF.CreationDate,2023-05-06T02:31:30-05:00*%
%TF.ProjectId,Hull_V4N_Tray_Base,48756c6c-5f56-4344-9e5f-547261795f42,rev?*%
%TF.SameCoordinates,Original*%
%TF.FileFunction,Soldermask,Top*%
%TF.FilePolarity,Negative*%
%FSLAX46Y46*%
G04 Gerber Fmt 4.6, Leading zero omitted, Abs format (unit mm)*
G04 Created by KiCad (PCBNEW (7.0.0)) date 2023-05-06 02:31:30*
%MOMM*%
%LPD*%
G01*
G04 APERTURE LIST*
%ADD10C,0.500000*%
%ADD11C,5.000000*%
G04 APERTURE END LIST*
D10*
%TO.C,REF\u002A\u002A*%
X98687500Y-59741515D03*
X97947500Y-59741515D03*
X94987500Y-59741515D03*
X95727500Y-59741515D03*
X96837500Y-59741515D03*
%TD*%
%TO.C,REF\u002A\u002A*%
X262725000Y-133187500D03*
X263125000Y-132447500D03*
X263275000Y-130227500D03*
X263275000Y-131707500D03*
X263275000Y-130967500D03*
%TD*%
D11*
%TO.C,*%
X202974795Y-124287900D03*
%TD*%
D10*
%TO.C,REF\u002A\u002A*%
X77787500Y-59741515D03*
X79637500Y-59741515D03*
X75937500Y-59741515D03*
X78897500Y-59741515D03*
X76677500Y-59741515D03*
%TD*%
%TO.C,REF\u002A\u002A*%
X58737500Y-59741515D03*
X56887500Y-59741515D03*
X57627500Y-59741515D03*
X60587500Y-59741515D03*
X59847500Y-59741515D03*
%TD*%
D11*
%TO.C,*%
X16637500Y-61412500D03*
%TD*%
D10*
%TO.C,REF\u002A\u002A*%
X114777500Y-59741515D03*
X115887500Y-59741515D03*
X114037500Y-59741515D03*
X116997500Y-59741515D03*
X117737500Y-59741515D03*
%TD*%
D11*
%TO.C,*%
X52037503Y-77788001D03*
%TD*%
%TO.C,*%
X97387502Y-124087902D03*
%TD*%
%TO.C,*%
X231274795Y-75487999D03*
%TD*%
%TO.C,*%
X267525002Y-132262501D03*
%TD*%
D10*
%TO.C,REF\u002A\u002A*%
X21037502Y-61227501D03*
X20887502Y-61967501D03*
X20887502Y-62707501D03*
X21437502Y-60487501D03*
X20887502Y-63447501D03*
%TD*%
D11*
%TO.C,*%
X158724796Y-96888001D03*
%TD*%
%TO.C,*%
X128237502Y-77788001D03*
%TD*%
%TO.C,*%
X50487503Y-112537900D03*
%TD*%
%TO.C,*%
X87312500Y-50800000D03*
%TD*%
%TO.C,*%
X267525001Y-61412501D03*
%TD*%
D10*
%TO.C,REF\u002A\u002A*%
X40797500Y-59741515D03*
X37837500Y-59741515D03*
X41537500Y-59741515D03*
X38577500Y-59741515D03*
X39687500Y-59741515D03*
%TD*%
D11*
%TO.C,*%
X16637499Y-132262500D03*
%TD*%
D10*
%TO.C,REF\u002A\u002A*%
X133087500Y-59741515D03*
X133827500Y-59741515D03*
X136047500Y-59741515D03*
X134937500Y-59741515D03*
X136787500Y-59741515D03*
%TD*%
%TO.C,REF\u002A\u002A*%
X20887501Y-130967500D03*
X20887501Y-131707500D03*
X20887501Y-130227500D03*
X21437501Y-133187500D03*
X21037501Y-132447500D03*
%TD*%
%TO.C,REF\u002A\u002A*%
X263275000Y-63447501D03*
X263275000Y-61967501D03*
X263275000Y-62707501D03*
X262725000Y-60487501D03*
X263125000Y-61227501D03*
%TD*%
M02*
