%TF.GenerationSoftware,KiCad,Pcbnew,(7.0.0)*%
%TF.CreationDate,2023-05-06T02:31:30-05:00*%
%TF.ProjectId,Hull_V4N_Tray_Base,48756c6c-5f56-4344-9e5f-547261795f42,rev?*%
%TF.SameCoordinates,Original*%
%TF.FileFunction,Soldermask,Bot*%
%TF.FilePolarity,Negative*%
%FSLAX46Y46*%
G04 Gerber Fmt 4.6, Leading zero omitted, Abs format (unit mm)*
G04 Created by KiCad (PCBNEW (7.0.0)) date 2023-05-06 02:31:30*
%MOMM*%
%LPD*%
G01*
G04 APERTURE LIST*
%ADD10C,0.500000*%
%ADD11C,0.500000*%
%ADD12C,5.000000*%
G04 APERTURE END LIST*
D10*
X144462500Y-124618750D02*
G75*
G03*
X144462500Y-124618750I-3175000J0D01*
G01*
X149225000Y-124618750D02*
X149225000Y-127793750D01*
X157162500Y-124618750D02*
G75*
G03*
X157162500Y-124618750I-1587500J0D01*
G01*
X134937500Y-123031250D02*
X134143750Y-123031250D01*
X146050000Y-127793750D02*
X149225000Y-124618750D01*
X119062500Y-127793750D02*
X119062500Y-121443750D01*
X119062500Y-127793750D02*
X114300000Y-127793750D01*
X159940625Y-127793750D02*
X161528125Y-121443750D01*
X134937500Y-127793750D02*
X134937500Y-126206250D01*
X134143750Y-121443767D02*
G75*
G03*
X133390733Y-126084051I-50J-2381233D01*
G01*
X167878125Y-127793750D02*
X165496875Y-124618750D01*
X142875000Y-124618750D02*
G75*
G03*
X142875000Y-124618750I-1587500J0D01*
G01*
X150812500Y-127793750D02*
X150812500Y-121443750D01*
X146050000Y-127793750D02*
X146050000Y-121443750D01*
X136525000Y-127793750D02*
X136525000Y-121443750D01*
X163909375Y-124618750D02*
X161528125Y-121443750D01*
X133350000Y-127793750D02*
X134937500Y-126206250D01*
X127000000Y-121443750D02*
X123825000Y-127793750D01*
X134937500Y-124618750D02*
X134143750Y-124618750D01*
X163909375Y-124618750D02*
X164703125Y-121443750D01*
X117475000Y-126206250D02*
X117475000Y-121443750D01*
X169465625Y-127793750D02*
X164703125Y-121443750D01*
X122237500Y-127793750D02*
X123825000Y-121443750D01*
X150812500Y-121443750D02*
X147637500Y-124618750D01*
X130175000Y-127793750D02*
X127000000Y-121443750D01*
X158750000Y-124618750D02*
G75*
G03*
X158750000Y-124618750I-3175000J0D01*
G01*
X120650000Y-127793750D02*
X122237500Y-121443750D01*
X134937500Y-124618750D02*
X134937500Y-123031250D01*
X164703125Y-127793750D02*
X162321875Y-124618750D01*
X125412500Y-127793750D02*
X127000000Y-124618750D01*
X131762500Y-127793750D02*
X133350000Y-126206250D01*
X127000000Y-124618750D02*
X128587500Y-127793750D01*
X134143750Y-121443750D02*
X136525000Y-121443750D01*
X134143750Y-123031250D02*
G75*
G03*
X134143750Y-124618750I50J-793750D01*
G01*
X161528125Y-127793750D02*
X162321875Y-124618750D01*
X147637500Y-124618750D02*
X147637500Y-121443750D01*
X164703125Y-127793750D02*
X165496875Y-124618750D01*
X114300000Y-126206250D02*
X117475000Y-126206250D01*
%TO.C,G\u002A\u002A\u002A*%
G36*
X225020957Y-85269045D02*
G01*
X225438303Y-85693013D01*
X225674491Y-86496316D01*
X225779531Y-87778048D01*
X225803430Y-89637303D01*
X225800162Y-90298189D01*
X225739716Y-92111719D01*
X225601060Y-93285296D01*
X225381621Y-93844579D01*
X225300125Y-93909260D01*
X224596783Y-94130798D01*
X223603621Y-94166312D01*
X222247430Y-94066236D01*
X222247430Y-85260902D01*
X223541065Y-85154383D01*
X224372443Y-85125317D01*
X225020957Y-85269045D01*
G37*
G36*
X167240819Y-85193560D02*
G01*
X167552764Y-85282540D01*
X167540632Y-85339203D01*
X167353463Y-85890104D01*
X166975067Y-86912014D01*
X166450622Y-88284505D01*
X165825308Y-89887149D01*
X164097853Y-94273394D01*
X163031308Y-94169815D01*
X161964764Y-94066236D01*
X161964764Y-85260902D01*
X164758764Y-85162539D01*
X165217855Y-85149345D01*
X166410006Y-85146906D01*
X167240819Y-85193560D01*
G37*
G36*
X120269163Y-85096813D02*
G01*
X121280535Y-85139667D01*
X121859594Y-85256268D01*
X122150307Y-85482330D01*
X122296640Y-85853569D01*
X122345901Y-86109323D01*
X122433872Y-87098229D01*
X122483372Y-88463114D01*
X122494398Y-89993534D01*
X122466951Y-91479046D01*
X122401032Y-92709205D01*
X122296640Y-93473569D01*
X122247477Y-93630632D01*
X121851693Y-94105754D01*
X121028149Y-94235569D01*
X120883035Y-94234669D01*
X120483386Y-94191076D01*
X120153762Y-94009402D01*
X119831069Y-93591002D01*
X119452214Y-92837233D01*
X118954105Y-91649452D01*
X118273648Y-89929015D01*
X118102165Y-89492201D01*
X117494323Y-87945781D01*
X116987223Y-86658579D01*
X116629688Y-85754391D01*
X116470542Y-85357015D01*
X116500379Y-85307179D01*
X116986822Y-85196885D01*
X117944276Y-85120270D01*
X119225042Y-85091569D01*
X120269163Y-85096813D01*
G37*
G36*
X93960972Y-85164390D02*
G01*
X97746278Y-85260902D01*
X95480854Y-89328042D01*
X95257224Y-89729183D01*
X94427486Y-91211379D01*
X93718831Y-92467961D01*
X93200428Y-93376701D01*
X92941443Y-93815376D01*
X92795354Y-93967559D01*
X92071080Y-94223101D01*
X91117127Y-94229991D01*
X90221286Y-94008901D01*
X89671346Y-93580500D01*
X89668308Y-93574748D01*
X89485485Y-92867333D01*
X89370452Y-91704474D01*
X89321384Y-90274569D01*
X89336452Y-88766016D01*
X89413831Y-87367214D01*
X89551695Y-86266560D01*
X89748215Y-85652453D01*
X89983007Y-85420463D01*
X90409964Y-85247873D01*
X91130158Y-85157526D01*
X92271268Y-85134629D01*
X93960972Y-85164390D01*
G37*
G36*
X61719430Y-85260902D02*
G01*
X61815407Y-89305186D01*
X61839036Y-90872649D01*
X61833578Y-92271329D01*
X61800193Y-93294930D01*
X61741369Y-93792520D01*
X61606318Y-93951068D01*
X60963547Y-94170771D01*
X60061900Y-94225785D01*
X59173341Y-94112965D01*
X58569830Y-93829169D01*
X58471552Y-93658275D01*
X58300822Y-92872315D01*
X58194233Y-91670203D01*
X58151123Y-90229717D01*
X58170833Y-88728636D01*
X58252702Y-87344739D01*
X58396068Y-86255805D01*
X58600271Y-85639612D01*
X58689391Y-85530395D01*
X59318667Y-85182792D01*
X60378271Y-85151550D01*
X61719430Y-85260902D01*
G37*
G36*
X206483921Y-85229749D02*
G01*
X207109030Y-85497969D01*
X207160631Y-85566601D01*
X207356418Y-86290514D01*
X207475346Y-87662954D01*
X207515430Y-89663569D01*
X207513589Y-90142713D01*
X207456495Y-92010839D01*
X207320980Y-93246442D01*
X207109030Y-93829169D01*
X206936144Y-93941334D01*
X206171939Y-94151986D01*
X205144764Y-94235569D01*
X204698959Y-94219728D01*
X203747054Y-94075323D01*
X203180497Y-93829169D01*
X203128897Y-93760537D01*
X202933110Y-93036624D01*
X202814181Y-91664184D01*
X202774097Y-89663569D01*
X202775938Y-89184424D01*
X202833033Y-87316299D01*
X202968548Y-86080696D01*
X203180497Y-85497969D01*
X203506210Y-85314998D01*
X204396212Y-85138264D01*
X205484215Y-85109847D01*
X206483921Y-85229749D01*
G37*
G36*
X87458097Y-85260902D02*
G01*
X87554073Y-89305186D01*
X87577703Y-90872649D01*
X87572245Y-92271329D01*
X87538859Y-93294930D01*
X87480036Y-93792520D01*
X87397729Y-93897627D01*
X86802322Y-94120300D01*
X85857977Y-94226857D01*
X84800813Y-94215232D01*
X83866947Y-94083358D01*
X83292497Y-93829169D01*
X83136173Y-93491339D01*
X82978563Y-92573586D01*
X82887021Y-91289820D01*
X82860012Y-89813535D01*
X82896001Y-88318224D01*
X82993453Y-86977378D01*
X83150833Y-85964489D01*
X83366606Y-85453051D01*
X83605936Y-85330101D01*
X84474272Y-85170065D01*
X85652606Y-85157584D01*
X87458097Y-85260902D01*
G37*
G36*
X179337164Y-106431289D02*
G01*
X201504097Y-106510009D01*
X204973022Y-106524283D01*
X209830326Y-106552206D01*
X214065618Y-106587115D01*
X217670999Y-106628871D01*
X220638570Y-106677339D01*
X222960431Y-106732380D01*
X224628683Y-106793857D01*
X225635427Y-106861632D01*
X225972764Y-106935569D01*
X225831471Y-106984083D01*
X225060299Y-107054051D01*
X223624829Y-107117769D01*
X221532960Y-107175099D01*
X218792591Y-107225904D01*
X215411621Y-107270047D01*
X211397949Y-107307391D01*
X206759475Y-107337797D01*
X201504097Y-107361129D01*
X177035430Y-107448023D01*
X177035430Y-110606685D01*
X177029027Y-111359159D01*
X176984946Y-112642205D01*
X176908199Y-113573831D01*
X176809653Y-113991124D01*
X176340204Y-114198189D01*
X175762850Y-113824855D01*
X175391559Y-113612003D01*
X174848450Y-113866323D01*
X174356017Y-114127332D01*
X173818097Y-113878236D01*
X173358397Y-113631025D01*
X172816932Y-113865923D01*
X172437803Y-114107671D01*
X172047086Y-114053219D01*
X171794013Y-113494910D01*
X171657575Y-112376292D01*
X171616764Y-110640915D01*
X171616764Y-107443569D01*
X112350097Y-107443569D01*
X112350097Y-110640915D01*
X112329369Y-111957132D01*
X112221689Y-113241937D01*
X112003227Y-113950703D01*
X111652976Y-114139882D01*
X111149929Y-113865923D01*
X110698856Y-113629914D01*
X110148764Y-113878236D01*
X109674815Y-114129112D01*
X109132764Y-113878236D01*
X108673063Y-113631025D01*
X108131599Y-113865923D01*
X107753274Y-114107351D01*
X107362203Y-114053642D01*
X107108879Y-113495981D01*
X106972291Y-112377953D01*
X106931430Y-110643142D01*
X106931430Y-107448023D01*
X82490961Y-107361129D01*
X81978745Y-107359286D01*
X77189724Y-107339461D01*
X73035888Y-107316746D01*
X69478901Y-107290343D01*
X66480429Y-107259457D01*
X64002138Y-107223293D01*
X62005691Y-107181055D01*
X60452754Y-107131947D01*
X59304992Y-107075173D01*
X58524070Y-107009938D01*
X58071653Y-106935447D01*
X57909406Y-106850902D01*
X57912680Y-106822626D01*
X58096349Y-106742938D01*
X58571994Y-106674007D01*
X59378148Y-106615166D01*
X60553346Y-106565747D01*
X62136123Y-106525083D01*
X64165013Y-106492506D01*
X66678551Y-106467349D01*
X69715272Y-106448944D01*
X73313710Y-106436624D01*
X77512399Y-106429721D01*
X82349875Y-106427569D01*
X106931430Y-106427569D01*
X106931430Y-98976902D01*
X112327182Y-98976902D01*
X112519430Y-106258236D01*
X142068097Y-106344762D01*
X171616764Y-106431289D01*
X171616764Y-98976902D01*
X112327182Y-98976902D01*
X106931430Y-98976902D01*
X73572764Y-98976902D01*
X68322905Y-98976700D01*
X63440128Y-98975543D01*
X59156142Y-98972632D01*
X55430736Y-98967166D01*
X52223705Y-98958346D01*
X49494839Y-98945370D01*
X47203931Y-98927440D01*
X45310773Y-98903754D01*
X43775157Y-98873512D01*
X42556874Y-98835916D01*
X41615717Y-98790163D01*
X40911477Y-98735455D01*
X40403947Y-98670990D01*
X40052919Y-98595970D01*
X39818184Y-98509593D01*
X39659535Y-98411059D01*
X39536764Y-98299569D01*
X39078026Y-97750780D01*
X38859430Y-97283569D01*
X39039532Y-96874098D01*
X39536764Y-96267569D01*
X39653333Y-96160977D01*
X39809418Y-96061858D01*
X40039717Y-95974932D01*
X40384437Y-95899400D01*
X40883786Y-95834462D01*
X41577972Y-95779317D01*
X42507203Y-95733165D01*
X43711688Y-95695207D01*
X45231634Y-95664641D01*
X47107248Y-95640667D01*
X49378741Y-95622486D01*
X52086318Y-95609298D01*
X55270189Y-95600302D01*
X58970561Y-95594698D01*
X63227642Y-95591685D01*
X68081640Y-95590465D01*
X73572764Y-95590236D01*
X106931430Y-95590236D01*
X106931430Y-87482223D01*
X106931443Y-87342050D01*
X106939664Y-84654751D01*
X106969514Y-82577714D01*
X107030436Y-81046930D01*
X107131871Y-79998393D01*
X107283263Y-79368094D01*
X107494053Y-79092025D01*
X107773684Y-79106179D01*
X108131599Y-79346548D01*
X108582672Y-79582557D01*
X109132764Y-79334236D01*
X109606713Y-79083359D01*
X110148764Y-79334236D01*
X110608464Y-79581446D01*
X111149929Y-79346548D01*
X111168353Y-79331354D01*
X111522437Y-79100040D01*
X111798675Y-79097903D01*
X112006508Y-79388950D01*
X112155380Y-80037189D01*
X112254732Y-81106628D01*
X112314008Y-82661274D01*
X112342649Y-84765137D01*
X112350097Y-87482223D01*
X112350097Y-95590236D01*
X171616764Y-95590236D01*
X171616764Y-87482223D01*
X171616777Y-87342050D01*
X171624997Y-84654751D01*
X171654847Y-82577714D01*
X171715769Y-81046930D01*
X171817204Y-79998393D01*
X171968596Y-79368094D01*
X172179386Y-79092025D01*
X172459018Y-79106179D01*
X172816932Y-79346548D01*
X173268005Y-79582557D01*
X173818097Y-79334236D01*
X174309777Y-79085657D01*
X174859909Y-79355657D01*
X174888983Y-79379604D01*
X175353021Y-79627962D01*
X175672396Y-79347776D01*
X175889972Y-79147573D01*
X176493251Y-79104924D01*
X176562392Y-79139706D01*
X176718846Y-79327707D01*
X176837076Y-79716477D01*
X176922241Y-80385439D01*
X176979500Y-81414012D01*
X177014012Y-82881617D01*
X177030936Y-84867675D01*
X177035430Y-87451607D01*
X177035430Y-95590236D01*
X210394097Y-95590236D01*
X215643956Y-95590438D01*
X220526733Y-95591595D01*
X224810719Y-95594506D01*
X228536125Y-95599972D01*
X231743156Y-95608792D01*
X234472022Y-95621768D01*
X236762930Y-95639698D01*
X238656088Y-95663384D01*
X240191704Y-95693625D01*
X241409987Y-95731222D01*
X242351144Y-95776974D01*
X243055384Y-95831683D01*
X243562914Y-95896147D01*
X243913942Y-95971168D01*
X244148677Y-96057545D01*
X244307326Y-96156079D01*
X244430097Y-96267569D01*
X244981119Y-97010916D01*
X244998051Y-97758675D01*
X244354742Y-98449698D01*
X244339184Y-98460152D01*
X244147078Y-98546687D01*
X243829102Y-98623137D01*
X243345865Y-98690112D01*
X242657979Y-98748223D01*
X241726052Y-98798080D01*
X240510695Y-98840293D01*
X238972517Y-98875472D01*
X237072129Y-98904228D01*
X234770140Y-98927170D01*
X232027160Y-98944908D01*
X228803798Y-98958053D01*
X225060666Y-98967215D01*
X220758373Y-98973003D01*
X215857528Y-98976029D01*
X210318742Y-98976902D01*
X177035430Y-98976902D01*
X177035430Y-106423115D01*
X179337164Y-106431289D01*
G37*
G36*
X158467378Y-85157065D02*
G01*
X159489878Y-85292622D01*
X160034364Y-85497969D01*
X160171507Y-85800193D01*
X160322003Y-86690355D01*
X160415802Y-87958655D01*
X160452906Y-89429576D01*
X160433314Y-90927604D01*
X160357027Y-92277223D01*
X160224043Y-93302916D01*
X160034364Y-93829169D01*
X160026909Y-93836326D01*
X159431357Y-94051910D01*
X158244399Y-94188099D01*
X156546097Y-94235569D01*
X156491779Y-94235530D01*
X154806835Y-94185424D01*
X153635499Y-94046861D01*
X153057830Y-93829169D01*
X152920687Y-93526944D01*
X152770192Y-92636782D01*
X152676392Y-91368483D01*
X152639288Y-89897561D01*
X152658880Y-88399533D01*
X152735168Y-87049915D01*
X152868151Y-86024222D01*
X153057830Y-85497969D01*
X153511529Y-85312720D01*
X154488940Y-85169123D01*
X155771195Y-85095315D01*
X157162579Y-85091295D01*
X158467378Y-85157065D01*
G37*
G36*
X128097428Y-85092308D02*
G01*
X129578221Y-85136216D01*
X130577718Y-85325460D01*
X131190486Y-85766428D01*
X131511093Y-86565509D01*
X131634107Y-87829093D01*
X131654097Y-89663569D01*
X131654039Y-89768181D01*
X131627280Y-91445612D01*
X131540585Y-92577784D01*
X131377583Y-93288954D01*
X131121907Y-93703378D01*
X130816515Y-93913937D01*
X130142107Y-94104869D01*
X129048828Y-94205956D01*
X127408489Y-94235569D01*
X126629722Y-94233990D01*
X125319503Y-94182333D01*
X124442268Y-93978492D01*
X123911163Y-93517436D01*
X123639336Y-92694137D01*
X123539931Y-91403565D01*
X123526097Y-89540690D01*
X123526330Y-89196218D01*
X123559849Y-87492786D01*
X123719568Y-86340838D01*
X124103968Y-85632559D01*
X124811534Y-85260131D01*
X125940749Y-85115740D01*
X127590097Y-85091569D01*
X128097428Y-85092308D01*
G37*
G36*
X200038712Y-85218587D02*
G01*
X200674364Y-85497969D01*
X200812142Y-85796098D01*
X200965242Y-86685340D01*
X201059553Y-87954204D01*
X201095378Y-89426996D01*
X201073023Y-90928026D01*
X200992792Y-92281601D01*
X200854988Y-93312029D01*
X200659915Y-93843617D01*
X200506399Y-93949724D01*
X199672378Y-94147416D01*
X198373915Y-94165351D01*
X196508764Y-94066236D01*
X196413033Y-90050268D01*
X196400896Y-89433243D01*
X196411997Y-87477737D01*
X196514608Y-86186478D01*
X196708500Y-85562935D01*
X197067674Y-85339160D01*
X197958350Y-85143720D01*
X199041034Y-85102017D01*
X200038712Y-85218587D01*
G37*
G36*
X215030467Y-85095928D02*
G01*
X216203260Y-85159976D01*
X217026267Y-85274935D01*
X217336764Y-85441983D01*
X217232228Y-85762568D01*
X216786719Y-86684063D01*
X215995217Y-88168900D01*
X214862063Y-90208988D01*
X213391599Y-92796236D01*
X213180804Y-93155459D01*
X212660782Y-93862565D01*
X212109913Y-94169079D01*
X211294221Y-94235569D01*
X211125273Y-94232123D01*
X210204090Y-94097962D01*
X209615164Y-93829169D01*
X209563563Y-93760537D01*
X209367776Y-93036624D01*
X209248848Y-91664184D01*
X209208764Y-89663569D01*
X209210605Y-89184424D01*
X209267700Y-87316299D01*
X209403215Y-86080696D01*
X209615164Y-85497969D01*
X210095942Y-85325234D01*
X211040626Y-85197442D01*
X212286425Y-85115840D01*
X213670614Y-85081609D01*
X215030467Y-85095928D01*
G37*
G36*
X51165195Y-85466281D02*
G01*
X51619619Y-85541646D01*
X52984006Y-85688854D01*
X54353430Y-85754153D01*
X56131430Y-85768902D01*
X56131430Y-89776458D01*
X56114337Y-91319084D01*
X56065973Y-92656813D01*
X55993890Y-93601005D01*
X55905653Y-94009791D01*
X55856558Y-94032408D01*
X55297344Y-94102679D01*
X54227771Y-94157486D01*
X52766592Y-94197019D01*
X51032565Y-94221470D01*
X49144445Y-94231027D01*
X47220988Y-94225882D01*
X45380949Y-94206225D01*
X43743085Y-94172245D01*
X42426151Y-94124134D01*
X41548903Y-94062082D01*
X41230097Y-93986278D01*
X41411307Y-93732883D01*
X42002967Y-93068968D01*
X42931464Y-92082187D01*
X44120187Y-90853802D01*
X45492528Y-89465073D01*
X49754960Y-85193159D01*
X51165195Y-85466281D01*
G37*
G36*
X71793699Y-85098922D02*
G01*
X73090180Y-85140635D01*
X73906222Y-85232589D01*
X74355711Y-85389796D01*
X74552530Y-85627268D01*
X74582038Y-85732103D01*
X74669591Y-86483915D01*
X74725999Y-87675298D01*
X74751412Y-89120278D01*
X74745979Y-90632881D01*
X74709846Y-92027132D01*
X74643163Y-93117058D01*
X74546079Y-93716683D01*
X74381541Y-93965280D01*
X73837004Y-94168546D01*
X72801302Y-94167715D01*
X71268544Y-94066236D01*
X68949321Y-89865544D01*
X68647873Y-89317120D01*
X67853969Y-87847383D01*
X67213539Y-86624562D01*
X66785832Y-85763292D01*
X66630097Y-85378211D01*
X66900451Y-85273076D01*
X67722142Y-85178890D01*
X68962936Y-85115062D01*
X70488530Y-85091569D01*
X71793699Y-85098922D01*
G37*
G36*
X148333430Y-85162539D02*
G01*
X151127430Y-85260902D01*
X151223407Y-89305186D01*
X151247036Y-90872649D01*
X151241578Y-92271329D01*
X151208193Y-93294930D01*
X151149369Y-93792520D01*
X150747315Y-94100918D01*
X149979400Y-94235569D01*
X149878836Y-94234833D01*
X149492426Y-94188992D01*
X149167298Y-94000992D01*
X148842444Y-93572875D01*
X148456854Y-92806682D01*
X147949522Y-91604455D01*
X147259438Y-89868237D01*
X147061329Y-89363762D01*
X146463419Y-87822083D01*
X145980279Y-86547506D01*
X145657189Y-85660751D01*
X145539430Y-85282540D01*
X145577405Y-85247997D01*
X146083218Y-85172632D01*
X147054403Y-85141891D01*
X148333430Y-85162539D01*
G37*
G36*
X137171139Y-85133427D02*
G01*
X138101814Y-85257956D01*
X138427430Y-85455758D01*
X138351361Y-85759509D01*
X138074213Y-86585627D01*
X137648749Y-87765770D01*
X137132800Y-89147539D01*
X136584194Y-90578536D01*
X136060760Y-91906361D01*
X135620329Y-92978616D01*
X135320729Y-93642902D01*
X134887008Y-94040898D01*
X134116696Y-94230111D01*
X133346247Y-94118765D01*
X132875664Y-93699870D01*
X132816123Y-93394076D01*
X132740812Y-92484499D01*
X132689229Y-91183913D01*
X132670097Y-89663569D01*
X132678943Y-88626588D01*
X132720831Y-87234957D01*
X132789312Y-86178100D01*
X132875664Y-85627268D01*
X133019859Y-85419723D01*
X133475936Y-85221024D01*
X134343388Y-85119835D01*
X135754331Y-85091569D01*
X137171139Y-85133427D01*
G37*
G36*
X80161254Y-85229749D02*
G01*
X80786364Y-85497969D01*
X80816347Y-85534997D01*
X80995505Y-86122570D01*
X81121154Y-87169085D01*
X81193618Y-88512493D01*
X81213218Y-89990747D01*
X81180277Y-91441801D01*
X81095117Y-92703605D01*
X80958061Y-93614113D01*
X80769430Y-94011276D01*
X80422316Y-94108397D01*
X79465167Y-94203318D01*
X78372463Y-94180060D01*
X77413564Y-94051164D01*
X76857830Y-93829169D01*
X76806230Y-93760537D01*
X76610443Y-93036624D01*
X76491515Y-91664184D01*
X76451430Y-89663569D01*
X76453272Y-89184424D01*
X76510366Y-87316299D01*
X76645881Y-86080696D01*
X76857830Y-85497969D01*
X77183543Y-85314998D01*
X78073545Y-85138264D01*
X79161548Y-85109847D01*
X80161254Y-85229749D01*
G37*
G36*
X192726497Y-85151638D02*
G01*
X193489566Y-85233254D01*
X193944416Y-85395269D01*
X194218646Y-85652453D01*
X194220484Y-85654991D01*
X194418236Y-86277180D01*
X194555823Y-87384248D01*
X194631655Y-88787798D01*
X194644144Y-90299436D01*
X194591701Y-91730764D01*
X194472737Y-92893387D01*
X194285663Y-93598909D01*
X194051626Y-93920888D01*
X193498963Y-94165855D01*
X192515277Y-94169311D01*
X191105325Y-94066236D01*
X186211999Y-85260902D01*
X190001597Y-85164390D01*
X191527616Y-85135656D01*
X192726497Y-85151638D01*
G37*
G36*
X238474333Y-89465073D02*
G01*
X239701215Y-90705556D01*
X240914323Y-91956879D01*
X241875704Y-92976142D01*
X242508727Y-93681943D01*
X242736764Y-93992883D01*
X242678438Y-94024325D01*
X242101030Y-94088709D01*
X240984367Y-94136392D01*
X239425640Y-94165201D01*
X237522042Y-94172963D01*
X235370764Y-94157507D01*
X228004764Y-94066236D01*
X227909673Y-89917569D01*
X227814583Y-85768902D01*
X229603007Y-85754153D01*
X230156624Y-85739220D01*
X231582254Y-85634479D01*
X232801666Y-85466281D01*
X234211901Y-85193159D01*
X238474333Y-89465073D01*
G37*
%TD*%
D11*
%TO.C,REF\u002A\u002A*%
X98687500Y-59741515D03*
X97947500Y-59741515D03*
X94987500Y-59741515D03*
X95727500Y-59741515D03*
X96837500Y-59741515D03*
%TD*%
%TO.C,REF\u002A\u002A*%
X262725000Y-133187500D03*
X263125000Y-132447500D03*
X263275000Y-130227500D03*
X263275000Y-131707500D03*
X263275000Y-130967500D03*
%TD*%
D12*
%TO.C,*%
X202974795Y-124287900D03*
%TD*%
D11*
%TO.C,REF\u002A\u002A*%
X77787500Y-59741515D03*
X79637500Y-59741515D03*
X75937500Y-59741515D03*
X78897500Y-59741515D03*
X76677500Y-59741515D03*
%TD*%
%TO.C,REF\u002A\u002A*%
X58737500Y-59741515D03*
X56887500Y-59741515D03*
X57627500Y-59741515D03*
X60587500Y-59741515D03*
X59847500Y-59741515D03*
%TD*%
D12*
%TO.C,*%
X16637500Y-61412500D03*
%TD*%
D11*
%TO.C,REF\u002A\u002A*%
X114777500Y-59741515D03*
X115887500Y-59741515D03*
X114037500Y-59741515D03*
X116997500Y-59741515D03*
X117737500Y-59741515D03*
%TD*%
D12*
%TO.C,*%
X52037503Y-77788001D03*
%TD*%
%TO.C,*%
X97387502Y-124087902D03*
%TD*%
%TO.C,*%
X231274795Y-75487999D03*
%TD*%
%TO.C,*%
X267525002Y-132262501D03*
%TD*%
D11*
%TO.C,REF\u002A\u002A*%
X21037502Y-61227501D03*
X20887502Y-61967501D03*
X20887502Y-62707501D03*
X21437502Y-60487501D03*
X20887502Y-63447501D03*
%TD*%
D12*
%TO.C,*%
X158724796Y-96888001D03*
%TD*%
%TO.C,*%
X128237502Y-77788001D03*
%TD*%
%TO.C,*%
X50487503Y-112537900D03*
%TD*%
%TO.C,*%
X87312500Y-50800000D03*
%TD*%
%TO.C,*%
X267525001Y-61412501D03*
%TD*%
D11*
%TO.C,REF\u002A\u002A*%
X40797500Y-59741515D03*
X37837500Y-59741515D03*
X41537500Y-59741515D03*
X38577500Y-59741515D03*
X39687500Y-59741515D03*
%TD*%
D12*
%TO.C,*%
X16637499Y-132262500D03*
%TD*%
D11*
%TO.C,REF\u002A\u002A*%
X133087500Y-59741515D03*
X133827500Y-59741515D03*
X136047500Y-59741515D03*
X134937500Y-59741515D03*
X136787500Y-59741515D03*
%TD*%
%TO.C,REF\u002A\u002A*%
X20887501Y-130967500D03*
X20887501Y-131707500D03*
X20887501Y-130227500D03*
X21437501Y-133187500D03*
X21037501Y-132447500D03*
%TD*%
%TO.C,REF\u002A\u002A*%
X263275000Y-63447501D03*
X263275000Y-61967501D03*
X263275000Y-62707501D03*
X262725000Y-60487501D03*
X263125000Y-61227501D03*
%TD*%
M02*
