%TF.GenerationSoftware,KiCad,Pcbnew,(7.0.0)*%
%TF.CreationDate,2023-05-06T02:31:30-05:00*%
%TF.ProjectId,Hull_V4N_Tray_Base,48756c6c-5f56-4344-9e5f-547261795f42,rev?*%
%TF.SameCoordinates,Original*%
%TF.FileFunction,Profile,NP*%
%FSLAX46Y46*%
G04 Gerber Fmt 4.6, Leading zero omitted, Abs format (unit mm)*
G04 Created by KiCad (PCBNEW (7.0.0)) date 2023-05-06 02:31:30*
%MOMM*%
%LPD*%
G01*
G04 APERTURE LIST*
%TA.AperFunction,Profile*%
%ADD10C,0.100000*%
%TD*%
%TA.AperFunction,Profile*%
%ADD11C,0.200000*%
%TD*%
G04 APERTURE END LIST*
D10*
X20637501Y-65587500D02*
X20637502Y-64881251D01*
X56683485Y-58737500D02*
G75*
G03*
X55737500Y-57791515I-945985J0D01*
G01*
D11*
X20637501Y-42362500D02*
X20637500Y-55410265D01*
D10*
X16637499Y-134937501D02*
X18312500Y-134937501D01*
X18312500Y-129587499D02*
X16637499Y-129587499D01*
X18312501Y-58737500D02*
X16637500Y-58737499D01*
X117941516Y-58737500D02*
G75*
G03*
X118887500Y-59683484I945984J0D01*
G01*
X265025000Y-64087501D02*
X264318749Y-64087501D01*
X20557564Y-59667436D02*
G75*
G03*
X18312501Y-58737500I-2245064J-2245064D01*
G01*
D11*
X144462500Y-55062499D02*
X144462500Y-42362500D01*
D10*
X112887500Y-59683484D02*
G75*
G03*
X113833484Y-58737500I0J945984D01*
G01*
X137937501Y-59683485D02*
G75*
G03*
X138883485Y-58737499I-1J945985D01*
G01*
D11*
X23312500Y-39687501D02*
G75*
G03*
X20637501Y-42362500I0J-2674999D01*
G01*
D10*
X118887500Y-57791515D02*
G75*
G03*
X117941515Y-58737500I0J-945985D01*
G01*
X16637500Y-58737499D02*
G75*
G03*
X16637500Y-64087501I0J-2675001D01*
G01*
X263604937Y-134007566D02*
G75*
G03*
X265850001Y-134937501I2245063J2245066D01*
G01*
X60791516Y-58737500D02*
G75*
G03*
X61737500Y-59683484I945984J0D01*
G01*
X42687500Y-57791515D02*
X55737500Y-57791515D01*
X23366516Y-57791514D02*
G75*
G03*
X21353327Y-58390656I-20316J-3613586D01*
G01*
D11*
X265025000Y-64087501D02*
X265850000Y-64087501D01*
D10*
X73841515Y-58737499D02*
X62683485Y-58737499D01*
X267525002Y-129587500D02*
X265850001Y-129587500D01*
X118887501Y-59683485D02*
G75*
G03*
X119833485Y-58737499I-1J945985D01*
G01*
X61737501Y-59683485D02*
G75*
G03*
X62683485Y-58737499I-1J945985D01*
G01*
X137937500Y-57791515D02*
X145256250Y-57791515D01*
X267525002Y-134937500D02*
G75*
G03*
X267525002Y-129587500I-2J2675000D01*
G01*
X54791517Y-58737499D02*
G75*
G03*
X55737499Y-59683483I945983J-1D01*
G01*
X118887500Y-57791515D02*
X131937500Y-57791515D01*
X19843751Y-129587501D02*
G75*
G03*
X20637501Y-128793750I-1J793751D01*
G01*
X94783485Y-58737500D02*
G75*
G03*
X93837500Y-57791515I-945985J0D01*
G01*
X21567436Y-134007565D02*
G75*
G03*
X20557564Y-134007566I-504936J-585335D01*
G01*
X23812501Y-58737504D02*
G75*
G03*
X21567439Y-59667438I-1J-3174996D01*
G01*
D11*
X265850001Y-129587500D02*
X265025001Y-129587500D01*
X23812501Y-134937499D02*
X260350000Y-134937499D01*
D10*
X263525000Y-128087501D02*
X263525000Y-128793750D01*
X20637500Y-55410265D02*
X20637500Y-57943750D01*
X42687501Y-59683485D02*
G75*
G03*
X43633485Y-58737499I-1J945985D01*
G01*
X263524999Y-64881251D02*
X263525000Y-65587500D01*
D11*
X19137500Y-129587501D02*
X18312500Y-129587500D01*
D10*
X111941515Y-58737499D02*
X100783485Y-58737499D01*
X35741517Y-58737499D02*
G75*
G03*
X36687500Y-59683483I945983J-1D01*
G01*
X55737500Y-59683484D02*
G75*
G03*
X56683484Y-58737500I0J945984D01*
G01*
X16637499Y-129587499D02*
G75*
G03*
X16637499Y-134937501I1J-2675001D01*
G01*
X36687500Y-57791515D02*
X23366516Y-57791515D01*
X20637501Y-128793750D02*
X20637501Y-128087501D01*
X136991516Y-58737500D02*
G75*
G03*
X137937500Y-59683484I945984J0D01*
G01*
D11*
X18312501Y-64087501D02*
X19137501Y-64087501D01*
D10*
X99837501Y-59683485D02*
G75*
G03*
X100783485Y-58737499I-1J945985D01*
G01*
X93837500Y-59683484D02*
G75*
G03*
X94783484Y-58737500I0J945984D01*
G01*
X262595064Y-59667436D02*
G75*
G03*
X263604937Y-59667435I504936J585336D01*
G01*
D11*
X144462500Y-42362500D02*
G75*
G03*
X141787501Y-39687500I-2675000J0D01*
G01*
D10*
X144462514Y-55062499D02*
G75*
G03*
X145392035Y-57500449I3661886J-1D01*
G01*
X41741516Y-58737500D02*
G75*
G03*
X42687500Y-59683484I945984J0D01*
G01*
X21567437Y-134007564D02*
G75*
G03*
X23812501Y-134937499I2245063J2245064D01*
G01*
X19137500Y-129587500D02*
X19843751Y-129587500D01*
X98891516Y-58737500D02*
G75*
G03*
X99837500Y-59683484I945984J0D01*
G01*
X267525001Y-58737500D02*
X265850000Y-58737500D01*
X80787501Y-59683485D02*
G75*
G03*
X81733485Y-58737499I-1J945985D01*
G01*
X131937500Y-59683484D02*
G75*
G03*
X132883484Y-58737500I0J945984D01*
G01*
X79841516Y-58737500D02*
G75*
G03*
X80787500Y-59683484I945984J0D01*
G01*
X137937500Y-57791515D02*
G75*
G03*
X136991515Y-58737500I0J-945985D01*
G01*
X80787500Y-57791515D02*
X93837500Y-57791515D01*
X35741516Y-58737499D02*
X23812501Y-58737502D01*
X92891515Y-58737499D02*
X81733485Y-58737499D01*
X61737500Y-57791515D02*
X74787500Y-57791515D01*
X111941517Y-58737499D02*
G75*
G03*
X112887499Y-59683483I945983J-1D01*
G01*
X80787500Y-57791515D02*
G75*
G03*
X79841515Y-58737500I0J-945985D01*
G01*
D11*
X263525000Y-128087501D02*
X263524999Y-65587500D01*
D10*
X263525000Y-128793750D02*
G75*
G03*
X264318750Y-129587500I793800J50D01*
G01*
X99837500Y-57791515D02*
G75*
G03*
X98891515Y-58737500I0J-945985D01*
G01*
X61737500Y-57791515D02*
G75*
G03*
X60791515Y-58737500I0J-945985D01*
G01*
X75733485Y-58737500D02*
G75*
G03*
X74787500Y-57791515I-945985J0D01*
G01*
X36687501Y-59683485D02*
G75*
G03*
X37633485Y-58737500I-1J945985D01*
G01*
X73841517Y-58737499D02*
G75*
G03*
X74787499Y-59683483I945983J-1D01*
G01*
X130991517Y-58737499D02*
G75*
G03*
X131937499Y-59683483I945983J-1D01*
G01*
X74787500Y-59683484D02*
G75*
G03*
X75733484Y-58737500I0J945984D01*
G01*
X113833485Y-58737500D02*
G75*
G03*
X112887500Y-57791515I-945985J0D01*
G01*
X20637526Y-57943749D02*
G75*
G03*
X21353327Y-58390654I514674J27649D01*
G01*
D11*
X141787501Y-39687500D02*
X23312500Y-39687500D01*
D10*
X37633485Y-58737500D02*
G75*
G03*
X36687500Y-57791515I-945985J0D01*
G01*
X99837500Y-57791515D02*
X112887500Y-57791515D01*
X264318750Y-129587500D02*
X265025001Y-129587500D01*
X42687500Y-57791515D02*
G75*
G03*
X41741515Y-58737500I0J-945985D01*
G01*
X20557562Y-59667438D02*
G75*
G03*
X21567439Y-59667438I504938J585338D01*
G01*
X145256250Y-57791527D02*
G75*
G03*
X145392035Y-57500449I4250J175227D01*
G01*
X265850001Y-134937501D02*
X267525002Y-134937502D01*
D11*
X260350000Y-58737502D02*
X138883485Y-58737499D01*
D10*
X262595063Y-59667437D02*
G75*
G03*
X260350000Y-58737502I-2245063J-2245063D01*
G01*
X54791515Y-58737499D02*
X43633485Y-58737499D01*
X92891517Y-58737499D02*
G75*
G03*
X93837499Y-59683483I945983J-1D01*
G01*
D11*
X20637501Y-65587500D02*
X20637501Y-128087501D01*
D10*
X260350000Y-134937498D02*
G75*
G03*
X262595063Y-134007563I0J3174998D01*
G01*
X264318749Y-64087599D02*
G75*
G03*
X263524999Y-64881251I-49J-793701D01*
G01*
X263604938Y-134007565D02*
G75*
G03*
X262595063Y-134007563I-504938J-585335D01*
G01*
X20637599Y-64881251D02*
G75*
G03*
X19843752Y-64087501I-793799J-49D01*
G01*
X19843752Y-64087501D02*
X19137501Y-64087501D01*
X265850000Y-64087501D02*
X267525001Y-64087502D01*
X16637500Y-64087501D02*
X18312501Y-64087501D01*
X265850000Y-58737501D02*
G75*
G03*
X263604937Y-59667436I0J-3174999D01*
G01*
X132883485Y-58737500D02*
G75*
G03*
X131937500Y-57791515I-945985J0D01*
G01*
X130991515Y-58737499D02*
X119833485Y-58737499D01*
X267525001Y-64087500D02*
G75*
G03*
X267525001Y-58737500I-1J2675000D01*
G01*
X18312500Y-134937499D02*
G75*
G03*
X20557562Y-134007564I0J3174999D01*
G01*
M02*
