M48
; DRILL file {KiCad (7.0.0)} date Sat May  6 02:31:32 2023
; FORMAT={-:-/ absolute / inch / decimal}
; #@! TF.CreationDate,2023-05-06T02:31:32-05:00
; #@! TF.GenerationSoftware,Kicad,Pcbnew,(7.0.0)
; #@! TF.FileFunction,NonPlated,1,2,NPTH
FMAT,2
INCH
; #@! TA.AperFunction,NonPlated,NPTH,ComponentDrill
T1C0.0197
; #@! TA.AperFunction,NonPlated,NPTH,ComponentDrill
T2C0.0866
%
G90
G05
T1
X0.8223Y-5.1271
X0.8223Y-5.1562
X0.8223Y-5.1853
X0.8223Y-2.4397
X0.8223Y-2.4688
X0.8223Y-2.4979
X0.8282Y-5.2145
X0.8282Y-2.4105
X0.844Y-5.2436
X0.844Y-2.3814
X1.4897Y-2.352
X1.5188Y-2.352
X1.5625Y-2.352
X1.6062Y-2.352
X1.6353Y-2.352
X2.2397Y-2.352
X2.2688Y-2.352
X2.3125Y-2.352
X2.3562Y-2.352
X2.3853Y-2.352
X2.9897Y-2.352
X3.0188Y-2.352
X3.0625Y-2.352
X3.1062Y-2.352
X3.1353Y-2.352
X3.7397Y-2.352
X3.7688Y-2.352
X3.8125Y-2.352
X3.8562Y-2.352
X3.8853Y-2.352
X4.4897Y-2.352
X4.5188Y-2.352
X4.5625Y-2.352
X4.6062Y-2.352
X4.6353Y-2.352
X5.2397Y-2.352
X5.2688Y-2.352
X5.3125Y-2.352
X5.3562Y-2.352
X5.3853Y-2.352
X10.3435Y-2.3814
X10.3435Y-5.2436
X10.3593Y-2.4105
X10.3593Y-5.2145
X10.3652Y-2.4397
X10.3652Y-2.4688
X10.3652Y-2.4979
X10.3652Y-5.1271
X10.3652Y-5.1562
X10.3652Y-5.1853
T2
X0.655Y-5.2072
X0.655Y-2.4178
X1.9877Y-4.4306
X2.0487Y-3.0625
X3.4375Y-2.0
X3.8342Y-4.8854
X5.0487Y-3.0625
X6.249Y-3.8145
X7.9911Y-4.8932
X9.1053Y-2.972
X10.5325Y-2.4178
X10.5325Y-5.2072
T0
M30
