%TF.GenerationSoftware,KiCad,Pcbnew,(6.0.10)*%
%TF.CreationDate,2023-05-22T09:52:37-05:00*%
%TF.ProjectId,Monorail_Diesel_Reduced,4d6f6e6f-7261-4696-9c5f-44696573656c,rev?*%
%TF.SameCoordinates,Original*%
%TF.FileFunction,Legend,Top*%
%TF.FilePolarity,Positive*%
%FSLAX46Y46*%
G04 Gerber Fmt 4.6, Leading zero omitted, Abs format (unit mm)*
G04 Created by KiCad (PCBNEW (6.0.10)) date 2023-05-22 09:52:37*
%MOMM*%
%LPD*%
G01*
G04 APERTURE LIST*
G04 Aperture macros list*
%AMRoundRect*
0 Rectangle with rounded corners*
0 $1 Rounding radius*
0 $2 $3 $4 $5 $6 $7 $8 $9 X,Y pos of 4 corners*
0 Add a 4 corners polygon primitive as box body*
4,1,4,$2,$3,$4,$5,$6,$7,$8,$9,$2,$3,0*
0 Add four circle primitives for the rounded corners*
1,1,$1+$1,$2,$3*
1,1,$1+$1,$4,$5*
1,1,$1+$1,$6,$7*
1,1,$1+$1,$8,$9*
0 Add four rect primitives between the rounded corners*
20,1,$1+$1,$2,$3,$4,$5,0*
20,1,$1+$1,$4,$5,$6,$7,0*
20,1,$1+$1,$6,$7,$8,$9,0*
20,1,$1+$1,$8,$9,$2,$3,0*%
G04 Aperture macros list end*
%ADD10C,0.150000*%
%ADD11C,0.120000*%
%ADD12C,1.750000*%
%ADD13C,3.987800*%
%ADD14C,3.000000*%
%ADD15C,0.787400*%
%ADD16C,3.048000*%
%ADD17R,1.700000X1.700000*%
%ADD18O,1.700000X1.700000*%
%ADD19R,1.800000X1.800000*%
%ADD20C,1.800000*%
%ADD21C,4.400000*%
%ADD22C,2.000000*%
%ADD23RoundRect,1.000000X0.000000X-0.650000X0.000000X0.650000X0.000000X0.650000X0.000000X-0.650000X0*%
%ADD24C,0.650000*%
%ADD25O,1.000000X2.100000*%
%ADD26O,1.000000X1.600000*%
%ADD27RoundRect,1.000000X0.000000X0.650000X0.000000X-0.650000X0.000000X-0.650000X0.000000X0.650000X0*%
G04 APERTURE END LIST*
D10*
%TO.C,*%
D11*
%TO.C,D3*%
X31809250Y-59722000D02*
X31809250Y-59878000D01*
X31809250Y-57406000D02*
X31809250Y-57562000D01*
X35041585Y-57563392D02*
G75*
G03*
X31809250Y-57406484I-1672335J-1078608D01*
G01*
X31809250Y-59877516D02*
G75*
G03*
X35041585Y-59720608I1560000J1235516D01*
G01*
X34410380Y-57562163D02*
G75*
G03*
X32328289Y-57562000I-1041130J-1079837D01*
G01*
X32328289Y-59722000D02*
G75*
G03*
X34410380Y-59721837I1040961J1080000D01*
G01*
%TO.C,D1*%
X31809250Y-48672000D02*
X31809250Y-48828000D01*
X31809250Y-46356000D02*
X31809250Y-46512000D01*
X32328289Y-48672000D02*
G75*
G03*
X34410380Y-48671837I1040961J1080000D01*
G01*
X34410380Y-46512163D02*
G75*
G03*
X32328289Y-46512000I-1041130J-1079837D01*
G01*
X35041585Y-46513392D02*
G75*
G03*
X31809250Y-46356484I-1672335J-1078608D01*
G01*
X31809250Y-48827516D02*
G75*
G03*
X35041585Y-48670608I1560000J1235516D01*
G01*
%TO.C,D2*%
X31809250Y-54197000D02*
X31809250Y-54353000D01*
X31809250Y-51881000D02*
X31809250Y-52037000D01*
X35041585Y-52038392D02*
G75*
G03*
X31809250Y-51881484I-1672335J-1078608D01*
G01*
X31809250Y-54352516D02*
G75*
G03*
X35041585Y-54195608I1560000J1235516D01*
G01*
X32328289Y-54197000D02*
G75*
G03*
X34410380Y-54196837I1040961J1080000D01*
G01*
X34410380Y-52037163D02*
G75*
G03*
X32328289Y-52037000I-1041130J-1079837D01*
G01*
%TO.C,G\u002A\u002A\u002A*%
G36*
X183737688Y-82144743D02*
G01*
X184093945Y-82171367D01*
X185076078Y-82198598D01*
X186632633Y-82225972D01*
X188712152Y-82253026D01*
X191263180Y-82279297D01*
X194234262Y-82304322D01*
X197573942Y-82327637D01*
X201230763Y-82348779D01*
X205153270Y-82367285D01*
X209290007Y-82382692D01*
X210628675Y-82386827D01*
X237356083Y-82465333D01*
X239550291Y-83556265D01*
X240354828Y-84003292D01*
X241231682Y-84597121D01*
X242251593Y-85398129D01*
X243485302Y-86466692D01*
X245003547Y-87863186D01*
X246877068Y-89647989D01*
X248279830Y-91006932D01*
X250052311Y-92745488D01*
X251692111Y-94379827D01*
X253127210Y-95836111D01*
X254285585Y-97040507D01*
X255095217Y-97919177D01*
X255474265Y-98382667D01*
X256052801Y-99574854D01*
X256095351Y-100656210D01*
X255574029Y-101755659D01*
X254478781Y-102984967D01*
X253385811Y-103945647D01*
X252409028Y-104527438D01*
X251255195Y-104891037D01*
X250838115Y-104980110D01*
X248026524Y-105547181D01*
X245789622Y-106032141D01*
X244038063Y-106486441D01*
X242682501Y-106961537D01*
X241633591Y-107508881D01*
X240801988Y-108179927D01*
X240098346Y-109026129D01*
X239433320Y-110098941D01*
X238717564Y-111449817D01*
X238350178Y-112171872D01*
X237547495Y-113706044D01*
X236786097Y-115077868D01*
X236150677Y-116139913D01*
X235725932Y-116744743D01*
X235718482Y-116753019D01*
X235026779Y-117512705D01*
X176494306Y-117506856D01*
X168713808Y-117505010D01*
X161588160Y-117500992D01*
X155094886Y-117494646D01*
X149211504Y-117485817D01*
X143915538Y-117474349D01*
X139184507Y-117460089D01*
X134995934Y-117442880D01*
X131327338Y-117422567D01*
X128156241Y-117398995D01*
X125460165Y-117372009D01*
X123216629Y-117341453D01*
X121403156Y-117307174D01*
X119997267Y-117269014D01*
X118976482Y-117226820D01*
X118318323Y-117180435D01*
X118000310Y-117129706D01*
X117961834Y-117102770D01*
X117852105Y-116882044D01*
X117555433Y-117110933D01*
X117310997Y-117191949D01*
X116727369Y-117262486D01*
X115769752Y-117323098D01*
X114403349Y-117374339D01*
X112593363Y-117416763D01*
X110304996Y-117450922D01*
X107503451Y-117477370D01*
X104153931Y-117496662D01*
X100221640Y-117509350D01*
X95671778Y-117515989D01*
X92010291Y-117517333D01*
X87253297Y-117516303D01*
X83127956Y-117512560D01*
X79588587Y-117505123D01*
X76589512Y-117493015D01*
X74085051Y-117475254D01*
X72029525Y-117450863D01*
X70377255Y-117418861D01*
X69082561Y-117378268D01*
X68099766Y-117328106D01*
X67383188Y-117267395D01*
X66887150Y-117195154D01*
X66565972Y-117110406D01*
X66373974Y-117012171D01*
X66320695Y-116966480D01*
X65955111Y-116454024D01*
X65376323Y-115476191D01*
X64666254Y-114177260D01*
X63965029Y-112817814D01*
X62822432Y-110670691D01*
X61807540Y-109076212D01*
X60845586Y-107940660D01*
X59861800Y-107170314D01*
X59183720Y-106824626D01*
X58435718Y-106585067D01*
X57202616Y-106271670D01*
X55666387Y-105928048D01*
X54273054Y-105647619D01*
X52008122Y-105170372D01*
X50284278Y-104684128D01*
X48967064Y-104130707D01*
X47922022Y-103451928D01*
X47014696Y-102589610D01*
X46894435Y-102454834D01*
X46334517Y-101754224D01*
X45970114Y-101089349D01*
X45834668Y-100406576D01*
X45961619Y-99652272D01*
X46384406Y-98772804D01*
X47136471Y-97714536D01*
X48251255Y-96423837D01*
X49762196Y-94847072D01*
X51702737Y-92930609D01*
X54106317Y-90620812D01*
X54517028Y-90229320D01*
X56917241Y-87977862D01*
X58965327Y-86129635D01*
X60632847Y-84709023D01*
X61891360Y-83740409D01*
X62599335Y-83299961D01*
X64283167Y-82465333D01*
X90643459Y-82296000D01*
X95722619Y-82265602D01*
X100161034Y-82244158D01*
X103995239Y-82232004D01*
X107261769Y-82229473D01*
X109997157Y-82236901D01*
X112237938Y-82254621D01*
X114020646Y-82282969D01*
X115381816Y-82322279D01*
X116357981Y-82372885D01*
X116985676Y-82435123D01*
X117301436Y-82509327D01*
X117347091Y-82540558D01*
X117735189Y-82760777D01*
X118200679Y-82444202D01*
X118741959Y-82124647D01*
X119165315Y-82311062D01*
X119836702Y-82500253D01*
X120121154Y-82407418D01*
X120527370Y-82367652D01*
X121561672Y-82333312D01*
X123174834Y-82304578D01*
X125317626Y-82281628D01*
X127940824Y-82264643D01*
X130995200Y-82253803D01*
X134431526Y-82249286D01*
X138200575Y-82251273D01*
X142253122Y-82259944D01*
X146539937Y-82275477D01*
X150651300Y-82296000D01*
X155100907Y-82318272D01*
X159354894Y-82334075D01*
X163364774Y-82343546D01*
X167082061Y-82346824D01*
X170458267Y-82344046D01*
X173444906Y-82335348D01*
X175993492Y-82320870D01*
X178055538Y-82300747D01*
X179582557Y-82275118D01*
X180526064Y-82244119D01*
X180837467Y-82210417D01*
X181215663Y-82145364D01*
X181651720Y-82307000D01*
X182553764Y-82463130D01*
X182941305Y-82319831D01*
X183516158Y-82114215D01*
X183737688Y-82144743D01*
G37*
%TD*%
%LPC*%
%TO.C,G\u002A\u002A\u002A*%
G36*
X60163598Y-88766712D02*
G01*
X61383010Y-88934910D01*
X62808640Y-89039651D01*
X63362257Y-89054584D01*
X65150681Y-89069333D01*
X65055591Y-93218000D01*
X64960500Y-97366667D01*
X57594500Y-97457938D01*
X55443222Y-97473394D01*
X53539624Y-97465632D01*
X51980897Y-97436823D01*
X50864234Y-97389140D01*
X50286826Y-97324756D01*
X50228500Y-97293314D01*
X50456537Y-96982374D01*
X51089560Y-96276573D01*
X52050941Y-95257310D01*
X53264049Y-94005987D01*
X54490931Y-92765504D01*
X58753363Y-88493590D01*
X60163598Y-88766712D01*
G37*
G36*
X102963667Y-88464821D02*
G01*
X106753265Y-88561333D01*
X101859939Y-97366667D01*
X100449987Y-97469742D01*
X99466301Y-97466286D01*
X98913638Y-97221319D01*
X98679601Y-96899340D01*
X98492527Y-96193818D01*
X98373563Y-95031195D01*
X98321120Y-93599867D01*
X98333609Y-92088229D01*
X98409441Y-90684679D01*
X98547028Y-89577611D01*
X98744780Y-88955422D01*
X98746618Y-88952884D01*
X99020848Y-88695700D01*
X99475698Y-88533685D01*
X100238767Y-88452069D01*
X101437648Y-88436087D01*
X102963667Y-88464821D01*
G37*
G36*
X214891719Y-88438695D02*
G01*
X215781721Y-88615429D01*
X216107434Y-88798400D01*
X216319383Y-89381127D01*
X216454898Y-90616730D01*
X216511992Y-92484855D01*
X216513834Y-92964000D01*
X216473749Y-94964615D01*
X216354821Y-96337055D01*
X216159034Y-97060968D01*
X216107434Y-97129600D01*
X215551700Y-97351595D01*
X214592801Y-97480491D01*
X213500097Y-97503749D01*
X212542948Y-97408828D01*
X212195834Y-97311707D01*
X212007203Y-96914544D01*
X211870147Y-96004036D01*
X211784987Y-94742232D01*
X211752046Y-93291178D01*
X211771646Y-91812924D01*
X211844110Y-90469516D01*
X211969759Y-89423001D01*
X212148917Y-88835428D01*
X212178900Y-88798400D01*
X212804010Y-88530180D01*
X213803716Y-88410278D01*
X214891719Y-88438695D01*
G37*
G36*
X158621876Y-88420266D02*
G01*
X159489328Y-88521455D01*
X159945405Y-88720154D01*
X160089600Y-88927699D01*
X160175952Y-89478531D01*
X160244433Y-90535388D01*
X160286321Y-91927019D01*
X160295167Y-92964000D01*
X160276035Y-94484344D01*
X160224452Y-95784930D01*
X160149141Y-96694507D01*
X160089600Y-97000301D01*
X159619017Y-97419196D01*
X158848568Y-97530542D01*
X158078256Y-97341329D01*
X157644535Y-96943333D01*
X157344935Y-96279047D01*
X156904504Y-95206792D01*
X156381070Y-93878967D01*
X155832464Y-92447970D01*
X155316515Y-91066201D01*
X154891051Y-89886058D01*
X154613903Y-89059940D01*
X154537834Y-88756189D01*
X154863450Y-88558387D01*
X155794125Y-88433858D01*
X157210933Y-88392000D01*
X158621876Y-88420266D01*
G37*
G36*
X146882046Y-88473063D02*
G01*
X147387859Y-88548428D01*
X147425834Y-88582971D01*
X147308075Y-88961182D01*
X146984985Y-89847937D01*
X146501845Y-91122514D01*
X145903935Y-92664193D01*
X145705826Y-93168668D01*
X145015742Y-94904886D01*
X144508410Y-96107113D01*
X144122820Y-96873306D01*
X143797966Y-97301423D01*
X143472838Y-97489423D01*
X143086428Y-97535264D01*
X142985864Y-97536000D01*
X142217949Y-97401349D01*
X141815895Y-97092951D01*
X141757071Y-96595361D01*
X141723686Y-95571760D01*
X141718228Y-94173080D01*
X141741857Y-92605617D01*
X141837834Y-88561333D01*
X144631834Y-88462970D01*
X145910861Y-88442322D01*
X146882046Y-88473063D01*
G37*
G36*
X224002328Y-88415493D02*
G01*
X225243122Y-88479321D01*
X226064813Y-88573507D01*
X226335167Y-88678642D01*
X226179432Y-89063723D01*
X225751725Y-89924993D01*
X225111295Y-91147814D01*
X224317391Y-92617551D01*
X224015943Y-93165975D01*
X221696720Y-97366667D01*
X220163962Y-97468146D01*
X219128260Y-97468977D01*
X218583723Y-97265711D01*
X218419185Y-97017114D01*
X218322101Y-96417489D01*
X218255418Y-95327563D01*
X218219285Y-93933312D01*
X218213852Y-92420709D01*
X218239265Y-90975729D01*
X218295673Y-89784346D01*
X218383226Y-89032534D01*
X218412734Y-88927699D01*
X218609553Y-88690227D01*
X219059042Y-88533020D01*
X219875084Y-88441066D01*
X221171565Y-88399353D01*
X222476734Y-88392000D01*
X224002328Y-88415493D01*
G37*
G36*
X247472736Y-92765504D02*
G01*
X248845077Y-94154233D01*
X250033800Y-95382618D01*
X250962297Y-96369399D01*
X251553957Y-97033314D01*
X251735167Y-97286709D01*
X251416361Y-97362513D01*
X250539113Y-97424565D01*
X249222179Y-97472676D01*
X247584315Y-97506656D01*
X245744276Y-97526313D01*
X243820819Y-97531458D01*
X241932699Y-97521901D01*
X240198672Y-97497450D01*
X238737493Y-97457917D01*
X237667920Y-97403110D01*
X237108706Y-97332839D01*
X237059611Y-97310222D01*
X236971374Y-96901436D01*
X236899291Y-95957244D01*
X236850927Y-94619515D01*
X236833834Y-93076889D01*
X236833834Y-89069333D01*
X238611834Y-89054584D01*
X239981258Y-88989285D01*
X241345645Y-88842077D01*
X241800069Y-88766712D01*
X243210304Y-88493590D01*
X247472736Y-92765504D01*
G37*
G36*
X80678839Y-88416271D02*
G01*
X81924638Y-88497873D01*
X82869322Y-88625665D01*
X83350100Y-88798400D01*
X83562049Y-89381127D01*
X83697564Y-90616730D01*
X83754659Y-92484855D01*
X83756500Y-92964000D01*
X83716416Y-94964615D01*
X83597488Y-96337055D01*
X83401701Y-97060968D01*
X83350100Y-97129600D01*
X82761174Y-97398393D01*
X81839991Y-97532554D01*
X81671043Y-97536000D01*
X80855351Y-97469510D01*
X80304482Y-97162996D01*
X79784460Y-96455890D01*
X79573665Y-96096667D01*
X78103201Y-93509419D01*
X76970047Y-91469331D01*
X76178545Y-89984494D01*
X75733036Y-89062999D01*
X75628500Y-88742414D01*
X75938997Y-88575366D01*
X76762004Y-88460407D01*
X77934797Y-88396359D01*
X79294650Y-88382040D01*
X80678839Y-88416271D01*
G37*
G36*
X95006914Y-88444151D02*
G01*
X95897590Y-88639591D01*
X96256764Y-88863366D01*
X96450656Y-89486909D01*
X96553267Y-90778168D01*
X96564368Y-92733674D01*
X96552231Y-93350699D01*
X96456500Y-97366667D01*
X94591349Y-97465782D01*
X93292886Y-97447847D01*
X92458865Y-97250155D01*
X92305349Y-97144048D01*
X92110276Y-96612460D01*
X91972472Y-95582032D01*
X91892241Y-94228457D01*
X91869886Y-92727427D01*
X91905711Y-91254635D01*
X92000022Y-89985771D01*
X92153122Y-89096529D01*
X92290900Y-88798400D01*
X92926552Y-88519018D01*
X93924230Y-88402448D01*
X95006914Y-88444151D01*
G37*
G36*
X167024515Y-88416171D02*
G01*
X168153730Y-88560562D01*
X168861296Y-88932990D01*
X169245696Y-89641269D01*
X169405415Y-90793217D01*
X169438934Y-92496649D01*
X169439167Y-92841121D01*
X169425333Y-94703996D01*
X169325928Y-95994568D01*
X169054101Y-96817867D01*
X168522996Y-97278923D01*
X167645761Y-97482764D01*
X166335542Y-97534421D01*
X165556775Y-97536000D01*
X163916436Y-97506387D01*
X162823157Y-97405300D01*
X162148749Y-97214368D01*
X161843357Y-97003809D01*
X161587681Y-96589385D01*
X161424679Y-95878215D01*
X161337984Y-94746043D01*
X161311225Y-93068612D01*
X161311167Y-92964000D01*
X161331157Y-91129524D01*
X161454171Y-89865940D01*
X161774778Y-89066859D01*
X162387546Y-88625891D01*
X163387043Y-88436647D01*
X164867836Y-88392739D01*
X165375167Y-88392000D01*
X167024515Y-88416171D01*
G37*
G36*
X137194069Y-88395746D02*
G01*
X138476324Y-88469554D01*
X139453735Y-88613151D01*
X139907434Y-88798400D01*
X140097113Y-89324653D01*
X140230096Y-90350346D01*
X140306384Y-91699964D01*
X140325976Y-93197992D01*
X140288872Y-94668914D01*
X140195072Y-95937213D01*
X140044577Y-96827375D01*
X139907434Y-97129600D01*
X139329765Y-97347292D01*
X138158429Y-97485855D01*
X136473485Y-97535961D01*
X136419167Y-97536000D01*
X134720865Y-97488530D01*
X133533907Y-97352341D01*
X132938355Y-97136757D01*
X132930900Y-97129600D01*
X132741221Y-96603347D01*
X132608237Y-95577654D01*
X132531950Y-94228035D01*
X132512358Y-92730007D01*
X132549462Y-91259086D01*
X132643261Y-89990786D01*
X132793757Y-89100624D01*
X132930900Y-88798400D01*
X133475386Y-88593053D01*
X134497886Y-88457496D01*
X135802685Y-88391726D01*
X137194069Y-88395746D01*
G37*
G36*
X115929834Y-102277333D02*
G01*
X82646522Y-102277333D01*
X77107736Y-102276460D01*
X72206891Y-102273434D01*
X67904598Y-102267646D01*
X64161466Y-102258484D01*
X60938104Y-102245339D01*
X58195124Y-102227601D01*
X55893135Y-102204659D01*
X53992747Y-102175903D01*
X52454569Y-102140724D01*
X51239212Y-102098511D01*
X50307285Y-102048654D01*
X49619399Y-101990543D01*
X49136162Y-101923568D01*
X48818186Y-101847118D01*
X48626080Y-101760583D01*
X48610522Y-101750129D01*
X47967213Y-101059106D01*
X47984145Y-100311347D01*
X48535167Y-99568000D01*
X48657938Y-99456510D01*
X48816587Y-99357976D01*
X49051322Y-99271599D01*
X49402350Y-99196578D01*
X49909880Y-99132114D01*
X50614120Y-99077405D01*
X51555277Y-99031653D01*
X52773560Y-98994056D01*
X54309176Y-98963815D01*
X56202334Y-98940129D01*
X58493242Y-98922199D01*
X61222108Y-98909223D01*
X64429139Y-98900403D01*
X68154545Y-98894937D01*
X72438531Y-98892026D01*
X77321308Y-98890869D01*
X82571167Y-98890667D01*
X115929834Y-98890667D01*
X115929834Y-90752038D01*
X115934328Y-88168106D01*
X115951252Y-86182048D01*
X115985764Y-84714443D01*
X116043023Y-83685870D01*
X116128188Y-83016908D01*
X116246418Y-82628138D01*
X116402872Y-82440137D01*
X116472013Y-82405355D01*
X117075292Y-82448004D01*
X117292868Y-82648207D01*
X117612243Y-82928393D01*
X118076281Y-82680035D01*
X118105355Y-82656088D01*
X118655487Y-82386088D01*
X119147167Y-82634667D01*
X119697259Y-82882988D01*
X120148332Y-82646979D01*
X120506246Y-82406610D01*
X120785878Y-82392456D01*
X120996668Y-82668525D01*
X121148060Y-83298824D01*
X121249495Y-84347361D01*
X121310417Y-85878145D01*
X121340267Y-87955182D01*
X121348487Y-90642481D01*
X121348500Y-90782654D01*
X121348500Y-98890667D01*
X180615167Y-98890667D01*
X180615167Y-90782654D01*
X180622615Y-88065568D01*
X180651256Y-85961705D01*
X180710532Y-84407059D01*
X180809884Y-83337620D01*
X180958756Y-82689381D01*
X181166589Y-82398334D01*
X181442827Y-82400471D01*
X181796911Y-82631785D01*
X181815335Y-82646979D01*
X182356800Y-82881877D01*
X182816500Y-82634667D01*
X183358551Y-82383790D01*
X183832500Y-82634667D01*
X184382592Y-82882988D01*
X184833665Y-82646979D01*
X185191580Y-82406610D01*
X185471211Y-82392456D01*
X185682001Y-82668525D01*
X185833393Y-83298824D01*
X185934828Y-84347361D01*
X185995750Y-85878145D01*
X186025600Y-87955182D01*
X186033821Y-90642481D01*
X186033834Y-90782654D01*
X186033834Y-98890667D01*
X219392500Y-98890667D01*
X224883624Y-98890896D01*
X229737622Y-98892116D01*
X233994703Y-98895129D01*
X237695075Y-98900733D01*
X240878946Y-98909729D01*
X243586523Y-98922917D01*
X245858016Y-98941098D01*
X247733630Y-98965072D01*
X249253576Y-98995638D01*
X250458061Y-99033596D01*
X251387292Y-99079748D01*
X252081478Y-99134893D01*
X252580827Y-99199831D01*
X252925547Y-99275363D01*
X253155846Y-99362289D01*
X253311931Y-99461408D01*
X253428500Y-99568000D01*
X253925732Y-100174529D01*
X254105834Y-100584000D01*
X253887238Y-101051211D01*
X253428500Y-101600000D01*
X253305729Y-101711490D01*
X253147080Y-101810024D01*
X252912345Y-101896401D01*
X252561317Y-101971421D01*
X252053787Y-102035886D01*
X251349547Y-102090594D01*
X250408390Y-102136347D01*
X249190107Y-102173943D01*
X247654491Y-102204185D01*
X245761333Y-102227871D01*
X243470425Y-102245801D01*
X240741559Y-102258777D01*
X237534528Y-102267597D01*
X233809122Y-102273063D01*
X229525136Y-102275974D01*
X224642359Y-102277131D01*
X219392500Y-102277333D01*
X186033834Y-102277333D01*
X186033834Y-109728000D01*
X210615389Y-109728000D01*
X215452865Y-109730152D01*
X219651554Y-109737055D01*
X223249992Y-109749375D01*
X226286713Y-109767780D01*
X228800251Y-109792937D01*
X230829141Y-109825514D01*
X232411918Y-109866178D01*
X233587116Y-109915597D01*
X234393270Y-109974438D01*
X234868915Y-110043369D01*
X235052584Y-110123057D01*
X235055858Y-110151333D01*
X234893611Y-110235878D01*
X234441194Y-110310369D01*
X233660272Y-110375604D01*
X232512510Y-110432378D01*
X230959573Y-110481486D01*
X228963126Y-110523724D01*
X226484835Y-110559888D01*
X223486363Y-110590774D01*
X219929376Y-110617177D01*
X215775540Y-110639892D01*
X210986519Y-110659717D01*
X210474303Y-110661560D01*
X186033834Y-110748454D01*
X186033834Y-113943573D01*
X185992973Y-115678384D01*
X185856385Y-116796412D01*
X185603061Y-117354073D01*
X185211990Y-117407782D01*
X184833665Y-117166354D01*
X184292201Y-116931456D01*
X183832500Y-117178667D01*
X183290449Y-117429543D01*
X182816500Y-117178667D01*
X182266408Y-116930345D01*
X181815335Y-117166354D01*
X181312288Y-117440313D01*
X180962037Y-117251134D01*
X180743575Y-116542368D01*
X180635895Y-115257563D01*
X180615167Y-113941346D01*
X180615167Y-110744000D01*
X121348500Y-110744000D01*
X121348500Y-113941346D01*
X121307689Y-115676723D01*
X121171251Y-116795341D01*
X120918178Y-117353650D01*
X120527461Y-117408102D01*
X120148332Y-117166354D01*
X119606867Y-116931456D01*
X119147167Y-117178667D01*
X118609247Y-117427763D01*
X118116814Y-117166754D01*
X117573705Y-116912434D01*
X117202414Y-117125286D01*
X116625060Y-117498620D01*
X116155611Y-117291555D01*
X116057065Y-116874262D01*
X115980318Y-115942636D01*
X115936237Y-114659590D01*
X115929834Y-113907116D01*
X115929834Y-110748454D01*
X91461167Y-110661560D01*
X86205789Y-110638228D01*
X81567315Y-110607822D01*
X77553643Y-110570478D01*
X74172673Y-110526335D01*
X71432304Y-110475530D01*
X69340435Y-110418200D01*
X67904965Y-110354482D01*
X67133793Y-110284514D01*
X66992500Y-110236000D01*
X67329837Y-110162063D01*
X68336581Y-110094288D01*
X70004833Y-110032811D01*
X72326694Y-109977770D01*
X75294265Y-109929302D01*
X78899646Y-109887546D01*
X83134938Y-109852637D01*
X87992242Y-109824714D01*
X91461167Y-109810440D01*
X113628100Y-109731720D01*
X121348500Y-109731720D01*
X150897167Y-109645193D01*
X180445834Y-109558667D01*
X180638082Y-102277333D01*
X121348500Y-102277333D01*
X121348500Y-109731720D01*
X113628100Y-109731720D01*
X115929834Y-109723546D01*
X115929834Y-102277333D01*
G37*
G36*
X208490992Y-88470496D02*
G01*
X209359328Y-88630532D01*
X209598658Y-88753482D01*
X209814431Y-89264920D01*
X209971811Y-90277809D01*
X210069263Y-91618655D01*
X210105252Y-93113966D01*
X210078243Y-94590251D01*
X209986701Y-95874017D01*
X209829091Y-96791770D01*
X209672767Y-97129600D01*
X209098317Y-97383789D01*
X208164451Y-97515663D01*
X207107287Y-97527288D01*
X206162942Y-97420731D01*
X205567535Y-97198058D01*
X205485228Y-97092951D01*
X205426405Y-96595361D01*
X205393019Y-95571760D01*
X205387561Y-94173080D01*
X205411191Y-92605617D01*
X205507167Y-88561333D01*
X207312658Y-88458015D01*
X208490992Y-88470496D01*
G37*
G36*
X88569052Y-88438695D02*
G01*
X89459054Y-88615429D01*
X89784767Y-88798400D01*
X89996716Y-89381127D01*
X90132231Y-90616730D01*
X90189326Y-92484855D01*
X90191167Y-92964000D01*
X90151083Y-94964615D01*
X90032154Y-96337055D01*
X89836367Y-97060968D01*
X89784767Y-97129600D01*
X89218210Y-97375754D01*
X88266305Y-97520159D01*
X87820500Y-97536000D01*
X86793325Y-97452417D01*
X86029120Y-97241765D01*
X85856234Y-97129600D01*
X85644284Y-96546873D01*
X85508769Y-95311270D01*
X85451675Y-93443144D01*
X85449834Y-92964000D01*
X85489918Y-90963385D01*
X85608846Y-89590945D01*
X85804633Y-88867032D01*
X85856234Y-88798400D01*
X86481343Y-88530180D01*
X87481049Y-88410278D01*
X88569052Y-88438695D01*
G37*
G36*
X233646597Y-88483223D02*
G01*
X234275873Y-88830826D01*
X234364993Y-88940043D01*
X234569196Y-89556236D01*
X234712562Y-90645170D01*
X234794431Y-92029067D01*
X234814141Y-93530148D01*
X234771031Y-94970634D01*
X234664442Y-96172746D01*
X234493712Y-96958706D01*
X234395434Y-97129600D01*
X233791923Y-97413396D01*
X232903364Y-97526216D01*
X232001717Y-97471202D01*
X231358946Y-97251499D01*
X231223895Y-97092951D01*
X231165071Y-96595361D01*
X231131686Y-95571760D01*
X231126228Y-94173080D01*
X231149857Y-92605617D01*
X231245834Y-88561333D01*
X232586993Y-88451981D01*
X233646597Y-88483223D01*
G37*
G36*
X201835106Y-88457957D02*
G01*
X202555300Y-88548304D01*
X202982257Y-88720894D01*
X203217049Y-88952884D01*
X203413569Y-89566991D01*
X203551433Y-90667645D01*
X203628812Y-92066447D01*
X203643880Y-93575000D01*
X203594812Y-95004905D01*
X203479779Y-96167764D01*
X203296956Y-96875179D01*
X203293918Y-96880931D01*
X202743978Y-97309332D01*
X201848137Y-97530422D01*
X200894184Y-97523532D01*
X200169910Y-97267990D01*
X200023821Y-97115807D01*
X199764836Y-96677132D01*
X199246433Y-95768392D01*
X198537778Y-94511810D01*
X197708040Y-93029614D01*
X197484410Y-92628473D01*
X195218986Y-88561333D01*
X199004292Y-88464821D01*
X200693996Y-88435060D01*
X201835106Y-88457957D01*
G37*
G36*
X175020988Y-88420701D02*
G01*
X175978442Y-88497316D01*
X176464885Y-88607610D01*
X176494722Y-88657446D01*
X176335576Y-89054822D01*
X175978041Y-89959010D01*
X175470941Y-91246212D01*
X174863099Y-92792632D01*
X174691616Y-93229446D01*
X174011159Y-94949883D01*
X173513050Y-96137664D01*
X173134195Y-96891433D01*
X172811502Y-97309833D01*
X172481878Y-97491507D01*
X172082229Y-97535100D01*
X171937115Y-97536000D01*
X171113571Y-97406185D01*
X170717787Y-96931063D01*
X170668624Y-96774000D01*
X170564232Y-96009636D01*
X170498313Y-94779477D01*
X170470866Y-93293965D01*
X170481892Y-91763545D01*
X170531392Y-90398660D01*
X170619363Y-89409754D01*
X170668624Y-89154000D01*
X170814957Y-88782761D01*
X171105670Y-88556699D01*
X171684729Y-88440098D01*
X172696101Y-88397244D01*
X173740222Y-88392000D01*
X175020988Y-88420701D01*
G37*
G36*
X127747409Y-88449776D02*
G01*
X128206500Y-88462970D01*
X131000500Y-88561333D01*
X131000500Y-97366667D01*
X129933956Y-97470246D01*
X128867411Y-97573825D01*
X127139956Y-93187580D01*
X126514642Y-91584936D01*
X125990197Y-90212445D01*
X125611801Y-89190535D01*
X125424632Y-88639634D01*
X125412500Y-88582971D01*
X125724445Y-88493991D01*
X126555258Y-88447337D01*
X127747409Y-88449776D01*
G37*
G36*
X69424199Y-88454814D02*
G01*
X70717834Y-88561333D01*
X70717834Y-97366667D01*
X69361643Y-97466743D01*
X68368481Y-97431229D01*
X67665139Y-97209691D01*
X67583643Y-97145010D01*
X67364204Y-96585727D01*
X67225548Y-95412150D01*
X67165102Y-93598620D01*
X67161834Y-92937734D01*
X67185733Y-91078479D01*
X67290773Y-89796747D01*
X67526961Y-88993444D01*
X67944307Y-88569476D01*
X68592821Y-88425748D01*
X69424199Y-88454814D01*
G37*
%TD*%
D12*
%TO.C,MX18*%
X33813750Y-73025000D03*
D13*
X38893750Y-73025000D03*
D14*
X41433750Y-67945000D03*
D12*
X43973750Y-73025000D03*
D14*
X35083750Y-70485000D03*
%TD*%
%TO.C,MX17*%
X60483750Y-67945000D03*
D13*
X57943750Y-73025000D03*
D12*
X63023750Y-73025000D03*
D14*
X54133750Y-70485000D03*
D12*
X52863750Y-73025000D03*
%TD*%
D14*
%TO.C,MX16*%
X73183750Y-70485000D03*
D12*
X71913750Y-73025000D03*
D13*
X76993750Y-73025000D03*
D14*
X79533750Y-67945000D03*
D12*
X82073750Y-73025000D03*
%TD*%
%TO.C,MX15*%
X90963750Y-73025000D03*
D13*
X96043750Y-73025000D03*
D14*
X92233750Y-70485000D03*
D12*
X101123750Y-73025000D03*
D14*
X98583750Y-67945000D03*
%TD*%
%TO.C,MX14*%
X117633750Y-67945000D03*
D12*
X110013750Y-73025000D03*
D13*
X115093750Y-73025000D03*
D12*
X120173750Y-73025000D03*
D14*
X111283750Y-70485000D03*
%TD*%
D13*
%TO.C,MX13*%
X134143750Y-73025000D03*
D14*
X130333750Y-70485000D03*
D12*
X129063750Y-73025000D03*
D14*
X136683750Y-67945000D03*
D12*
X139223750Y-73025000D03*
%TD*%
%TO.C,MX12*%
X148113750Y-73025000D03*
D13*
X153193750Y-73025000D03*
D14*
X149383750Y-70485000D03*
D12*
X158273750Y-73025000D03*
D14*
X155733750Y-67945000D03*
%TD*%
D13*
%TO.C,MX11*%
X172243750Y-73025000D03*
D14*
X168433750Y-70485000D03*
X174783750Y-67945000D03*
D12*
X177323750Y-73025000D03*
X167163750Y-73025000D03*
%TD*%
D14*
%TO.C,MX10*%
X187483750Y-70485000D03*
X193833750Y-67945000D03*
D12*
X196373750Y-73025000D03*
X186213750Y-73025000D03*
D13*
X191293750Y-73025000D03*
%TD*%
%TO.C,MX9*%
X210343750Y-73025000D03*
D12*
X205263750Y-73025000D03*
D14*
X206533750Y-70485000D03*
D12*
X215423750Y-73025000D03*
D14*
X212883750Y-67945000D03*
%TD*%
%TO.C,MX8*%
X225583750Y-70485000D03*
X231933750Y-67945000D03*
D13*
X229393750Y-73025000D03*
D12*
X234473750Y-73025000D03*
X224313750Y-73025000D03*
%TD*%
D14*
%TO.C,MX7*%
X251777500Y-70485000D03*
X258127500Y-67945000D03*
D12*
X250507500Y-73025000D03*
X260667500Y-73025000D03*
D13*
X255587500Y-73025000D03*
%TD*%
D14*
%TO.C,MX30*%
X43815000Y-86995000D03*
D12*
X36195000Y-92075000D03*
D13*
X41275000Y-92075000D03*
D12*
X46355000Y-92075000D03*
D14*
X37465000Y-89535000D03*
%TD*%
D13*
%TO.C,MX29*%
X62706250Y-92075000D03*
D14*
X58896250Y-89535000D03*
D12*
X57626250Y-92075000D03*
X67786250Y-92075000D03*
D14*
X65246250Y-86995000D03*
%TD*%
D12*
%TO.C,MX28*%
X76676250Y-92075000D03*
D13*
X81756250Y-92075000D03*
D14*
X84296250Y-86995000D03*
X77946250Y-89535000D03*
D12*
X86836250Y-92075000D03*
%TD*%
%TO.C,MX27*%
X95726250Y-92075000D03*
D14*
X103346250Y-86995000D03*
D13*
X100806250Y-92075000D03*
D12*
X105886250Y-92075000D03*
D14*
X96996250Y-89535000D03*
%TD*%
D13*
%TO.C,MX26*%
X119856250Y-92075000D03*
D12*
X114776250Y-92075000D03*
X124936250Y-92075000D03*
D14*
X116046250Y-89535000D03*
X122396250Y-86995000D03*
%TD*%
%TO.C,MX25*%
X135096250Y-89535000D03*
X141446250Y-86995000D03*
D12*
X143986250Y-92075000D03*
D13*
X138906250Y-92075000D03*
D12*
X133826250Y-92075000D03*
%TD*%
%TO.C,MX24*%
X163036250Y-92075000D03*
X152876250Y-92075000D03*
D14*
X160496250Y-86995000D03*
D13*
X157956250Y-92075000D03*
D14*
X154146250Y-89535000D03*
%TD*%
%TO.C,MX19*%
X173196250Y-89535000D03*
D12*
X171926250Y-92075000D03*
D13*
X177006250Y-92075000D03*
D12*
X182086250Y-92075000D03*
D14*
X179546250Y-86995000D03*
%TD*%
D13*
%TO.C,MX23*%
X196056250Y-92075000D03*
D14*
X198596250Y-86995000D03*
D12*
X201136250Y-92075000D03*
D14*
X192246250Y-89535000D03*
D12*
X190976250Y-92075000D03*
%TD*%
D13*
%TO.C,MX22*%
X215106250Y-92075000D03*
D12*
X220186250Y-92075000D03*
D14*
X217646250Y-86995000D03*
D12*
X210026250Y-92075000D03*
D14*
X211296250Y-89535000D03*
%TD*%
%TO.C,MX21*%
X236696250Y-86995000D03*
D12*
X239236250Y-92075000D03*
X229076250Y-92075000D03*
D13*
X234156250Y-92075000D03*
D14*
X230346250Y-89535000D03*
%TD*%
D12*
%TO.C,MX20*%
X252888750Y-92075000D03*
D13*
X257968750Y-92075000D03*
D14*
X254158750Y-89535000D03*
D12*
X263048750Y-92075000D03*
D14*
X260508750Y-86995000D03*
%TD*%
D12*
%TO.C,MX42*%
X40957500Y-111125000D03*
D14*
X42227500Y-108585000D03*
D13*
X46037500Y-111125000D03*
D14*
X48577500Y-106045000D03*
D12*
X51117500Y-111125000D03*
%TD*%
D13*
%TO.C,MX41*%
X72231250Y-111125000D03*
D12*
X77311250Y-111125000D03*
D14*
X74771250Y-106045000D03*
X68421250Y-108585000D03*
D12*
X67151250Y-111125000D03*
%TD*%
%TO.C,MX40*%
X86201250Y-111125000D03*
D14*
X87471250Y-108585000D03*
D12*
X96361250Y-111125000D03*
D14*
X93821250Y-106045000D03*
D13*
X91281250Y-111125000D03*
%TD*%
D12*
%TO.C,MX39*%
X115411250Y-111125000D03*
D14*
X106521250Y-108585000D03*
D12*
X105251250Y-111125000D03*
D14*
X112871250Y-106045000D03*
D13*
X110331250Y-111125000D03*
%TD*%
D12*
%TO.C,MX38*%
X134461250Y-111125000D03*
X124301250Y-111125000D03*
D13*
X129381250Y-111125000D03*
D14*
X131921250Y-106045000D03*
X125571250Y-108585000D03*
%TD*%
D12*
%TO.C,MX37*%
X143351250Y-111125000D03*
D14*
X150971250Y-106045000D03*
X144621250Y-108585000D03*
D13*
X148431250Y-111125000D03*
D12*
X153511250Y-111125000D03*
%TD*%
D14*
%TO.C,MX36*%
X163671250Y-108585000D03*
D12*
X162401250Y-111125000D03*
D13*
X167481250Y-111125000D03*
D12*
X172561250Y-111125000D03*
D14*
X170021250Y-106045000D03*
%TD*%
D12*
%TO.C,MX35*%
X181451250Y-111125000D03*
X191611250Y-111125000D03*
D14*
X189071250Y-106045000D03*
X182721250Y-108585000D03*
D13*
X186531250Y-111125000D03*
%TD*%
D12*
%TO.C,MX34*%
X210661250Y-111125000D03*
D14*
X201771250Y-108585000D03*
X208121250Y-106045000D03*
D13*
X205581250Y-111125000D03*
D12*
X200501250Y-111125000D03*
%TD*%
D14*
%TO.C,MX33*%
X227171250Y-106045000D03*
D13*
X224631250Y-111125000D03*
D12*
X229711250Y-111125000D03*
X219551250Y-111125000D03*
D14*
X220821250Y-108585000D03*
%TD*%
D12*
%TO.C,MX32*%
X238601250Y-111125000D03*
D13*
X243681250Y-111125000D03*
D12*
X248761250Y-111125000D03*
D14*
X246221250Y-106045000D03*
X239871250Y-108585000D03*
%TD*%
D12*
%TO.C,MX31*%
X267811250Y-111125000D03*
D14*
X265271250Y-106045000D03*
X258921250Y-108585000D03*
D13*
X262731250Y-111125000D03*
D12*
X257651250Y-111125000D03*
%TD*%
%TO.C,MX5*%
X72548750Y-53975000D03*
D14*
X71278750Y-56515000D03*
D13*
X67468750Y-53975000D03*
D14*
X64928750Y-59055000D03*
D12*
X62388750Y-53975000D03*
%TD*%
D13*
%TO.C,MX4*%
X86518750Y-53975000D03*
D12*
X91598750Y-53975000D03*
X81438750Y-53975000D03*
D14*
X82708750Y-51435000D03*
X89058750Y-48895000D03*
%TD*%
%TO.C,MX3*%
X108108750Y-48895000D03*
D12*
X110648750Y-53975000D03*
X100488750Y-53975000D03*
D14*
X101758750Y-51435000D03*
D13*
X105568750Y-53975000D03*
%TD*%
D12*
%TO.C,MX2*%
X129698750Y-53975000D03*
X119538750Y-53975000D03*
D14*
X120808750Y-51435000D03*
D13*
X124618750Y-53975000D03*
D14*
X127158750Y-48895000D03*
%TD*%
D12*
%TO.C,MX1*%
X138588750Y-53975000D03*
D13*
X143668750Y-53975000D03*
D14*
X139858750Y-51435000D03*
X146208750Y-48895000D03*
D12*
X148748750Y-53975000D03*
%TD*%
D14*
%TO.C,MX45*%
X241141250Y-135255000D03*
D13*
X243681250Y-130175000D03*
D12*
X238601250Y-130175000D03*
D14*
X247491250Y-132715000D03*
D12*
X248761250Y-130175000D03*
%TD*%
D15*
%TO.C,REF\u002A\u002A*%
X50482500Y-64039750D03*
X51752500Y-64039750D03*
X47942500Y-64039750D03*
X46672500Y-64039750D03*
%TD*%
D14*
%TO.C,MX48*%
X194627500Y-127635000D03*
D12*
X193357500Y-130175000D03*
X203517500Y-130175000D03*
D14*
X200977500Y-125095000D03*
D13*
X198437500Y-130175000D03*
%TD*%
D14*
%TO.C,MX44*%
X258127500Y-125095000D03*
D12*
X260667500Y-130175000D03*
D14*
X251777500Y-127635000D03*
D12*
X250507500Y-130175000D03*
D13*
X255587500Y-130175000D03*
%TD*%
D15*
%TO.C,REF\u002A\u002A*%
X98583750Y-64039750D03*
X97313750Y-64039750D03*
X93503750Y-64039750D03*
X94773750Y-64039750D03*
%TD*%
D14*
%TO.C,MX49*%
X170053000Y-125088750D03*
D13*
X179451000Y-121913750D03*
D14*
X163703000Y-127628750D03*
D16*
X179451000Y-137153750D03*
D12*
X172593000Y-130168750D03*
D13*
X167513000Y-130168750D03*
X155575000Y-121913750D03*
D16*
X155575000Y-137153750D03*
D12*
X162433000Y-130168750D03*
%TD*%
D17*
%TO.C,J3*%
X143512500Y-77437500D03*
D18*
X140972500Y-77437500D03*
X138432500Y-77437500D03*
X135892500Y-77437500D03*
X133352500Y-77437500D03*
X130812500Y-77437500D03*
X128272500Y-77437500D03*
X125732500Y-77437500D03*
X123192500Y-77437500D03*
%TD*%
D15*
%TO.C,REF\u002A\u002A*%
X245030625Y-70786625D03*
X242490625Y-70786625D03*
X239950625Y-70786625D03*
%TD*%
D14*
%TO.C,MX51*%
X93503750Y-135255000D03*
X99853750Y-132715000D03*
D12*
X101123750Y-130175000D03*
D13*
X96043750Y-130175000D03*
D12*
X90963750Y-130175000D03*
%TD*%
D14*
%TO.C,MX43*%
X260191250Y-135255000D03*
D12*
X257651250Y-130175000D03*
X267811250Y-130175000D03*
D14*
X266541250Y-132715000D03*
D13*
X262731250Y-130175000D03*
%TD*%
D17*
%TO.C,J2*%
X111680625Y-59531250D03*
D18*
X109140625Y-59531250D03*
X106600625Y-59531250D03*
X104060625Y-59531250D03*
X101520625Y-59531250D03*
X98980625Y-59531250D03*
X96440625Y-59531250D03*
X93900625Y-59531250D03*
X91360625Y-59531250D03*
%TD*%
D17*
%TO.C,J4*%
X52175000Y-78000000D03*
D18*
X54715000Y-78000000D03*
X57255000Y-78000000D03*
X59795000Y-78000000D03*
X62335000Y-78000000D03*
%TD*%
D14*
%TO.C,MX53*%
X74453750Y-135255000D03*
X80803750Y-132715000D03*
D12*
X82073750Y-130175000D03*
D13*
X76993750Y-130175000D03*
D12*
X71913750Y-130175000D03*
%TD*%
D14*
%TO.C,MX57*%
X41433750Y-125095000D03*
D12*
X33813750Y-130175000D03*
D13*
X38893750Y-130175000D03*
D12*
X43973750Y-130175000D03*
D14*
X35083750Y-127635000D03*
%TD*%
D19*
%TO.C,D3*%
X32099250Y-58642000D03*
D20*
X34639250Y-58642000D03*
%TD*%
D15*
%TO.C,REF\u002A\u002A*%
X141605000Y-64039750D03*
X145415000Y-64039750D03*
X144145000Y-64039750D03*
X140335000Y-64039750D03*
%TD*%
D12*
%TO.C,MX46*%
X219551250Y-130175000D03*
D14*
X227171250Y-125095000D03*
D13*
X224631250Y-130175000D03*
D14*
X220821250Y-127635000D03*
D12*
X229711250Y-130175000D03*
%TD*%
D21*
%TO.C,*%
X96043750Y-55562500D03*
%TD*%
D14*
%TO.C,MX54*%
X70008750Y-125095000D03*
D12*
X62388750Y-130175000D03*
X72548750Y-130175000D03*
D14*
X63658750Y-127635000D03*
D13*
X67468750Y-130175000D03*
%TD*%
D22*
%TO.C,SW1*%
X141168750Y-61475000D03*
X146168750Y-61475000D03*
X143668750Y-61475000D03*
D23*
X138068750Y-53975000D03*
X149268750Y-53975000D03*
D22*
X146168750Y-46975000D03*
X141168750Y-46975000D03*
%TD*%
D12*
%TO.C,MX47*%
X205898750Y-130175000D03*
X195738750Y-130175000D03*
D14*
X204628750Y-132715000D03*
D13*
X200818750Y-130175000D03*
D14*
X198278750Y-135255000D03*
%TD*%
D15*
%TO.C,REF\u002A\u002A*%
X122793125Y-64039750D03*
X118983125Y-64039750D03*
X117713125Y-64039750D03*
X121523125Y-64039750D03*
%TD*%
D19*
%TO.C,D1*%
X32099250Y-47592000D03*
D20*
X34639250Y-47592000D03*
%TD*%
D14*
%TO.C,MX6*%
X52228750Y-56515000D03*
D12*
X43338750Y-53975000D03*
D13*
X48418750Y-53975000D03*
D12*
X53498750Y-53975000D03*
D14*
X45878750Y-59055000D03*
%TD*%
D13*
%TO.C,MX50*%
X115062000Y-121913750D03*
D12*
X132080000Y-130168750D03*
D13*
X138938000Y-121913750D03*
D12*
X121920000Y-130168750D03*
D13*
X127000000Y-130168750D03*
D16*
X115062000Y-137153750D03*
D14*
X123190000Y-127628750D03*
D16*
X138938000Y-137153750D03*
D14*
X129540000Y-125088750D03*
%TD*%
D21*
%TO.C,H1*%
X239953400Y-80424450D03*
X136903400Y-82550450D03*
X167553400Y-101600450D03*
X60703400Y-82550450D03*
X211703400Y-129059450D03*
X59103400Y-117324450D03*
X106053400Y-128774450D03*
%TD*%
D12*
%TO.C,MX56*%
X36195000Y-130175000D03*
X46355000Y-130175000D03*
D14*
X38735000Y-135255000D03*
X45085000Y-132715000D03*
D13*
X41275000Y-130175000D03*
%TD*%
D15*
%TO.C,REF\u002A\u002A*%
X246135466Y-70140262D03*
X248335170Y-68870262D03*
%TD*%
%TO.C,REF\u002A\u002A*%
X70088125Y-64039750D03*
X75168125Y-64039750D03*
X71358125Y-64039750D03*
X73898125Y-64039750D03*
%TD*%
D19*
%TO.C,D2*%
X32099250Y-53117000D03*
D20*
X34639250Y-53117000D03*
%TD*%
D12*
%TO.C,MX52*%
X98742500Y-130175000D03*
D13*
X93662500Y-130175000D03*
D14*
X89852500Y-127635000D03*
X96202500Y-125095000D03*
D12*
X88582500Y-130175000D03*
%TD*%
D15*
%TO.C,REF\u002A\u002A*%
X236655560Y-68861242D03*
X238855264Y-70131242D03*
%TD*%
D17*
%TO.C,J1*%
X40737500Y-49587500D03*
D18*
X43277500Y-49587500D03*
X45817500Y-49587500D03*
X48357500Y-49587500D03*
X50897500Y-49587500D03*
%TD*%
D12*
%TO.C,MX55*%
X63023750Y-130175000D03*
X52863750Y-130175000D03*
D13*
X57943750Y-130175000D03*
D14*
X55403750Y-135255000D03*
X61753750Y-132715000D03*
%TD*%
D24*
%TO.C,J6*%
X245380625Y-67290625D03*
X239600625Y-67290625D03*
D25*
X246810625Y-67820625D03*
D26*
X238170625Y-63640625D03*
D25*
X238170625Y-67820625D03*
D26*
X246810625Y-63640625D03*
%TD*%
D17*
%TO.C,SWD1*%
X233362500Y-111268750D03*
D18*
X233362500Y-108728750D03*
X233362500Y-106188750D03*
%TD*%
D17*
%TO.C,J9*%
X267962500Y-116712500D03*
D18*
X267962500Y-119252500D03*
X267962500Y-121792500D03*
%TD*%
D24*
%TO.C,J5*%
X60770250Y-48240625D03*
X54990250Y-48240625D03*
D26*
X53560250Y-44590625D03*
D25*
X62200250Y-48770625D03*
D26*
X62200250Y-44590625D03*
D25*
X53560250Y-48770625D03*
%TD*%
D17*
%TO.C,J8*%
X267962500Y-83237500D03*
D18*
X267962500Y-85777500D03*
X267962500Y-88317500D03*
X267962500Y-90857500D03*
%TD*%
D22*
%TO.C,SW2*%
X45918750Y-46475000D03*
X50918750Y-46475000D03*
X48418750Y-46475000D03*
D27*
X54018750Y-53975000D03*
X42818750Y-53975000D03*
D22*
X50918750Y-60975000D03*
X45918750Y-60975000D03*
%TD*%
%TO.C,SW3*%
X41393750Y-80525000D03*
X36393750Y-80525000D03*
X38893750Y-80525000D03*
D23*
X33293750Y-73025000D03*
X44493750Y-73025000D03*
D22*
X36393750Y-66025000D03*
X41393750Y-66025000D03*
%TD*%
M02*
