0
SECTION
2
HEADER
9
$INSUNITS
70
4
9
$ACADVER
1
AC1014
9
$HANDSEED
5
FFFF
0
ENDSEC
0
SECTION
2
TABLES
0
TABLE
2
VPORT
5
8
100
AcDbSymbolTable
0
ENDTAB
0
TABLE
2
LTYPE
5
5
100
AcDbSymbolTable
0
LTYPE
5
14
100
AcDbSymbolTableRecord
100
AcDbLinetypeTableRecord
2
BYBLOCK
70
0
0
LTYPE
5
15
100
AcDbSymbolTableRecord
100
AcDbLinetypeTableRecord
2
BYLAYER
70
0
0
ENDTAB
0
TABLE
2
LAYER
5
2
100
AcDbSymbolTable
70
2
0
LAYER
5
50
100
AcDbSymbolTableRecord
100
AcDbLayerTableRecord
2
0
70
0
6
CONTINUOUS
0
ENDTAB
0
TABLE
2
STYLE
5
3
100
AcDbSymbolTable
70
1
0
STYLE
5
11
100
AcDbSymbolTableRecord
100
AcDbTextStyleTableRecord
2
STANDARD
70
0
0
ENDTAB
0
TABLE
2
VIEW
5
6
100
AcDbSymbolTable
70
0
0
ENDTAB
0
TABLE
2
UCS
5
7
100
AcDbSymbolTable
70
0
0
ENDTAB
0
TABLE
2
APPID
5
9
100
AcDbSymbolTable
70
2
0
APPID
5
12
100
AcDbSymbolTableRecord
100
AcDbRegAppTableRecord
2
ACAD
70
0
0
ENDTAB
0
TABLE
2
DIMSTYLE
5
A
100
AcDbSymbolTable
70
1
0
ENDTAB
0
TABLE
2
BLOCK_RECORD
5
1
100
AcDbSymbolTable
70
1
0
BLOCK_RECORD
5
1F
100
AcDbSymbolTableRecord
100
AcDbBlockTableRecord
2
*MODEL_SPACE
0
BLOCK_RECORD
5
1B
100
AcDbSymbolTableRecord
100
AcDbBlockTableRecord
2
*PAPER_SPACE
0
ENDTAB
0
ENDSEC
0
SECTION
2
BLOCKS
0
BLOCK
5
20
100
AcDbEntity
100
AcDbBlockBegin
2
*MODEL_SPACE
0
ENDBLK
5
21
100
AcDbEntity
100
AcDbBlockEnd
0
BLOCK
5
1C
100
AcDbEntity
100
AcDbBlockBegin
2
*PAPER_SPACE
0
ENDBLK
5
1D
100
AcDbEntity
100
AcDbBlockEnd
0
ENDSEC
0
SECTION
2
ENTITIES
0
LWPOLYLINE
5
100
100
AcDbEntity
8
0
100
AcDbPolyline
90
4
70
1
43
0.0
10
45.38750000000001
20
-31.099999999999994
10
45.387500000000017
20
-45.099999999999994
10
59.387500000000003
20
-45.099999999999994
10
59.387499999999996
20
-31.099999999999994
0
LWPOLYLINE
5
101
100
AcDbEntity
8
0
100
AcDbPolyline
90
4
70
1
43
0.0
10
159.68750000000003
20
-45.099999999999987
10
173.68750000000003
20
-45.099999999999987
10
173.68750000000003
20
-31.099999999999987
10
159.68750000000003
20
-31.099999999999987
0
LWPOLYLINE
5
102
100
AcDbEntity
8
0
100
AcDbPolyline
90
4
70
1
43
0.0
10
40.337500000000006
20
-31.099999999999994
10
26.337500000000006
20
-31.100000000000001
10
26.337500000000006
20
-45.100000000000009
10
40.337500000000013
20
-45.099999999999994
0
LWPOLYLINE
5
103
100
AcDbEntity
8
0
100
AcDbPolyline
90
4
70
1
43
0.0
10
14.143750000000006
20
-45.100000000000009
10
14.143750000000006
20
-31.100000000000001
10
0.14375000000000693
20
-31.100000000000001
10
0.14375000000000915
20
-45.100000000000009
0
LWPOLYLINE
5
104
100
AcDbEntity
8
0
100
AcDbPolyline
90
10
70
1
43
0.0
10
79.668250000000015
20
-50.149999999999999
10
79.668250000000015
20
-49.149999999999991
10
58.412500000000016
20
-49.149999999999991
10
58.412500000000016
20
-50.149999999999999
10
12.05000000000001
20
-50.150000000000006
10
12.050000000000001
20
-64.150000000000006
10
103.54425000000001
20
-64.149999999999991
10
103.54425000000001
20
-49.149999999999991
10
91.781750000000017
20
-49.149999999999991
10
91.781750000000017
20
-50.149999999999999
0
LWPOLYLINE
5
105
100
AcDbEntity
8
0
100
AcDbPolyline
90
4
70
1
43
0.0
10
121.30000000000001
20
-6.9999999999999858
10
121.30000000000001
20
7.0000000000000124
10
107.30000000000003
20
7.0000000000000107
10
107.30000000000003
20
-6.9999999999999885
0
LWPOLYLINE
5
106
100
AcDbEntity
8
0
100
AcDbPolyline
90
4
70
1
43
0.0
10
178.44999999999999
20
7.0000000000000178
10
164.44999999999999
20
7.0000000000000151
10
164.44999999999999
20
-6.9999999999999822
10
178.44999999999999
20
-6.9999999999999822
0
LWPOLYLINE
5
107
100
AcDbEntity
8
0
100
AcDbPolyline
90
4
70
1
43
0.0
10
26.050000000000008
20
-6.9999999999999964
10
26.050000000000008
20
7.0000000000000027
10
12.050000000000004
20
7.0000000000000027
10
12.050000000000004
20
-6.9999999999999964
0
LWPOLYLINE
5
108
100
AcDbEntity
8
0
100
AcDbPolyline
90
4
70
1
43
0.0
10
183.5
20
7.0000000000000178
10
183.5
20
-6.9999999999999822
10
197.5
20
-6.9999999999999796
10
197.5
20
7.0000000000000195
0
LWPOLYLINE
5
109
100
AcDbEntity
8
0
100
AcDbPolyline
90
4
70
1
43
0.0
10
30.812500000000007
20
-12.049999999999999
10
16.812500000000004
20
-12.049999999999999
10
16.812500000000007
20
-26.050000000000004
10
30.812500000000007
20
-26.050000000000004
0
LWPOLYLINE
5
110
100
AcDbEntity
8
0
100
AcDbPolyline
90
4
70
1
43
0.0
10
49.862500000000011
20
-12.049999999999999
10
35.862500000000004
20
-12.049999999999999
10
35.862500000000004
20
-26.050000000000004
10
49.862500000000011
20
-26.050000000000004
0
LWPOLYLINE
5
111
100
AcDbEntity
8
0
100
AcDbPolyline
90
4
70
1
43
0.0
10
183.21250000000003
20
-12.049999999999985
10
169.21250000000001
20
-12.049999999999985
10
169.21250000000001
20
-26.049999999999986
10
183.21250000000003
20
-26.049999999999986
0
LWPOLYLINE
5
112
100
AcDbEntity
8
0
100
AcDbPolyline
90
4
70
1
43
0.0
10
164.16250000000002
20
-12.049999999999985
10
150.16250000000002
20
-12.04999999999999
10
150.16250000000002
20
-26.049999999999997
10
164.16250000000002
20
-26.049999999999986
0
LWPOLYLINE
5
113
100
AcDbEntity
8
0
100
AcDbPolyline
90
4
70
1
43
0.0
10
54.912500000000009
20
-12.049999999999999
10
54.912500000000009
20
-26.050000000000004
10
68.912500000000009
20
-26.049999999999997
10
68.912500000000009
20
-12.049999999999994
0
LWPOLYLINE
5
114
100
AcDbEntity
8
0
100
AcDbPolyline
90
4
70
1
43
0.0
10
202.26249999999999
20
-12.049999999999981
10
188.26250000000002
20
-12.049999999999985
10
188.26250000000002
20
-26.049999999999986
10
202.26249999999999
20
-26.049999999999986
0
LWPOLYLINE
5
115
100
AcDbEntity
8
0
100
AcDbPolyline
90
4
70
1
43
0.0
10
131.11250000000001
20
-26.049999999999997
10
145.11250000000001
20
-26.049999999999997
10
145.11250000000001
20
-12.04999999999999
10
131.11250000000001
20
-12.04999999999999
0
LWPOLYLINE
5
116
100
AcDbEntity
8
0
100
AcDbPolyline
90
4
70
1
43
0.0
10
226.07500000000002
20
-26.049999999999986
10
226.07500000000002
20
-12.049999999999981
10
212.07499999999999
20
-12.049999999999981
10
212.07499999999999
20
-26.049999999999986
0
LWPOLYLINE
5
117
100
AcDbEntity
8
0
100
AcDbPolyline
90
4
70
1
43
0.0
10
116.53750000000002
20
-31.099999999999994
10
102.53750000000002
20
-31.099999999999994
10
102.53750000000002
20
-45.099999999999994
10
116.53750000000002
20
-45.099999999999994
0
LWPOLYLINE
5
118
100
AcDbEntity
8
0
100
AcDbPolyline
90
4
70
1
43
0.0
10
154.63750000000002
20
-31.099999999999987
10
140.63750000000002
20
-31.099999999999987
10
140.63750000000002
20
-45.099999999999987
10
154.63750000000002
20
-45.099999999999987
0
LWPOLYLINE
5
119
100
AcDbEntity
8
0
100
AcDbPolyline
90
4
70
1
43
0.0
10
223.69375000000002
20
7.0000000000000213
10
209.69374999999999
20
7.0000000000000195
10
209.69374999999999
20
-6.9999999999999769
10
223.69375000000002
20
-6.9999999999999769
0
LWPOLYLINE
5
120
100
AcDbEntity
8
0
100
AcDbPolyline
90
4
70
1
43
0.0
10
197.78750000000002
20
-31.099999999999987
10
197.78750000000002
20
-45.099999999999987
10
211.78750000000002
20
-45.099999999999987
10
211.78750000000002
20
-31.099999999999987
0
LWPOLYLINE
5
121
100
AcDbEntity
8
0
100
AcDbPolyline
90
4
70
1
43
0.0
10
216.83750000000003
20
-45.099999999999987
10
230.83750000000003
20
-45.09999999999998
10
230.83750000000003
20
-31.099999999999977
10
216.83750000000003
20
-31.099999999999987
0
LWPOLYLINE
5
122
100
AcDbEntity
8
0
100
AcDbPolyline
90
10
70
1
43
0.0
10
137.02550000000002
20
-50.149999999999991
10
122.56250000000003
20
-50.149999999999999
10
122.56250000000003
20
-49.149999999999991
10
113.14950000000002
20
-49.149999999999991
10
113.14950000000002
20
-50.149999999999999
10
104.91875000000002
20
-50.149999999999999
10
104.91875000000002
20
-64.149999999999991
10
146.40675000000002
20
-64.149999999999977
10
146.40675000000002
20
-49.149999999999984
10
137.02550000000002
20
-49.149999999999984
0
LWPOLYLINE
5
123
100
AcDbEntity
8
0
100
AcDbPolyline
90
4
70
1
43
0.0
10
-6.9999999999999911
20
-50.150000000000006
10
-6.9999999999999885
20
-64.150000000000006
10
9.3812500000000121
20
-64.150000000000006
10
9.3812500000000121
20
-50.150000000000006
0
LWPOLYLINE
5
124
100
AcDbEntity
8
0
100
AcDbPolyline
90
4
70
1
43
0.0
10
140.35000000000002
20
-6.9999999999999849
10
140.35000000000002
20
7.0000000000000142
10
126.35000000000002
20
7.0000000000000142
10
126.35000000000002
20
-6.9999999999999849
0
LWPOLYLINE
5
125
100
AcDbEntity
8
0
100
AcDbPolyline
90
4
70
1
43
0.0
10
159.40000000000003
20
7.000000000000016
10
145.40000000000003
20
7.0000000000000142
10
145.40000000000003
20
-6.9999999999999849
10
159.40000000000003
20
-6.9999999999999849
0
LWPOLYLINE
5
126
100
AcDbEntity
8
0
100
AcDbPolyline
90
4
70
1
43
0.0
10
112.06250000000003
20
-26.049999999999997
10
126.06250000000003
20
-26.049999999999997
10
126.06250000000003
20
-12.04999999999999
10
112.06250000000003
20
-12.04999999999999
0
LWPOLYLINE
5
127
100
AcDbEntity
8
0
100
AcDbPolyline
90
4
70
1
43
0.0
10
73.962500000000006
20
-12.049999999999994
10
73.962500000000006
20
-26.049999999999997
10
87.96250000000002
20
-26.049999999999997
10
87.96250000000002
20
-12.049999999999994
0
LWPOLYLINE
5
128
100
AcDbEntity
8
0
100
AcDbPolyline
90
4
70
1
43
0.0
10
69.200000000000003
20
7.0000000000000062
10
69.200000000000003
20
-6.9999999999999929
10
83.200000000000003
20
-6.9999999999999911
10
83.200000000000003
20
7.0000000000000089
0
LWPOLYLINE
5
129
100
AcDbEntity
8
0
100
AcDbPolyline
90
4
70
1
43
0.0
10
9.3812500000000068
20
-12.050000000000002
10
-4.6187499999999924
20
-12.050000000000002
10
-4.6187499999999924
20
-26.050000000000004
10
9.3812500000000085
20
-26.050000000000004
0
LWPOLYLINE
5
130
100
AcDbEntity
8
0
100
AcDbPolyline
90
4
70
1
43
0.0
10
64.150000000000006
20
-6.9999999999999929
10
64.150000000000006
20
7.0000000000000062
10
50.150000000000006
20
7.0000000000000036
10
50.150000000000006
20
-6.9999999999999929
0
LWPOLYLINE
5
131
100
AcDbEntity
8
0
100
AcDbPolyline
90
4
70
1
43
0.0
10
102.25000000000003
20
-6.9999999999999885
10
102.25000000000003
20
7.0000000000000107
10
88.250000000000028
20
7.0000000000000089
10
88.250000000000028
20
-6.9999999999999911
0
LWPOLYLINE
5
132
100
AcDbEntity
8
0
100
AcDbPolyline
90
4
70
1
43
0.0
10
107.01250000000002
20
-26.049999999999997
10
107.01250000000002
20
-12.04999999999999
10
93.012500000000017
20
-12.049999999999994
10
93.012500000000017
20
-26.049999999999997
0
LWPOLYLINE
5
133
100
AcDbEntity
8
0
100
AcDbPolyline
90
4
70
1
43
0.0
10
45.100000000000009
20
-6.9999999999999938
10
45.100000000000009
20
7.0000000000000053
10
31.100000000000001
20
7.0000000000000027
10
31.100000000000001
20
-6.9999999999999938
0
LWPOLYLINE
5
134
100
AcDbEntity
8
0
100
AcDbPolyline
90
4
70
1
43
0.0
10
7.0000000000000053
20
-6.9999999999999973
10
7.0000000000000027
20
7.0000000000000018
10
-6.9999999999999964
20
7
10
-6.9999999999999938
20
-7
0
LWPOLYLINE
5
135
100
AcDbEntity
8
0
100
AcDbPolyline
90
4
70
1
43
0.0
10
83.487500000000026
20
-31.099999999999994
10
83.487500000000026
20
-45.099999999999994
10
97.487500000000026
20
-45.099999999999994
10
97.487500000000026
20
-31.099999999999994
0
LWPOLYLINE
5
136
100
AcDbEntity
8
0
100
AcDbPolyline
90
8
70
1
43
0.0
10
230.83750000000003
20
-64.149999999999977
10
230.83750000000003
20
-50.149999999999977
10
170.18125000000001
20
-50.149999999999991
10
170.18125000000001
20
-49.149999999999984
10
153.66250000000002
20
-49.149999999999984
10
153.66250000000002
20
-50.149999999999991
10
152.54375000000002
20
-50.149999999999991
10
152.54375000000002
20
-64.149999999999977
0
LWPOLYLINE
5
137
100
AcDbEntity
8
0
100
AcDbPolyline
90
4
70
1
43
0.0
10
178.73749999999998
20
-31.099999999999987
10
178.73749999999998
20
-45.099999999999987
10
192.73750000000001
20
-45.099999999999987
10
192.73750000000001
20
-31.099999999999987
0
LWPOLYLINE
5
138
100
AcDbEntity
8
0
100
AcDbPolyline
90
4
70
1
43
0.0
10
121.58750000000003
20
-31.099999999999994
10
121.58750000000003
20
-45.099999999999994
10
135.58750000000003
20
-45.099999999999987
10
135.58750000000003
20
-31.099999999999987
0
LWPOLYLINE
5
139
100
AcDbEntity
8
0
100
AcDbPolyline
90
4
70
1
43
0.0
10
78.437500000000014
20
-45.099999999999994
10
78.437500000000014
20
-31.099999999999994
10
64.437500000000014
20
-31.099999999999994
10
64.437500000000028
20
-45.099999999999994
0
LWPOLYLINE
5
140
100
AcDbEntity
8
0
100
AcDbPolyline
90
4
70
1
43
0.0
10
78.725000000000037
20
12.050000000000068
10
92.725000000000051
20
12.050000000000068
10
92.725000000000051
20
26.050000000000079
10
78.725000000000037
20
26.050000000000079
0
CIRCLE
5
141
100
AcDbEntity
8
0
100
AcDbCircle
10
-5.5130000000000035
20
25.325000000000081
30
0
40
1.7500000000000004
210
-0
220
6.1629758220391547e-33
230
1
0
LWPOLYLINE
5
142
100
AcDbEntity
8
0
100
AcDbPolyline
90
4
70
1
43
0.0
10
97.775000000000034
20
26.050000000000079
10
97.775000000000034
20
12.050000000000081
10
111.77500000000002
20
12.050000000000081
10
111.77500000000002
20
26.050000000000079
0
LWPOLYLINE
5
143
100
AcDbEntity
8
0
100
AcDbPolyline
90
4
70
1
43
0.0
10
16.524999999999999
20
26.050000000000079
10
2.524999999999995
20
26.050000000000079
10
2.524999999999995
20
12.050000000000068
10
16.524999999999999
20
12.050000000000068
0
LWPOLYLINE
5
144
100
AcDbEntity
8
0
100
AcDbPolyline
90
4
70
1
43
0.0
10
21.574999999999996
20
12.050000000000068
10
35.575000000000003
20
12.050000000000068
10
35.575000000000003
20
26.050000000000079
10
21.574999999999996
20
26.050000000000079
0
LWPOLYLINE
5
145
100
AcDbEntity
8
0
100
AcDbPolyline
90
4
70
1
43
0.0
10
59.675000000000011
20
12.050000000000068
10
73.674999999999983
20
12.050000000000068
10
73.674999999999983
20
26.050000000000079
10
59.675000000000011
20
26.050000000000079
0
LWPOLYLINE
5
146
100
AcDbEntity
8
0
100
AcDbPolyline
90
4
70
1
43
0.0
10
40.625000000000007
20
12.050000000000068
10
54.625000000000014
20
12.050000000000068
10
54.625000000000014
20
26.050000000000079
10
40.625000000000007
20
26.050000000000079
0
CIRCLE
5
147
100
AcDbEntity
8
0
100
AcDbCircle
10
-5.5130000000000035
20
14.275000000000073
30
0
40
1.749999999999998
210
0
220
-0
230
1
0
CIRCLE
5
148
100
AcDbEntity
8
0
100
AcDbCircle
10
-5.5130000000000035
20
19.800000000000079
30
0
40
1.7500000000000004
210
-0
220
6.1629758220391547e-33
230
1
0
LWPOLYLINE
5
149
100
AcDbEntity
8
0
100
AcDbPolyline
90
23
70
1
43
0.0
10
117.30000000000001
20
28.575000000000081
10
117.29999999999997
20
12.525000000000075
10
167.86249999999995
20
12.525000000000075
42
-0.99999999999999989
10
173.86249999999995
20
12.525000000000039
10
233.36249999999995
20
12.525000000000102
42
-0.41421356237310414
10
236.36249999999995
20
9.5250000000000732
10
236.36249999999995
20
-25.574999999999925
42
-0.99999999999999989
10
236.36249999999995
20
-31.574999999999939
10
236.36249999999995
20
-66.674999999999912
42
-0.4142135623730846
10
233.36249999999995
20
-69.674999999999883
10
173.86249999999995
20
-69.674999999999926
42
-0.99999999999999989
10
167.86249999999995
20
-69.674999999999883
10
56.138000000000019
20
-69.674999999999926
42
-0.99999999999999989
10
50.138000000000005
20
-69.674999999999926
10
-9.5249999999999968
20
-69.674999999999926
42
-0.41421356237309115
10
-12.524999999999995
20
-66.674999999999912
10
-12.524999999999999
20
-22.049999999999926
42
-0.99999999999999989
10
-12.524999999999995
20
-16.04999999999993
10
-12.525000000000004
20
28.575000000000085
42
-0.41421356237309515
10
-9.5250000000000057
20
31.575000000000081
10
50.137999999999991
20
31.575000000000077
42
-0.99999999999999989
10
56.138000000000019
20
31.575000000000067
10
114.29999999999998
20
31.575000000000063
42
-0.41421356237308771
0
ENDSEC
0
SECTION
2
OBJECTS
0
DICTIONARY
5
C
100
AcDbDictionary
3
ACAD_GROUP
350
D
3
ACAD_MLINESTYLE
350
17
0
DICTIONARY
5
D
100
AcDbDictionary
0
DICTIONARY
5
1A
330
C
100
AcDbDictionary
0
DICTIONARY
5
17
100
AcDbDictionary
0
ENDSEC
0
EOF
