0
SECTION
2
HEADER
9
$INSUNITS
70
4
9
$ACADVER
1
AC1014
9
$HANDSEED
5
FFFF
0
ENDSEC
0
SECTION
2
TABLES
0
TABLE
2
VPORT
5
8
100
AcDbSymbolTable
0
ENDTAB
0
TABLE
2
LTYPE
5
5
100
AcDbSymbolTable
0
LTYPE
5
14
100
AcDbSymbolTableRecord
100
AcDbLinetypeTableRecord
2
BYBLOCK
70
0
0
LTYPE
5
15
100
AcDbSymbolTableRecord
100
AcDbLinetypeTableRecord
2
BYLAYER
70
0
0
ENDTAB
0
TABLE
2
LAYER
5
2
100
AcDbSymbolTable
70
2
0
LAYER
5
50
100
AcDbSymbolTableRecord
100
AcDbLayerTableRecord
2
0
70
0
6
CONTINUOUS
0
ENDTAB
0
TABLE
2
STYLE
5
3
100
AcDbSymbolTable
70
1
0
STYLE
5
11
100
AcDbSymbolTableRecord
100
AcDbTextStyleTableRecord
2
STANDARD
70
0
0
ENDTAB
0
TABLE
2
VIEW
5
6
100
AcDbSymbolTable
70
0
0
ENDTAB
0
TABLE
2
UCS
5
7
100
AcDbSymbolTable
70
0
0
ENDTAB
0
TABLE
2
APPID
5
9
100
AcDbSymbolTable
70
2
0
APPID
5
12
100
AcDbSymbolTableRecord
100
AcDbRegAppTableRecord
2
ACAD
70
0
0
ENDTAB
0
TABLE
2
DIMSTYLE
5
A
100
AcDbSymbolTable
70
1
0
ENDTAB
0
TABLE
2
BLOCK_RECORD
5
1
100
AcDbSymbolTable
70
1
0
BLOCK_RECORD
5
1F
100
AcDbSymbolTableRecord
100
AcDbBlockTableRecord
2
*MODEL_SPACE
0
BLOCK_RECORD
5
1B
100
AcDbSymbolTableRecord
100
AcDbBlockTableRecord
2
*PAPER_SPACE
0
ENDTAB
0
ENDSEC
0
SECTION
2
BLOCKS
0
BLOCK
5
20
100
AcDbEntity
100
AcDbBlockBegin
2
*MODEL_SPACE
0
ENDBLK
5
21
100
AcDbEntity
100
AcDbBlockEnd
0
BLOCK
5
1C
100
AcDbEntity
100
AcDbBlockBegin
2
*PAPER_SPACE
0
ENDBLK
5
1D
100
AcDbEntity
100
AcDbBlockEnd
0
ENDSEC
0
SECTION
2
ENTITIES
0
LWPOLYLINE
5
100
100
AcDbEntity
8
0
100
AcDbPolyline
90
4
70
1
43
0.0
10
14.143749999999994
20
-45.099999999999973
10
14.143749999999994
20
-31.099999999999966
10
0.14374999999999805
20
-31.099999999999966
10
0.14374999999999361
20
-45.099999999999973
0
LWPOLYLINE
5
101
100
AcDbEntity
8
0
100
AcDbPolyline
90
4
70
1
43
0.0
10
49.862500000000011
20
-12.049999999999979
10
35.862500000000004
20
-12.049999999999979
10
35.862499999999997
20
-26.049999999999983
10
49.862499999999997
20
-26.049999999999983
0
LWPOLYLINE
5
102
100
AcDbEntity
8
0
100
AcDbPolyline
90
4
70
1
43
0.0
10
197.5
20
6.9999999999999973
10
183.5
20
7
10
183.5
20
-7
10
197.5
20
-7.0000000000000036
0
LWPOLYLINE
5
103
100
AcDbEntity
8
0
100
AcDbPolyline
90
4
70
1
43
0.0
10
45.387500000000003
20
-45.09999999999998
10
59.387499999999989
20
-45.09999999999998
10
59.387499999999989
20
-31.099999999999977
10
45.387500000000003
20
-31.099999999999977
0
LWPOLYLINE
5
104
100
AcDbEntity
8
0
100
AcDbPolyline
90
4
70
1
43
0.0
10
95.106249999999989
20
-50.149999999999991
10
81.106249999999989
20
-50.149999999999991
10
81.106249999999989
20
-64.149999999999977
10
95.106249999999989
20
-64.149999999999977
0
LWPOLYLINE
5
105
100
AcDbEntity
8
0
100
AcDbPolyline
90
4
70
1
43
0.0
10
30.812500000000007
20
-12.049999999999979
10
16.8125
20
-12.049999999999974
10
16.8125
20
-26.049999999999976
10
30.8125
20
-26.049999999999983
0
LWPOLYLINE
5
106
100
AcDbEntity
8
0
100
AcDbPolyline
90
4
70
1
43
0.0
10
112.06250000000003
20
-26.049999999999997
10
126.06250000000003
20
-26.049999999999997
10
126.06250000000003
20
-12.049999999999992
10
112.06250000000003
20
-12.049999999999992
0
LWPOLYLINE
5
107
100
AcDbEntity
8
0
100
AcDbPolyline
90
4
70
1
43
0.0
10
26.337499999999991
20
-31.099999999999977
10
26.337499999999991
20
-45.09999999999998
10
40.337499999999991
20
-45.09999999999998
10
40.337499999999991
20
-31.099999999999977
0
LWPOLYLINE
5
108
100
AcDbEntity
8
0
100
AcDbPolyline
90
4
70
1
43
0.0
10
9.3812500000000014
20
-12.049999999999974
10
-4.6187499999999986
20
-12.049999999999969
10
-4.6187500000000021
20
-26.049999999999972
10
9.3812499999999961
20
-26.049999999999976
0
LWPOLYLINE
5
109
100
AcDbEntity
8
0
100
AcDbPolyline
90
4
70
1
43
0.0
10
226.07500000000002
20
-12.05000000000001
10
212.07499999999999
20
-12.050000000000004
10
212.07499999999999
20
-26.050000000000008
10
226.07500000000002
20
-26.050000000000011
0
LWPOLYLINE
5
110
100
AcDbEntity
8
0
100
AcDbPolyline
90
4
70
1
43
0.0
10
26.050000000000004
20
-6.9999999999999734
10
26.050000000000008
20
7.0000000000000266
10
12.050000000000004
20
7.0000000000000284
10
12.050000000000001
20
-6.9999999999999734
0
LWPOLYLINE
5
111
100
AcDbEntity
8
0
100
AcDbPolyline
90
4
70
1
43
0.0
10
137.02549999999999
20
-64.149999999999991
10
144.02549999999999
20
-64.149999999999991
10
144.02549999999999
20
-49.149999999999991
10
137.02549999999999
20
-49.149999999999991
0
LWPOLYLINE
5
112
100
AcDbEntity
8
0
100
AcDbPolyline
90
4
70
1
43
0.0
10
69.200000000000003
20
-6.9999999999999805
10
83.200000000000003
20
-6.9999999999999831
10
83.200000000000003
20
7.000000000000016
10
69.200000000000003
20
7.000000000000016
0
LWPOLYLINE
5
113
100
AcDbEntity
8
0
100
AcDbPolyline
90
4
70
1
43
0.0
10
72.66825
20
-49.149999999999984
10
72.66825
20
-64.149999999999977
10
79.668249999999986
20
-64.149999999999977
10
79.668249999999986
20
-49.149999999999984
0
LWPOLYLINE
5
114
100
AcDbEntity
8
0
100
AcDbPolyline
90
4
70
1
43
0.0
10
150.16250000000002
20
-12.049999999999997
10
150.16250000000002
20
-26.050000000000001
10
164.16250000000002
20
-26.050000000000004
10
164.16250000000002
20
-12.050000000000001
0
LWPOLYLINE
5
115
100
AcDbEntity
8
0
100
AcDbPolyline
90
4
70
1
43
0.0
10
54.912500000000009
20
-12.049999999999979
10
54.912500000000001
20
-26.049999999999983
10
68.912499999999994
20
-26.049999999999986
10
68.912500000000009
20
-12.049999999999983
0
LWPOLYLINE
5
116
100
AcDbEntity
8
0
100
AcDbPolyline
90
4
70
1
43
0.0
10
97.487500000000011
20
-45.099999999999987
10
97.487500000000026
20
-31.099999999999987
10
83.487500000000026
20
-31.099999999999987
10
83.487500000000011
20
-45.099999999999987
0
LWPOLYLINE
5
117
100
AcDbEntity
8
0
100
AcDbPolyline
90
4
70
1
43
0.0
10
145.11250000000001
20
-26.050000000000001
10
145.11250000000001
20
-12.049999999999997
10
131.11250000000001
20
-12.049999999999992
10
131.11250000000001
20
-26.049999999999997
0
LWPOLYLINE
5
118
100
AcDbEntity
8
0
100
AcDbPolyline
90
4
70
1
43
0.0
10
107.30000000000003
20
7.0000000000000115
10
107.30000000000003
20
-6.9999999999999876
10
121.30000000000001
20
-6.9999999999999893
10
121.30000000000001
20
7.0000000000000115
0
LWPOLYLINE
5
119
100
AcDbEntity
8
0
100
AcDbPolyline
90
4
70
1
43
0.0
10
159.40000000000003
20
7.0000000000000036
10
145.40000000000003
20
7.0000000000000062
10
145.40000000000003
20
-6.9999999999999929
10
159.40000000000003
20
-6.9999999999999973
0
LWPOLYLINE
5
120
100
AcDbEntity
8
0
100
AcDbPolyline
90
4
70
1
43
0.0
10
154.63750000000002
20
-45.099999999999994
10
154.63750000000002
20
-31.099999999999994
10
140.63750000000002
20
-31.099999999999994
10
140.63749999999999
20
-45.099999999999994
0
LWPOLYLINE
5
121
100
AcDbEntity
8
0
100
AcDbPolyline
90
4
70
1
43
0.0
10
178.44999999999999
20
-6.9999999999999982
10
178.44999999999999
20
7.0000000000000009
10
164.44999999999999
20
7.0000000000000027
10
164.44999999999999
20
-6.9999999999999964
0
LWPOLYLINE
5
122
100
AcDbEntity
8
0
100
AcDbPolyline
90
4
70
1
43
0.0
10
230.83750000000003
20
-45.100000000000016
10
230.83750000000003
20
-31.100000000000012
10
216.83750000000003
20
-31.100000000000001
10
216.83750000000003
20
-45.100000000000009
0
LWPOLYLINE
5
123
100
AcDbEntity
8
0
100
AcDbPolyline
90
4
70
1
43
0.0
10
140.35000000000002
20
-6.9999999999999929
10
140.35000000000002
20
7.0000000000000062
10
126.35000000000002
20
7.0000000000000089
10
126.35000000000002
20
-6.9999999999999885
0
LWPOLYLINE
5
124
100
AcDbEntity
8
0
100
AcDbPolyline
90
4
70
1
43
0.0
10
12.049999999999997
20
-50.14999999999997
10
12.049999999999992
20
-64.149999999999963
10
45.099999999999994
20
-64.149999999999977
10
45.099999999999994
20
-50.149999999999977
0
LWPOLYLINE
5
125
100
AcDbEntity
8
0
100
AcDbPolyline
90
4
70
1
43
0.0
10
152.54375000000002
20
-64.149999999999991
10
168.92499999999998
20
-64.149999999999991
10
168.92499999999998
20
-50.149999999999999
10
152.54375000000002
20
-50.149999999999999
0
LWPOLYLINE
5
126
100
AcDbEntity
8
0
100
AcDbPolyline
90
4
70
1
43
0.0
10
73.962500000000006
20
-12.049999999999983
10
73.962500000000006
20
-26.049999999999986
10
87.96250000000002
20
-26.04999999999999
10
87.96250000000002
20
-12.049999999999986
0
LWPOLYLINE
5
127
100
AcDbEntity
8
0
100
AcDbPolyline
90
4
70
1
43
0.0
10
121.58750000000001
20
-64.149999999999977
10
135.58750000000001
20
-64.149999999999991
10
135.58750000000001
20
-50.149999999999999
10
121.58750000000001
20
-50.149999999999991
0
LWPOLYLINE
5
128
100
AcDbEntity
8
0
100
AcDbPolyline
90
4
70
1
43
0.0
10
113.14949999999999
20
-49.149999999999984
10
113.14949999999999
20
-64.149999999999977
10
120.14949999999999
20
-64.149999999999977
10
120.14949999999999
20
-49.149999999999984
0
LWPOLYLINE
5
129
100
AcDbEntity
8
0
100
AcDbPolyline
90
4
70
1
43
0.0
10
-7.0000000000000062
20
-50.14999999999997
10
-7.0000000000000089
20
-64.149999999999963
10
9.3812499999999925
20
-64.149999999999963
10
9.3812499999999961
20
-50.14999999999997
0
LWPOLYLINE
5
130
100
AcDbEntity
8
0
100
AcDbPolyline
90
4
70
1
43
0.0
10
188.26250000000002
20
-12.050000000000001
10
188.26250000000002
20
-26.050000000000004
10
202.26249999999999
20
-26.050000000000008
10
202.26249999999999
20
-12.050000000000004
0
LWPOLYLINE
5
131
100
AcDbEntity
8
0
100
AcDbPolyline
90
4
70
1
43
0.0
10
223.69375000000002
20
6.9999999999999929
10
209.69374999999999
20
6.9999999999999947
10
209.69374999999999
20
-7.0000000000000036
10
223.69375000000002
20
-7.0000000000000036
0
LWPOLYLINE
5
132
100
AcDbEntity
8
0
100
AcDbPolyline
90
4
70
1
43
0.0
10
135.58750000000001
20
-45.099999999999994
10
135.58750000000003
20
-31.099999999999994
10
121.58750000000003
20
-31.099999999999987
10
121.58750000000001
20
-45.099999999999987
0
LWPOLYLINE
5
133
100
AcDbEntity
8
0
100
AcDbPolyline
90
4
70
1
43
0.0
10
173.68750000000003
20
-31.099999999999994
10
159.68750000000003
20
-31.099999999999994
10
159.68750000000003
20
-45.099999999999994
10
173.68750000000003
20
-45.099999999999994
0
LWPOLYLINE
5
134
100
AcDbEntity
8
0
100
AcDbPolyline
90
4
70
1
43
0.0
10
31.100000000000001
20
7.0000000000000249
10
31.100000000000001
20
-6.9999999999999742
10
45.100000000000009
20
-6.999999999999976
10
45.100000000000009
20
7.0000000000000231
0
LWPOLYLINE
5
135
100
AcDbEntity
8
0
100
AcDbPolyline
90
4
70
1
43
0.0
10
50.150000000000006
20
-6.999999999999976
10
64.150000000000006
20
-6.9999999999999805
10
64.150000000000006
20
7.0000000000000187
10
50.150000000000006
20
7.0000000000000231
0
LWPOLYLINE
5
136
100
AcDbEntity
8
0
100
AcDbPolyline
90
4
70
1
43
0.0
10
-6.9999999999999973
20
7.000000000000032
10
-6.9999999999999982
20
-6.9999999999999671
10
7.0000000000000009
20
-6.9999999999999698
10
7.0000000000000018
20
7.0000000000000275
0
LWPOLYLINE
5
137
100
AcDbEntity
8
0
100
AcDbPolyline
90
4
70
1
43
0.0
10
88.250000000000028
20
-6.9999999999999831
10
102.25000000000003
20
-6.9999999999999849
10
102.25000000000003
20
7.0000000000000142
10
88.250000000000028
20
7.0000000000000142
0
LWPOLYLINE
5
138
100
AcDbEntity
8
0
100
AcDbPolyline
90
4
70
1
43
0.0
10
183.21250000000003
20
-12.050000000000001
10
169.21250000000001
20
-12.050000000000001
10
169.21250000000001
20
-26.050000000000004
10
183.21250000000003
20
-26.050000000000004
0
LWPOLYLINE
5
139
100
AcDbEntity
8
0
100
AcDbPolyline
90
4
70
1
43
0.0
10
178.73749999999998
20
-31.100000000000001
10
178.73749999999998
20
-45.100000000000009
10
192.73750000000001
20
-45.100000000000009
10
192.73750000000001
20
-31.100000000000001
0
LWPOLYLINE
5
140
100
AcDbEntity
8
0
100
AcDbPolyline
90
4
70
1
43
0.0
10
197.78750000000002
20
-45.100000000000009
10
211.78750000000002
20
-45.100000000000009
10
211.78750000000002
20
-31.100000000000001
10
197.78750000000002
20
-31.100000000000001
0
LWPOLYLINE
5
141
100
AcDbEntity
8
0
100
AcDbPolyline
90
4
70
1
43
0.0
10
192.73750000000001
20
-64.150000000000006
10
192.73750000000001
20
-50.150000000000006
10
178.73749999999998
20
-50.150000000000006
10
178.73749999999998
20
-64.150000000000006
0
LWPOLYLINE
5
142
100
AcDbEntity
8
0
100
AcDbPolyline
90
4
70
1
43
0.0
10
230.83750000000003
20
-64.150000000000006
10
230.83750000000003
20
-50.150000000000013
10
197.78750000000002
20
-50.150000000000006
10
197.78750000000002
20
-64.150000000000006
0
LWPOLYLINE
5
143
100
AcDbEntity
8
0
100
AcDbPolyline
90
4
70
1
43
0.0
10
96.544250000000005
20
-64.149999999999977
10
103.54424999999999
20
-64.149999999999977
10
103.54424999999999
20
-49.149999999999984
10
96.544250000000005
20
-49.149999999999984
0
LWPOLYLINE
5
144
100
AcDbEntity
8
0
100
AcDbPolyline
90
4
70
1
43
0.0
10
78.437500000000014
20
-31.099999999999987
10
64.4375
20
-31.099999999999977
10
64.4375
20
-45.09999999999998
10
78.437499999999986
20
-45.099999999999987
0
LWPOLYLINE
5
145
100
AcDbEntity
8
0
100
AcDbPolyline
90
4
70
1
43
0.0
10
47.768750000000004
20
-50.149999999999977
10
47.768750000000004
20
-64.149999999999977
10
64.149999999999991
20
-64.149999999999977
10
64.149999999999991
20
-50.149999999999977
0
LWPOLYLINE
5
146
100
AcDbEntity
8
0
100
AcDbPolyline
90
4
70
1
43
0.0
10
93.012500000000017
20
-12.049999999999986
10
93.012500000000017
20
-26.04999999999999
10
107.01250000000002
20
-26.04999999999999
10
107.01250000000002
20
-12.049999999999986
0
LWPOLYLINE
5
147
100
AcDbEntity
8
0
100
AcDbPolyline
90
4
70
1
43
0.0
10
116.53750000000002
20
-31.099999999999987
10
102.53750000000002
20
-31.099999999999987
10
102.53749999999999
20
-45.099999999999987
10
116.53750000000001
20
-45.099999999999987
0
CIRCLE
5
148
100
AcDbEntity
8
0
100
AcDbCircle
10
-5.5129999999999963
20
25.325000000000024
30
0
40
1.7500000000000004
210
-1.3684555315672042e-48
220
2.4651903288156619e-32
230
1
0
CIRCLE
5
149
100
AcDbEntity
8
0
100
AcDbCircle
10
-5.5129999999999963
20
19.800000000000018
30
0
40
1.7500000000000004
210
-1.3684555315672042e-48
220
2.4651903288156619e-32
230
1
0
LWPOLYLINE
5
150
100
AcDbEntity
8
0
100
AcDbPolyline
90
4
70
1
43
0.0
10
2.5250000000000017
20
12.050000000000008
10
16.525000000000002
20
12.050000000000008
10
16.525000000000002
20
26.050000000000011
10
2.5250000000000017
20
26.050000000000011
0
LWPOLYLINE
5
151
100
AcDbEntity
8
0
100
AcDbPolyline
90
4
70
1
43
0.0
10
111.77500000000002
20
12.050000000000015
10
111.77500000000002
20
26.050000000000011
10
97.775000000000006
20
26.050000000000018
10
97.775000000000006
20
12.050000000000011
0
LWPOLYLINE
5
152
100
AcDbEntity
8
0
100
AcDbPolyline
90
4
70
1
43
0.0
10
54.625
20
12.05000000000001
10
54.625
20
26.050000000000011
10
40.625000000000014
20
26.050000000000011
10
40.625000000000014
20
12.050000000000008
0
LWPOLYLINE
5
153
100
AcDbEntity
8
0
100
AcDbPolyline
90
4
70
1
43
0.0
10
35.575000000000003
20
12.05000000000001
10
35.575000000000003
20
26.050000000000011
10
21.575000000000006
20
26.050000000000011
10
21.575000000000006
20
12.050000000000008
0
CIRCLE
5
154
100
AcDbEntity
8
0
100
AcDbCircle
10
-5.5129999999999963
20
14.275000000000018
30
0
40
1.7500000000000004
210
-1.3684555315672042e-48
220
2.4651903288156619e-32
230
1
0
LWPOLYLINE
5
155
100
AcDbEntity
8
0
100
AcDbPolyline
90
4
70
1
43
0.0
10
92.725000000000009
20
12.050000000000011
10
92.725000000000009
20
26.050000000000011
10
78.725000000000037
20
26.050000000000011
10
78.725000000000037
20
12.05000000000001
0
LWPOLYLINE
5
156
100
AcDbEntity
8
0
100
AcDbPolyline
90
4
70
1
43
0.0
10
73.675000000000011
20
12.050000000000011
10
73.675000000000011
20
26.050000000000011
10
59.675000000000011
20
26.050000000000011
10
59.675000000000011
20
12.05000000000001
0
ARC
5
157
100
AcDbEntity
8
0
100
AcDbCircle
10
-11.849999999605751
20
6.8500000000010965
30
0
40
2.6750000015758957
210
-1.945791551910788e-32
220
1.5136243238660253e-32
230
1
100
AcDbArc
50
232.12078034071502
51
269.99999999999994
0
LINE
5
158
100
AcDbEntity
8
0
100
AcDbLine
10
-11.849999999605753
20
4.1749999984252009
30
4.0489450687269307e-32
11
-11.024999999999995
21
4.1749999999999998
31
0
0
ARC
5
159
100
AcDbEntity
8
0
100
AcDbCircle
10
-11.024999999999995
20
2.6750000000000043
30
0
40
1.4999999999999969
210
0
220
-0
230
1
100
AcDbArc
50
0
51
90
0
LINE
5
160
100
AcDbEntity
8
0
100
AcDbLine
10
-9.5249999999999986
20
2.6750000000000052
30
0
11
-9.5250000000000039
21
-59.825000000000017
31
0
0
ARC
5
161
100
AcDbEntity
8
0
100
AcDbCircle
10
-11.024999999999993
20
-59.825000000000024
30
1.8132035793265455e-46
40
1.4999999999999858
210
7.3416531195868706e-47
220
-2.4651903288156739e-32
230
1
100
AcDbArc
50
-90
51
0
0
LINE
5
162
100
AcDbEntity
8
0
100
AcDbLine
10
-11.024999999999993
20
-61.32500000000001
30
-3.6977854932234578e-32
11
-11.850000000000001
21
-61.325000000000003
31
1.504097930928367e-63
0
ARC
5
163
100
AcDbEntity
8
0
100
AcDbCircle
10
-11.850000000000012
20
-64
30
0
40
2.6750000000000007
210
-2.3336663872236609e-78
220
-5.6227960034705298e-64
230
1
100
AcDbArc
50
89.999999999999773
51
127.8792196745212
0
ARC
5
164
100
AcDbEntity
8
0
100
AcDbCircle
10
-13.185447761194025
20
-62.283257655580819
30
0
40
0.4999999999999955
210
0
220
0
230
1
100
AcDbArc
50
127.87921967452064
51
258.81194424867795
0
ARC
5
165
100
AcDbEntity
8
0
100
AcDbCircle
10
-13.525
20
-64
30
0
40
1.2499999999999951
210
0
220
0
230
1
100
AcDbArc
50
-78.811944248677989
51
78.811944248677364
0
ARC
5
166
100
AcDbEntity
8
0
100
AcDbCircle
10
-13.185447761194036
20
-65.716742344419174
30
0
40
0.500000000000004
210
-6.0458523207578288e-33
220
-1.1958012789031252e-33
230
1
100
AcDbArc
50
101.18805575132265
51
232.12078032547822
0
ARC
5
167
100
AcDbEntity
8
0
100
AcDbCircle
10
-11.850000000000012
20
-64
30
0
40
2.6749999999999825
210
-5.3435139288001064e-34
220
-6.8691841763715217e-34
230
1
100
AcDbArc
50
232.12078032547831
51
270
0
LINE
5
168
100
AcDbEntity
8
0
100
AcDbLine
10
-11.850000000000012
20
-66.674999999999983
30
0
11
235.68750000000006
21
-66.674999999999983
31
-4.512977473662748e-61
0
ARC
5
169
100
AcDbEntity
8
0
100
AcDbCircle
10
235.68750000000006
20
-63.999999999999986
30
0
40
2.6750000000000007
210
0
220
-1.6870943826776624e-61
230
1
100
AcDbArc
50
270
51
307.87921967452093
0
ARC
5
170
100
AcDbEntity
8
0
100
AcDbCircle
10
237.02294776119405
20
-65.71674234441916
30
0
40
0.50000000000002176
210
1.9457915515082789e-32
220
1.5136243243834564e-32
230
1
100
AcDbArc
50
-52.120780325479075
51
78.811944248676042
0
ARC
5
171
100
AcDbEntity
8
0
100
AcDbCircle
10
237.36249999999998
20
-63.999999999999957
30
0
40
1.2499999999999964
210
0
220
0
230
1
100
AcDbArc
50
101.18805575132033
51
258.81194424868005
0
ARC
5
172
100
AcDbEntity
8
0
100
AcDbCircle
10
237.02294776119405
20
-62.283257655580798
30
0
40
0.4999999999999783
210
-0
220
0
230
1
100
AcDbArc
50
-78.811944248676056
51
52.120780325480666
0
ARC
5
173
100
AcDbEntity
8
0
100
AcDbCircle
10
235.68750000000006
20
-63.999999999999986
30
0
40
2.6749999999999847
210
-1.945791551508297e-32
220
1.5136243243834331e-32
230
1
100
AcDbArc
50
52.120780325479551
51
90
0
LINE
5
174
100
AcDbEntity
8
0
100
AcDbLine
10
235.68750000000006
20
-61.324999999999989
30
-4.0489450677256597e-32
11
234.86250000000007
21
-61.325000000000017
31
0
0
ARC
5
175
100
AcDbEntity
8
0
100
AcDbCircle
10
234.86250000000001
20
-59.824999999999989
30
-9.248682984370044e-62
40
1.5000000000000213
210
-1.8816263559048884e-48
220
3.3622348370224228e-62
230
1
100
AcDbArc
50
180
51
270.0000000000021
0
LINE
5
176
100
AcDbEntity
8
0
100
AcDbLine
10
233.36250000000001
20
-59.82499999999996
30
-2.8224395338574656e-48
11
233.36250000000004
21
2.6750000000000185
31
0
0
ARC
5
177
100
AcDbEntity
8
0
100
AcDbCircle
10
234.86250000000007
20
2.6749999999999794
30
-3.5921957703639109e-47
40
1.5000000000000391
210
-5.6668385016812837e-46
220
-2.4651903288156624e-32
230
1
100
AcDbArc
50
90.000000000002174
51
180
0
LINE
5
178
100
AcDbEntity
8
0
100
AcDbLine
10
234.86250000000001
20
4.1750000000000185
30
3.6977854932235864e-32
11
235.68750000000006
21
4.1750000000000176
31
-1.5040979309284075e-63
0
ARC
5
179
100
AcDbEntity
8
0
100
AcDbCircle
10
235.68750000000006
20
6.8500000000000174
30
0
40
2.6749999999999998
210
0
220
-5.622796003470683e-64
230
1
100
AcDbArc
50
270
51
307.87921967452115
0
ARC
5
180
100
AcDbEntity
8
0
100
AcDbCircle
10
237.02294776119405
20
5.1332576555808407
30
0
40
0.50000000000001388
210
1.9457915515082606e-32
220
1.5136243243834805e-32
230
1
100
AcDbArc
50
-52.120780325478009
51
78.811944248676298
0
ARC
5
181
100
AcDbEntity
8
0
100
AcDbCircle
10
237.36249999999998
20
6.850000000000021
30
0
40
1.2499999999999998
210
0
220
0
230
1
100
AcDbArc
50
101.18805575132026
51
258.81194424867977
0
ARC
5
182
100
AcDbEntity
8
0
100
AcDbCircle
10
237.02294776119405
20
8.5667423444192021
30
0
40
0.49999999999999684
210
-0
220
0
230
1
100
AcDbArc
50
-78.811944248676369
51
52.120780325476339
0
ARC
5
183
100
AcDbEntity
8
0
100
AcDbCircle
10
235.68750000000006
20
6.8500000000000174
30
0
40
2.6749999999999852
210
-1.9457915515082718e-32
220
1.5136243243834654e-32
230
1
100
AcDbArc
50
52.120780325478691
51
90
0
LINE
5
184
100
AcDbEntity
8
0
100
AcDbLine
10
235.68750000000006
20
9.5250000000000092
30
-4.0489450677257456e-32
11
117.97499999999999
21
9.5250000000000092
31
-2.1895288505075267e-46
0
ARC
5
185
100
AcDbEntity
8
0
100
AcDbCircle
10
117.97500000000005
20
13.200000000000054
30
0
40
3.6750000000000504
210
0
220
0
230
1
100
AcDbArc
50
180
51
269.99999999999909
0
LINE
5
186
100
AcDbEntity
8
0
100
AcDbLine
10
114.3
20
13.20000000000004
30
0
11
114.3
21
25.900000000000027
31
0
0
ARC
5
187
100
AcDbEntity
8
0
100
AcDbCircle
10
111.62500000000001
20
25.900000000000027
30
0
40
2.6749999999999829
210
0
220
0
230
1
100
AcDbArc
50
0
51
90
0
LINE
5
188
100
AcDbEntity
8
0
100
AcDbLine
10
111.62500000000001
20
28.575000000000024
30
0
11
-6.850000000000005
21
28.575000000000017
31
0
0
ARC
5
189
100
AcDbEntity
8
0
100
AcDbCircle
10
-6.8500000000000005
20
25.90000000000002
30
0
40
2.6749999999999963
210
0
220
0
230
1
100
AcDbArc
50
90.000000000000099
51
180
0
LINE
5
190
100
AcDbEntity
8
0
100
AcDbLine
10
-9.5249999999999986
20
25.90000000000002
30
0
11
-9.5249999999999861
21
11.025000000000018
31
0
0
ARC
5
191
100
AcDbEntity
8
0
100
AcDbCircle
10
-11.024999999999999
20
11.025000000000018
30
1.2154326714572542e-62
40
1.5000000000000147
210
-5.4738221262688161e-48
220
-8.102884476383307e-64
230
1
100
AcDbArc
50
-90.000000000000313
51
0
0
LINE
5
192
100
AcDbEntity
8
0
100
AcDbLine
10
-11.025000000000006
20
9.5250000000000039
30
-2.5524086100602589e-62
11
-11.850000001181652
21
9.5250000000000057
31
0
0
ARC
5
193
100
AcDbEntity
8
0
100
AcDbCircle
10
-11.849999999605751
20
6.8500000000010965
30
0
40
2.6749999999989091
210
2.2958874039497803e-41
220
1.3525561149645844e-50
230
1
100
AcDbArc
50
90.000000033754191
51
127.8792197670968
0
ARC
5
194
100
AcDbEntity
8
0
100
AcDbCircle
10
-13.185447764541189
20
8.5667423435064034
30
0
40
0.49999999842300946
210
1.9457915536932607e-32
220
1.5136243215745988e-32
230
1
100
AcDbArc
50
127.87921976709671
51
258.81194436038783
0
ARC
5
195
100
AcDbEntity
8
0
100
AcDbCircle
10
-13.525
20
6.8499999984251971
30
0
40
1.25
210
-0
220
0
230
1
100
AcDbArc
50
-78.811944252576225
51
78.811944360388239
0
ARC
5
196
100
AcDbEntity
8
0
100
AcDbCircle
10
-13.185447761310847
20
5.1332576539829153
30
0
40
0.49999999999999889
210
0
220
0
230
1
100
AcDbArc
50
101.18805574742325
51
232.12078034071507
0
ENDSEC
0
SECTION
2
OBJECTS
0
DICTIONARY
5
C
100
AcDbDictionary
3
ACAD_GROUP
350
D
3
ACAD_MLINESTYLE
350
17
0
DICTIONARY
5
D
100
AcDbDictionary
0
DICTIONARY
5
1A
330
C
100
AcDbDictionary
0
DICTIONARY
5
17
100
AcDbDictionary
0
ENDSEC
0
EOF
