0
SECTION
2
HEADER
9
$INSUNITS
70
4
9
$ACADVER
1
AC1014
9
$HANDSEED
5
FFFF
0
ENDSEC
0
SECTION
2
TABLES
0
TABLE
2
VPORT
5
8
100
AcDbSymbolTable
0
ENDTAB
0
TABLE
2
LTYPE
5
5
100
AcDbSymbolTable
0
LTYPE
5
14
100
AcDbSymbolTableRecord
100
AcDbLinetypeTableRecord
2
BYBLOCK
70
0
0
LTYPE
5
15
100
AcDbSymbolTableRecord
100
AcDbLinetypeTableRecord
2
BYLAYER
70
0
0
ENDTAB
0
TABLE
2
LAYER
5
2
100
AcDbSymbolTable
70
2
0
LAYER
5
50
100
AcDbSymbolTableRecord
100
AcDbLayerTableRecord
2
0
70
0
6
CONTINUOUS
0
ENDTAB
0
TABLE
2
STYLE
5
3
100
AcDbSymbolTable
70
1
0
STYLE
5
11
100
AcDbSymbolTableRecord
100
AcDbTextStyleTableRecord
2
STANDARD
70
0
0
ENDTAB
0
TABLE
2
VIEW
5
6
100
AcDbSymbolTable
70
0
0
ENDTAB
0
TABLE
2
UCS
5
7
100
AcDbSymbolTable
70
0
0
ENDTAB
0
TABLE
2
APPID
5
9
100
AcDbSymbolTable
70
2
0
APPID
5
12
100
AcDbSymbolTableRecord
100
AcDbRegAppTableRecord
2
ACAD
70
0
0
ENDTAB
0
TABLE
2
DIMSTYLE
5
A
100
AcDbSymbolTable
70
1
0
ENDTAB
0
TABLE
2
BLOCK_RECORD
5
1
100
AcDbSymbolTable
70
1
0
BLOCK_RECORD
5
1F
100
AcDbSymbolTableRecord
100
AcDbBlockTableRecord
2
*MODEL_SPACE
0
BLOCK_RECORD
5
1B
100
AcDbSymbolTableRecord
100
AcDbBlockTableRecord
2
*PAPER_SPACE
0
ENDTAB
0
ENDSEC
0
SECTION
2
BLOCKS
0
BLOCK
5
20
100
AcDbEntity
100
AcDbBlockBegin
2
*MODEL_SPACE
0
ENDBLK
5
21
100
AcDbEntity
100
AcDbBlockEnd
0
BLOCK
5
1C
100
AcDbEntity
100
AcDbBlockBegin
2
*PAPER_SPACE
0
ENDBLK
5
1D
100
AcDbEntity
100
AcDbBlockEnd
0
ENDSEC
0
SECTION
2
ENTITIES
0
LWPOLYLINE
5
100
100
AcDbEntity
8
0
100
AcDbPolyline
90
6
70
1
43
0.0
10
128.20613527459517
20
-31.099999999999994
10
121.58750000000003
20
-31.099999999999987
10
121.58750000000001
20
-45.099999999999987
10
135.58750000000001
20
-45.099999999999994
10
135.58750000000003
20
-31.099999999999994
10
128.91845472540487
20
-31.099999999999994
42
13.967048055041278
0
LWPOLYLINE
5
101
100
AcDbEntity
8
0
100
AcDbPolyline
90
4
70
1
43
0.0
10
140.35000000000002
20
-6.9999999999999929
10
140.35000000000002
20
7.0000000000000062
10
126.35000000000002
20
7.0000000000000089
10
126.35000000000002
20
-6.9999999999999885
0
LWPOLYLINE
5
102
100
AcDbEntity
8
0
100
AcDbPolyline
90
4
70
1
43
0.0
10
223.69375000000002
20
6.9999999999999929
10
209.69374999999999
20
6.9999999999999947
10
209.69374999999999
20
-7.0000000000000036
10
223.69375000000002
20
-7.0000000000000036
0
LWPOLYLINE
5
103
100
AcDbEntity
8
0
100
AcDbPolyline
90
4
70
1
43
0.0
10
145.11250000000001
20
-26.050000000000001
10
145.11250000000001
20
-12.049999999999997
10
131.11250000000001
20
-12.049999999999992
10
131.11250000000001
20
-26.049999999999997
0
LWPOLYLINE
5
104
100
AcDbEntity
8
0
100
AcDbPolyline
90
4
70
1
43
0.0
10
9.3812500000000014
20
-12.049999999999974
10
-4.6187499999999986
20
-12.049999999999969
10
-4.6187500000000021
20
-26.049999999999972
10
9.3812499999999961
20
-26.049999999999976
0
LWPOLYLINE
5
105
100
AcDbEntity
8
0
100
AcDbPolyline
90
4
70
1
43
0.0
10
230.83750000000003
20
-45.100000000000016
10
230.83750000000003
20
-31.100000000000012
10
216.83750000000003
20
-31.100000000000001
10
216.83750000000003
20
-45.100000000000009
0
LWPOLYLINE
5
106
100
AcDbEntity
8
0
100
AcDbPolyline
90
4
70
1
43
0.0
10
73.962500000000006
20
-12.049999999999983
10
73.962500000000006
20
-26.049999999999986
10
87.96250000000002
20
-26.04999999999999
10
87.96250000000002
20
-12.049999999999986
0
LWPOLYLINE
5
107
100
AcDbEntity
8
0
100
AcDbPolyline
90
4
70
1
43
0.0
10
69.200000000000003
20
-6.9999999999999805
10
83.200000000000003
20
-6.9999999999999831
10
83.200000000000003
20
7.000000000000016
10
69.200000000000003
20
7.000000000000016
0
LWPOLYLINE
5
108
100
AcDbEntity
8
0
100
AcDbPolyline
90
4
70
1
43
0.0
10
50.150000000000006
20
-6.999999999999976
10
64.150000000000006
20
-6.9999999999999805
10
64.150000000000006
20
7.0000000000000187
10
50.150000000000006
20
7.0000000000000231
0
LWPOLYLINE
5
109
100
AcDbEntity
8
0
100
AcDbPolyline
90
4
70
1
43
0.0
10
93.012500000000017
20
-12.049999999999986
10
93.012500000000017
20
-26.04999999999999
10
107.01250000000002
20
-26.04999999999999
10
107.01250000000002
20
-12.049999999999986
0
LWPOLYLINE
5
110
100
AcDbEntity
8
0
100
AcDbPolyline
90
4
70
1
43
0.0
10
96.544250000000005
20
-64.149999999999977
10
103.54424999999999
20
-64.149999999999977
10
103.54424999999999
20
-49.149999999999984
10
96.544250000000005
20
-49.149999999999984
0
LWPOLYLINE
5
111
100
AcDbEntity
8
0
100
AcDbPolyline
90
4
70
1
43
0.0
10
113.14949999999999
20
-49.149999999999984
10
113.14949999999999
20
-64.149999999999977
10
120.14949999999999
20
-64.149999999999977
10
120.14949999999999
20
-49.149999999999984
0
LWPOLYLINE
5
112
100
AcDbEntity
8
0
100
AcDbPolyline
90
4
70
1
43
0.0
10
12.049999999999997
20
-50.14999999999997
10
12.049999999999992
20
-64.149999999999963
10
45.099999999999994
20
-64.149999999999977
10
45.099999999999994
20
-50.149999999999977
0
LWPOLYLINE
5
113
100
AcDbEntity
8
0
100
AcDbPolyline
90
4
70
1
43
0.0
10
137.02549999999999
20
-64.149999999999991
10
144.02549999999999
20
-64.149999999999991
10
144.02549999999999
20
-49.149999999999991
10
137.02549999999999
20
-49.149999999999991
0
LWPOLYLINE
5
114
100
AcDbEntity
8
0
100
AcDbPolyline
90
4
70
1
43
0.0
10
45.387500000000003
20
-45.09999999999998
10
59.387499999999989
20
-45.09999999999998
10
59.387499999999989
20
-31.099999999999977
10
45.387500000000003
20
-31.099999999999977
0
LWPOLYLINE
5
115
100
AcDbEntity
8
0
100
AcDbPolyline
90
4
70
1
43
0.0
10
-6.9999999999999973
20
7.000000000000032
10
-6.9999999999999982
20
-6.9999999999999671
10
7.0000000000000009
20
-6.9999999999999698
10
7.0000000000000018
20
7.0000000000000275
0
LWPOLYLINE
5
116
100
AcDbEntity
8
0
100
AcDbPolyline
90
4
70
1
43
0.0
10
178.44999999999999
20
-6.9999999999999982
10
178.44999999999999
20
7.0000000000000009
10
164.44999999999999
20
7.0000000000000027
10
164.44999999999999
20
-6.9999999999999964
0
LWPOLYLINE
5
117
100
AcDbEntity
8
0
100
AcDbPolyline
90
4
70
1
43
0.0
10
121.58750000000001
20
-64.149999999999977
10
135.58750000000001
20
-64.149999999999991
10
135.58750000000001
20
-50.149999999999999
10
121.58750000000001
20
-50.149999999999991
0
LWPOLYLINE
5
118
100
AcDbEntity
8
0
100
AcDbPolyline
90
4
70
1
43
0.0
10
230.83750000000003
20
-64.150000000000006
10
230.83750000000003
20
-50.150000000000013
10
197.78750000000002
20
-50.150000000000006
10
197.78750000000002
20
-64.150000000000006
0
LWPOLYLINE
5
119
100
AcDbEntity
8
0
100
AcDbPolyline
90
4
70
1
43
0.0
10
72.66825
20
-49.149999999999984
10
72.66825
20
-64.149999999999977
10
79.668249999999986
20
-64.149999999999977
10
79.668249999999986
20
-49.149999999999984
0
LWPOLYLINE
5
120
100
AcDbEntity
8
0
100
AcDbPolyline
90
4
70
1
43
0.0
10
197.78750000000002
20
-45.100000000000009
10
211.78750000000002
20
-45.100000000000009
10
211.78750000000002
20
-31.100000000000001
10
197.78750000000002
20
-31.100000000000001
0
LWPOLYLINE
5
121
100
AcDbEntity
8
0
100
AcDbPolyline
90
4
70
1
43
0.0
10
112.06250000000003
20
-26.049999999999997
10
126.06250000000003
20
-26.049999999999997
10
126.06250000000003
20
-12.049999999999992
10
112.06250000000003
20
-12.049999999999992
0
LWPOLYLINE
5
122
100
AcDbEntity
8
0
100
AcDbPolyline
90
4
70
1
43
0.0
10
150.16250000000002
20
-12.049999999999997
10
150.16250000000002
20
-26.050000000000001
10
164.16250000000002
20
-26.050000000000004
10
164.16250000000002
20
-12.050000000000001
0
LWPOLYLINE
5
123
100
AcDbEntity
8
0
100
AcDbPolyline
90
4
70
1
43
0.0
10
226.07500000000002
20
-12.05000000000001
10
212.07499999999999
20
-12.050000000000004
10
212.07499999999999
20
-26.050000000000008
10
226.07500000000002
20
-26.050000000000011
0
LWPOLYLINE
5
124
100
AcDbEntity
8
0
100
AcDbPolyline
90
4
70
1
43
0.0
10
183.21250000000003
20
-12.050000000000001
10
169.21250000000001
20
-12.050000000000001
10
169.21250000000001
20
-26.050000000000004
10
183.21250000000003
20
-26.050000000000004
0
LWPOLYLINE
5
125
100
AcDbEntity
8
0
100
AcDbPolyline
90
4
70
1
43
0.0
10
178.73749999999998
20
-31.100000000000001
10
178.73749999999998
20
-45.100000000000009
10
192.73750000000001
20
-45.100000000000009
10
192.73750000000001
20
-31.100000000000001
0
LWPOLYLINE
5
126
100
AcDbEntity
8
0
100
AcDbPolyline
90
4
70
1
43
0.0
10
54.912500000000009
20
-12.049999999999979
10
54.912500000000001
20
-26.049999999999983
10
68.912499999999994
20
-26.049999999999986
10
68.912500000000009
20
-12.049999999999983
0
LWPOLYLINE
5
127
100
AcDbEntity
8
0
100
AcDbPolyline
90
4
70
1
43
0.0
10
26.337499999999991
20
-31.099999999999977
10
26.337499999999991
20
-45.09999999999998
10
40.337499999999991
20
-45.09999999999998
10
40.337499999999991
20
-31.099999999999977
0
LWPOLYLINE
5
128
100
AcDbEntity
8
0
100
AcDbPolyline
90
4
70
1
43
0.0
10
97.487500000000011
20
-45.099999999999987
10
97.487500000000026
20
-31.099999999999987
10
83.487500000000026
20
-31.099999999999987
10
83.487500000000011
20
-45.099999999999987
0
LWPOLYLINE
5
129
100
AcDbEntity
8
0
100
AcDbPolyline
90
4
70
1
43
0.0
10
192.73750000000001
20
-64.150000000000006
10
192.73750000000001
20
-50.150000000000006
10
178.73749999999998
20
-50.150000000000006
10
178.73749999999998
20
-64.150000000000006
0
LWPOLYLINE
5
130
100
AcDbEntity
8
0
100
AcDbPolyline
90
4
70
1
43
0.0
10
107.30000000000003
20
7.0000000000000115
10
107.30000000000003
20
-6.9999999999999876
10
121.30000000000001
20
-6.9999999999999893
10
121.30000000000001
20
7.0000000000000115
0
LWPOLYLINE
5
131
100
AcDbEntity
8
0
100
AcDbPolyline
90
4
70
1
43
0.0
10
154.63750000000002
20
-45.099999999999994
10
154.63750000000002
20
-31.099999999999994
10
140.63750000000002
20
-31.099999999999994
10
140.63749999999999
20
-45.099999999999994
0
LWPOLYLINE
5
132
100
AcDbEntity
8
0
100
AcDbPolyline
90
4
70
1
43
0.0
10
159.40000000000003
20
7.0000000000000036
10
145.40000000000003
20
7.0000000000000062
10
145.40000000000003
20
-6.9999999999999929
10
159.40000000000003
20
-6.9999999999999973
0
LWPOLYLINE
5
133
100
AcDbEntity
8
0
100
AcDbPolyline
90
4
70
1
43
0.0
10
30.812500000000007
20
-12.049999999999979
10
16.8125
20
-12.049999999999974
10
16.8125
20
-26.049999999999976
10
30.8125
20
-26.049999999999983
0
LWPOLYLINE
5
134
100
AcDbEntity
8
0
100
AcDbPolyline
90
4
70
1
43
0.0
10
152.54375000000002
20
-64.149999999999991
10
168.92499999999998
20
-64.149999999999991
10
168.92499999999998
20
-50.149999999999999
10
152.54375000000002
20
-50.149999999999999
0
LWPOLYLINE
5
135
100
AcDbEntity
8
0
100
AcDbPolyline
90
4
70
1
43
0.0
10
88.250000000000028
20
-6.9999999999999831
10
102.25000000000003
20
-6.9999999999999849
10
102.25000000000003
20
7.0000000000000142
10
88.250000000000028
20
7.0000000000000142
0
LWPOLYLINE
5
136
100
AcDbEntity
8
0
100
AcDbPolyline
90
4
70
1
43
0.0
10
47.768750000000004
20
-50.149999999999977
10
47.768750000000004
20
-64.149999999999977
10
64.149999999999991
20
-64.149999999999977
10
64.149999999999991
20
-50.149999999999977
0
LWPOLYLINE
5
137
100
AcDbEntity
8
0
100
AcDbPolyline
90
4
70
1
43
0.0
10
116.53750000000002
20
-31.099999999999987
10
102.53750000000002
20
-31.099999999999987
10
102.53749999999999
20
-45.099999999999987
10
116.53750000000001
20
-45.099999999999987
0
LWPOLYLINE
5
138
100
AcDbEntity
8
0
100
AcDbPolyline
90
4
70
1
43
0.0
10
197.5
20
6.9999999999999973
10
183.5
20
7
10
183.5
20
-7
10
197.5
20
-7.0000000000000036
0
LWPOLYLINE
5
139
100
AcDbEntity
8
0
100
AcDbPolyline
90
4
70
1
43
0.0
10
95.106249999999989
20
-50.149999999999991
10
81.106249999999989
20
-50.149999999999991
10
81.106249999999989
20
-64.149999999999977
10
95.106249999999989
20
-64.149999999999977
0
LWPOLYLINE
5
140
100
AcDbEntity
8
0
100
AcDbPolyline
90
4
70
1
43
0.0
10
31.100000000000001
20
7.0000000000000249
10
31.100000000000001
20
-6.9999999999999742
10
45.100000000000009
20
-6.999999999999976
10
45.100000000000009
20
7.0000000000000231
0
LWPOLYLINE
5
141
100
AcDbEntity
8
0
100
AcDbPolyline
90
4
70
1
43
0.0
10
-7.0000000000000062
20
-50.14999999999997
10
-7.0000000000000089
20
-64.149999999999963
10
9.3812499999999925
20
-64.149999999999963
10
9.3812499999999961
20
-50.14999999999997
0
LWPOLYLINE
5
142
100
AcDbEntity
8
0
100
AcDbPolyline
90
4
70
1
43
0.0
10
26.050000000000004
20
-6.9999999999999734
10
26.050000000000008
20
7.0000000000000266
10
12.050000000000004
20
7.0000000000000284
10
12.050000000000001
20
-6.9999999999999734
0
LWPOLYLINE
5
143
100
AcDbEntity
8
0
100
AcDbPolyline
90
4
70
1
43
0.0
10
188.26250000000002
20
-12.050000000000001
10
188.26250000000002
20
-26.050000000000004
10
202.26249999999999
20
-26.050000000000008
10
202.26249999999999
20
-12.050000000000004
0
LWPOLYLINE
5
144
100
AcDbEntity
8
0
100
AcDbPolyline
90
4
70
1
43
0.0
10
49.862500000000011
20
-12.049999999999979
10
35.862500000000004
20
-12.049999999999979
10
35.862499999999997
20
-26.049999999999983
10
49.862499999999997
20
-26.049999999999983
0
LWPOLYLINE
5
145
100
AcDbEntity
8
0
100
AcDbPolyline
90
4
70
1
43
0.0
10
14.143749999999994
20
-45.099999999999973
10
14.143749999999994
20
-31.099999999999966
10
0.14374999999999788
20
-31.099999999999966
10
0.14374999999999361
20
-45.099999999999973
0
LWPOLYLINE
5
146
100
AcDbEntity
8
0
100
AcDbPolyline
90
4
70
1
43
0.0
10
173.68750000000003
20
-31.099999999999994
10
159.68750000000003
20
-31.099999999999994
10
159.68750000000003
20
-45.099999999999994
10
173.68750000000003
20
-45.099999999999994
0
LWPOLYLINE
5
147
100
AcDbEntity
8
0
100
AcDbPolyline
90
4
70
1
43
0.0
10
78.437500000000014
20
-31.099999999999987
10
64.4375
20
-31.099999999999977
10
64.4375
20
-45.09999999999998
10
78.437499999999986
20
-45.099999999999987
0
CIRCLE
5
148
100
AcDbEntity
8
0
100
AcDbCircle
10
21.875001599999976
20
-9.525500000000017
30
0
40
2.5
210
9.2444637330588197e-33
220
-2.6941468277729581e-48
230
1
0
CIRCLE
5
149
100
AcDbEntity
8
0
100
AcDbCircle
10
67.22500159999997
20
-55.825401000000042
30
0
40
2.5
210
9.2444637330588197e-33
220
-2.6941468277729581e-48
230
1
0
CIRCLE
5
150
100
AcDbEntity
8
0
100
AcDbCircle
10
98.075001599999965
20
-9.5255000000000773
30
0
40
2.5
210
9.2444637330588197e-33
220
-2.6941468277729581e-48
230
1
0
CIRCLE
5
151
100
AcDbEntity
8
0
100
AcDbCircle
10
172.81229500000001
20
-56.025401000000102
30
0
40
2.5
210
9.2444637330588197e-33
220
-2.6941468277729581e-48
230
1
0
CIRCLE
5
152
100
AcDbEntity
8
0
100
AcDbCircle
10
20.32500159999995
20
-44.275401000000024
30
0
40
2.5
210
9.2444637330588197e-33
220
-2.6941468277729581e-48
230
1
0
CIRCLE
5
153
100
AcDbEntity
8
0
100
AcDbCircle
10
201.11229500000002
20
-7.2255000000001077
30
0
40
2.5
210
9.2444637330588197e-33
220
-2.6941468277729581e-48
230
1
0
LWPOLYLINE
5
154
100
AcDbEntity
8
0
100
AcDbPolyline
90
8
70
1
43
0.0
10
230.61229499999999
20
9.5244999999998523
42
-0.41421356237309437
10
233.61229500000002
20
6.5244999999998488
10
233.61229499999996
20
-63.675401000000129
42
-0.41421356237309681
10
230.61229499999993
20
-66.675401000000122
10
-6.7749984000000243
20
-66.675401000000022
42
-0.4142135623730947
10
-9.7749984000000367
20
-63.675401000000029
10
-9.7749984000000172
20
6.5244999999999926
42
-0.41421356237309659
10
-6.7749983999999941
20
9.5245000000000033
0
ENDSEC
0
SECTION
2
OBJECTS
0
DICTIONARY
5
C
100
AcDbDictionary
3
ACAD_GROUP
350
D
3
ACAD_MLINESTYLE
350
17
0
DICTIONARY
5
D
100
AcDbDictionary
0
DICTIONARY
5
1A
330
C
100
AcDbDictionary
0
DICTIONARY
5
17
100
AcDbDictionary
0
ENDSEC
0
EOF
