0
SECTION
2
HEADER
9
$INSUNITS
70
4
9
$ACADVER
1
AC1014
9
$HANDSEED
5
FFFF
0
ENDSEC
0
SECTION
2
TABLES
0
TABLE
2
VPORT
5
8
100
AcDbSymbolTable
0
ENDTAB
0
TABLE
2
LTYPE
5
5
100
AcDbSymbolTable
0
LTYPE
5
14
100
AcDbSymbolTableRecord
100
AcDbLinetypeTableRecord
2
BYBLOCK
70
0
0
LTYPE
5
15
100
AcDbSymbolTableRecord
100
AcDbLinetypeTableRecord
2
BYLAYER
70
0
0
ENDTAB
0
TABLE
2
LAYER
5
2
100
AcDbSymbolTable
70
2
0
LAYER
5
50
100
AcDbSymbolTableRecord
100
AcDbLayerTableRecord
2
0
70
0
6
CONTINUOUS
0
ENDTAB
0
TABLE
2
STYLE
5
3
100
AcDbSymbolTable
70
1
0
STYLE
5
11
100
AcDbSymbolTableRecord
100
AcDbTextStyleTableRecord
2
STANDARD
70
0
0
ENDTAB
0
TABLE
2
VIEW
5
6
100
AcDbSymbolTable
70
0
0
ENDTAB
0
TABLE
2
UCS
5
7
100
AcDbSymbolTable
70
0
0
ENDTAB
0
TABLE
2
APPID
5
9
100
AcDbSymbolTable
70
2
0
APPID
5
12
100
AcDbSymbolTableRecord
100
AcDbRegAppTableRecord
2
ACAD
70
0
0
ENDTAB
0
TABLE
2
DIMSTYLE
5
A
100
AcDbSymbolTable
70
1
0
ENDTAB
0
TABLE
2
BLOCK_RECORD
5
1
100
AcDbSymbolTable
70
1
0
BLOCK_RECORD
5
1F
100
AcDbSymbolTableRecord
100
AcDbBlockTableRecord
2
*MODEL_SPACE
0
BLOCK_RECORD
5
1B
100
AcDbSymbolTableRecord
100
AcDbBlockTableRecord
2
*PAPER_SPACE
0
ENDTAB
0
ENDSEC
0
SECTION
2
BLOCKS
0
BLOCK
5
20
100
AcDbEntity
100
AcDbBlockBegin
2
*MODEL_SPACE
0
ENDBLK
5
21
100
AcDbEntity
100
AcDbBlockEnd
0
BLOCK
5
1C
100
AcDbEntity
100
AcDbBlockBegin
2
*PAPER_SPACE
0
ENDBLK
5
1D
100
AcDbEntity
100
AcDbBlockEnd
0
ENDSEC
0
SECTION
2
ENTITIES
0
LWPOLYLINE
5
100
100
AcDbEntity
8
0
100
AcDbPolyline
90
4
70
1
43
0.0
10
183.5
20
-7.0000000000000187
10
197.5
20
-7.0000000000000204
10
197.5
20
6.9999999999999787
10
183.5
20
6.9999999999999787
0
LWPOLYLINE
5
101
100
AcDbEntity
8
0
100
AcDbPolyline
90
4
70
1
43
0.0
10
30.812500000000004
20
-12.050000000000001
10
16.812499999999993
20
-12.050000000000001
10
16.812499999999993
20
-26.050000000000004
10
30.812499999999993
20
-26.050000000000004
0
LWPOLYLINE
5
102
100
AcDbEntity
8
0
100
AcDbPolyline
90
4
70
1
43
0.0
10
145.40000000000001
20
6.9999999999999849
10
145.40000000000001
20
-7.0000000000000142
10
159.40000000000001
20
-7.000000000000016
10
159.40000000000001
20
6.9999999999999849
0
LWPOLYLINE
5
103
100
AcDbEntity
8
0
100
AcDbPolyline
90
4
70
1
43
0.0
10
63.181249999999991
20
-49.149999999999999
10
63.181249999999991
20
-64.150000000000006
10
74.905749999999983
20
-64.150000000000006
10
74.905750000000012
20
-49.149999999999999
0
LWPOLYLINE
5
104
100
AcDbEntity
8
0
100
AcDbPolyline
90
4
70
1
43
0.0
10
26.050000000000001
20
-6.9999999999999973
10
26.050000000000004
20
7.0000000000000018
10
12.050000000000001
20
7.0000000000000036
10
12.049999999999997
20
-6.9999999999999929
0
LWPOLYLINE
5
105
100
AcDbEntity
8
0
100
AcDbPolyline
90
4
70
1
43
0.0
10
6.9999999999999964
20
-6.9999999999999938
10
6.9999999999999982
20
7.0000000000000053
10
-7.0000000000000009
20
7.0000000000000071
10
-7.0000000000000009
20
-6.999999999999992
0
LWPOLYLINE
5
106
100
AcDbEntity
8
0
100
AcDbPolyline
90
4
70
1
43
0.0
10
173.68750000000003
20
-31.100000000000023
10
159.6875
20
-31.100000000000023
10
159.6875
20
-45.100000000000023
10
173.68750000000003
20
-45.100000000000023
0
LWPOLYLINE
5
107
100
AcDbEntity
8
0
100
AcDbPolyline
90
4
70
1
43
0.0
10
78.437500000000014
20
-31.100000000000001
10
64.4375
20
-31.100000000000001
10
64.4375
20
-45.100000000000009
10
78.437500000000014
20
-45.100000000000009
0
LWPOLYLINE
5
108
100
AcDbEntity
8
0
100
AcDbPolyline
90
4
70
1
43
0.0
10
116.53750000000001
20
-31.100000000000012
10
102.53749999999999
20
-31.100000000000012
10
102.53749999999999
20
-45.100000000000016
10
116.53750000000001
20
-45.100000000000016
0
LWPOLYLINE
5
109
100
AcDbEntity
8
0
100
AcDbPolyline
90
4
70
1
43
0.0
10
211.78750000000002
20
-31.100000000000023
10
197.78750000000002
20
-31.100000000000023
10
197.78750000000002
20
-45.100000000000023
10
211.78750000000002
20
-45.100000000000023
0
LWPOLYLINE
5
110
100
AcDbEntity
8
0
100
AcDbPolyline
90
4
70
1
43
0.0
10
9.3812499999999961
20
-26.050000000000004
10
9.3812499999999979
20
-12.050000000000001
10
-4.6187500000000012
20
-12.049999999999997
10
-4.6187500000000057
20
-26.050000000000001
0
LWPOLYLINE
5
111
100
AcDbEntity
8
0
100
AcDbPolyline
90
4
70
1
43
0.0
10
45.387500000000003
20
-31.100000000000001
10
45.387500000000003
20
-45.100000000000009
10
59.387499999999989
20
-45.100000000000009
10
59.387499999999989
20
-31.100000000000001
0
LWPOLYLINE
5
112
100
AcDbEntity
8
0
100
AcDbPolyline
90
4
70
1
43
0.0
10
73.962500000000006
20
-26.050000000000011
10
87.962500000000006
20
-26.050000000000011
10
87.962500000000006
20
-12.05000000000001
10
73.962500000000006
20
-12.05000000000001
0
LWPOLYLINE
5
113
100
AcDbEntity
8
0
100
AcDbPolyline
90
4
70
1
43
0.0
10
112.0625
20
-26.050000000000018
10
126.06250000000001
20
-26.050000000000018
10
126.06250000000001
20
-12.050000000000015
10
112.0625
20
-12.050000000000015
0
LWPOLYLINE
5
114
100
AcDbEntity
8
0
100
AcDbPolyline
90
4
70
1
43
0.0
10
49.862500000000011
20
-12.050000000000004
10
35.862500000000004
20
-12.050000000000001
10
35.86249999999999
20
-26.050000000000004
10
49.862499999999997
20
-26.050000000000008
0
LWPOLYLINE
5
115
100
AcDbEntity
8
0
100
AcDbPolyline
90
4
70
1
43
0.0
10
230.83750000000003
20
-45.100000000000037
10
230.83750000000003
20
-31.10000000000003
10
216.83750000000003
20
-31.10000000000003
10
216.83750000000003
20
-45.100000000000037
0
LWPOLYLINE
5
116
100
AcDbEntity
8
0
100
AcDbPolyline
90
4
70
1
43
0.0
10
93.012499999999989
20
-12.05000000000001
10
93.012499999999989
20
-26.050000000000011
10
107.0125
20
-26.050000000000018
10
107.0125
20
-12.050000000000015
0
LWPOLYLINE
5
117
100
AcDbEntity
8
0
100
AcDbPolyline
90
4
70
1
43
0.0
10
209.69374999999999
20
-7.0000000000000231
10
223.69375000000002
20
-7.0000000000000249
10
223.69375000000002
20
6.9999999999999742
10
209.69374999999999
20
6.999999999999976
0
LWPOLYLINE
5
118
100
AcDbEntity
8
0
100
AcDbPolyline
90
4
70
1
43
0.0
10
91.781749999999974
20
-64.150000000000006
10
98.781749999999974
20
-64.150000000000006
10
98.781749999999988
20
-49.150000000000006
10
91.781749999999988
20
-49.150000000000006
0
LWPOLYLINE
5
119
100
AcDbEntity
8
0
100
AcDbPolyline
90
8
70
1
43
0.0
10
137.96874999999997
20
-64.150000000000006
10
137.96875
20
-50.150000000000013
10
122.53074999999998
20
-50.150000000000013
10
122.53074999999998
20
-49.150000000000006
10
115.53075
20
-49.150000000000006
10
115.53075
20
-50.150000000000013
10
109.68125000000001
20
-50.150000000000013
10
109.68124999999999
20
-64.150000000000006
0
LWPOLYLINE
5
120
100
AcDbEntity
8
0
100
AcDbPolyline
90
4
70
1
43
0.0
10
226.07500000000002
20
-12.050000000000027
10
212.07499999999999
20
-12.050000000000027
10
212.07499999999999
20
-26.050000000000033
10
226.07500000000002
20
-26.050000000000033
0
LWPOLYLINE
5
121
100
AcDbEntity
8
0
100
AcDbPolyline
90
4
70
1
43
0.0
10
52.243749999999991
20
-50.150000000000006
10
38.243749999999984
20
-50.150000000000006
10
38.243749999999984
20
-64.150000000000006
10
52.243749999999991
20
-64.150000000000006
0
LWPOLYLINE
5
122
100
AcDbEntity
8
0
100
AcDbPolyline
90
4
70
1
43
0.0
10
102.25000000000001
20
-7.0000000000000071
10
102.25000000000001
20
6.999999999999992
10
88.250000000000014
20
6.9999999999999938
10
88.250000000000014
20
-7.0000000000000053
0
LWPOLYLINE
5
123
100
AcDbEntity
8
0
100
AcDbPolyline
90
8
70
1
43
0.0
10
157.30625000000001
20
-64.15000000000002
10
171.30625000000003
20
-64.15000000000002
10
171.30625000000003
20
-50.15000000000002
10
170.18125000000001
20
-50.15000000000002
10
170.18125000000001
20
-49.15000000000002
10
163.18125000000003
20
-49.15000000000002
10
163.18125000000003
20
-50.15000000000002
10
157.30625000000001
20
-50.15000000000002
0
LWPOLYLINE
5
124
100
AcDbEntity
8
0
100
AcDbPolyline
90
4
70
1
43
0.0
10
216.83750000000003
20
-50.150000000000034
10
216.83750000000003
20
-64.150000000000034
10
230.83750000000003
20
-64.150000000000034
10
230.83750000000003
20
-50.150000000000034
0
LWPOLYLINE
5
125
100
AcDbEntity
8
0
100
AcDbPolyline
90
4
70
1
43
0.0
10
90.34375
20
-50.150000000000013
10
76.343750000000014
20
-50.150000000000006
10
76.34375
20
-64.150000000000006
10
90.343749999999986
20
-64.150000000000006
0
LWPOLYLINE
5
126
100
AcDbEntity
8
0
100
AcDbPolyline
90
4
70
1
43
0.0
10
45.100000000000009
20
7
10
31.099999999999998
20
7.0000000000000018
10
31.099999999999998
20
-6.9999999999999973
10
45.100000000000009
20
-6.9999999999999973
0
LWPOLYLINE
5
127
100
AcDbEntity
8
0
100
AcDbPolyline
90
4
70
1
43
0.0
10
192.73750000000001
20
-50.15000000000002
10
178.73749999999998
20
-50.15000000000002
10
178.73749999999998
20
-64.15000000000002
10
192.73750000000001
20
-64.15000000000002
0
LWPOLYLINE
5
128
100
AcDbEntity
8
0
100
AcDbPolyline
90
4
70
1
43
0.0
10
146.40674999999999
20
-49.150000000000006
10
139.40674999999999
20
-49.150000000000006
10
139.40674999999996
20
-64.150000000000006
10
146.40674999999999
20
-64.150000000000006
0
LWPOLYLINE
5
129
100
AcDbEntity
8
0
100
AcDbPolyline
90
4
70
1
43
0.0
10
126.34999999999999
20
-7.0000000000000098
10
140.34999999999999
20
-7.0000000000000115
10
140.34999999999999
20
6.9999999999999876
10
126.34999999999999
20
6.9999999999999876
0
LWPOLYLINE
5
130
100
AcDbEntity
8
0
100
AcDbPolyline
90
4
70
1
43
0.0
10
-4.6187500000000075
20
-50.149999999999999
10
-4.6187500000000092
20
-64.149999999999991
10
9.3812499999999908
20
-64.149999999999991
10
9.3812499999999925
20
-50.149999999999999
0
LWPOLYLINE
5
131
100
AcDbEntity
8
0
100
AcDbPolyline
90
4
70
1
43
0.0
10
192.73750000000001
20
-45.100000000000023
10
192.73750000000001
20
-31.100000000000023
10
178.73749999999998
20
-31.100000000000023
10
178.73749999999998
20
-45.100000000000023
0
LWPOLYLINE
5
132
100
AcDbEntity
8
0
100
AcDbPolyline
90
4
70
1
43
0.0
10
97.487500000000011
20
-31.100000000000012
10
83.487500000000011
20
-31.100000000000001
10
83.487500000000011
20
-45.100000000000009
10
97.487500000000011
20
-45.100000000000016
0
LWPOLYLINE
5
133
100
AcDbEntity
8
0
100
AcDbPolyline
90
4
70
1
43
0.0
10
188.26250000000002
20
-12.050000000000022
10
188.26250000000002
20
-26.050000000000026
10
202.26249999999999
20
-26.050000000000033
10
202.26249999999999
20
-12.050000000000027
0
LWPOLYLINE
5
134
100
AcDbEntity
8
0
100
AcDbPolyline
90
4
70
1
43
0.0
10
0.14374999999999361
20
-31.099999999999994
10
0.14374999999999138
20
-45.099999999999994
10
14.143749999999988
20
-45.099999999999994
10
14.143749999999994
20
-31.099999999999994
0
LWPOLYLINE
5
135
100
AcDbEntity
8
0
100
AcDbPolyline
90
4
70
1
43
0.0
10
140.63749999999999
20
-31.100000000000012
10
140.63749999999999
20
-45.100000000000016
10
154.63750000000002
20
-45.100000000000023
10
154.63750000000002
20
-31.100000000000023
0
LWPOLYLINE
5
136
100
AcDbEntity
8
0
100
AcDbPolyline
90
4
70
1
43
0.0
10
121.58750000000001
20
-31.100000000000012
10
121.58750000000001
20
-45.100000000000016
10
135.58750000000001
20
-45.100000000000016
10
135.58750000000001
20
-31.100000000000012
0
LWPOLYLINE
5
137
100
AcDbEntity
8
0
100
AcDbPolyline
90
4
70
1
43
0.0
10
183.21250000000003
20
-26.050000000000026
10
183.21250000000003
20
-12.050000000000022
10
169.21250000000001
20
-12.050000000000022
10
169.21250000000001
20
-26.050000000000026
0
LWPOLYLINE
5
138
100
AcDbEntity
8
0
100
AcDbPolyline
90
4
70
1
43
0.0
10
131.11249999999998
20
-26.050000000000018
10
145.11249999999998
20
-26.050000000000022
10
145.11249999999998
20
-12.050000000000018
10
131.11249999999998
20
-12.050000000000015
0
LWPOLYLINE
5
139
100
AcDbEntity
8
0
100
AcDbPolyline
90
4
70
1
43
0.0
10
54.912500000000009
20
-12.050000000000004
10
54.912500000000001
20
-26.050000000000008
10
68.912499999999994
20
-26.050000000000008
10
68.912500000000009
20
-12.050000000000004
0
LWPOLYLINE
5
140
100
AcDbEntity
8
0
100
AcDbPolyline
90
4
70
1
43
0.0
10
26.337499999999991
20
-31.100000000000001
10
26.337499999999988
20
-45.100000000000009
10
40.337499999999991
20
-45.100000000000009
10
40.337499999999991
20
-31.100000000000001
0
LWPOLYLINE
5
141
100
AcDbEntity
8
0
100
AcDbPolyline
90
4
70
1
43
0.0
10
121.29999999999998
20
6.9999999999999885
10
107.30000000000001
20
6.9999999999999911
10
107.30000000000001
20
-7.0000000000000089
10
121.29999999999998
20
-7.0000000000000089
0
LWPOLYLINE
5
142
100
AcDbEntity
8
0
100
AcDbPolyline
90
4
70
1
43
0.0
10
69.200000000000003
20
6.9999999999999964
10
69.200000000000003
20
-7.0000000000000027
10
83.199999999999989
20
-7.0000000000000053
10
83.199999999999989
20
6.9999999999999964
0
LWPOLYLINE
5
143
100
AcDbEntity
8
0
100
AcDbPolyline
90
4
70
1
43
0.0
10
50.150000000000006
20
6.9999999999999982
10
50.150000000000006
20
-7.0000000000000009
10
64.150000000000006
20
-7.0000000000000027
10
64.150000000000006
20
6.9999999999999982
0
LWPOLYLINE
5
144
100
AcDbEntity
8
0
100
AcDbPolyline
90
4
70
1
43
0.0
10
164.16250000000002
20
-26.050000000000022
10
164.16250000000002
20
-12.050000000000018
10
150.16249999999999
20
-12.050000000000018
10
150.16249999999999
20
-26.050000000000022
0
LWPOLYLINE
5
145
100
AcDbEntity
8
0
100
AcDbPolyline
90
4
70
1
43
0.0
10
197.78750000000002
20
-50.15000000000002
10
197.78750000000002
20
-64.15000000000002
10
211.78750000000002
20
-64.15000000000002
10
211.78750000000002
20
-50.15000000000002
0
LWPOLYLINE
5
146
100
AcDbEntity
8
0
100
AcDbPolyline
90
4
70
1
43
0.0
10
178.44999999999999
20
6.9999999999999822
10
164.44999999999999
20
6.9999999999999831
10
164.44999999999999
20
-7.000000000000016
10
178.44999999999999
20
-7.0000000000000178
0
LWPOLYLINE
5
147
100
AcDbEntity
8
0
100
AcDbPolyline
90
4
70
1
43
0.0
10
16.812499999999989
20
-64.149999999999991
10
30.812499999999993
20
-64.150000000000006
10
30.812499999999993
20
-50.150000000000006
10
16.812499999999989
20
-50.149999999999999
0
LINE
5
148
100
AcDbEntity
8
0
100
AcDbLine
10
234.86250000000001
20
4.1750000000000345
30
0
11
235.68750000000006
21
4.1750000000000345
31
7.8338433902521034e-66
0
ARC
5
149
100
AcDbEntity
8
0
100
AcDbCircle
10
235.68750000000006
20
6.8500000000000325
30
0
40
2.6749999999999985
210
-0
220
2.9285395851409751e-66
230
1
100
AcDbArc
50
270
51
307.87921967452127
0
ARC
5
150
100
AcDbEntity
8
0
100
AcDbCircle
10
237.02294776119405
20
5.1332576555808558
30
0
40
0.50000000000000511
210
-4.8644788787705988e-33
220
-3.7840608109587668e-33
230
1
100
AcDbArc
50
-52.120780325477192
51
78.811944248676284
0
ARC
5
151
100
AcDbEntity
8
0
100
AcDbCircle
10
237.36249999999998
20
6.8500000000000281
30
0
40
1.2500000000000338
210
0
220
0
230
1
100
AcDbArc
50
101.18805575132129
51
258.81194424867965
0
ARC
5
152
100
AcDbEntity
8
0
100
AcDbCircle
10
237.02294776119405
20
8.5667423444192181
30
0
40
0.49999999999997036
210
-0
220
0
230
1
100
AcDbArc
50
-78.811944248679112
51
52.120780325475216
0
ARC
5
153
100
AcDbEntity
8
0
100
AcDbCircle
10
235.68750000000006
20
6.8500000000000325
30
0
40
2.6749999999999732
210
-4.8644788787707076e-33
220
3.7840608109587134e-33
230
1
100
AcDbArc
50
52.120780325478499
51
90
0
LINE
5
154
100
AcDbEntity
8
0
100
AcDbLine
10
235.68750000000006
20
9.5250000000000252
30
-2.3134843670025908e-32
11
-11.850000001181655
21
9.5250000000000199
31
3.4211388289180104e-47
0
ARC
5
155
100
AcDbEntity
8
0
100
AcDbCircle
10
-11.849999999605751
20
6.8500000000011116
30
0
40
2.6749999999989083
210
-7.3314685281057365e-48
220
-1.2789304037662713e-47
230
1
100
AcDbArc
50
90.000000033754262
51
127.87921976709684
0
ARC
5
156
100
AcDbEntity
8
0
100
AcDbCircle
10
-13.185447764541189
20
8.5667423435064194
30
0
40
0.49999999842300996
210
1.1114821078605679e-32
220
-2.4325740969992499e-32
230
1
100
AcDbArc
50
127.879219767097
51
258.81194436038845
0
ARC
5
157
100
AcDbEntity
8
0
100
AcDbCircle
10
-13.525
20
6.8499999984252122
30
0
40
1.2499999999999996
210
-0
220
0
230
1
100
AcDbArc
50
-78.811944252576325
51
78.811944360388011
0
ARC
5
158
100
AcDbEntity
8
0
100
AcDbCircle
10
-13.185447761310847
20
5.1332576539829313
30
0
40
0.49999999999999933
210
-1.5114630802098001e-33
220
-2.9895031962293106e-34
230
1
100
AcDbArc
50
101.18805574742346
51
232.12078034071521
0
ARC
5
159
100
AcDbEntity
8
0
100
AcDbCircle
10
-11.849999999605751
20
6.8500000000011116
30
0
40
2.6750000015758966
210
-4.9980667278339122e-33
220
3.6123312053711549e-33
230
1
100
AcDbArc
50
232.12078034071502
51
270
0
LINE
5
160
100
AcDbEntity
8
0
100
AcDbLine
10
-11.849999999605751
20
4.174999998425216
30
2.3134843682886634e-32
11
-11.024999999999991
21
4.1750000000000167
31
0
0
ARC
5
161
100
AcDbEntity
8
0
100
AcDbCircle
10
-11.024999999999995
20
2.6750000000000194
30
1.7105694144590052e-48
40
1.4999999999999969
210
1.5965314534950841e-48
220
-6.1629758220391547e-33
230
1
100
AcDbArc
50
0
51
89.999999999999872
0
LINE
5
162
100
AcDbEntity
8
0
100
AcDbLine
10
-9.5249999999999986
20
2.6750000000000207
30
6.1580498920524054e-48
11
-9.5250000000000057
21
-59.82500000000001
31
0
0
ARC
5
163
100
AcDbEntity
8
0
100
AcDbCircle
10
-11.024999999999993
20
-59.82500000000001
30
0
40
1.4999999999999858
210
0
220
0
230
1
100
AcDbArc
50
-90
51
0
0
LINE
5
164
100
AcDbEntity
8
0
100
AcDbLine
10
-11.024999999999993
20
-61.324999999999996
30
0
11
-11.849999999999987
21
-61.324999999999996
31
-7.8338433902517661e-66
0
ARC
5
165
100
AcDbEntity
8
0
100
AcDbCircle
10
-11.850000000000012
20
-63.999999999999986
30
0
40
2.6749999999999918
210
2.6739927353604123e-80
220
2.928539585140856e-66
230
1
100
AcDbArc
50
89.99999999999946
51
127.8792196745212
0
ARC
5
166
100
AcDbEntity
8
0
100
AcDbCircle
10
-13.185447761194025
20
-62.283257655580798
30
0
40
0.4999999999999955
210
-8.9110831491231575e-48
220
-6.9318998741981545e-48
230
1
100
AcDbArc
50
127.87921967452114
51
258.81194424867795
0
ARC
5
167
100
AcDbEntity
8
0
100
AcDbCircle
10
-13.525
20
-63.999999999999986
30
0
40
1.2499999999999951
210
0
220
0
230
1
100
AcDbArc
50
-78.811944248677989
51
78.811944248677406
0
ARC
5
168
100
AcDbEntity
8
0
100
AcDbCircle
10
-13.185447761194036
20
-65.71674234441916
30
0
40
0.500000000000004
210
0
220
0
230
1
100
AcDbArc
50
101.18805575132265
51
232.12078032547916
0
ARC
5
169
100
AcDbEntity
8
0
100
AcDbCircle
10
-11.850000000000012
20
-63.999999999999986
30
0
40
2.6749999999999834
210
-1.6201969362041931e-48
220
1.2603454316724139e-48
230
1
100
AcDbArc
50
232.12078032547848
51
269.99999999999994
0
LINE
5
170
100
AcDbEntity
8
0
100
AcDbLine
10
-11.850000000000014
20
-66.674999999999969
30
1.3012481000711509e-32
11
235.68750000000006
21
-66.674999999999969
31
2.350509100866008e-63
0
ARC
5
171
100
AcDbEntity
8
0
100
AcDbCircle
10
235.68750000000006
20
-63.999999999999972
30
0
40
2.6750000000000007
210
-0
220
8.7869499097794672e-64
230
1
100
AcDbArc
50
270
51
307.87921967452115
0
ARC
5
172
100
AcDbEntity
8
0
100
AcDbCircle
10
237.02294776119405
20
-65.716742344419146
30
0
40
0.50000000000001477
210
5.2656400426636002e-47
220
4.0961226529353821e-47
230
1
100
AcDbArc
50
-52.120780325478066
51
78.811944248676042
0
ARC
5
173
100
AcDbEntity
8
0
100
AcDbCircle
10
237.36249999999998
20
-63.999999999999943
30
0
40
1.2499999999999964
210
0
220
0
230
1
100
AcDbArc
50
101.18805575132026
51
258.81194424868005
0
ARC
5
174
100
AcDbEntity
8
0
100
AcDbCircle
10
237.02294776119405
20
-62.283257655580783
30
0
40
0.4999999999999783
210
-0
220
0
230
1
100
AcDbArc
50
-78.8119442486759
51
52.120780325477085
0
ARC
5
175
100
AcDbEntity
8
0
100
AcDbCircle
10
235.68750000000006
20
-63.999999999999972
30
0
40
2.6749999999999918
210
-9.9912144399258662e-48
220
7.7721301619798716e-48
230
1
100
AcDbArc
50
52.120780325478876
51
90
0
LINE
5
176
100
AcDbEntity
8
0
100
AcDbLine
10
235.68750000000006
20
-61.324999999999974
30
-1.3012481000711607e-32
11
234.86250000000007
21
-61.325000000000003
31
0
0
ARC
5
177
100
AcDbEntity
8
0
100
AcDbCircle
10
234.8625000000001
20
-59.824999999999939
30
-4.6185374190393141e-47
40
1.5000000000000924
210
6.8422776578347685e-47
220
-6.1629758220391144e-33
230
1
100
AcDbArc
50
180
51
269.99999999999886
0
LINE
5
178
100
AcDbEntity
8
0
100
AcDbLine
10
233.36250000000001
20
-59.824999999999989
30
-2.7198053689899214e-46
11
233.36250000000004
21
2.6750000000000274
31
0
0
ARC
5
179
100
AcDbEntity
8
0
100
AcDbCircle
10
234.86250000000007
20
2.6749999999999954
30
0
40
1.5000000000000391
210
0
220
0
230
1
100
AcDbArc
50
90.000000000002174
51
180
0
ENDSEC
0
SECTION
2
OBJECTS
0
DICTIONARY
5
C
100
AcDbDictionary
3
ACAD_GROUP
350
D
3
ACAD_MLINESTYLE
350
17
0
DICTIONARY
5
D
100
AcDbDictionary
0
DICTIONARY
5
1A
330
C
100
AcDbDictionary
0
DICTIONARY
5
17
100
AcDbDictionary
0
ENDSEC
0
EOF
