0
SECTION
2
HEADER
9
$INSUNITS
70
4
9
$ACADVER
1
AC1014
9
$HANDSEED
5
FFFF
0
ENDSEC
0
SECTION
2
TABLES
0
TABLE
2
VPORT
5
8
100
AcDbSymbolTable
0
ENDTAB
0
TABLE
2
LTYPE
5
5
100
AcDbSymbolTable
0
LTYPE
5
14
100
AcDbSymbolTableRecord
100
AcDbLinetypeTableRecord
2
BYBLOCK
70
0
0
LTYPE
5
15
100
AcDbSymbolTableRecord
100
AcDbLinetypeTableRecord
2
BYLAYER
70
0
0
ENDTAB
0
TABLE
2
LAYER
5
2
100
AcDbSymbolTable
70
2
0
LAYER
5
50
100
AcDbSymbolTableRecord
100
AcDbLayerTableRecord
2
0
70
0
6
CONTINUOUS
0
ENDTAB
0
TABLE
2
STYLE
5
3
100
AcDbSymbolTable
70
1
0
STYLE
5
11
100
AcDbSymbolTableRecord
100
AcDbTextStyleTableRecord
2
STANDARD
70
0
0
ENDTAB
0
TABLE
2
VIEW
5
6
100
AcDbSymbolTable
70
0
0
ENDTAB
0
TABLE
2
UCS
5
7
100
AcDbSymbolTable
70
0
0
ENDTAB
0
TABLE
2
APPID
5
9
100
AcDbSymbolTable
70
2
0
APPID
5
12
100
AcDbSymbolTableRecord
100
AcDbRegAppTableRecord
2
ACAD
70
0
0
ENDTAB
0
TABLE
2
DIMSTYLE
5
A
100
AcDbSymbolTable
70
1
0
ENDTAB
0
TABLE
2
BLOCK_RECORD
5
1
100
AcDbSymbolTable
70
1
0
BLOCK_RECORD
5
1F
100
AcDbSymbolTableRecord
100
AcDbBlockTableRecord
2
*MODEL_SPACE
0
BLOCK_RECORD
5
1B
100
AcDbSymbolTableRecord
100
AcDbBlockTableRecord
2
*PAPER_SPACE
0
ENDTAB
0
ENDSEC
0
SECTION
2
BLOCKS
0
BLOCK
5
20
100
AcDbEntity
100
AcDbBlockBegin
2
*MODEL_SPACE
0
ENDBLK
5
21
100
AcDbEntity
100
AcDbBlockEnd
0
BLOCK
5
1C
100
AcDbEntity
100
AcDbBlockBegin
2
*PAPER_SPACE
0
ENDBLK
5
1D
100
AcDbEntity
100
AcDbBlockEnd
0
ENDSEC
0
SECTION
2
ENTITIES
0
LWPOLYLINE
5
100
100
AcDbEntity
8
0
100
AcDbPolyline
90
8
70
1
43
0.0
10
230.61229499999999
20
9.5244999999998523
42
-0.41421356237309437
10
233.61229500000002
20
6.5244999999998488
10
233.61229499999996
20
-63.675401000000129
42
-0.41421356237309681
10
230.61229499999993
20
-66.675401000000122
10
-6.7749984000000243
20
-66.675401000000022
42
-0.4142135623730947
10
-9.7749984000000367
20
-63.675401000000029
10
-9.7749984000000172
20
6.5244999999999926
42
-0.41421356237309659
10
-6.7749983999999941
20
9.5245000000000033
0
CIRCLE
5
101
100
AcDbEntity
8
0
100
AcDbCircle
10
201.11229500000002
20
-7.2255000000001077
30
0
40
2.5
210
9.2444637330588197e-33
220
-2.6941468277729581e-48
230
1
0
CIRCLE
5
102
100
AcDbEntity
8
0
100
AcDbCircle
10
20.32500159999995
20
-44.275401000000024
30
0
40
2.5
210
9.2444637330588197e-33
220
-2.6941468277729581e-48
230
1
0
CIRCLE
5
103
100
AcDbEntity
8
0
100
AcDbCircle
10
98.075001599999965
20
-9.5255000000000773
30
0
40
2.5
210
9.2444637330588197e-33
220
-2.6941468277729581e-48
230
1
0
LWPOLYLINE
5
104
100
AcDbEntity
8
0
100
AcDbPolyline
90
14
70
1
43
0.0
10
67.905750000000026
20
-49.149999999999984
10
67.905750000000026
20
-53.419869537745313
42
0.27761807752969136
10
65.418750000000017
20
-54.096975370272922
10
65.418750000000017
20
-49.149999999999984
10
58.412500000000016
20
-49.149999999999984
10
58.412500000000016
20
-64.149999999999977
10
65.418750000000017
20
-64.149999999999977
10
65.418750000000017
20
-57.553826629727176
42
0.27761807752968304
10
67.905750000000026
20
-58.230932462254771
10
67.905750000000026
20
-64.149999999999977
10
90.34375
20
-64.149999999999977
10
90.34375
20
-50.149999999999991
10
74.905750000000012
20
-50.149999999999991
10
74.905750000000012
20
-49.149999999999984
0
CIRCLE
5
105
100
AcDbEntity
8
0
100
AcDbCircle
10
21.875001599999976
20
-9.525500000000017
30
0
40
2.5
210
9.2444637330588197e-33
220
-2.6941468277729581e-48
230
1
0
LWPOLYLINE
5
106
100
AcDbEntity
8
0
100
AcDbPolyline
90
4
70
1
43
0.0
10
107.30000000000001
20
-6.9999999999999831
10
121.29999999999998
20
-6.9999999999999805
10
121.29999999999998
20
7.0000000000000187
10
107.30000000000001
20
7.0000000000000142
0
LWPOLYLINE
5
107
100
AcDbEntity
8
0
100
AcDbPolyline
90
4
70
1
43
0.0
10
131.11249999999998
20
-26.049999999999986
10
145.11250000000001
20
-26.049999999999986
10
145.11250000000001
20
-12.049999999999983
10
131.11249999999998
20
-12.049999999999983
0
LWPOLYLINE
5
108
100
AcDbEntity
8
0
100
AcDbPolyline
90
4
70
1
43
0.0
10
93.012499999999989
20
-12.049999999999986
10
93.012499999999989
20
-26.04999999999999
10
107.01250000000002
20
-26.049999999999986
10
107.01250000000002
20
-12.049999999999983
0
LWPOLYLINE
5
109
100
AcDbEntity
8
0
100
AcDbPolyline
90
4
70
1
43
0.0
10
73.962500000000006
20
-12.049999999999986
10
73.962500000000006
20
-26.04999999999999
10
87.962500000000006
20
-26.04999999999999
10
87.962500000000006
20
-12.049999999999986
0
LWPOLYLINE
5
110
100
AcDbEntity
8
0
100
AcDbPolyline
90
4
70
1
43
0.0
10
97.487500000000011
20
-31.099999999999987
10
83.487500000000026
20
-31.099999999999987
10
83.487500000000026
20
-45.099999999999987
10
97.487500000000011
20
-45.099999999999987
0
LWPOLYLINE
5
111
100
AcDbEntity
8
0
100
AcDbPolyline
90
4
70
1
43
0.0
10
-4.6187499999999932
20
-26.050000000000001
10
9.3812500000000085
20
-26.050000000000001
10
9.381250000000005
20
-12.049999999999997
10
-4.6187499999999932
20
-12.049999999999997
0
LWPOLYLINE
5
112
100
AcDbEntity
8
0
100
AcDbPolyline
90
4
70
1
43
0.0
10
197.5
20
7.0000000000000249
10
183.5
20
7.000000000000024
10
183.5
20
-6.9999999999999751
10
197.5
20
-6.9999999999999742
0
LWPOLYLINE
5
113
100
AcDbEntity
8
0
100
AcDbPolyline
90
4
70
1
43
0.0
10
-6.9999999999999911
20
-64.149999999999991
10
9.3812500000000103
20
-64.149999999999991
10
9.3812500000000103
20
-50.149999999999999
10
-6.9999999999999911
20
-50.149999999999999
0
LWPOLYLINE
5
114
100
AcDbEntity
8
0
100
AcDbPolyline
90
4
70
1
43
0.0
10
207.02500000000001
20
-50.149999999999977
10
193.02500000000003
20
-50.149999999999977
10
193.02500000000003
20
-64.149999999999977
10
207.02500000000001
20
-64.149999999999977
0
LWPOLYLINE
5
115
100
AcDbEntity
8
0
100
AcDbPolyline
90
4
70
1
43
0.0
10
165.41875000000002
20
-49.149999999999977
10
153.66250000000002
20
-49.149999999999977
10
153.66250000000002
20
-64.149999999999977
10
165.41875000000002
20
-64.149999999999977
0
LWPOLYLINE
5
116
100
AcDbEntity
8
0
100
AcDbPolyline
90
4
70
1
43
0.0
10
69.200000000000003
20
7.0000000000000115
10
69.200000000000003
20
-6.9999999999999876
10
83.200000000000003
20
-6.9999999999999849
10
83.200000000000003
20
7.0000000000000142
0
LWPOLYLINE
5
117
100
AcDbEntity
8
0
100
AcDbPolyline
90
4
70
1
43
0.0
10
-6.9999999999999973
20
7.0000000000000053
10
-6.9999999999999947
20
-6.9999999999999938
10
7.0000000000000036
20
-6.999999999999992
10
7.0000000000000018
20
7.0000000000000053
0
LWPOLYLINE
5
118
100
AcDbEntity
8
0
100
AcDbPolyline
90
4
70
1
43
0.0
10
140.34999999999999
20
7.0000000000000195
10
126.35000000000002
20
7.0000000000000178
10
126.35000000000002
20
-6.9999999999999822
10
140.34999999999999
20
-6.9999999999999769
0
LWPOLYLINE
5
119
100
AcDbEntity
8
0
100
AcDbPolyline
90
4
70
1
43
0.0
10
88.250000000000028
20
7.0000000000000142
10
88.250000000000028
20
-6.9999999999999849
10
102.25000000000001
20
-6.9999999999999831
10
102.25000000000001
20
7.000000000000016
0
LWPOLYLINE
5
120
100
AcDbEntity
8
0
100
AcDbPolyline
90
4
70
1
43
0.0
10
31.100000000000001
20
-6.9999999999999893
10
45.100000000000009
20
-6.9999999999999893
10
45.100000000000009
20
7.0000000000000098
10
31.100000000000001
20
7.0000000000000098
0
LWPOLYLINE
5
121
100
AcDbEntity
8
0
100
AcDbPolyline
90
4
70
1
43
0.0
10
12.050000000000004
20
-6.999999999999992
10
26.050000000000008
20
-6.9999999999999893
10
26.050000000000008
20
7.0000000000000098
10
12.050000000000004
20
7.0000000000000053
0
LWPOLYLINE
5
122
100
AcDbEntity
8
0
100
AcDbPolyline
90
4
70
1
43
0.0
10
145.11250000000001
20
-50.149999999999977
10
131.11249999999998
20
-50.149999999999977
10
131.11249999999998
20
-64.149999999999977
10
145.11250000000001
20
-64.149999999999977
0
LWPOLYLINE
5
123
100
AcDbEntity
8
0
100
AcDbPolyline
90
4
70
1
43
0.0
10
78.437500000000014
20
-31.099999999999987
10
64.437500000000014
20
-31.099999999999987
10
64.437500000000028
20
-45.099999999999987
10
78.437500000000014
20
-45.099999999999987
0
LWPOLYLINE
5
124
100
AcDbEntity
8
0
100
AcDbPolyline
90
4
70
1
43
0.0
10
159.6875
20
-45.09999999999998
10
173.68750000000003
20
-45.09999999999998
10
173.68750000000003
20
-31.099999999999977
10
159.6875
20
-31.099999999999977
0
LWPOLYLINE
5
125
100
AcDbEntity
8
0
100
AcDbPolyline
90
4
70
1
43
0.0
10
216.83750000000003
20
-45.09999999999998
10
230.83750000000003
20
-45.099999999999973
10
230.83750000000003
20
-31.099999999999966
10
216.83750000000003
20
-31.099999999999977
0
LWPOLYLINE
5
126
100
AcDbEntity
8
0
100
AcDbPolyline
90
4
70
1
43
0.0
10
16.812500000000007
20
-26.049999999999997
10
30.812500000000007
20
-26.049999999999997
10
30.812500000000007
20
-12.049999999999992
10
16.812500000000004
20
-12.049999999999992
0
LWPOLYLINE
5
127
100
AcDbEntity
8
0
100
AcDbPolyline
90
4
70
1
43
0.0
10
126.06250000000003
20
-12.049999999999983
10
112.0625
20
-12.049999999999983
10
112.0625
20
-26.049999999999986
10
126.06250000000003
20
-26.049999999999986
0
LWPOLYLINE
5
128
100
AcDbEntity
8
0
100
AcDbPolyline
90
4
70
1
43
0.0
10
0.14375000000000676
20
-31.099999999999994
10
0.14375000000000693
20
-45.099999999999994
10
14.143750000000006
20
-45.099999999999994
10
14.143750000000006
20
-31.099999999999994
0
LWPOLYLINE
5
129
100
AcDbEntity
8
0
100
AcDbPolyline
90
4
70
1
43
0.0
10
188.26250000000002
20
-26.049999999999983
10
202.26249999999999
20
-26.049999999999976
10
202.26249999999999
20
-12.049999999999974
10
188.26250000000002
20
-12.049999999999979
0
LWPOLYLINE
5
130
100
AcDbEntity
8
0
100
AcDbPolyline
90
4
70
1
43
0.0
10
26.337500000000006
20
-45.099999999999994
10
40.337500000000013
20
-45.099999999999987
10
40.337500000000006
20
-31.099999999999987
10
26.337500000000006
20
-31.099999999999994
0
LWPOLYLINE
5
131
100
AcDbEntity
8
0
100
AcDbPolyline
90
4
70
1
43
0.0
10
197.78750000000002
20
-31.099999999999977
10
197.78750000000002
20
-45.09999999999998
10
211.78750000000002
20
-45.09999999999998
10
211.78750000000002
20
-31.099999999999977
0
LWPOLYLINE
5
132
100
AcDbEntity
8
0
100
AcDbPolyline
90
4
70
1
43
0.0
10
178.73749999999998
20
-31.099999999999977
10
178.73749999999998
20
-45.09999999999998
10
192.73750000000001
20
-45.09999999999998
10
192.73750000000001
20
-31.099999999999977
0
LWPOLYLINE
5
133
100
AcDbEntity
8
0
100
AcDbPolyline
90
4
70
1
43
0.0
10
54.912500000000009
20
-26.049999999999997
10
68.912500000000009
20
-26.04999999999999
10
68.912500000000009
20
-12.049999999999986
10
54.912500000000009
20
-12.049999999999992
0
LWPOLYLINE
5
134
100
AcDbEntity
8
0
100
AcDbPolyline
90
4
70
1
43
0.0
10
116.53750000000002
20
-45.099999999999987
10
116.53750000000002
20
-31.099999999999987
10
102.53749999999999
20
-31.099999999999987
10
102.53749999999999
20
-45.099999999999987
0
LWPOLYLINE
5
135
100
AcDbEntity
8
0
100
AcDbPolyline
90
4
70
1
43
0.0
10
178.44999999999999
20
-6.9999999999999751
10
178.44999999999999
20
7.000000000000024
10
164.44999999999999
20
7.0000000000000213
10
164.44999999999999
20
-6.9999999999999751
0
LWPOLYLINE
5
136
100
AcDbEntity
8
0
100
AcDbPolyline
90
4
70
1
43
0.0
10
49.862500000000011
20
-26.049999999999997
10
49.862500000000011
20
-12.049999999999992
10
35.862500000000004
20
-12.049999999999992
10
35.862500000000004
20
-26.049999999999997
0
LWPOLYLINE
5
137
100
AcDbEntity
8
0
100
AcDbPolyline
90
6
70
1
43
0.0
10
122.56250000000001
20
-49.149999999999984
10
115.56250000000003
20
-49.149999999999984
10
115.56250000000003
20
-50.149999999999991
10
104.91875
20
-50.149999999999991
10
104.91875
20
-64.149999999999977
10
122.56250000000001
20
-64.149999999999977
0
LWPOLYLINE
5
138
100
AcDbEntity
8
0
100
AcDbPolyline
90
4
70
1
43
0.0
10
103.5125
20
-49.149999999999984
10
91.781749999999988
20
-49.149999999999984
10
91.781749999999988
20
-64.149999999999977
10
103.5125
20
-64.149999999999977
0
LWPOLYLINE
5
139
100
AcDbEntity
8
0
100
AcDbPolyline
90
4
70
1
43
0.0
10
214.45625000000001
20
-50.149999999999977
10
214.45625000000001
20
-64.149999999999977
10
228.45624999999998
20
-64.149999999999963
10
228.45624999999998
20
-50.14999999999997
0
LWPOLYLINE
5
140
100
AcDbEntity
8
0
100
AcDbPolyline
90
4
70
1
43
0.0
10
145.40000000000003
20
7.0000000000000204
10
145.40000000000003
20
-6.9999999999999787
10
159.40000000000001
20
-6.9999999999999787
10
159.40000000000001
20
7.0000000000000204
0
LWPOLYLINE
5
141
100
AcDbEntity
8
0
100
AcDbPolyline
90
4
70
1
43
0.0
10
64.150000000000006
20
7.0000000000000124
10
50.150000000000006
20
7.0000000000000107
10
50.150000000000006
20
-6.9999999999999885
10
64.150000000000006
20
-6.9999999999999885
0
LWPOLYLINE
5
142
100
AcDbEntity
8
0
100
AcDbPolyline
90
4
70
1
43
0.0
10
14.431250000000011
20
-50.149999999999999
10
14.431250000000016
20
-64.149999999999991
10
30.812500000000014
20
-64.149999999999991
10
30.812500000000014
20
-50.149999999999999
0
LWPOLYLINE
5
143
100
AcDbEntity
8
0
100
AcDbPolyline
90
4
70
1
43
0.0
10
45.387500000000017
20
-45.099999999999987
10
59.387500000000003
20
-45.099999999999987
10
59.387499999999996
20
-31.099999999999987
10
45.38750000000001
20
-31.099999999999987
0
LWPOLYLINE
5
144
100
AcDbEntity
8
0
100
AcDbPolyline
90
4
70
1
43
0.0
10
52.243750000000013
20
-64.149999999999977
10
52.243750000000013
20
-50.149999999999991
10
35.862500000000011
20
-50.149999999999999
10
35.862500000000011
20
-64.149999999999991
0
LWPOLYLINE
5
145
100
AcDbEntity
8
0
100
AcDbPolyline
90
4
70
1
43
0.0
10
223.69375000000002
20
7.0000000000000284
10
209.69374999999999
20
7.0000000000000266
10
209.69374999999999
20
-6.9999999999999734
10
223.69375000000002
20
-6.9999999999999734
0
LWPOLYLINE
5
146
100
AcDbEntity
8
0
100
AcDbPolyline
90
4
70
1
43
0.0
10
140.63749999999999
20
-45.09999999999998
10
154.63750000000002
20
-45.09999999999998
10
154.63750000000002
20
-31.099999999999977
10
140.63749999999999
20
-31.099999999999977
0
LWPOLYLINE
5
147
100
AcDbEntity
8
0
100
AcDbPolyline
90
4
70
1
43
0.0
10
164.16250000000002
20
-26.049999999999983
10
164.16250000000002
20
-12.049999999999979
10
150.16249999999999
20
-12.049999999999983
10
150.16249999999999
20
-26.049999999999986
0
LWPOLYLINE
5
148
100
AcDbEntity
8
0
100
AcDbPolyline
90
4
70
1
43
0.0
10
212.07499999999999
20
-26.049999999999976
10
226.07500000000002
20
-26.049999999999976
10
226.07500000000002
20
-12.049999999999974
10
212.07499999999999
20
-12.049999999999974
0
LWPOLYLINE
5
149
100
AcDbEntity
8
0
100
AcDbPolyline
90
4
70
1
43
0.0
10
183.21250000000003
20
-12.049999999999979
10
169.21250000000001
20
-12.049999999999979
10
169.21250000000001
20
-26.049999999999983
10
183.21250000000003
20
-26.049999999999983
0
LWPOLYLINE
5
150
100
AcDbEntity
8
0
100
AcDbPolyline
90
6
70
1
43
0.0
10
171.59375
20
-58.208322914081087
10
171.59375
20
-64.149999999999977
10
187.97499999999999
20
-64.149999999999977
10
187.97499999999999
20
-50.149999999999977
10
171.59375
20
-50.149999999999977
10
171.59375
20
-53.842479085919123
42
0.58703657319756586
0
LWPOLYLINE
5
151
100
AcDbEntity
8
0
100
AcDbPolyline
90
6
70
1
43
0.0
10
128.20613527459506
20
-31.099999999999977
10
121.58750000000001
20
-31.099999999999987
10
121.58750000000001
20
-45.099999999999987
10
135.58750000000003
20
-45.09999999999998
10
135.58750000000003
20
-31.099999999999977
10
128.91845472540498
20
-31.099999999999977
42
13.967048055037056
0
ENDSEC
0
SECTION
2
OBJECTS
0
DICTIONARY
5
C
100
AcDbDictionary
3
ACAD_GROUP
350
D
3
ACAD_MLINESTYLE
350
17
0
DICTIONARY
5
D
100
AcDbDictionary
0
DICTIONARY
5
1A
330
C
100
AcDbDictionary
0
DICTIONARY
5
17
100
AcDbDictionary
0
ENDSEC
0
EOF
