%TF.GenerationSoftware,KiCad,Pcbnew,(6.0.10)*%
%TF.CreationDate,2023-05-23T15:51:50-05:00*%
%TF.ProjectId,Monorail_Jet,4d6f6e6f-7261-4696-9c5f-4a65742e6b69,rev?*%
%TF.SameCoordinates,Original*%
%TF.FileFunction,Profile,NP*%
%FSLAX46Y46*%
G04 Gerber Fmt 4.6, Leading zero omitted, Abs format (unit mm)*
G04 Created by KiCad (PCBNEW (6.0.10)) date 2023-05-23 15:51:50*
%MOMM*%
%LPD*%
G01*
G04 APERTURE LIST*
%TA.AperFunction,Profile*%
%ADD10C,0.050000*%
%TD*%
G04 APERTURE END LIST*
D10*
X51990625Y-63103125D02*
X69850000Y-63103125D01*
X29368750Y-59134375D02*
X29368750Y-47625000D01*
X140096875Y-64690675D02*
G75*
G03*
X140096875Y-63103125I25J793775D01*
G01*
X123031250Y-63103175D02*
G75*
G03*
X123031250Y-64690625I50J-793725D01*
G01*
X123031250Y-63103125D02*
X140096875Y-63103125D01*
X29368750Y-136525000D02*
X29368750Y-66675000D01*
X150018750Y-63103150D02*
G75*
G03*
X153193750Y-59928125I-50J3175050D01*
G01*
X140096875Y-64690625D02*
X123031250Y-64690625D01*
X247650001Y-69056250D02*
G75*
G03*
X248840625Y-69056250I595312J-1D01*
G01*
X75406250Y-63103175D02*
G75*
G03*
X75406250Y-64690625I50J-793725D01*
G01*
X98821875Y-63103125D02*
X117475000Y-63103125D01*
X150018750Y-64690625D02*
X147637500Y-64690625D01*
X236140626Y-69056250D02*
G75*
G03*
X237331250Y-69056250I595312J-1D01*
G01*
X155178125Y-63500000D02*
X162718750Y-63500000D01*
X31750000Y-61515625D02*
X35718750Y-61515625D01*
X51990625Y-63103175D02*
G75*
G03*
X51990625Y-64690625I-25J-793725D01*
G01*
X98821875Y-63103175D02*
G75*
G03*
X98821875Y-64690625I25J-793725D01*
G01*
X147637500Y-63103125D02*
X150018750Y-63103125D01*
X32543750Y-44450000D02*
X52038250Y-44450000D01*
X29368775Y-59134375D02*
G75*
G03*
X31750000Y-61515625I2381225J-25D01*
G01*
X236140625Y-63500000D02*
X236140625Y-69056250D01*
X236140625Y-63500000D02*
X162718750Y-63500000D01*
X75406250Y-64690625D02*
X93265625Y-64690625D01*
X269081250Y-139700050D02*
G75*
G03*
X272256250Y-136525000I-50J3175050D01*
G01*
X247650000Y-63500000D02*
X247650000Y-69056250D01*
X153193750Y-47625000D02*
X153193750Y-59928125D01*
X38893761Y-62309354D02*
G75*
G03*
X35718750Y-61515625I-3174961J-5953146D01*
G01*
X32543750Y-63500000D02*
G75*
G03*
X29368750Y-66675000I0J-3175000D01*
G01*
X155178125Y-63500012D02*
G75*
G03*
X153193750Y-63896875I-25J-5159388D01*
G01*
X237331250Y-63500000D02*
X247650000Y-63500000D01*
X63722250Y-44450000D02*
X62662500Y-44450000D01*
X38893758Y-63896859D02*
G75*
G03*
X42068750Y-64690625I3175042J5953159D01*
G01*
X38893754Y-63896864D02*
G75*
G03*
X36909375Y-63500000I-1984354J-4762536D01*
G01*
X53062500Y-44450000D02*
X62662500Y-44450000D01*
X248840625Y-63500000D02*
X269081250Y-63500000D01*
X272256250Y-66675000D02*
X272256250Y-136525000D01*
X237331250Y-69056250D02*
X237331250Y-63500000D01*
X153193700Y-47625000D02*
G75*
G03*
X150018750Y-44450000I-3175000J0D01*
G01*
X93265625Y-64690675D02*
G75*
G03*
X93265625Y-63103125I-25J793775D01*
G01*
X69850000Y-64690625D02*
X51990625Y-64690625D01*
X150018750Y-64690643D02*
G75*
G03*
X153193750Y-63896875I-50J6746943D01*
G01*
X69850000Y-64690675D02*
G75*
G03*
X69850000Y-63103125I0J793775D01*
G01*
X147637500Y-63103175D02*
G75*
G03*
X147637500Y-64690625I0J-793725D01*
G01*
X42068750Y-64690625D02*
X44450000Y-64690625D01*
X52038250Y-44450000D02*
X53062500Y-44450000D01*
X117475000Y-64690675D02*
G75*
G03*
X117475000Y-63103125I0J793775D01*
G01*
X32543750Y-63500000D02*
X36909375Y-63500000D01*
X44450000Y-64690675D02*
G75*
G03*
X44450000Y-63103125I0J793775D01*
G01*
X272256200Y-66675000D02*
G75*
G03*
X269081250Y-63500000I-3175000J0D01*
G01*
X117475000Y-64690625D02*
X98821875Y-64690625D01*
X29368750Y-136525000D02*
G75*
G03*
X32543750Y-139700000I3175000J0D01*
G01*
X269081250Y-139700000D02*
X32543750Y-139700000D01*
X38893758Y-62309359D02*
G75*
G03*
X42068750Y-63103125I3175042J5953159D01*
G01*
X93265625Y-63103125D02*
X75406250Y-63103125D01*
X44450000Y-63103125D02*
X42068750Y-63103125D01*
X248840625Y-69056250D02*
X248840625Y-63500000D01*
X32543750Y-44450000D02*
G75*
G03*
X29368750Y-47625000I0J-3175000D01*
G01*
X63722250Y-44450000D02*
X150018750Y-44450000D01*
M02*
