M48
; DRILL file {KiCad (6.0.10)} date Tue May 23 15:53:39 2023
; FORMAT={-:-/ absolute / inch / decimal}
; #@! TF.CreationDate,2023-05-23T15:53:39-05:00
; #@! TF.GenerationSoftware,Kicad,Pcbnew,(6.0.10)
; #@! TF.FileFunction,NonPlated,1,2,NPTH
FMAT,2
INCH
; #@! TA.AperFunction,NonPlated,NPTH,ComponentDrill
T1C0.0256
; #@! TA.AperFunction,NonPlated,NPTH,ComponentDrill
T2C0.0310
; #@! TA.AperFunction,NonPlated,NPTH,ComponentDrill
T3C0.0689
; #@! TA.AperFunction,NonPlated,NPTH,ComponentDrill
T4C0.1181
; #@! TA.AperFunction,NonPlated,NPTH,ComponentDrill
T5C0.1200
; #@! TA.AperFunction,NonPlated,NPTH,ComponentDrill
T6C0.1570
%
G90
G05
T1
X2.165Y-1.8992
X2.3925Y-1.8992
X9.4331Y-2.6492
X9.6607Y-2.6492
T2
X1.8375Y-2.5212
X1.8875Y-2.5212
X1.9875Y-2.5212
X2.0375Y-2.5212
X2.7594Y-2.5212
X2.8094Y-2.5212
X2.9094Y-2.5212
X2.9594Y-2.5212
X3.6812Y-2.5212
X3.7312Y-2.5212
X3.8312Y-2.5212
X3.8813Y-2.5212
X4.6344Y-2.5212
X4.6844Y-2.5212
X4.7844Y-2.5212
X4.8344Y-2.5212
X5.525Y-2.5212
X5.575Y-2.5212
X5.675Y-2.5212
X5.725Y-2.5212
X9.3171Y-2.7111
X9.4038Y-2.7611
X9.4469Y-2.7869
X9.5469Y-2.7869
X9.6469Y-2.7869
X9.6904Y-2.7614
X9.777Y-2.7114
T3
X1.3313Y-2.875
X1.425Y-3.625
X1.425Y-5.125
X1.6125Y-4.375
X1.7063Y-2.125
X1.7312Y-2.875
X1.825Y-3.625
X1.825Y-5.125
X2.0125Y-4.375
X2.0812Y-2.875
X2.1062Y-2.125
X2.2687Y-3.625
X2.2687Y-5.125
X2.4562Y-2.125
X2.4812Y-2.875
X2.6437Y-4.375
X2.6687Y-3.625
X2.6687Y-5.125
X2.8312Y-2.875
X2.8562Y-2.125
X3.0187Y-3.625
X3.0437Y-4.375
X3.1125Y-5.125
X3.2062Y-2.125
X3.2312Y-2.875
X3.3937Y-4.375
X3.4187Y-3.625
X3.5125Y-5.125
X3.5812Y-2.875
X3.6062Y-2.125
X3.7687Y-3.625
X3.7937Y-4.375
X3.9562Y-2.125
X3.9812Y-2.875
X4.1437Y-4.375
X4.1688Y-3.625
X4.3312Y-2.875
X4.3563Y-2.125
X4.5187Y-3.625
X4.5438Y-4.375
X4.6125Y-5.125
X4.7062Y-2.125
X4.7313Y-2.875
X4.8937Y-4.375
X4.9188Y-3.625
X5.0125Y-5.125
X5.0812Y-2.875
X5.1063Y-2.125
X5.2687Y-3.625
X5.2938Y-4.375
X5.4562Y-2.125
X5.4813Y-2.875
X5.6437Y-4.375
X5.6688Y-3.625
X5.8312Y-2.875
X5.8563Y-2.125
X5.925Y-5.125
X6.0187Y-3.625
X6.0438Y-4.375
X6.2313Y-2.875
X6.325Y-5.125
X6.3937Y-4.375
X6.4188Y-3.625
X6.4875Y-5.125
X6.5812Y-2.875
X6.7687Y-3.625
X6.7938Y-4.375
X6.8875Y-5.125
X6.9813Y-2.875
X7.1437Y-4.375
X7.1688Y-3.625
X7.3312Y-2.875
X7.5187Y-3.625
X7.5438Y-4.375
X7.7313Y-2.875
X7.8Y-5.125
X7.8937Y-4.375
X7.9188Y-3.625
X8.0812Y-2.875
X8.2Y-5.125
X8.2687Y-3.625
X8.2937Y-4.375
X8.4812Y-2.875
X8.6437Y-4.375
X8.6437Y-5.125
X8.6687Y-3.625
X8.8312Y-2.875
X9.0187Y-3.625
X9.0437Y-4.375
X9.0437Y-5.125
X9.2312Y-2.875
X9.3937Y-4.375
X9.3937Y-5.125
X9.4187Y-3.625
X9.7937Y-4.375
X9.7937Y-5.125
X9.8625Y-2.875
X9.9562Y-3.625
X10.1437Y-4.375
X10.1437Y-5.125
X10.2625Y-2.875
X10.3562Y-3.625
X10.5437Y-4.375
X10.5437Y-5.125
T4
X1.3812Y-2.775
X1.475Y-3.525
X1.475Y-5.025
X1.6312Y-2.675
X1.6625Y-4.275
X1.725Y-3.425
X1.725Y-4.925
X1.8062Y-2.325
X1.9125Y-4.175
X2.0562Y-2.225
X2.1313Y-2.775
X2.3188Y-3.525
X2.3188Y-5.025
X2.3813Y-2.675
X2.5562Y-2.325
X2.5688Y-3.425
X2.5688Y-4.925
X2.6938Y-4.275
X2.8062Y-2.225
X2.8813Y-2.775
X2.9438Y-4.175
X3.0688Y-3.525
X3.1313Y-2.675
X3.1625Y-5.025
X3.2563Y-2.025
X3.3188Y-3.425
X3.4125Y-4.925
X3.4438Y-4.275
X3.5063Y-1.925
X3.6313Y-2.775
X3.6938Y-4.175
X3.8188Y-3.525
X3.8813Y-2.675
X4.0062Y-2.025
X4.0687Y-3.425
X4.1937Y-4.275
X4.2562Y-1.925
X4.3812Y-2.775
X4.4437Y-4.175
X4.5687Y-3.525
X4.6312Y-2.675
X4.6625Y-5.025
X4.7562Y-2.025
X4.8187Y-3.425
X4.9125Y-4.925
X4.9437Y-4.275
X5.0062Y-1.925
X5.1312Y-2.775
X5.1937Y-4.175
X5.3187Y-3.525
X5.3812Y-2.675
X5.5062Y-2.025
X5.5687Y-3.425
X5.6937Y-4.275
X5.7562Y-1.925
X5.8812Y-2.775
X5.9437Y-4.175
X5.975Y-5.025
X6.0687Y-3.525
X6.1312Y-2.675
X6.225Y-4.925
X6.3187Y-3.425
X6.4437Y-4.275
X6.5375Y-5.025
X6.6312Y-2.775
X6.6937Y-4.175
X6.7875Y-4.925
X6.8187Y-3.525
X6.8812Y-2.675
X7.0687Y-3.425
X7.1937Y-4.275
X7.3812Y-2.775
X7.4437Y-4.175
X7.5687Y-3.525
X7.6312Y-2.675
X7.8187Y-3.425
X7.85Y-5.025
X7.9437Y-4.275
X8.1Y-4.925
X8.1312Y-2.775
X8.1937Y-4.175
X8.3187Y-3.525
X8.3812Y-2.675
X8.5687Y-3.425
X8.6937Y-4.275
X8.6937Y-5.025
X8.8812Y-2.775
X8.9437Y-4.175
X8.9437Y-4.925
X9.0687Y-3.525
X9.1312Y-2.675
X9.3187Y-3.425
X9.4437Y-4.275
X9.4437Y-5.025
X9.6937Y-4.175
X9.6937Y-4.925
X9.9125Y-2.775
X10.0062Y-3.525
X10.1625Y-2.675
X10.1937Y-4.275
X10.1937Y-5.025
X10.2562Y-3.425
X10.4437Y-4.175
X10.4437Y-4.925
T5
X4.1565Y-5.4
X4.3425Y-5.4
X5.2825Y-5.4
X6.2175Y-5.4
X7.1575Y-5.4
X8.0935Y-5.4
T6
X1.5312Y-2.875
X1.625Y-3.625
X1.625Y-5.125
X1.8125Y-4.375
X1.9062Y-2.125
X2.2812Y-2.875
X2.4688Y-3.625
X2.4688Y-5.125
X2.6562Y-2.125
X2.8438Y-4.375
X3.0312Y-2.875
X3.2188Y-3.625
X3.3125Y-5.125
X3.4062Y-2.125
X3.5938Y-4.375
X3.7812Y-2.875
X3.9688Y-3.625
X4.1562Y-2.125
X4.1565Y-4.8
X4.3425Y-4.8
X4.3438Y-4.375
X4.5312Y-2.875
X4.7188Y-3.625
X4.8125Y-5.125
X4.9062Y-2.125
X5.0938Y-4.375
X5.2812Y-2.875
X5.2825Y-4.8
X5.4688Y-3.625
X5.6562Y-2.125
X5.8438Y-4.375
X6.0312Y-2.875
X6.125Y-5.125
X6.2175Y-4.8
X6.2188Y-3.625
X6.5938Y-4.375
X6.6875Y-5.125
X6.7812Y-2.875
X6.9688Y-3.625
X7.1575Y-4.8
X7.3438Y-4.375
X7.5312Y-2.875
X7.7188Y-3.625
X8.0Y-5.125
X8.0935Y-4.8
X8.0938Y-4.375
X8.2812Y-2.875
X8.4688Y-3.625
X8.8438Y-4.375
X8.8438Y-5.125
X9.0312Y-2.875
X9.2188Y-3.625
X9.5938Y-4.375
X9.5938Y-5.125
X10.0625Y-2.875
X10.1562Y-3.625
X10.3438Y-4.375
X10.3438Y-5.125
T0
M30
