0
SECTION
2
HEADER
9
$INSUNITS
70
4
0
ENDSEC
0
SECTION
2
TABLES
0
TABLE
2
LTYPE
0
LTYPE
72
65
70
64
2
CONTINUOUS
3
______
73
0
40
0
0
ENDTAB
0
TABLE
2
LAYER
0
ENDTAB
0
ENDSEC
0
SECTION
2
ENTITIES
0
LINE
8
0
10
12.05
20
-16.525
11
26.05
21
-16.525
0
LINE
8
0
10
26.05
20
-2.525
11
12.05
21
-2.525
0
LINE
8
0
10
26.05
20
-16.525
11
26.05
21
-2.525
0
LINE
8
0
10
12.05
20
-2.525
11
12.05
21
-16.525
0
LINE
8
0
10
31.1
20
-16.525
11
45.1
21
-16.525
0
LINE
8
0
10
45.1
20
-2.525
11
31.1
21
-2.525
0
LINE
8
0
10
45.1
20
-16.525
11
45.1
21
-2.525
0
LINE
8
0
10
31.1
20
-2.525
11
31.1
21
-16.525
0
LINE
8
0
10
50.15
20
-16.525
11
64.15
21
-16.525
0
LINE
8
0
10
64.15
20
-2.525
11
50.15
21
-2.525
0
LINE
8
0
10
64.15
20
-16.525
11
64.15
21
-2.525
0
LINE
8
0
10
50.15
20
-2.525
11
50.15
21
-16.525
0
LINE
8
0
10
69.2
20
-16.525
11
83.2
21
-16.525
0
LINE
8
0
10
83.2
20
-2.525
11
69.2
21
-2.525
0
LINE
8
0
10
83.2
20
-16.525
11
83.2
21
-2.525
0
LINE
8
0
10
69.2
20
-2.525
11
69.2
21
-16.525
0
LINE
8
0
10
88.25
20
-16.525
11
102.25
21
-16.525
0
LINE
8
0
10
102.25
20
-2.525
11
88.25
21
-2.525
0
LINE
8
0
10
102.25
20
-16.525
11
102.25
21
-2.525
0
LINE
8
0
10
88.25
20
-2.525
11
88.25
21
-16.525
0
LINE
8
0
10
107.3
20
-16.525
11
121.3
21
-16.525
0
LINE
8
0
10
121.3
20
-2.525
11
107.3
21
-2.525
0
LINE
8
0
10
121.3
20
-16.525
11
121.3
21
-2.525
0
LINE
8
0
10
107.3
20
-2.525
11
107.3
21
-16.525
0
LINE
8
0
10
2.525
20
-35.575
11
16.525
21
-35.575
0
LINE
8
0
10
16.525
20
-21.575
11
2.525
21
-21.575
0
LINE
8
0
10
16.525
20
-35.575
11
16.525
21
-21.575
0
LINE
8
0
10
2.525
20
-21.575
11
2.525
21
-35.575
0
LINE
8
0
10
21.575
20
-35.575
11
35.575
21
-35.575
0
LINE
8
0
10
35.575
20
-21.575
11
21.575
21
-21.575
0
LINE
8
0
10
35.575
20
-35.575
11
35.575
21
-21.575
0
LINE
8
0
10
21.575
20
-21.575
11
21.575
21
-35.575
0
LINE
8
0
10
40.625
20
-35.575
11
54.625
21
-35.575
0
LINE
8
0
10
54.625
20
-21.575
11
40.625
21
-21.575
0
LINE
8
0
10
54.625
20
-35.575
11
54.625
21
-21.575
0
LINE
8
0
10
40.625
20
-21.575
11
40.625
21
-35.575
0
LINE
8
0
10
59.675
20
-35.575
11
73.675
21
-35.575
0
LINE
8
0
10
73.675
20
-21.575
11
59.675
21
-21.575
0
LINE
8
0
10
73.675
20
-35.575
11
73.675
21
-21.575
0
LINE
8
0
10
59.675
20
-21.575
11
59.675
21
-35.575
0
LINE
8
0
10
78.725
20
-35.575
11
92.725
21
-35.575
0
LINE
8
0
10
92.725
20
-21.575
11
78.725
21
-21.575
0
LINE
8
0
10
92.725
20
-35.575
11
92.725
21
-21.575
0
LINE
8
0
10
78.725
20
-21.575
11
78.725
21
-35.575
0
LINE
8
0
10
97.775
20
-35.575
11
111.775
21
-35.575
0
LINE
8
0
10
111.775
20
-21.575
11
97.775
21
-21.575
0
LINE
8
0
10
111.775
20
-35.575
11
111.775
21
-21.575
0
LINE
8
0
10
97.775
20
-21.575
11
97.775
21
-35.575
0
LINE
8
0
10
116.825
20
-35.575
11
130.825
21
-35.575
0
LINE
8
0
10
130.825
20
-21.575
11
116.825
21
-21.575
0
LINE
8
0
10
130.825
20
-35.575
11
130.825
21
-21.575
0
LINE
8
0
10
116.825
20
-21.575
11
116.825
21
-35.575
0
LINE
8
0
10
135.875
20
-35.575
11
149.875
21
-35.575
0
LINE
8
0
10
149.875
20
-21.575
11
135.875
21
-21.575
0
LINE
8
0
10
149.875
20
-35.575
11
149.875
21
-21.575
0
LINE
8
0
10
135.875
20
-21.575
11
135.875
21
-35.575
0
LINE
8
0
10
154.925
20
-35.575
11
168.925
21
-35.575
0
LINE
8
0
10
168.925
20
-21.575
11
154.925
21
-21.575
0
LINE
8
0
10
168.925
20
-35.575
11
168.925
21
-21.575
0
LINE
8
0
10
154.925
20
-21.575
11
154.925
21
-35.575
0
LINE
8
0
10
173.975
20
-35.575
11
187.975
21
-35.575
0
LINE
8
0
10
187.975
20
-21.575
11
173.975
21
-21.575
0
LINE
8
0
10
187.975
20
-35.575
11
187.975
21
-21.575
0
LINE
8
0
10
173.975
20
-21.575
11
173.975
21
-35.575
0
LINE
8
0
10
193.025
20
-35.575
11
207.025
21
-35.575
0
LINE
8
0
10
207.025
20
-21.575
11
193.025
21
-21.575
0
LINE
8
0
10
207.025
20
-35.575
11
207.025
21
-21.575
0
LINE
8
0
10
193.025
20
-21.575
11
193.025
21
-35.575
0
LINE
8
0
10
219.21875
20
-35.575
11
233.21875
21
-35.575
0
LINE
8
0
10
233.21875
20
-21.575
11
219.21875
21
-21.575
0
LINE
8
0
10
233.21875
20
-35.575
11
233.21875
21
-21.575
0
LINE
8
0
10
219.21875
20
-21.575
11
219.21875
21
-35.575
0
LINE
8
0
10
4.90625
20
-54.625
11
18.90625
21
-54.625
0
LINE
8
0
10
18.90625
20
-40.625
11
4.90625
21
-40.625
0
LINE
8
0
10
18.90625
20
-54.625
11
18.90625
21
-40.625
0
LINE
8
0
10
4.90625
20
-40.625
11
4.90625
21
-54.625
0
LINE
8
0
10
26.3375
20
-54.625
11
40.3375
21
-54.625
0
LINE
8
0
10
40.3375
20
-40.625
11
26.3375
21
-40.625
0
LINE
8
0
10
40.3375
20
-54.625
11
40.3375
21
-40.625
0
LINE
8
0
10
26.3375
20
-40.625
11
26.3375
21
-54.625
0
LINE
8
0
10
45.3875
20
-54.625
11
59.3875
21
-54.625
0
LINE
8
0
10
59.3875
20
-40.625
11
45.3875
21
-40.625
0
LINE
8
0
10
59.3875
20
-54.625
11
59.3875
21
-40.625
0
LINE
8
0
10
45.3875
20
-40.625
11
45.3875
21
-54.625
0
LINE
8
0
10
64.4375
20
-54.625
11
78.4375
21
-54.625
0
LINE
8
0
10
78.4375
20
-40.625
11
64.4375
21
-40.625
0
LINE
8
0
10
78.4375
20
-54.625
11
78.4375
21
-40.625
0
LINE
8
0
10
64.4375
20
-40.625
11
64.4375
21
-54.625
0
LINE
8
0
10
83.4875
20
-54.625
11
97.4875
21
-54.625
0
LINE
8
0
10
97.4875
20
-40.625
11
83.4875
21
-40.625
0
LINE
8
0
10
97.4875
20
-54.625
11
97.4875
21
-40.625
0
LINE
8
0
10
83.4875
20
-40.625
11
83.4875
21
-54.625
0
LINE
8
0
10
102.5375
20
-54.625
11
116.5375
21
-54.625
0
LINE
8
0
10
116.5375
20
-40.625
11
102.5375
21
-40.625
0
LINE
8
0
10
116.5375
20
-54.625
11
116.5375
21
-40.625
0
LINE
8
0
10
102.5375
20
-40.625
11
102.5375
21
-54.625
0
LINE
8
0
10
121.5875
20
-54.625
11
135.5875
21
-54.625
0
LINE
8
0
10
135.5875
20
-40.625
11
121.5875
21
-40.625
0
LINE
8
0
10
135.5875
20
-54.625
11
135.5875
21
-40.625
0
LINE
8
0
10
121.5875
20
-40.625
11
121.5875
21
-54.625
0
LINE
8
0
10
140.6375
20
-54.625
11
154.6375
21
-54.625
0
LINE
8
0
10
154.6375
20
-40.625
11
140.6375
21
-40.625
0
LINE
8
0
10
154.6375
20
-54.625
11
154.6375
21
-40.625
0
LINE
8
0
10
140.6375
20
-40.625
11
140.6375
21
-54.625
0
LINE
8
0
10
159.6875
20
-54.625
11
173.6875
21
-54.625
0
LINE
8
0
10
173.6875
20
-40.625
11
159.6875
21
-40.625
0
LINE
8
0
10
173.6875
20
-54.625
11
173.6875
21
-40.625
0
LINE
8
0
10
159.6875
20
-40.625
11
159.6875
21
-54.625
0
LINE
8
0
10
178.7375
20
-54.625
11
192.7375
21
-54.625
0
LINE
8
0
10
192.7375
20
-40.625
11
178.7375
21
-40.625
0
LINE
8
0
10
192.7375
20
-54.625
11
192.7375
21
-40.625
0
LINE
8
0
10
178.7375
20
-40.625
11
178.7375
21
-54.625
0
LINE
8
0
10
197.7875
20
-54.625
11
211.7875
21
-54.625
0
LINE
8
0
10
211.7875
20
-40.625
11
197.7875
21
-40.625
0
LINE
8
0
10
211.7875
20
-54.625
11
211.7875
21
-40.625
0
LINE
8
0
10
197.7875
20
-40.625
11
197.7875
21
-54.625
0
LINE
8
0
10
221.6
20
-54.625
11
235.6
21
-54.625
0
LINE
8
0
10
235.6
20
-40.625
11
221.6
21
-40.625
0
LINE
8
0
10
235.6
20
-54.625
11
235.6
21
-40.625
0
LINE
8
0
10
221.6
20
-40.625
11
221.6
21
-54.625
0
LINE
8
0
10
9.66875
20
-73.675
11
23.66875
21
-73.675
0
LINE
8
0
10
23.66875
20
-59.675
11
9.66875
21
-59.675
0
LINE
8
0
10
23.66875
20
-73.675
11
23.66875
21
-59.675
0
LINE
8
0
10
9.66875
20
-59.675
11
9.66875
21
-73.675
0
LINE
8
0
10
35.8625
20
-73.675
11
49.8625
21
-73.675
0
LINE
8
0
10
49.8625
20
-59.675
11
35.8625
21
-59.675
0
LINE
8
0
10
49.8625
20
-73.675
11
49.8625
21
-59.675
0
LINE
8
0
10
35.8625
20
-59.675
11
35.8625
21
-73.675
0
LINE
8
0
10
54.9125
20
-73.675
11
68.9125
21
-73.675
0
LINE
8
0
10
68.9125
20
-59.675
11
54.9125
21
-59.675
0
LINE
8
0
10
68.9125
20
-73.675
11
68.9125
21
-59.675
0
LINE
8
0
10
54.9125
20
-59.675
11
54.9125
21
-73.675
0
LINE
8
0
10
73.9625
20
-73.675
11
87.9625
21
-73.675
0
LINE
8
0
10
87.9625
20
-59.675
11
73.9625
21
-59.675
0
LINE
8
0
10
87.9625
20
-73.675
11
87.9625
21
-59.675
0
LINE
8
0
10
73.9625
20
-59.675
11
73.9625
21
-73.675
0
LINE
8
0
10
93.0125
20
-73.675
11
107.0125
21
-73.675
0
LINE
8
0
10
107.0125
20
-59.675
11
93.0125
21
-59.675
0
LINE
8
0
10
107.0125
20
-73.675
11
107.0125
21
-59.675
0
LINE
8
0
10
93.0125
20
-59.675
11
93.0125
21
-73.675
0
LINE
8
0
10
112.0625
20
-73.675
11
126.0625
21
-73.675
0
LINE
8
0
10
126.0625
20
-59.675
11
112.0625
21
-59.675
0
LINE
8
0
10
126.0625
20
-73.675
11
126.0625
21
-59.675
0
LINE
8
0
10
112.0625
20
-59.675
11
112.0625
21
-73.675
0
LINE
8
0
10
131.1125
20
-73.675
11
145.1125
21
-73.675
0
LINE
8
0
10
145.1125
20
-59.675
11
131.1125
21
-59.675
0
LINE
8
0
10
145.1125
20
-73.675
11
145.1125
21
-59.675
0
LINE
8
0
10
131.1125
20
-59.675
11
131.1125
21
-73.675
0
LINE
8
0
10
150.1625
20
-73.675
11
164.1625
21
-73.675
0
LINE
8
0
10
164.1625
20
-59.675
11
150.1625
21
-59.675
0
LINE
8
0
10
164.1625
20
-73.675
11
164.1625
21
-59.675
0
LINE
8
0
10
150.1625
20
-59.675
11
150.1625
21
-73.675
0
LINE
8
0
10
169.2125
20
-73.675
11
183.2125
21
-73.675
0
LINE
8
0
10
183.2125
20
-59.675
11
169.2125
21
-59.675
0
LINE
8
0
10
183.2125
20
-73.675
11
183.2125
21
-59.675
0
LINE
8
0
10
169.2125
20
-59.675
11
169.2125
21
-73.675
0
LINE
8
0
10
188.2625
20
-73.675
11
202.2625
21
-73.675
0
LINE
8
0
10
202.2625
20
-59.675
11
188.2625
21
-59.675
0
LINE
8
0
10
202.2625
20
-73.675
11
202.2625
21
-59.675
0
LINE
8
0
10
188.2625
20
-59.675
11
188.2625
21
-73.675
0
LINE
8
0
10
207.3125
20
-73.675
11
221.3125
21
-73.675
0
LINE
8
0
10
221.3125
20
-59.675
11
207.3125
21
-59.675
0
LINE
8
0
10
221.3125
20
-73.675
11
221.3125
21
-59.675
0
LINE
8
0
10
207.3125
20
-59.675
11
207.3125
21
-73.675
0
LINE
8
0
10
226.3625
20
-73.675
11
240.3625
21
-73.675
0
LINE
8
0
10
240.3625
20
-59.675
11
226.3625
21
-59.675
0
LINE
8
0
10
240.3625
20
-73.675
11
240.3625
21
-59.675
0
LINE
8
0
10
226.3625
20
-59.675
11
226.3625
21
-73.675
0
LINE
8
0
10
2.525
20
-92.725
11
4.90625
21
-92.725
0
LINE
8
0
10
4.90625
20
-92.725
11
16.525
21
-92.725
0
LINE
8
0
10
16.525
20
-78.725
11
4.90625
21
-78.725
0
LINE
8
0
10
4.90625
20
-78.725
11
2.525
21
-78.725
0
LINE
8
0
10
2.525
20
-78.725
11
2.525
21
-92.725
0
LINE
8
0
10
16.525
20
-92.725
11
18.90625
21
-92.725
0
LINE
8
0
10
18.90625
20
-78.725
11
16.525
21
-78.725
0
LINE
8
0
10
18.90625
20
-92.725
11
18.90625
21
-78.725
0
LINE
8
0
10
21.575
20
-92.725
11
23.95625
21
-92.725
0
LINE
8
0
10
23.95625
20
-92.725
11
26.3375
21
-92.725
0
LINE
8
0
10
26.3375
20
-92.725
11
31.1
21
-92.725
0
LINE
8
0
10
31.1
20
-92.725
11
35.575
21
-92.725
0
LINE
8
0
10
35.575
20
-78.725
11
31.1
21
-78.725
0
LINE
8
0
10
31.1
20
-78.725
11
26.3375
21
-78.725
0
LINE
8
0
10
26.3375
20
-78.725
11
23.95625
21
-78.725
0
LINE
8
0
10
23.95625
20
-78.725
11
21.575
21
-78.725
0
LINE
8
0
10
21.575
20
-78.725
11
21.575
21
-92.725
0
LINE
8
0
10
35.575
20
-92.725
11
37.95625
21
-92.725
0
LINE
8
0
10
37.95625
20
-78.725
11
35.575
21
-78.725
0
LINE
8
0
10
37.95625
20
-92.725
11
40.3375
21
-92.725
0
LINE
8
0
10
40.3375
20
-92.725
11
40.625
21
-92.725
0
LINE
8
0
10
40.625
20
-92.725
11
45.1
21
-92.725
0
LINE
8
0
10
45.1
20
-78.725
11
40.625
21
-78.725
0
LINE
8
0
10
40.625
20
-78.725
11
40.3375
21
-78.725
0
LINE
8
0
10
40.3375
20
-78.725
11
37.95625
21
-78.725
0
LINE
8
0
10
45.1
20
-92.725
11
45.3875
21
-92.725
0
LINE
8
0
10
45.3875
20
-92.725
11
47.76875
21
-92.725
0
LINE
8
0
10
47.76875
20
-92.725
11
54.625
21
-92.725
0
LINE
8
0
10
54.625
20
-78.725
11
47.76875
21
-78.725
0
LINE
8
0
10
47.76875
20
-78.725
11
45.3875
21
-78.725
0
LINE
8
0
10
45.3875
20
-78.725
11
45.1
21
-78.725
0
LINE
8
0
10
54.625
20
-92.725
11
57.29375
21
-92.725
0
LINE
8
0
10
57.29375
20
-92.725
11
59.3875
21
-92.725
0
LINE
8
0
10
59.3875
20
-92.725
11
59.675
21
-92.725
0
LINE
8
0
10
59.675
20
-92.725
11
61.76875
21
-92.725
0
LINE
8
0
10
61.76875
20
-78.725
11
59.675
21
-78.725
0
LINE
8
0
10
59.675
20
-78.725
11
59.3875
21
-78.725
0
LINE
8
0
10
59.3875
20
-78.725
11
57.29375
21
-78.725
0
LINE
8
0
10
57.29375
20
-78.725
11
54.625
21
-78.725
0
LINE
8
0
10
61.76875
20
-92.725
11
67.9375
21
-92.725
0
LINE
8
0
10
67.9375
20
-92.725
11
67.94375
21
-92.725
0
LINE
8
0
10
67.94375
20
-92.725
11
71.29375
21
-92.725
0
LINE
8
0
10
67.9375
20
-78.725
11
61.76875
21
-78.725
0
LINE
8
0
10
71.29375
20
-92.725
11
72.70625
21
-92.725
0
LINE
8
0
10
72.70625
20
-92.725
11
73.675
21
-92.725
0
LINE
8
0
10
114.44375
20
-92.725
11
119.20625
21
-92.725
0
LINE
8
0
10
119.20625
20
-92.725
11
122.6745
21
-92.725
0
LINE
8
0
10
122.6745
20
-92.725
11
125.05575
21
-92.725
0
LINE
8
0
10
125.05575
20
-92.725
11
125.0875
21
-92.725
0
LINE
8
0
10
125.0875
20
-92.725
11
128.44375
21
-92.725
0
LINE
8
0
10
122.6745
20
-78.725
11
119.20625
21
-78.725
0
LINE
8
0
10
119.20625
20
-78.725
11
114.44375
21
-78.725
0
LINE
8
0
10
114.44375
20
-78.725
11
114.44375
21
-92.725
0
LINE
8
0
10
174.94375
20
-77.725
11
172.70625
21
-77.725
0
LINE
8
0
10
172.70625
20
-77.725
11
170.1875
21
-77.725
0
LINE
8
0
10
170.1875
20
-77.725
11
167.94375
21
-77.725
0
LINE
8
0
10
167.94375
20
-92.725
11
170.1875
21
-92.725
0
LINE
8
0
10
170.1875
20
-92.725
11
172.70625
21
-92.725
0
LINE
8
0
10
172.70625
20
-92.725
11
174.94375
21
-92.725
0
LINE
8
0
10
74.94375
20
-77.725
11
74.9375
21
-77.725
0
LINE
8
0
10
74.9375
20
-77.725
11
72.70625
21
-77.725
0
LINE
8
0
10
72.70625
20
-77.725
11
67.94375
21
-77.725
0
LINE
8
0
10
73.675
20
-92.725
11
74.9375
21
-92.725
0
LINE
8
0
10
74.9375
20
-92.725
11
74.94375
21
-92.725
0
LINE
8
0
10
83.4875
20
-92.725
11
84.43075
21
-92.725
0
LINE
8
0
10
85.86875
20
-92.725
11
89.19325
21
-92.725
0
LINE
8
0
10
90.63125
20
-92.725
11
97.4875
21
-92.725
0
LINE
8
0
10
89.19325
20
-92.725
11
90.63125
21
-92.725
0
LINE
8
0
10
84.43075
20
-92.725
11
85.86875
21
-92.725
0
LINE
8
0
10
97.4875
20
-78.725
11
90.63125
21
-78.725
0
LINE
8
0
10
90.63125
20
-78.725
11
89.19325
21
-78.725
0
LINE
8
0
10
113.0375
20
-77.725
11
108.30675
21
-77.725
0
LINE
8
0
10
108.30675
20
-77.725
11
106.06925
21
-77.725
0
LINE
8
0
10
106.06925
20
-77.725
11
106.0375
21
-77.725
0
LINE
8
0
10
106.0375
20
-92.725
11
106.06925
21
-92.725
0
LINE
8
0
10
106.06925
20
-92.725
11
108.30675
21
-92.725
0
LINE
8
0
10
108.30675
20
-92.725
11
113.0375
21
-92.725
0
LINE
8
0
10
67.94375
20
-77.725
11
67.9375
21
-77.725
0
LINE
8
0
10
67.9375
20
-77.725
11
67.9375
21
-78.725
0
LINE
8
0
10
97.4875
20
-92.725
11
99.86875
21
-92.725
0
LINE
8
0
10
99.86875
20
-78.725
11
97.4875
21
-78.725
0
LINE
8
0
10
106.0375
20
-77.725
11
101.30675
21
-77.725
0
LINE
8
0
10
101.30675
20
-92.725
11
104.63125
21
-92.725
0
LINE
8
0
10
104.63125
20
-92.725
11
106.0375
21
-92.725
0
LINE
8
0
10
101.30675
20
-77.725
11
101.30675
21
-78.725
0
LINE
8
0
10
84.43075
20
-77.725
11
82.19325
21
-77.725
0
LINE
8
0
10
82.19325
20
-77.725
11
79.70625
21
-77.725
0
LINE
8
0
10
79.70625
20
-77.725
11
77.43075
21
-77.725
0
LINE
8
0
10
77.43075
20
-92.725
11
79.70625
21
-92.725
0
LINE
8
0
10
79.70625
20
-92.725
11
82.19325
21
-92.725
0
LINE
8
0
10
82.19325
20
-92.725
11
83.4875
21
-92.725
0
LINE
8
0
10
128.44375
20
-92.725
11
129.6745
21
-92.725
0
LINE
8
0
10
131.1125
20
-92.725
11
132.05575
21
-92.725
0
LINE
8
0
10
132.05575
20
-92.725
11
132.0875
21
-92.725
0
LINE
8
0
10
132.0875
20
-92.725
11
133.20625
21
-92.725
0
LINE
8
0
10
129.6745
20
-92.725
11
131.1125
21
-92.725
0
LINE
8
0
10
133.20625
20
-78.725
11
132.0875
21
-78.725
0
LINE
8
0
10
179.70625
20
-77.725
11
174.94375
21
-77.725
0
LINE
8
0
10
174.94375
20
-92.725
11
176.06875
21
-92.725
0
LINE
8
0
10
176.06875
20
-92.725
11
176.35625
21
-92.725
0
LINE
8
0
10
176.35625
20
-92.725
11
178.45
21
-92.725
0
LINE
8
0
10
178.45
20
-92.725
11
179.70625
21
-92.725
0
LINE
8
0
10
179.70625
20
-78.725
11
179.70625
21
-77.725
0
LINE
8
0
10
77.43075
20
-77.725
11
74.94375
21
-77.725
0
LINE
8
0
10
74.94375
20
-92.725
11
77.43075
21
-92.725
0
LINE
8
0
10
99.86875
20
-92.725
11
101.30675
21
-92.725
0
LINE
8
0
10
101.30675
20
-78.725
11
99.86875
21
-78.725
0
LINE
8
0
10
113.06925
20
-77.725
11
113.0375
21
-77.725
0
LINE
8
0
10
113.0375
20
-92.725
11
113.06925
21
-92.725
0
LINE
8
0
10
113.06925
20
-92.725
11
113.06925
21
-77.725
0
LINE
8
0
10
89.19325
20
-77.725
11
84.43075
21
-77.725
0
LINE
8
0
10
89.19325
20
-78.725
11
89.19325
21
-77.725
0
LINE
8
0
10
133.20625
20
-92.725
11
133.49375
21
-92.725
0
LINE
8
0
10
133.49375
20
-92.725
11
140.6375
21
-92.725
0
LINE
8
0
10
140.6375
20
-92.725
11
145.1125
21
-92.725
0
LINE
8
0
10
145.1125
20
-78.725
11
140.6375
21
-78.725
0
LINE
8
0
10
140.6375
20
-78.725
11
133.49375
21
-78.725
0
LINE
8
0
10
133.49375
20
-78.725
11
133.20625
21
-78.725
0
LINE
8
0
10
153.5505
20
-77.725
11
148.93175
21
-77.725
0
LINE
8
0
10
148.93175
20
-77.725
11
146.5505
21
-77.725
0
LINE
8
0
10
146.5505
20
-92.725
11
147.49375
21
-92.725
0
LINE
8
0
10
147.49375
20
-92.725
11
148.93175
21
-92.725
0
LINE
8
0
10
148.93175
20
-92.725
11
153.5505
21
-92.725
0
LINE
8
0
10
146.5505
20
-77.725
11
146.5505
21
-78.725
0
LINE
8
0
10
129.6745
20
-77.725
11
125.0875
21
-77.725
0
LINE
8
0
10
125.0875
20
-77.725
11
125.05575
21
-77.725
0
LINE
8
0
10
125.05575
20
-77.725
11
122.6745
21
-77.725
0
LINE
8
0
10
122.6745
20
-77.725
11
122.6745
21
-78.725
0
LINE
8
0
10
145.1125
20
-92.725
11
146.5505
21
-92.725
0
LINE
8
0
10
146.5505
20
-78.725
11
145.1125
21
-78.725
0
LINE
8
0
10
155.93175
20
-77.725
11
153.5505
21
-77.725
0
LINE
8
0
10
153.5505
20
-92.725
11
154.6375
21
-92.725
0
LINE
8
0
10
154.6375
20
-92.725
11
155.93175
21
-92.725
0
LINE
8
0
10
155.93175
20
-92.725
11
155.93175
21
-77.725
0
LINE
8
0
10
132.05575
20
-77.725
11
129.6745
21
-77.725
0
LINE
8
0
10
167.94375
20
-77.725
11
163.1875
21
-77.725
0
LINE
8
0
10
163.1875
20
-92.725
11
164.45
21
-92.725
0
LINE
8
0
10
164.45
20
-92.725
11
166.83125
21
-92.725
0
LINE
8
0
10
166.83125
20
-92.725
11
167.94375
21
-92.725
0
LINE
8
0
10
163.1875
20
-77.725
11
163.1875
21
-78.725
0
LINE
8
0
10
132.0875
20
-77.725
11
132.05575
21
-77.725
0
LINE
8
0
10
132.0875
20
-78.725
11
132.0875
21
-77.725
0
LINE
8
0
10
162.06875
20
-92.725
11
163.1875
21
-92.725
0
LINE
8
0
10
163.1875
20
-78.725
11
162.06875
21
-78.725
0
LINE
8
0
10
162.06875
20
-78.725
11
162.06875
21
-92.725
0
LINE
8
0
10
179.70625
20
-92.725
11
180.83125
21
-92.725
0
LINE
8
0
10
180.83125
20
-78.725
11
179.70625
21
-78.725
0
LINE
8
0
10
180.83125
20
-92.725
11
181.11875
21
-92.725
0
LINE
8
0
10
181.11875
20
-92.725
11
183.5
21
-92.725
0
LINE
8
0
10
183.5
20
-92.725
11
188.2625
21
-92.725
0
LINE
8
0
10
188.2625
20
-92.725
11
190.35625
21
-92.725
0
LINE
8
0
10
190.35625
20
-78.725
11
188.2625
21
-78.725
0
LINE
8
0
10
188.2625
20
-78.725
11
183.5
21
-78.725
0
LINE
8
0
10
183.5
20
-78.725
11
181.11875
21
-78.725
0
LINE
8
0
10
181.11875
20
-78.725
11
180.83125
21
-78.725
0
LINE
8
0
10
190.35625
20
-92.725
11
193.025
21
-92.725
0
LINE
8
0
10
193.025
20
-92.725
11
195.11875
21
-92.725
0
LINE
8
0
10
195.11875
20
-78.725
11
193.025
21
-78.725
0
LINE
8
0
10
193.025
20
-78.725
11
190.35625
21
-78.725
0
LINE
8
0
10
195.11875
20
-92.725
11
197.5
21
-92.725
0
LINE
8
0
10
197.5
20
-92.725
11
202.2625
21
-92.725
0
LINE
8
0
10
202.2625
20
-78.725
11
197.5
21
-78.725
0
LINE
8
0
10
197.5
20
-78.725
11
195.11875
21
-78.725
0
LINE
8
0
10
202.2625
20
-92.725
11
202.55
21
-92.725
0
LINE
8
0
10
202.55
20
-92.725
11
207.025
21
-92.725
0
LINE
8
0
10
207.025
20
-78.725
11
202.55
21
-78.725
0
LINE
8
0
10
202.55
20
-78.725
11
202.2625
21
-78.725
0
LINE
8
0
10
207.025
20
-92.725
11
207.3125
21
-92.725
0
LINE
8
0
10
207.3125
20
-92.725
11
216.55
21
-92.725
0
LINE
8
0
10
216.55
20
-78.725
11
207.3125
21
-78.725
0
LINE
8
0
10
207.3125
20
-78.725
11
207.025
21
-78.725
0
LINE
8
0
10
216.55
20
-92.725
11
219.21875
21
-92.725
0
LINE
8
0
10
219.21875
20
-92.725
11
221.3125
21
-92.725
0
LINE
8
0
10
221.3125
20
-78.725
11
219.21875
21
-78.725
0
LINE
8
0
10
219.21875
20
-78.725
11
216.55
21
-78.725
0
LINE
8
0
10
221.3125
20
-92.725
11
223.98125
21
-92.725
0
LINE
8
0
10
223.98125
20
-92.725
11
226.3625
21
-92.725
0
LINE
8
0
10
226.3625
20
-92.725
11
233.21875
21
-92.725
0
LINE
8
0
10
233.21875
20
-78.725
11
226.3625
21
-78.725
0
LINE
8
0
10
226.3625
20
-78.725
11
223.98125
21
-78.725
0
LINE
8
0
10
223.98125
20
-78.725
11
221.3125
21
-78.725
0
LINE
8
0
10
233.21875
20
-92.725
11
237.98125
21
-92.725
0
LINE
8
0
10
237.98125
20
-78.725
11
233.21875
21
-78.725
0
LINE
8
0
10
237.98125
20
-92.725
11
240.3625
21
-92.725
0
LINE
8
0
10
240.3625
20
-78.725
11
237.98125
21
-78.725
0
LINE
8
0
10
240.3625
20
-92.725
11
240.3625
21
-78.725
0
ENDSEC
0
EOF