0
SECTION
2
HEADER
9
$INSUNITS
70
4
0
ENDSEC
0
SECTION
2
TABLES
0
TABLE
2
LTYPE
0
LTYPE
72
65
70
64
2
CONTINUOUS
3
______
73
0
40
0
0
ENDTAB
0
TABLE
2
LAYER
0
ENDTAB
0
ENDSEC
0
SECTION
2
ENTITIES
0
LINE
8
0
10
2.525
20
-16.525
11
16.525
21
-16.525
0
LINE
8
0
10
16.525
20
-2.525
11
2.525
21
-2.525
0
LINE
8
0
10
16.525
20
-16.525
11
16.525
21
-2.525
0
LINE
8
0
10
2.525
20
-2.525
11
2.525
21
-16.525
0
LINE
8
0
10
21.575
20
-16.525
11
35.575
21
-16.525
0
LINE
8
0
10
35.575
20
-2.525
11
21.575
21
-2.525
0
LINE
8
0
10
35.575
20
-16.525
11
35.575
21
-2.525
0
LINE
8
0
10
21.575
20
-2.525
11
21.575
21
-16.525
0
LINE
8
0
10
40.625
20
-16.525
11
54.625
21
-16.525
0
LINE
8
0
10
54.625
20
-2.525
11
40.625
21
-2.525
0
LINE
8
0
10
54.625
20
-16.525
11
54.625
21
-2.525
0
LINE
8
0
10
40.625
20
-2.525
11
40.625
21
-16.525
0
LINE
8
0
10
59.675
20
-16.525
11
73.675
21
-16.525
0
LINE
8
0
10
73.675
20
-2.525
11
59.675
21
-2.525
0
LINE
8
0
10
73.675
20
-16.525
11
73.675
21
-2.525
0
LINE
8
0
10
59.675
20
-2.525
11
59.675
21
-16.525
0
LINE
8
0
10
78.725
20
-16.525
11
92.725
21
-16.525
0
LINE
8
0
10
92.725
20
-2.525
11
78.725
21
-2.525
0
LINE
8
0
10
92.725
20
-16.525
11
92.725
21
-2.525
0
LINE
8
0
10
78.725
20
-2.525
11
78.725
21
-16.525
0
LINE
8
0
10
97.775
20
-16.525
11
111.775
21
-16.525
0
LINE
8
0
10
111.775
20
-2.525
11
97.775
21
-2.525
0
LINE
8
0
10
111.775
20
-16.525
11
111.775
21
-2.525
0
LINE
8
0
10
97.775
20
-2.525
11
97.775
21
-16.525
0
LINE
8
0
10
116.825
20
-16.525
11
130.825
21
-16.525
0
LINE
8
0
10
130.825
20
-2.525
11
116.825
21
-2.525
0
LINE
8
0
10
130.825
20
-16.525
11
130.825
21
-2.525
0
LINE
8
0
10
116.825
20
-2.525
11
116.825
21
-16.525
0
LINE
8
0
10
135.875
20
-16.525
11
149.875
21
-16.525
0
LINE
8
0
10
149.875
20
-2.525
11
135.875
21
-2.525
0
LINE
8
0
10
149.875
20
-16.525
11
149.875
21
-2.525
0
LINE
8
0
10
135.875
20
-2.525
11
135.875
21
-16.525
0
LINE
8
0
10
154.925
20
-16.525
11
168.925
21
-16.525
0
LINE
8
0
10
168.925
20
-2.525
11
154.925
21
-2.525
0
LINE
8
0
10
168.925
20
-16.525
11
168.925
21
-2.525
0
LINE
8
0
10
154.925
20
-2.525
11
154.925
21
-16.525
0
LINE
8
0
10
173.975
20
-16.525
11
187.975
21
-16.525
0
LINE
8
0
10
187.975
20
-2.525
11
173.975
21
-2.525
0
LINE
8
0
10
187.975
20
-16.525
11
187.975
21
-2.525
0
LINE
8
0
10
173.975
20
-2.525
11
173.975
21
-16.525
0
LINE
8
0
10
193.025
20
-16.525
11
207.025
21
-16.525
0
LINE
8
0
10
207.025
20
-2.525
11
193.025
21
-2.525
0
LINE
8
0
10
207.025
20
-16.525
11
207.025
21
-2.525
0
LINE
8
0
10
193.025
20
-2.525
11
193.025
21
-16.525
0
LINE
8
0
10
219.21875
20
-16.525
11
233.21875
21
-16.525
0
LINE
8
0
10
233.21875
20
-2.525
11
219.21875
21
-2.525
0
LINE
8
0
10
233.21875
20
-16.525
11
233.21875
21
-2.525
0
LINE
8
0
10
219.21875
20
-2.525
11
219.21875
21
-16.525
0
LINE
8
0
10
4.90625
20
-35.575
11
18.90625
21
-35.575
0
LINE
8
0
10
18.90625
20
-21.575
11
4.90625
21
-21.575
0
LINE
8
0
10
18.90625
20
-35.575
11
18.90625
21
-21.575
0
LINE
8
0
10
4.90625
20
-21.575
11
4.90625
21
-35.575
0
LINE
8
0
10
26.3375
20
-35.575
11
40.3375
21
-35.575
0
LINE
8
0
10
40.3375
20
-21.575
11
26.3375
21
-21.575
0
LINE
8
0
10
40.3375
20
-35.575
11
40.3375
21
-21.575
0
LINE
8
0
10
26.3375
20
-21.575
11
26.3375
21
-35.575
0
LINE
8
0
10
45.3875
20
-35.575
11
59.3875
21
-35.575
0
LINE
8
0
10
59.3875
20
-21.575
11
45.3875
21
-21.575
0
LINE
8
0
10
59.3875
20
-35.575
11
59.3875
21
-21.575
0
LINE
8
0
10
45.3875
20
-21.575
11
45.3875
21
-35.575
0
LINE
8
0
10
64.4375
20
-35.575
11
78.4375
21
-35.575
0
LINE
8
0
10
78.4375
20
-21.575
11
64.4375
21
-21.575
0
LINE
8
0
10
78.4375
20
-35.575
11
78.4375
21
-21.575
0
LINE
8
0
10
64.4375
20
-21.575
11
64.4375
21
-35.575
0
LINE
8
0
10
83.4875
20
-35.575
11
97.4875
21
-35.575
0
LINE
8
0
10
97.4875
20
-21.575
11
83.4875
21
-21.575
0
LINE
8
0
10
97.4875
20
-35.575
11
97.4875
21
-21.575
0
LINE
8
0
10
83.4875
20
-21.575
11
83.4875
21
-35.575
0
LINE
8
0
10
102.5375
20
-35.575
11
116.5375
21
-35.575
0
LINE
8
0
10
116.5375
20
-21.575
11
102.5375
21
-21.575
0
LINE
8
0
10
116.5375
20
-35.575
11
116.5375
21
-21.575
0
LINE
8
0
10
102.5375
20
-21.575
11
102.5375
21
-35.575
0
LINE
8
0
10
121.5875
20
-35.575
11
135.5875
21
-35.575
0
LINE
8
0
10
135.5875
20
-21.575
11
121.5875
21
-21.575
0
LINE
8
0
10
135.5875
20
-35.575
11
135.5875
21
-21.575
0
LINE
8
0
10
121.5875
20
-21.575
11
121.5875
21
-35.575
0
LINE
8
0
10
140.6375
20
-35.575
11
154.6375
21
-35.575
0
LINE
8
0
10
154.6375
20
-21.575
11
140.6375
21
-21.575
0
LINE
8
0
10
154.6375
20
-35.575
11
154.6375
21
-21.575
0
LINE
8
0
10
140.6375
20
-21.575
11
140.6375
21
-35.575
0
LINE
8
0
10
159.6875
20
-35.575
11
173.6875
21
-35.575
0
LINE
8
0
10
173.6875
20
-21.575
11
159.6875
21
-21.575
0
LINE
8
0
10
173.6875
20
-35.575
11
173.6875
21
-21.575
0
LINE
8
0
10
159.6875
20
-21.575
11
159.6875
21
-35.575
0
LINE
8
0
10
178.7375
20
-35.575
11
192.7375
21
-35.575
0
LINE
8
0
10
192.7375
20
-21.575
11
178.7375
21
-21.575
0
LINE
8
0
10
192.7375
20
-35.575
11
192.7375
21
-21.575
0
LINE
8
0
10
178.7375
20
-21.575
11
178.7375
21
-35.575
0
LINE
8
0
10
197.7875
20
-35.575
11
211.7875
21
-35.575
0
LINE
8
0
10
211.7875
20
-21.575
11
197.7875
21
-21.575
0
LINE
8
0
10
211.7875
20
-35.575
11
211.7875
21
-21.575
0
LINE
8
0
10
197.7875
20
-21.575
11
197.7875
21
-35.575
0
LINE
8
0
10
221.6
20
-35.575
11
235.6
21
-35.575
0
LINE
8
0
10
235.6
20
-21.575
11
221.6
21
-21.575
0
LINE
8
0
10
235.6
20
-35.575
11
235.6
21
-21.575
0
LINE
8
0
10
221.6
20
-21.575
11
221.6
21
-35.575
0
LINE
8
0
10
9.66875
20
-54.625
11
23.66875
21
-54.625
0
LINE
8
0
10
23.66875
20
-40.625
11
9.66875
21
-40.625
0
LINE
8
0
10
23.66875
20
-54.625
11
23.66875
21
-40.625
0
LINE
8
0
10
9.66875
20
-40.625
11
9.66875
21
-54.625
0
LINE
8
0
10
35.8625
20
-54.625
11
49.8625
21
-54.625
0
LINE
8
0
10
49.8625
20
-40.625
11
35.8625
21
-40.625
0
LINE
8
0
10
49.8625
20
-54.625
11
49.8625
21
-40.625
0
LINE
8
0
10
35.8625
20
-40.625
11
35.8625
21
-54.625
0
LINE
8
0
10
54.9125
20
-54.625
11
68.9125
21
-54.625
0
LINE
8
0
10
68.9125
20
-40.625
11
54.9125
21
-40.625
0
LINE
8
0
10
68.9125
20
-54.625
11
68.9125
21
-40.625
0
LINE
8
0
10
54.9125
20
-40.625
11
54.9125
21
-54.625
0
LINE
8
0
10
73.9625
20
-54.625
11
87.9625
21
-54.625
0
LINE
8
0
10
87.9625
20
-40.625
11
73.9625
21
-40.625
0
LINE
8
0
10
87.9625
20
-54.625
11
87.9625
21
-40.625
0
LINE
8
0
10
73.9625
20
-40.625
11
73.9625
21
-54.625
0
LINE
8
0
10
93.0125
20
-54.625
11
107.0125
21
-54.625
0
LINE
8
0
10
107.0125
20
-40.625
11
93.0125
21
-40.625
0
LINE
8
0
10
107.0125
20
-54.625
11
107.0125
21
-40.625
0
LINE
8
0
10
93.0125
20
-40.625
11
93.0125
21
-54.625
0
LINE
8
0
10
112.0625
20
-54.625
11
126.0625
21
-54.625
0
LINE
8
0
10
126.0625
20
-40.625
11
112.0625
21
-40.625
0
LINE
8
0
10
126.0625
20
-54.625
11
126.0625
21
-40.625
0
LINE
8
0
10
112.0625
20
-40.625
11
112.0625
21
-54.625
0
LINE
8
0
10
131.1125
20
-54.625
11
145.1125
21
-54.625
0
LINE
8
0
10
145.1125
20
-40.625
11
131.1125
21
-40.625
0
LINE
8
0
10
145.1125
20
-54.625
11
145.1125
21
-40.625
0
LINE
8
0
10
131.1125
20
-40.625
11
131.1125
21
-54.625
0
LINE
8
0
10
150.1625
20
-54.625
11
164.1625
21
-54.625
0
LINE
8
0
10
164.1625
20
-40.625
11
150.1625
21
-40.625
0
LINE
8
0
10
164.1625
20
-54.625
11
164.1625
21
-40.625
0
LINE
8
0
10
150.1625
20
-40.625
11
150.1625
21
-54.625
0
LINE
8
0
10
169.2125
20
-54.625
11
183.2125
21
-54.625
0
LINE
8
0
10
183.2125
20
-40.625
11
169.2125
21
-40.625
0
LINE
8
0
10
183.2125
20
-54.625
11
183.2125
21
-40.625
0
LINE
8
0
10
169.2125
20
-40.625
11
169.2125
21
-54.625
0
LINE
8
0
10
188.2625
20
-54.625
11
202.2625
21
-54.625
0
LINE
8
0
10
202.2625
20
-40.625
11
188.2625
21
-40.625
0
LINE
8
0
10
202.2625
20
-54.625
11
202.2625
21
-40.625
0
LINE
8
0
10
188.2625
20
-40.625
11
188.2625
21
-54.625
0
LINE
8
0
10
207.3125
20
-54.625
11
221.3125
21
-54.625
0
LINE
8
0
10
221.3125
20
-40.625
11
207.3125
21
-40.625
0
LINE
8
0
10
221.3125
20
-54.625
11
221.3125
21
-40.625
0
LINE
8
0
10
207.3125
20
-40.625
11
207.3125
21
-54.625
0
LINE
8
0
10
226.3625
20
-54.625
11
240.3625
21
-54.625
0
LINE
8
0
10
240.3625
20
-40.625
11
226.3625
21
-40.625
0
LINE
8
0
10
240.3625
20
-54.625
11
240.3625
21
-40.625
0
LINE
8
0
10
226.3625
20
-40.625
11
226.3625
21
-54.625
0
LINE
8
0
10
4.90625
20
-73.675
11
18.90625
21
-73.675
0
LINE
8
0
10
18.90625
20
-59.675
11
4.90625
21
-59.675
0
LINE
8
0
10
18.90625
20
-73.675
11
18.90625
21
-59.675
0
LINE
8
0
10
4.90625
20
-59.675
11
4.90625
21
-73.675
0
LINE
8
0
10
26.3375
20
-73.675
11
40.3375
21
-73.675
0
LINE
8
0
10
40.3375
20
-59.675
11
26.3375
21
-59.675
0
LINE
8
0
10
40.3375
20
-73.675
11
40.3375
21
-59.675
0
LINE
8
0
10
26.3375
20
-59.675
11
26.3375
21
-73.675
0
LINE
8
0
10
47.76875
20
-73.675
11
61.76875
21
-73.675
0
LINE
8
0
10
61.76875
20
-59.675
11
47.76875
21
-59.675
0
LINE
8
0
10
61.76875
20
-73.675
11
61.76875
21
-59.675
0
LINE
8
0
10
47.76875
20
-59.675
11
47.76875
21
-73.675
0
LINE
8
0
10
85.86875
20
-73.675
11
99.86875
21
-73.675
0
LINE
8
0
10
99.86875
20
-59.675
11
85.86875
21
-59.675
0
LINE
8
0
10
99.86875
20
-73.675
11
99.86875
21
-59.675
0
LINE
8
0
10
85.86875
20
-59.675
11
85.86875
21
-73.675
0
LINE
8
0
10
108.30675
20
-58.675
11
101.30675
21
-58.675
0
LINE
8
0
10
101.30675
20
-73.675
11
108.30675
21
-73.675
0
LINE
8
0
10
101.30675
20
-58.675
11
101.30675
21
-73.675
0
LINE
8
0
10
108.30675
20
-73.675
11
108.30675
21
-58.675
0
LINE
8
0
10
84.43075
20
-58.675
11
79.70625
21
-58.675
0
LINE
8
0
10
79.70625
20
-58.675
11
77.43075
21
-58.675
0
LINE
8
0
10
77.43075
20
-73.675
11
79.70625
21
-73.675
0
LINE
8
0
10
79.70625
20
-73.675
11
84.43075
21
-73.675
0
LINE
8
0
10
84.43075
20
-73.675
11
84.43075
21
-58.675
0
LINE
8
0
10
119.20625
20
-73.675
11
125.05575
21
-73.675
0
LINE
8
0
10
125.05575
20
-73.675
11
132.05575
21
-73.675
0
LINE
8
0
10
132.05575
20
-73.675
11
133.20625
21
-73.675
0
LINE
8
0
10
133.20625
20
-59.675
11
132.05575
21
-59.675
0
LINE
8
0
10
125.05575
20
-59.675
11
119.20625
21
-59.675
0
LINE
8
0
10
133.20625
20
-73.675
11
133.20625
21
-59.675
0
LINE
8
0
10
119.20625
20
-59.675
11
119.20625
21
-73.675
0
LINE
8
0
10
179.70625
20
-58.675
11
172.70625
21
-58.675
0
LINE
8
0
10
172.70625
20
-73.675
11
179.70625
21
-73.675
0
LINE
8
0
10
172.70625
20
-58.675
11
172.70625
21
-59.675
0
LINE
8
0
10
179.70625
20
-59.675
11
179.70625
21
-58.675
0
LINE
8
0
10
77.43075
20
-58.675
11
72.70625
21
-58.675
0
LINE
8
0
10
72.70625
20
-73.675
11
77.43075
21
-73.675
0
LINE
8
0
10
72.70625
20
-58.675
11
72.70625
21
-73.675
0
LINE
8
0
10
133.49375
20
-73.675
11
147.49375
21
-73.675
0
LINE
8
0
10
147.49375
20
-59.675
11
133.49375
21
-59.675
0
LINE
8
0
10
147.49375
20
-73.675
11
147.49375
21
-59.675
0
LINE
8
0
10
133.49375
20
-59.675
11
133.49375
21
-73.675
0
LINE
8
0
10
155.93175
20
-58.675
11
148.93175
21
-58.675
0
LINE
8
0
10
148.93175
20
-73.675
11
155.93175
21
-73.675
0
LINE
8
0
10
148.93175
20
-58.675
11
148.93175
21
-73.675
0
LINE
8
0
10
155.93175
20
-73.675
11
155.93175
21
-58.675
0
LINE
8
0
10
132.05575
20
-58.675
11
125.05575
21
-58.675
0
LINE
8
0
10
125.05575
20
-58.675
11
125.05575
21
-59.675
0
LINE
8
0
10
132.05575
20
-59.675
11
132.05575
21
-58.675
0
LINE
8
0
10
166.83125
20
-73.675
11
172.70625
21
-73.675
0
LINE
8
0
10
179.70625
20
-73.675
11
180.83125
21
-73.675
0
LINE
8
0
10
180.83125
20
-59.675
11
179.70625
21
-59.675
0
LINE
8
0
10
172.70625
20
-59.675
11
166.83125
21
-59.675
0
LINE
8
0
10
180.83125
20
-73.675
11
180.83125
21
-59.675
0
LINE
8
0
10
166.83125
20
-59.675
11
166.83125
21
-73.675
0
LINE
8
0
10
188.2625
20
-73.675
11
202.2625
21
-73.675
0
LINE
8
0
10
202.2625
20
-59.675
11
188.2625
21
-59.675
0
LINE
8
0
10
202.2625
20
-73.675
11
202.2625
21
-59.675
0
LINE
8
0
10
188.2625
20
-59.675
11
188.2625
21
-73.675
0
LINE
8
0
10
207.3125
20
-73.675
11
221.3125
21
-73.675
0
LINE
8
0
10
221.3125
20
-59.675
11
207.3125
21
-59.675
0
LINE
8
0
10
221.3125
20
-73.675
11
221.3125
21
-59.675
0
LINE
8
0
10
207.3125
20
-59.675
11
207.3125
21
-73.675
0
LINE
8
0
10
226.3625
20
-73.675
11
240.3625
21
-73.675
0
LINE
8
0
10
240.3625
20
-59.675
11
226.3625
21
-59.675
0
LINE
8
0
10
240.3625
20
-73.675
11
240.3625
21
-59.675
0
LINE
8
0
10
226.3625
20
-59.675
11
226.3625
21
-73.675
0
ENDSEC
0
EOF