M48
; DRILL file {KiCad (7.0.0)} date Sat May  6 02:11:21 2023
; FORMAT={-:-/ absolute / inch / decimal}
; #@! TF.CreationDate,2023-05-06T02:11:21-05:00
; #@! TF.GenerationSoftware,Kicad,Pcbnew,(7.0.0)
; #@! TF.FileFunction,NonPlated,1,2,NPTH
FMAT,2
INCH
; #@! TA.AperFunction,NonPlated,NPTH,ComponentDrill
T1C0.0197
; #@! TA.AperFunction,NonPlated,NPTH,ComponentDrill
T2C0.2165
%
G90
G05
T1
X0.8223Y-5.0646
X0.8223Y-5.0937
X0.8223Y-5.1228
X0.8223Y-2.3772
X0.8223Y-2.4063
X0.8223Y-2.4354
X0.8282Y-5.152
X0.8282Y-2.348
X0.844Y-5.1811
X0.844Y-2.3189
X1.4897Y-2.2895
X1.5188Y-2.2895
X1.5479Y-2.2895
X1.5771Y-2.2895
X1.6062Y-2.2895
X1.6353Y-2.2895
X2.2397Y-2.2895
X2.2688Y-2.2895
X2.2979Y-2.2895
X2.3271Y-2.2895
X2.3562Y-2.2895
X2.3853Y-2.2895
X2.9897Y-2.2895
X3.0188Y-2.2895
X3.0479Y-2.2895
X3.0771Y-2.2895
X3.1062Y-2.2895
X3.1353Y-2.2895
X3.7397Y-2.2895
X3.7688Y-2.2895
X3.7979Y-2.2895
X3.8271Y-2.2895
X3.8562Y-2.2895
X3.8853Y-2.2895
X4.4897Y-2.2895
X4.5188Y-2.2895
X4.5479Y-2.2895
X4.5771Y-2.2895
X4.6062Y-2.2895
X4.6353Y-2.2895
X5.2397Y-2.2895
X5.2688Y-2.2895
X5.2979Y-2.2895
X5.3271Y-2.2895
X5.3562Y-2.2895
X5.3853Y-2.2895
X10.3435Y-2.3189
X10.3435Y-5.1811
X10.3593Y-2.348
X10.3593Y-5.152
X10.3652Y-2.3772
X10.3652Y-2.4063
X10.3652Y-2.4354
X10.3652Y-5.0646
X10.3652Y-5.0937
X10.3652Y-5.1228
T2
X1.9877Y-4.3681
X2.0487Y-3.0
X3.4375Y-1.9375
X3.8342Y-4.8229
X5.0487Y-3.0
X6.249Y-3.752
X7.9911Y-4.8307
X9.1053Y-2.9095
T0
M30
