%TF.GenerationSoftware,KiCad,Pcbnew,(7.0.0)*%
%TF.CreationDate,2023-05-06T02:11:09-05:00*%
%TF.ProjectId,Hull_V4N_Tray_Plate,48756c6c-5f56-4344-9e5f-547261795f50,rev?*%
%TF.SameCoordinates,Original*%
%TF.FileFunction,Legend,Bot*%
%TF.FilePolarity,Positive*%
%FSLAX46Y46*%
G04 Gerber Fmt 4.6, Leading zero omitted, Abs format (unit mm)*
G04 Created by KiCad (PCBNEW (7.0.0)) date 2023-05-06 02:11:09*
%MOMM*%
%LPD*%
G01*
G04 APERTURE LIST*
%ADD10C,0.150000*%
%ADD11C,0.300000*%
G04 APERTURE END LIST*
D10*
X109394048Y-94617380D02*
X109394048Y-95331666D01*
X109394048Y-95331666D02*
X109441667Y-95474523D01*
X109441667Y-95474523D02*
X109536905Y-95569761D01*
X109536905Y-95569761D02*
X109679762Y-95617380D01*
X109679762Y-95617380D02*
X109775000Y-95617380D01*
X108441667Y-95617380D02*
X108917857Y-95617380D01*
X108917857Y-95617380D02*
X108917857Y-94617380D01*
X107536905Y-95522142D02*
X107584524Y-95569761D01*
X107584524Y-95569761D02*
X107727381Y-95617380D01*
X107727381Y-95617380D02*
X107822619Y-95617380D01*
X107822619Y-95617380D02*
X107965476Y-95569761D01*
X107965476Y-95569761D02*
X108060714Y-95474523D01*
X108060714Y-95474523D02*
X108108333Y-95379285D01*
X108108333Y-95379285D02*
X108155952Y-95188809D01*
X108155952Y-95188809D02*
X108155952Y-95045952D01*
X108155952Y-95045952D02*
X108108333Y-94855476D01*
X108108333Y-94855476D02*
X108060714Y-94760238D01*
X108060714Y-94760238D02*
X107965476Y-94665000D01*
X107965476Y-94665000D02*
X107822619Y-94617380D01*
X107822619Y-94617380D02*
X107727381Y-94617380D01*
X107727381Y-94617380D02*
X107584524Y-94665000D01*
X107584524Y-94665000D02*
X107536905Y-94712619D01*
X106822619Y-94617380D02*
X106822619Y-95331666D01*
X106822619Y-95331666D02*
X106870238Y-95474523D01*
X106870238Y-95474523D02*
X106965476Y-95569761D01*
X106965476Y-95569761D02*
X107108333Y-95617380D01*
X107108333Y-95617380D02*
X107203571Y-95617380D01*
X105870238Y-95617380D02*
X106346428Y-95617380D01*
X106346428Y-95617380D02*
X106346428Y-94617380D01*
X104965476Y-95522142D02*
X105013095Y-95569761D01*
X105013095Y-95569761D02*
X105155952Y-95617380D01*
X105155952Y-95617380D02*
X105251190Y-95617380D01*
X105251190Y-95617380D02*
X105394047Y-95569761D01*
X105394047Y-95569761D02*
X105489285Y-95474523D01*
X105489285Y-95474523D02*
X105536904Y-95379285D01*
X105536904Y-95379285D02*
X105584523Y-95188809D01*
X105584523Y-95188809D02*
X105584523Y-95045952D01*
X105584523Y-95045952D02*
X105536904Y-94855476D01*
X105536904Y-94855476D02*
X105489285Y-94760238D01*
X105489285Y-94760238D02*
X105394047Y-94665000D01*
X105394047Y-94665000D02*
X105251190Y-94617380D01*
X105251190Y-94617380D02*
X105155952Y-94617380D01*
X105155952Y-94617380D02*
X105013095Y-94665000D01*
X105013095Y-94665000D02*
X104965476Y-94712619D01*
X104251190Y-94617380D02*
X104251190Y-95331666D01*
X104251190Y-95331666D02*
X104298809Y-95474523D01*
X104298809Y-95474523D02*
X104394047Y-95569761D01*
X104394047Y-95569761D02*
X104536904Y-95617380D01*
X104536904Y-95617380D02*
X104632142Y-95617380D01*
X103298809Y-95617380D02*
X103774999Y-95617380D01*
X103774999Y-95617380D02*
X103774999Y-94617380D01*
X102394047Y-95522142D02*
X102441666Y-95569761D01*
X102441666Y-95569761D02*
X102584523Y-95617380D01*
X102584523Y-95617380D02*
X102679761Y-95617380D01*
X102679761Y-95617380D02*
X102822618Y-95569761D01*
X102822618Y-95569761D02*
X102917856Y-95474523D01*
X102917856Y-95474523D02*
X102965475Y-95379285D01*
X102965475Y-95379285D02*
X103013094Y-95188809D01*
X103013094Y-95188809D02*
X103013094Y-95045952D01*
X103013094Y-95045952D02*
X102965475Y-94855476D01*
X102965475Y-94855476D02*
X102917856Y-94760238D01*
X102917856Y-94760238D02*
X102822618Y-94665000D01*
X102822618Y-94665000D02*
X102679761Y-94617380D01*
X102679761Y-94617380D02*
X102584523Y-94617380D01*
X102584523Y-94617380D02*
X102441666Y-94665000D01*
X102441666Y-94665000D02*
X102394047Y-94712619D01*
X101679761Y-94617380D02*
X101679761Y-95331666D01*
X101679761Y-95331666D02*
X101727380Y-95474523D01*
X101727380Y-95474523D02*
X101822618Y-95569761D01*
X101822618Y-95569761D02*
X101965475Y-95617380D01*
X101965475Y-95617380D02*
X102060713Y-95617380D01*
X100727380Y-95617380D02*
X101203570Y-95617380D01*
X101203570Y-95617380D02*
X101203570Y-94617380D01*
X99822618Y-95522142D02*
X99870237Y-95569761D01*
X99870237Y-95569761D02*
X100013094Y-95617380D01*
X100013094Y-95617380D02*
X100108332Y-95617380D01*
X100108332Y-95617380D02*
X100251189Y-95569761D01*
X100251189Y-95569761D02*
X100346427Y-95474523D01*
X100346427Y-95474523D02*
X100394046Y-95379285D01*
X100394046Y-95379285D02*
X100441665Y-95188809D01*
X100441665Y-95188809D02*
X100441665Y-95045952D01*
X100441665Y-95045952D02*
X100394046Y-94855476D01*
X100394046Y-94855476D02*
X100346427Y-94760238D01*
X100346427Y-94760238D02*
X100251189Y-94665000D01*
X100251189Y-94665000D02*
X100108332Y-94617380D01*
X100108332Y-94617380D02*
X100013094Y-94617380D01*
X100013094Y-94617380D02*
X99870237Y-94665000D01*
X99870237Y-94665000D02*
X99822618Y-94712619D01*
D11*
X151570238Y-95984761D02*
X151570238Y-93984761D01*
X151570238Y-93984761D02*
X150903571Y-95413333D01*
X150903571Y-95413333D02*
X150236905Y-93984761D01*
X150236905Y-93984761D02*
X150236905Y-95984761D01*
X148998810Y-95984761D02*
X149189286Y-95889523D01*
X149189286Y-95889523D02*
X149284524Y-95794285D01*
X149284524Y-95794285D02*
X149379762Y-95603809D01*
X149379762Y-95603809D02*
X149379762Y-95032380D01*
X149379762Y-95032380D02*
X149284524Y-94841904D01*
X149284524Y-94841904D02*
X149189286Y-94746666D01*
X149189286Y-94746666D02*
X148998810Y-94651428D01*
X148998810Y-94651428D02*
X148713095Y-94651428D01*
X148713095Y-94651428D02*
X148522619Y-94746666D01*
X148522619Y-94746666D02*
X148427381Y-94841904D01*
X148427381Y-94841904D02*
X148332143Y-95032380D01*
X148332143Y-95032380D02*
X148332143Y-95603809D01*
X148332143Y-95603809D02*
X148427381Y-95794285D01*
X148427381Y-95794285D02*
X148522619Y-95889523D01*
X148522619Y-95889523D02*
X148713095Y-95984761D01*
X148713095Y-95984761D02*
X148998810Y-95984761D01*
X147475000Y-94651428D02*
X147475000Y-95984761D01*
X147475000Y-94841904D02*
X147379762Y-94746666D01*
X147379762Y-94746666D02*
X147189286Y-94651428D01*
X147189286Y-94651428D02*
X146903571Y-94651428D01*
X146903571Y-94651428D02*
X146713095Y-94746666D01*
X146713095Y-94746666D02*
X146617857Y-94937142D01*
X146617857Y-94937142D02*
X146617857Y-95984761D01*
X145379762Y-95984761D02*
X145570238Y-95889523D01*
X145570238Y-95889523D02*
X145665476Y-95794285D01*
X145665476Y-95794285D02*
X145760714Y-95603809D01*
X145760714Y-95603809D02*
X145760714Y-95032380D01*
X145760714Y-95032380D02*
X145665476Y-94841904D01*
X145665476Y-94841904D02*
X145570238Y-94746666D01*
X145570238Y-94746666D02*
X145379762Y-94651428D01*
X145379762Y-94651428D02*
X145094047Y-94651428D01*
X145094047Y-94651428D02*
X144903571Y-94746666D01*
X144903571Y-94746666D02*
X144808333Y-94841904D01*
X144808333Y-94841904D02*
X144713095Y-95032380D01*
X144713095Y-95032380D02*
X144713095Y-95603809D01*
X144713095Y-95603809D02*
X144808333Y-95794285D01*
X144808333Y-95794285D02*
X144903571Y-95889523D01*
X144903571Y-95889523D02*
X145094047Y-95984761D01*
X145094047Y-95984761D02*
X145379762Y-95984761D01*
X143855952Y-95984761D02*
X143855952Y-94651428D01*
X143855952Y-95032380D02*
X143760714Y-94841904D01*
X143760714Y-94841904D02*
X143665476Y-94746666D01*
X143665476Y-94746666D02*
X143475000Y-94651428D01*
X143475000Y-94651428D02*
X143284523Y-94651428D01*
X141760714Y-95984761D02*
X141760714Y-94937142D01*
X141760714Y-94937142D02*
X141855952Y-94746666D01*
X141855952Y-94746666D02*
X142046428Y-94651428D01*
X142046428Y-94651428D02*
X142427381Y-94651428D01*
X142427381Y-94651428D02*
X142617857Y-94746666D01*
X141760714Y-95889523D02*
X141951190Y-95984761D01*
X141951190Y-95984761D02*
X142427381Y-95984761D01*
X142427381Y-95984761D02*
X142617857Y-95889523D01*
X142617857Y-95889523D02*
X142713095Y-95699047D01*
X142713095Y-95699047D02*
X142713095Y-95508571D01*
X142713095Y-95508571D02*
X142617857Y-95318095D01*
X142617857Y-95318095D02*
X142427381Y-95222857D01*
X142427381Y-95222857D02*
X141951190Y-95222857D01*
X141951190Y-95222857D02*
X141760714Y-95127619D01*
X140808333Y-95984761D02*
X140808333Y-94651428D01*
X140808333Y-93984761D02*
X140903571Y-94080000D01*
X140903571Y-94080000D02*
X140808333Y-94175238D01*
X140808333Y-94175238D02*
X140713095Y-94080000D01*
X140713095Y-94080000D02*
X140808333Y-93984761D01*
X140808333Y-93984761D02*
X140808333Y-94175238D01*
X139570238Y-95984761D02*
X139760714Y-95889523D01*
X139760714Y-95889523D02*
X139855952Y-95699047D01*
X139855952Y-95699047D02*
X139855952Y-93984761D01*
X137036904Y-93984761D02*
X137036904Y-95413333D01*
X137036904Y-95413333D02*
X137132143Y-95699047D01*
X137132143Y-95699047D02*
X137322619Y-95889523D01*
X137322619Y-95889523D02*
X137608333Y-95984761D01*
X137608333Y-95984761D02*
X137798809Y-95984761D01*
X135322618Y-95889523D02*
X135513094Y-95984761D01*
X135513094Y-95984761D02*
X135894047Y-95984761D01*
X135894047Y-95984761D02*
X136084523Y-95889523D01*
X136084523Y-95889523D02*
X136179761Y-95699047D01*
X136179761Y-95699047D02*
X136179761Y-94937142D01*
X136179761Y-94937142D02*
X136084523Y-94746666D01*
X136084523Y-94746666D02*
X135894047Y-94651428D01*
X135894047Y-94651428D02*
X135513094Y-94651428D01*
X135513094Y-94651428D02*
X135322618Y-94746666D01*
X135322618Y-94746666D02*
X135227380Y-94937142D01*
X135227380Y-94937142D02*
X135227380Y-95127619D01*
X135227380Y-95127619D02*
X136179761Y-95318095D01*
X134655951Y-94651428D02*
X133894047Y-94651428D01*
X134370237Y-93984761D02*
X134370237Y-95699047D01*
X134370237Y-95699047D02*
X134274999Y-95889523D01*
X134274999Y-95889523D02*
X134084523Y-95984761D01*
X134084523Y-95984761D02*
X133894047Y-95984761D01*
M02*
