%TF.GenerationSoftware,KiCad,Pcbnew,(7.0.0)*%
%TF.CreationDate,2023-05-06T02:11:09-05:00*%
%TF.ProjectId,Hull_V4N_Tray_Plate,48756c6c-5f56-4344-9e5f-547261795f50,rev?*%
%TF.SameCoordinates,Original*%
%TF.FileFunction,Soldermask,Top*%
%TF.FilePolarity,Negative*%
%FSLAX46Y46*%
G04 Gerber Fmt 4.6, Leading zero omitted, Abs format (unit mm)*
G04 Created by KiCad (PCBNEW (7.0.0)) date 2023-05-06 02:11:09*
%MOMM*%
%LPD*%
G01*
G04 APERTURE LIST*
%ADD10C,0.500000*%
%ADD11C,5.500000*%
G04 APERTURE END LIST*
D10*
%TO.C,REF\u002A\u002A*%
X56887500Y-58154015D03*
X57627500Y-58154015D03*
X58367500Y-58154015D03*
X59107500Y-58154015D03*
X59847500Y-58154015D03*
X60587500Y-58154015D03*
%TD*%
%TO.C,REF\u002A\u002A*%
X75937500Y-58154015D03*
X76677500Y-58154015D03*
X77417500Y-58154015D03*
X78157500Y-58154015D03*
X78897500Y-58154015D03*
X79637500Y-58154015D03*
%TD*%
%TO.C,REF\u002A\u002A*%
X114037500Y-58154015D03*
X114777500Y-58154015D03*
X115517500Y-58154015D03*
X116257500Y-58154015D03*
X116997500Y-58154015D03*
X117737500Y-58154015D03*
%TD*%
%TO.C,REF\u002A\u002A*%
X94987500Y-58154015D03*
X95727500Y-58154015D03*
X96467500Y-58154015D03*
X97207500Y-58154015D03*
X97947500Y-58154015D03*
X98687500Y-58154015D03*
%TD*%
%TO.C,REF\u002A\u002A*%
X133087500Y-58154015D03*
X133827500Y-58154015D03*
X134567500Y-58154015D03*
X135307500Y-58154015D03*
X136047500Y-58154015D03*
X136787500Y-58154015D03*
%TD*%
%TO.C,REF\u002A\u002A*%
X37837500Y-58154015D03*
X40797500Y-58154015D03*
X38577500Y-58154015D03*
X40057500Y-58154015D03*
X39317500Y-58154015D03*
X41537500Y-58154015D03*
%TD*%
%TO.C,REF\u002A\u002A*%
X263275000Y-129380000D03*
X263275000Y-130120000D03*
X263275000Y-128640000D03*
X263125000Y-130860000D03*
X262725000Y-131600000D03*
%TD*%
D11*
%TO.C,*%
X202974795Y-122700400D03*
%TD*%
%TO.C,*%
X52037503Y-76200501D03*
%TD*%
%TO.C,*%
X97387502Y-122500402D03*
%TD*%
%TO.C,*%
X231274795Y-73900499D03*
%TD*%
D10*
%TO.C,REF\u002A\u002A*%
X21437502Y-58900001D03*
X20887502Y-61120001D03*
X20887502Y-60380001D03*
X20887502Y-61860001D03*
X21037502Y-59640001D03*
%TD*%
D11*
%TO.C,*%
X158724796Y-95300501D03*
%TD*%
%TO.C,*%
X128237502Y-76200501D03*
%TD*%
%TO.C,*%
X50487503Y-110950400D03*
%TD*%
%TO.C,*%
X87312500Y-49212500D03*
%TD*%
D10*
%TO.C,REF\u002A\u002A*%
X20887501Y-129380000D03*
X20887501Y-128640000D03*
X20887501Y-130120000D03*
X21437501Y-131600000D03*
X21037501Y-130860000D03*
%TD*%
%TO.C,REF\u002A\u002A*%
X263275000Y-60380001D03*
X263275000Y-61120001D03*
X262725000Y-58900001D03*
X263275000Y-61860001D03*
X263125000Y-59640001D03*
%TD*%
M02*
